%TF.GenerationSoftware,KiCad,Pcbnew,8.0.0*%
%TF.CreationDate,2026-01-12T19:07:33+05:30*%
%TF.ProjectId,PICKit_Clone_KiCAD,5049434b-6974-45f4-936c-6f6e655f4b69,1.0*%
%TF.SameCoordinates,Original*%
%TF.FileFunction,Copper,L1,Top*%
%TF.FilePolarity,Positive*%
%FSLAX46Y46*%
G04 Gerber Fmt 4.6, Leading zero omitted, Abs format (unit mm)*
G04 Created by KiCad (PCBNEW 8.0.0) date 2026-01-12 19:07:33*
%MOMM*%
%LPD*%
G01*
G04 APERTURE LIST*
G04 Aperture macros list*
%AMRoundRect*
0 Rectangle with rounded corners*
0 $1 Rounding radius*
0 $2 $3 $4 $5 $6 $7 $8 $9 X,Y pos of 4 corners*
0 Add a 4 corners polygon primitive as box body*
4,1,4,$2,$3,$4,$5,$6,$7,$8,$9,$2,$3,0*
0 Add four circle primitives for the rounded corners*
1,1,$1+$1,$2,$3*
1,1,$1+$1,$4,$5*
1,1,$1+$1,$6,$7*
1,1,$1+$1,$8,$9*
0 Add four rect primitives between the rounded corners*
20,1,$1+$1,$2,$3,$4,$5,0*
20,1,$1+$1,$4,$5,$6,$7,0*
20,1,$1+$1,$6,$7,$8,$9,0*
20,1,$1+$1,$8,$9,$2,$3,0*%
G04 Aperture macros list end*
%TA.AperFunction,SMDPad,CuDef*%
%ADD10RoundRect,0.250000X-0.412500X-0.650000X0.412500X-0.650000X0.412500X0.650000X-0.412500X0.650000X0*%
%TD*%
%TA.AperFunction,SMDPad,CuDef*%
%ADD11RoundRect,0.250001X0.624999X-0.462499X0.624999X0.462499X-0.624999X0.462499X-0.624999X-0.462499X0*%
%TD*%
%TA.AperFunction,SMDPad,CuDef*%
%ADD12R,2.000000X4.500000*%
%TD*%
%TA.AperFunction,SMDPad,CuDef*%
%ADD13RoundRect,0.250000X1.000000X0.650000X-1.000000X0.650000X-1.000000X-0.650000X1.000000X-0.650000X0*%
%TD*%
%TA.AperFunction,SMDPad,CuDef*%
%ADD14RoundRect,0.250000X0.625000X-0.400000X0.625000X0.400000X-0.625000X0.400000X-0.625000X-0.400000X0*%
%TD*%
%TA.AperFunction,SMDPad,CuDef*%
%ADD15RoundRect,0.125000X0.125000X-0.825000X0.125000X0.825000X-0.125000X0.825000X-0.125000X-0.825000X0*%
%TD*%
%TA.AperFunction,SMDPad,CuDef*%
%ADD16RoundRect,0.250000X-0.650000X0.412500X-0.650000X-0.412500X0.650000X-0.412500X0.650000X0.412500X0*%
%TD*%
%TA.AperFunction,SMDPad,CuDef*%
%ADD17RoundRect,0.250000X-0.625000X0.400000X-0.625000X-0.400000X0.625000X-0.400000X0.625000X0.400000X0*%
%TD*%
%TA.AperFunction,SMDPad,CuDef*%
%ADD18RoundRect,0.375000X0.375000X-0.625000X0.375000X0.625000X-0.375000X0.625000X-0.375000X-0.625000X0*%
%TD*%
%TA.AperFunction,SMDPad,CuDef*%
%ADD19RoundRect,0.500000X1.400000X-0.500000X1.400000X0.500000X-1.400000X0.500000X-1.400000X-0.500000X0*%
%TD*%
%TA.AperFunction,SMDPad,CuDef*%
%ADD20R,0.600000X1.240000*%
%TD*%
%TA.AperFunction,SMDPad,CuDef*%
%ADD21R,0.300000X1.240000*%
%TD*%
%TA.AperFunction,ComponentPad*%
%ADD22O,1.000000X1.800000*%
%TD*%
%TA.AperFunction,ComponentPad*%
%ADD23O,1.000000X2.100000*%
%TD*%
%TA.AperFunction,ComponentPad*%
%ADD24R,1.700000X1.700000*%
%TD*%
%TA.AperFunction,ComponentPad*%
%ADD25O,1.700000X1.700000*%
%TD*%
%TA.AperFunction,SMDPad,CuDef*%
%ADD26RoundRect,0.250001X-0.624999X0.462499X-0.624999X-0.462499X0.624999X-0.462499X0.624999X0.462499X0*%
%TD*%
%TA.AperFunction,SMDPad,CuDef*%
%ADD27RoundRect,0.250000X0.650000X-0.412500X0.650000X0.412500X-0.650000X0.412500X-0.650000X-0.412500X0*%
%TD*%
%TA.AperFunction,ViaPad*%
%ADD28C,0.600000*%
%TD*%
%TA.AperFunction,ViaPad*%
%ADD29C,0.400000*%
%TD*%
%TA.AperFunction,Conductor*%
%ADD30C,0.400000*%
%TD*%
%TA.AperFunction,Conductor*%
%ADD31C,0.300000*%
%TD*%
%TA.AperFunction,Conductor*%
%ADD32C,0.200000*%
%TD*%
G04 APERTURE END LIST*
D10*
%TO.P,C6,1*%
%TO.N,GND*%
X136127500Y-78580000D03*
%TO.P,C6,2*%
%TO.N,Net-(U1-RA4{slash}IOCA3{slash}AN3{slash}OSC2{slash}CLKOUT)*%
X139252500Y-78580000D03*
%TD*%
D11*
%TO.P,D2,1,K*%
%TO.N,Net-(D2-K)*%
X152189999Y-102157500D03*
%TO.P,D2,2,A*%
%TO.N,/STBY*%
X152190001Y-99182500D03*
%TD*%
D12*
%TO.P,Y1,1,1*%
%TO.N,Net-(U1-RA5{slash}IOCA5{slash}OSC1{slash}CLKIN)*%
X137780000Y-91280000D03*
%TO.P,Y1,2,2*%
%TO.N,Net-(U1-RA4{slash}IOCA3{slash}AN3{slash}OSC2{slash}CLKOUT)*%
X137780000Y-82780000D03*
%TD*%
D13*
%TO.P,D5,1,K*%
%TO.N,/VIN*%
X155651050Y-79425584D03*
%TO.P,D5,2,A*%
%TO.N,/VBUS*%
X151651050Y-79425584D03*
%TD*%
D14*
%TO.P,R7,1*%
%TO.N,Net-(D2-K)*%
X154670000Y-102250000D03*
%TO.P,R7,2*%
%TO.N,GND*%
X154670000Y-99150000D03*
%TD*%
%TO.P,R8,1*%
%TO.N,Net-(D3-K)*%
X148600000Y-102320000D03*
%TO.P,R8,2*%
%TO.N,GND*%
X148600000Y-99220000D03*
%TD*%
D15*
%TO.P,U1,1,VDD*%
%TO.N,/5V*%
X142795001Y-91360000D03*
%TO.P,U1,2,RA5/IOCA5/OSC1/CLKIN*%
%TO.N,Net-(U1-RA5{slash}IOCA5{slash}OSC1{slash}CLKIN)*%
X143445000Y-91360000D03*
%TO.P,U1,3,RA4/IOCA3/AN3/OSC2/CLKOUT*%
%TO.N,Net-(U1-RA4{slash}IOCA3{slash}AN3{slash}OSC2{slash}CLKOUT)*%
X144094999Y-91360001D03*
%TO.P,U1,4,RA3/IOCA3/~{MCLR}/Vpp*%
%TO.N,unconnected-(U1-RA3{slash}IOCA3{slash}~{MCLR}{slash}Vpp-Pad4)*%
X144744999Y-91359999D03*
%TO.P,U1,5,T0CKI/CCP1/P1A/RC5*%
%TO.N,/STBY*%
X145395000Y-91360000D03*
%TO.P,U1,6,SRQ/C12OUT/P1B/RC4*%
%TO.N,/PGRM*%
X146045000Y-91360000D03*
%TO.P,U1,7,PGM/C12IN3-/P1C/AN7/RC3*%
%TO.N,/PGD*%
X146694999Y-91359999D03*
%TO.P,U1,8,T1OSCI/T13CKI/SS/AN8/RC6*%
%TO.N,/PGC*%
X147345000Y-91360000D03*
%TO.P,U1,9,T1OSCO/SDO/AN9/RC7*%
%TO.N,/MCLR_SIG*%
X147995000Y-91360000D03*
%TO.P,U1,10,RB7/IOCB7/TX/CK*%
%TO.N,unconnected-(U1-RB7{slash}IOCB7{slash}TX{slash}CK-Pad10)*%
X148645001Y-91360001D03*
%TO.P,U1,11,RB6/IOCB6/SCK/SCL*%
%TO.N,unconnected-(U1-RB6{slash}IOCB6{slash}SCK{slash}SCL-Pad11)*%
X148644999Y-84360000D03*
%TO.P,U1,12,RB5/IOCB5/AN11/RX/DT*%
%TO.N,unconnected-(U1-RB5{slash}IOCB5{slash}AN11{slash}RX{slash}DT-Pad12)*%
X147995000Y-84360000D03*
%TO.P,U1,13,RB4/IOCB4/AN10/SDI/SDA*%
%TO.N,unconnected-(U1-RB4{slash}IOCB4{slash}AN10{slash}SDI{slash}SDA-Pad13)*%
X147345001Y-84359999D03*
%TO.P,U1,14,INT2/CVRef/C12IN2-/P1D/AN6/RC2*%
%TO.N,unconnected-(U1-INT2{slash}CVRef{slash}C12IN2-{slash}P1D{slash}AN6{slash}RC2-Pad14)*%
X146695001Y-84360001D03*
%TO.P,U1,15,INT1/C12IN1-/VREF-AN5/RC1*%
%TO.N,unconnected-(U1-INT1{slash}C12IN1-{slash}VREF-AN5{slash}RC1-Pad15)*%
X146045000Y-84360000D03*
%TO.P,U1,16,INT0/C12IN+/VREF+/AN4/RC0*%
%TO.N,unconnected-(U1-INT0{slash}C12IN+{slash}VREF+{slash}AN4{slash}RC0-Pad16)*%
X145395000Y-84360000D03*
%TO.P,U1,17,VUSB*%
%TO.N,/5V*%
X144745001Y-84360001D03*
%TO.P,U1,18,RA1/IOCA1/D-/PGC*%
%TO.N,/USB_DN*%
X144095000Y-84360000D03*
%TO.P,U1,19,RA0/IOCA0/D+/PGD*%
%TO.N,/USB_DP*%
X143445000Y-84360000D03*
%TO.P,U1,20,VSS*%
%TO.N,GND*%
X142794999Y-84359999D03*
%TD*%
D14*
%TO.P,R15,1*%
%TO.N,GND*%
X148400000Y-81570000D03*
%TO.P,R15,2*%
%TO.N,Net-(J1-CC1)*%
X148400000Y-78470000D03*
%TD*%
D16*
%TO.P,C4,1*%
%TO.N,/VIN*%
X156230003Y-91417498D03*
%TO.P,C4,2*%
%TO.N,GND*%
X156229997Y-94542502D03*
%TD*%
D17*
%TO.P,R6,1*%
%TO.N,Net-(D1-K)*%
X142240000Y-99262499D03*
%TO.P,R6,2*%
%TO.N,GND*%
X142240000Y-102362499D03*
%TD*%
D18*
%TO.P,U3,1,GND*%
%TO.N,GND*%
X151340000Y-88989999D03*
%TO.P,U3,2,VO*%
%TO.N,/5V*%
X153640000Y-88990000D03*
D19*
X153640000Y-82690000D03*
D18*
%TO.P,U3,3,VI*%
%TO.N,/VIN*%
X155939998Y-88990001D03*
%TD*%
D20*
%TO.P,J1,A1,GND*%
%TO.N,GND*%
X149200000Y-76225000D03*
%TO.P,J1,A4,VBUS*%
%TO.N,/VBUS*%
X148399998Y-76225000D03*
D21*
%TO.P,J1,A5,CC1*%
%TO.N,Net-(J1-CC1)*%
X147250001Y-76225002D03*
%TO.P,J1,A6,D+*%
%TO.N,/USB_DP*%
X146249998Y-76224998D03*
%TO.P,J1,A7,D-*%
%TO.N,/USB_DN*%
X145750000Y-76224998D03*
%TO.P,J1,A8,SBU1*%
%TO.N,unconnected-(J1-SBU1-PadA8)*%
X144750002Y-76225000D03*
D20*
%TO.P,J1,A9,VBUS*%
%TO.N,/VBUS*%
X143600002Y-76225000D03*
%TO.P,J1,A12,GND*%
%TO.N,GND*%
X142800000Y-76225000D03*
%TO.P,J1,B1,GND*%
X142800000Y-76225000D03*
%TO.P,J1,B4,VBUS*%
%TO.N,/VBUS*%
X143600002Y-76225000D03*
D21*
%TO.P,J1,B5,CC2*%
%TO.N,Net-(J1-CC2)*%
X144249998Y-76225001D03*
%TO.P,J1,B6,D+*%
%TO.N,/USB_DP*%
X145250000Y-76225000D03*
%TO.P,J1,B7,D-*%
%TO.N,/USB_DN*%
X146750002Y-76225001D03*
%TO.P,J1,B8,SBU2*%
%TO.N,unconnected-(J1-SBU2-PadB8)*%
X147750001Y-76224999D03*
D20*
%TO.P,J1,B9,VBUS*%
%TO.N,/VBUS*%
X148399998Y-76225000D03*
%TO.P,J1,B12,GND*%
%TO.N,GND*%
X149200000Y-76225000D03*
D22*
%TO.P,J1,S1,SHIELD*%
X150320001Y-71425000D03*
D23*
X150320000Y-75625000D03*
X141680000Y-75625000D03*
D22*
X141680000Y-71425000D03*
%TD*%
D14*
%TO.P,R14,1*%
%TO.N,GND*%
X142990000Y-81600000D03*
%TO.P,R14,2*%
%TO.N,Net-(J1-CC2)*%
X142990000Y-78500000D03*
%TD*%
D24*
%TO.P,J2,1,Pin_1*%
%TO.N,/PGD*%
X148425000Y-105855000D03*
D25*
%TO.P,J2,2,Pin_2*%
%TO.N,/PGC*%
X148424997Y-108395002D03*
%TO.P,J2,3,Pin_3*%
%TO.N,/MCLR*%
X145884998Y-105854997D03*
%TO.P,J2,4,Pin_4*%
%TO.N,/VIN*%
X145885000Y-108395000D03*
%TO.P,J2,5,Pin_5*%
%TO.N,GND*%
X143345000Y-105855000D03*
%TO.P,J2,6,Pin_6*%
%TO.N,/5V*%
X143345000Y-108395001D03*
%TD*%
D11*
%TO.P,D3,1,K*%
%TO.N,Net-(D3-K)*%
X146019999Y-102247500D03*
%TO.P,D3,2,A*%
%TO.N,/PGRM*%
X146020001Y-99272500D03*
%TD*%
D26*
%TO.P,D1,1,K*%
%TO.N,Net-(D1-K)*%
X139310000Y-99347499D03*
%TO.P,D1,2,A*%
%TO.N,/5V*%
X139310002Y-102322499D03*
%TD*%
D16*
%TO.P,C5,1*%
%TO.N,/5V*%
X153620000Y-91420000D03*
%TO.P,C5,2*%
%TO.N,GND*%
X153620002Y-94545002D03*
%TD*%
D27*
%TO.P,C7,1*%
%TO.N,GND*%
X136109999Y-98282501D03*
%TO.P,C7,2*%
%TO.N,Net-(U1-RA5{slash}IOCA5{slash}OSC1{slash}CLKIN)*%
X136110001Y-95157499D03*
%TD*%
D28*
%TO.N,GND*%
X148600000Y-99220000D03*
X136170000Y-78610000D03*
X136110000Y-98250000D03*
X142250000Y-102340000D03*
X154670000Y-99150000D03*
X153590000Y-94540000D03*
X142800000Y-76180000D03*
X142900000Y-79780000D03*
X155830000Y-77500000D03*
X148110000Y-81520000D03*
X151340000Y-88989999D03*
X150660000Y-81520000D03*
X135630000Y-82170000D03*
X151170000Y-93910000D03*
D29*
X142794999Y-84359999D03*
D28*
X156230000Y-94530000D03*
X149200000Y-76210000D03*
X144300000Y-88490000D03*
X135750000Y-96670000D03*
%TO.N,/MCLR_SIG*%
X149090000Y-94720000D03*
%TO.N,/5V*%
X139320000Y-102260000D03*
X154360000Y-82710000D03*
X155510000Y-86700000D03*
X149390000Y-86560000D03*
D29*
X144740000Y-84370000D03*
D28*
X153620000Y-91420000D03*
X153640000Y-88990000D03*
D29*
X142795001Y-91360000D03*
D28*
X141150000Y-96670000D03*
%TO.N,/12V*%
X152760000Y-84200000D03*
X154460000Y-84190000D03*
D29*
%TO.N,Net-(Q2-G)*%
X146190000Y-97670000D03*
X147990000Y-98030000D03*
%TD*%
D30*
%TO.N,GND*%
X142900000Y-79780000D02*
X142900000Y-81510000D01*
X142900000Y-81510000D02*
X142990000Y-81600000D01*
%TO.N,/MCLR_SIG*%
X147995000Y-93625000D02*
X149090000Y-94720000D01*
X147995000Y-91360000D02*
X147995000Y-93625000D01*
%TO.N,Net-(D3-K)*%
X148527500Y-102247500D02*
X148600000Y-102320000D01*
X146019999Y-102247500D02*
X148527500Y-102247500D01*
%TO.N,Net-(D2-K)*%
X152189999Y-102157500D02*
X154577500Y-102157500D01*
X154577500Y-102157500D02*
X154670000Y-102250000D01*
%TO.N,Net-(D1-K)*%
X142155000Y-99347499D02*
X142240000Y-99262499D01*
X139310000Y-99347499D02*
X142155000Y-99347499D01*
%TO.N,/12V*%
X154450000Y-84200000D02*
X154460000Y-84190000D01*
X152760000Y-84200000D02*
X154450000Y-84200000D01*
%TO.N,Net-(Q2-G)*%
X147630000Y-97670000D02*
X147990000Y-98030000D01*
X146190000Y-97670000D02*
X147630000Y-97670000D01*
D31*
%TO.N,Net-(J1-CC2)*%
X143785002Y-77560000D02*
X143220000Y-77560000D01*
X142990000Y-78500000D02*
X142990000Y-77790000D01*
X142990000Y-77790000D02*
X143220000Y-77560000D01*
X144249998Y-77095004D02*
X143785002Y-77560000D01*
X144249998Y-76225001D02*
X144249998Y-77095004D01*
%TO.N,Net-(J1-CC1)*%
X147250001Y-76225002D02*
X147250001Y-77094999D01*
X148400000Y-78244998D02*
X148400000Y-78470000D01*
X147250001Y-77094999D02*
X148400000Y-78244998D01*
D30*
%TO.N,/VIN*%
X145885000Y-109745000D02*
X146280000Y-110140000D01*
X157315584Y-79425584D02*
X155651050Y-79425584D01*
X152880000Y-106360000D02*
X153840000Y-105400000D01*
X157710000Y-79820000D02*
X157315584Y-79425584D01*
X156280000Y-80054534D02*
X156280000Y-88649999D01*
X153840000Y-105400000D02*
X156580000Y-105400000D01*
X155651050Y-79425584D02*
X156280000Y-80054534D01*
X156580000Y-105400000D02*
X157710000Y-104270000D01*
X152170000Y-110140000D02*
X152880000Y-109430000D01*
X145885000Y-108395000D02*
X145885000Y-109745000D01*
X157710000Y-104270000D02*
X157710000Y-79820000D01*
X155939998Y-91127493D02*
X156230003Y-91417498D01*
X156280000Y-88649999D02*
X155939998Y-88990001D01*
X146280000Y-110140000D02*
X152170000Y-110140000D01*
X152880000Y-109430000D02*
X152880000Y-106360000D01*
X155939998Y-88990001D02*
X155939998Y-91127493D01*
%TO.N,/PGD*%
X146694999Y-91359999D02*
X146694999Y-94384999D01*
X150140000Y-97830000D02*
X150140000Y-104140000D01*
X146694999Y-94384999D02*
X150140000Y-97830000D01*
X150140000Y-104140000D02*
X148425000Y-105855000D01*
D32*
%TO.N,/USB_DN*%
X145725000Y-77280000D02*
X145725000Y-77720000D01*
X145725000Y-76249998D02*
X145725000Y-77280000D01*
X146285000Y-78040000D02*
X146285000Y-78120000D01*
X146750002Y-76225001D02*
X146750002Y-77094994D01*
X146750002Y-77094994D02*
X146699998Y-77144998D01*
X145750000Y-76224998D02*
X145725000Y-76249998D01*
X146125000Y-78280000D02*
X145885000Y-78280000D01*
X145885000Y-77880000D02*
X146125000Y-77880000D01*
X145725000Y-81825496D02*
X144095000Y-83455496D01*
X144095000Y-83455496D02*
X144095000Y-84360000D01*
X145725000Y-79290000D02*
X145725000Y-81825496D01*
X146699998Y-77144998D02*
X145860002Y-77144998D01*
X145725000Y-78440000D02*
X145725000Y-78520000D01*
X145725000Y-78520000D02*
X145725000Y-79290000D01*
X145860002Y-77144998D02*
X145725000Y-77280000D01*
X146285000Y-78120000D02*
G75*
G02*
X146125000Y-78280000I-160000J0D01*
G01*
X145885000Y-78280000D02*
G75*
G03*
X145725000Y-78440000I0J-160000D01*
G01*
X146125000Y-77880000D02*
G75*
G02*
X146285000Y-78040000I0J-160000D01*
G01*
X145725000Y-77720000D02*
G75*
G03*
X145885000Y-77880000I160000J0D01*
G01*
D30*
%TO.N,Net-(U1-RA5{slash}IOCA5{slash}OSC1{slash}CLKIN)*%
X137780000Y-94540000D02*
X137162501Y-95157499D01*
X142870000Y-89820000D02*
X139240000Y-89820000D01*
X139240000Y-89820000D02*
X137780000Y-91280000D01*
X143445000Y-91360000D02*
X143445000Y-90395000D01*
X143445000Y-90395000D02*
X142870000Y-89820000D01*
X137780000Y-91280000D02*
X137780000Y-94540000D01*
X137162501Y-95157499D02*
X136110001Y-95157499D01*
%TO.N,/STBY*%
X148890000Y-89880000D02*
X149330000Y-90320000D01*
X145750000Y-89880000D02*
X148890000Y-89880000D01*
X149330000Y-90320000D02*
X149330000Y-93790000D01*
X145395000Y-90235000D02*
X145750000Y-89880000D01*
X152190001Y-96650001D02*
X152190001Y-99182500D01*
X149330000Y-93790000D02*
X152190001Y-96650001D01*
X145395000Y-91360000D02*
X145395000Y-90235000D01*
%TO.N,/PGC*%
X147345000Y-94186472D02*
X150740000Y-97581472D01*
X150740000Y-106079999D02*
X148424997Y-108395002D01*
X147345000Y-91360000D02*
X147345000Y-94186472D01*
X150740000Y-97581472D02*
X150740000Y-106079999D01*
%TO.N,Net-(U1-RA4{slash}IOCA3{slash}AN3{slash}OSC2{slash}CLKOUT)*%
X144094999Y-91360001D02*
X144094999Y-90410002D01*
X144094999Y-90410002D02*
X139774997Y-86090000D01*
X137780000Y-79150000D02*
X137780000Y-82780000D01*
X139774997Y-86090000D02*
X138290000Y-86090000D01*
X139252500Y-78580000D02*
X138350000Y-78580000D01*
X138350000Y-78580000D02*
X137780000Y-79150000D01*
X137780000Y-85580000D02*
X138290000Y-86090000D01*
X137780000Y-82780000D02*
X137780000Y-85580000D01*
%TO.N,/PGRM*%
X145460000Y-92990926D02*
X145460000Y-98712499D01*
X145460000Y-98712499D02*
X146020001Y-99272500D01*
X146045000Y-92405926D02*
X145460000Y-92990926D01*
X146045000Y-91360000D02*
X146045000Y-92405926D01*
D32*
%TO.N,/USB_DP*%
X145250000Y-76225000D02*
X145250000Y-75354998D01*
X146249998Y-75354996D02*
X146249998Y-76224998D01*
X146200000Y-75304998D02*
X146249998Y-75354996D01*
X145250000Y-76225000D02*
X145274998Y-76249998D01*
X145274998Y-76249998D02*
X145274998Y-81625496D01*
X145250000Y-75354998D02*
X145300000Y-75304998D01*
X143445000Y-83455494D02*
X143445000Y-84360000D01*
X145300000Y-75304998D02*
X146200000Y-75304998D01*
X145274998Y-81625496D02*
X143445000Y-83455494D01*
D30*
%TO.N,/VBUS*%
X148399998Y-77039998D02*
X148760000Y-77400000D01*
X148760000Y-77400000D02*
X150780000Y-77400000D01*
X148399998Y-76225000D02*
X148399998Y-77039998D01*
X151651050Y-78271050D02*
X151651050Y-79425584D01*
X144380000Y-74790000D02*
X143600002Y-75569998D01*
X147610000Y-74790000D02*
X144380000Y-74790000D01*
X148399998Y-76225000D02*
X148399998Y-75579998D01*
X143600002Y-76225000D02*
X143600002Y-75569998D01*
X150780000Y-77400000D02*
X151651050Y-78271050D01*
X148399998Y-75579998D02*
X147610000Y-74790000D01*
%TD*%
M02*
