%TF.GenerationSoftware,KiCad,Pcbnew,8.0.0*%
%TF.CreationDate,2026-01-12T19:07:33+05:30*%
%TF.ProjectId,PICKit_Clone_KiCAD,5049434b-6974-45f4-936c-6f6e655f4b69,1.0*%
%TF.SameCoordinates,Original*%
%TF.FileFunction,Copper,L3,Inr*%
%TF.FilePolarity,Positive*%
%FSLAX46Y46*%
G04 Gerber Fmt 4.6, Leading zero omitted, Abs format (unit mm)*
G04 Created by KiCad (PCBNEW 8.0.0) date 2026-01-12 19:07:33*
%MOMM*%
%LPD*%
G01*
G04 APERTURE LIST*
%TA.AperFunction,ComponentPad*%
%ADD10O,1.000000X1.800000*%
%TD*%
%TA.AperFunction,ComponentPad*%
%ADD11O,1.000000X2.100000*%
%TD*%
%TA.AperFunction,ComponentPad*%
%ADD12R,1.700000X1.700000*%
%TD*%
%TA.AperFunction,ComponentPad*%
%ADD13O,1.700000X1.700000*%
%TD*%
%TA.AperFunction,ViaPad*%
%ADD14C,0.600000*%
%TD*%
%TA.AperFunction,ViaPad*%
%ADD15C,0.400000*%
%TD*%
G04 APERTURE END LIST*
D10*
%TO.N,GND*%
%TO.C,J1*%
X150320001Y-71425000D03*
D11*
X150320000Y-75625000D03*
X141680000Y-75625000D03*
D10*
X141680000Y-71425000D03*
%TD*%
D12*
%TO.N,/PGD*%
%TO.C,J2*%
X148425000Y-105855000D03*
D13*
%TO.N,/PGC*%
X148424997Y-108395002D03*
%TO.N,/MCLR*%
X145884998Y-105854997D03*
%TO.N,/VIN*%
X145885000Y-108395000D03*
%TO.N,GND*%
X143345000Y-105855000D03*
%TO.N,/5V*%
X143345000Y-108395001D03*
%TD*%
D14*
%TO.N,GND*%
X148600000Y-99220000D03*
X136170000Y-78610000D03*
X136110000Y-98250000D03*
X142250000Y-102340000D03*
X154670000Y-99150000D03*
X153590000Y-94540000D03*
X142800000Y-76180000D03*
X142900000Y-79780000D03*
X155830000Y-77500000D03*
X148110000Y-81520000D03*
X151340000Y-88989999D03*
X150660000Y-81520000D03*
X135630000Y-82170000D03*
X151170000Y-93910000D03*
D15*
X142794999Y-84359999D03*
D14*
X156230000Y-94530000D03*
X149200000Y-76210000D03*
X144300000Y-88490000D03*
X135750000Y-96670000D03*
%TO.N,/MCLR_SIG*%
X149090000Y-94720000D03*
%TO.N,/5V*%
X139320000Y-102260000D03*
X154360000Y-82710000D03*
X155510000Y-86700000D03*
X149390000Y-86560000D03*
D15*
X144740000Y-84370000D03*
D14*
X153620000Y-91420000D03*
X153640000Y-88990000D03*
D15*
X142795001Y-91360000D03*
D14*
X141150000Y-96670000D03*
%TO.N,/12V*%
X152760000Y-84200000D03*
X154460000Y-84190000D03*
D15*
%TO.N,Net-(Q2-G)*%
X146190000Y-97670000D03*
X147990000Y-98030000D03*
%TD*%
%TA.AperFunction,Conductor*%
%TO.N,/5V*%
G36*
X140966380Y-70520185D02*
G01*
X141012135Y-70572989D01*
X141022079Y-70642147D01*
X141013902Y-70671953D01*
X140958342Y-70806086D01*
X140958340Y-70806092D01*
X140929500Y-70951079D01*
X140929500Y-70951082D01*
X140929500Y-71898918D01*
X140929500Y-71898920D01*
X140929499Y-71898920D01*
X140958340Y-72043907D01*
X140958343Y-72043917D01*
X141014912Y-72180488D01*
X141014919Y-72180501D01*
X141097048Y-72303415D01*
X141097051Y-72303419D01*
X141201580Y-72407948D01*
X141201584Y-72407951D01*
X141324498Y-72490080D01*
X141324511Y-72490087D01*
X141461082Y-72546656D01*
X141461087Y-72546658D01*
X141461091Y-72546658D01*
X141461092Y-72546659D01*
X141606079Y-72575500D01*
X141606082Y-72575500D01*
X141753920Y-72575500D01*
X141851462Y-72556096D01*
X141898913Y-72546658D01*
X142035495Y-72490084D01*
X142158416Y-72407951D01*
X142262951Y-72303416D01*
X142345084Y-72180495D01*
X142401658Y-72043913D01*
X142430500Y-71898918D01*
X142430500Y-70951082D01*
X142430500Y-70951079D01*
X142401659Y-70806092D01*
X142401658Y-70806091D01*
X142401658Y-70806087D01*
X142346098Y-70671953D01*
X142338629Y-70602483D01*
X142369904Y-70540004D01*
X142429993Y-70504352D01*
X142460659Y-70500500D01*
X149539342Y-70500500D01*
X149606381Y-70520185D01*
X149652136Y-70572989D01*
X149662080Y-70642147D01*
X149653903Y-70671953D01*
X149598343Y-70806086D01*
X149598341Y-70806092D01*
X149569501Y-70951079D01*
X149569501Y-70951082D01*
X149569501Y-71898918D01*
X149569501Y-71898920D01*
X149569500Y-71898920D01*
X149598341Y-72043907D01*
X149598344Y-72043917D01*
X149654913Y-72180488D01*
X149654920Y-72180501D01*
X149737049Y-72303415D01*
X149737052Y-72303419D01*
X149841581Y-72407948D01*
X149841585Y-72407951D01*
X149964499Y-72490080D01*
X149964512Y-72490087D01*
X150101083Y-72546656D01*
X150101088Y-72546658D01*
X150101092Y-72546658D01*
X150101093Y-72546659D01*
X150246080Y-72575500D01*
X150246083Y-72575500D01*
X150393921Y-72575500D01*
X150491463Y-72556096D01*
X150538914Y-72546658D01*
X150675496Y-72490084D01*
X150798417Y-72407951D01*
X150902952Y-72303416D01*
X150985085Y-72180495D01*
X151041659Y-72043913D01*
X151070501Y-71898918D01*
X151070501Y-70951082D01*
X151070501Y-70951079D01*
X151041660Y-70806092D01*
X151041659Y-70806091D01*
X151041659Y-70806087D01*
X150986099Y-70671953D01*
X150978630Y-70602483D01*
X151009905Y-70540004D01*
X151069994Y-70504352D01*
X151100660Y-70500500D01*
X151691390Y-70500500D01*
X151758429Y-70520185D01*
X151789889Y-70549175D01*
X157974000Y-78636089D01*
X157999087Y-78701299D01*
X157999500Y-78711412D01*
X157999500Y-108273899D01*
X157979815Y-108340938D01*
X157970759Y-108353282D01*
X155802759Y-110954883D01*
X155744720Y-110993782D01*
X155707500Y-110999500D01*
X136292498Y-110999500D01*
X136225459Y-110979815D01*
X136197239Y-110954884D01*
X136197238Y-110954883D01*
X134981069Y-109495502D01*
X134029241Y-108353325D01*
X134001445Y-108289222D01*
X134000500Y-108273941D01*
X134000500Y-107606286D01*
X135649500Y-107606286D01*
X135682268Y-107813179D01*
X135682754Y-107816243D01*
X135741080Y-107995752D01*
X135748444Y-108018414D01*
X135844951Y-108207820D01*
X135969890Y-108379786D01*
X136120213Y-108530109D01*
X136292179Y-108655048D01*
X136292181Y-108655049D01*
X136292184Y-108655051D01*
X136481588Y-108751557D01*
X136683757Y-108817246D01*
X136893713Y-108850500D01*
X136893714Y-108850500D01*
X137106286Y-108850500D01*
X137106287Y-108850500D01*
X137316243Y-108817246D01*
X137518412Y-108751557D01*
X137707816Y-108655051D01*
X137773118Y-108607607D01*
X137879786Y-108530109D01*
X137879788Y-108530106D01*
X137879792Y-108530104D01*
X138014896Y-108395000D01*
X144779785Y-108395000D01*
X144798602Y-108598082D01*
X144854417Y-108794247D01*
X144854422Y-108794260D01*
X144945327Y-108976821D01*
X145068237Y-109139581D01*
X145218958Y-109276980D01*
X145218960Y-109276982D01*
X145318141Y-109338392D01*
X145392363Y-109384348D01*
X145582544Y-109458024D01*
X145783024Y-109495500D01*
X145783026Y-109495500D01*
X145986974Y-109495500D01*
X145986976Y-109495500D01*
X146187456Y-109458024D01*
X146377637Y-109384348D01*
X146551041Y-109276981D01*
X146701764Y-109139579D01*
X146824673Y-108976821D01*
X146915582Y-108794250D01*
X146971397Y-108598083D01*
X146990215Y-108395002D01*
X147319782Y-108395002D01*
X147338599Y-108598084D01*
X147394414Y-108794249D01*
X147394419Y-108794262D01*
X147485324Y-108976823D01*
X147608234Y-109139583D01*
X147758955Y-109276982D01*
X147758957Y-109276984D01*
X147858138Y-109338394D01*
X147932360Y-109384350D01*
X148122541Y-109458026D01*
X148323021Y-109495502D01*
X148323023Y-109495502D01*
X148526971Y-109495502D01*
X148526973Y-109495502D01*
X148727453Y-109458026D01*
X148917634Y-109384350D01*
X149091038Y-109276983D01*
X149241761Y-109139581D01*
X149364670Y-108976823D01*
X149455579Y-108794252D01*
X149511394Y-108598085D01*
X149530212Y-108395002D01*
X149511394Y-108191919D01*
X149455579Y-107995752D01*
X149364670Y-107813181D01*
X149241761Y-107650423D01*
X149241759Y-107650420D01*
X149193346Y-107606286D01*
X153649500Y-107606286D01*
X153682268Y-107813179D01*
X153682754Y-107816243D01*
X153741080Y-107995752D01*
X153748444Y-108018414D01*
X153844951Y-108207820D01*
X153969890Y-108379786D01*
X154120213Y-108530109D01*
X154292179Y-108655048D01*
X154292181Y-108655049D01*
X154292184Y-108655051D01*
X154481588Y-108751557D01*
X154683757Y-108817246D01*
X154893713Y-108850500D01*
X154893714Y-108850500D01*
X155106286Y-108850500D01*
X155106287Y-108850500D01*
X155316243Y-108817246D01*
X155518412Y-108751557D01*
X155707816Y-108655051D01*
X155773118Y-108607607D01*
X155879786Y-108530109D01*
X155879788Y-108530106D01*
X155879792Y-108530104D01*
X156030104Y-108379792D01*
X156030106Y-108379788D01*
X156030109Y-108379786D01*
X156155048Y-108207820D01*
X156155047Y-108207820D01*
X156155051Y-108207816D01*
X156251557Y-108018412D01*
X156317246Y-107816243D01*
X156350500Y-107606287D01*
X156350500Y-107393713D01*
X156317246Y-107183757D01*
X156251557Y-106981588D01*
X156155051Y-106792184D01*
X156155049Y-106792181D01*
X156155048Y-106792179D01*
X156030109Y-106620213D01*
X155879786Y-106469890D01*
X155707820Y-106344951D01*
X155518414Y-106248444D01*
X155518413Y-106248443D01*
X155518412Y-106248443D01*
X155316243Y-106182754D01*
X155316241Y-106182753D01*
X155316240Y-106182753D01*
X155154957Y-106157208D01*
X155106287Y-106149500D01*
X154893713Y-106149500D01*
X154845042Y-106157208D01*
X154683760Y-106182753D01*
X154481585Y-106248444D01*
X154292179Y-106344951D01*
X154120213Y-106469890D01*
X153969890Y-106620213D01*
X153844951Y-106792179D01*
X153748444Y-106981585D01*
X153682753Y-107183760D01*
X153649500Y-107393713D01*
X153649500Y-107606286D01*
X149193346Y-107606286D01*
X149091038Y-107513021D01*
X149091036Y-107513019D01*
X148917639Y-107405657D01*
X148917636Y-107405655D01*
X148917634Y-107405654D01*
X148917633Y-107405653D01*
X148917632Y-107405653D01*
X148822543Y-107368816D01*
X148727453Y-107331978D01*
X148526973Y-107294502D01*
X148323021Y-107294502D01*
X148122541Y-107331978D01*
X148122538Y-107331978D01*
X148122538Y-107331979D01*
X147932361Y-107405653D01*
X147932354Y-107405657D01*
X147758957Y-107513019D01*
X147758955Y-107513021D01*
X147608234Y-107650420D01*
X147485324Y-107813180D01*
X147394419Y-107995741D01*
X147394414Y-107995754D01*
X147338599Y-108191919D01*
X147319782Y-108395001D01*
X147319782Y-108395002D01*
X146990215Y-108395002D01*
X146990215Y-108395000D01*
X146978997Y-108273941D01*
X146971397Y-108191917D01*
X146915582Y-107995750D01*
X146824673Y-107813179D01*
X146701764Y-107650421D01*
X146701762Y-107650418D01*
X146551041Y-107513019D01*
X146551039Y-107513017D01*
X146377642Y-107405655D01*
X146377639Y-107405653D01*
X146377637Y-107405652D01*
X146377636Y-107405651D01*
X146377635Y-107405651D01*
X146282546Y-107368814D01*
X146187456Y-107331976D01*
X145986976Y-107294500D01*
X145783024Y-107294500D01*
X145582544Y-107331976D01*
X145582541Y-107331976D01*
X145582541Y-107331977D01*
X145392364Y-107405651D01*
X145392357Y-107405655D01*
X145218960Y-107513017D01*
X145218958Y-107513019D01*
X145068237Y-107650418D01*
X144945327Y-107813178D01*
X144854422Y-107995739D01*
X144854417Y-107995752D01*
X144798602Y-108191917D01*
X144779785Y-108394999D01*
X144779785Y-108395000D01*
X138014896Y-108395000D01*
X138030104Y-108379792D01*
X138030106Y-108379788D01*
X138030109Y-108379786D01*
X138155048Y-108207820D01*
X138155047Y-108207820D01*
X138155051Y-108207816D01*
X138251557Y-108018412D01*
X138317246Y-107816243D01*
X138350500Y-107606287D01*
X138350500Y-107393713D01*
X138317246Y-107183757D01*
X138251557Y-106981588D01*
X138155051Y-106792184D01*
X138155049Y-106792181D01*
X138155048Y-106792179D01*
X138030109Y-106620213D01*
X137879786Y-106469890D01*
X137707820Y-106344951D01*
X137518414Y-106248444D01*
X137518413Y-106248443D01*
X137518412Y-106248443D01*
X137316243Y-106182754D01*
X137316241Y-106182753D01*
X137316240Y-106182753D01*
X137154957Y-106157208D01*
X137106287Y-106149500D01*
X136893713Y-106149500D01*
X136845042Y-106157208D01*
X136683760Y-106182753D01*
X136481585Y-106248444D01*
X136292179Y-106344951D01*
X136120213Y-106469890D01*
X135969890Y-106620213D01*
X135844951Y-106792179D01*
X135748444Y-106981585D01*
X135682753Y-107183760D01*
X135649500Y-107393713D01*
X135649500Y-107606286D01*
X134000500Y-107606286D01*
X134000500Y-105855000D01*
X142239785Y-105855000D01*
X142258602Y-106058082D01*
X142314417Y-106254247D01*
X142314422Y-106254260D01*
X142405327Y-106436821D01*
X142528237Y-106599581D01*
X142678958Y-106736980D01*
X142678960Y-106736982D01*
X142768107Y-106792179D01*
X142852363Y-106844348D01*
X143042544Y-106918024D01*
X143243024Y-106955500D01*
X143243026Y-106955500D01*
X143446974Y-106955500D01*
X143446976Y-106955500D01*
X143647456Y-106918024D01*
X143837637Y-106844348D01*
X144011041Y-106736981D01*
X144161764Y-106599579D01*
X144284673Y-106436821D01*
X144375582Y-106254250D01*
X144431397Y-106058083D01*
X144450215Y-105855000D01*
X144450215Y-105854997D01*
X144779783Y-105854997D01*
X144798600Y-106058079D01*
X144854415Y-106254244D01*
X144854420Y-106254257D01*
X144945325Y-106436818D01*
X145068235Y-106599578D01*
X145218956Y-106736977D01*
X145218958Y-106736979D01*
X145218963Y-106736982D01*
X145392361Y-106844345D01*
X145582542Y-106918021D01*
X145783022Y-106955497D01*
X145783024Y-106955497D01*
X145986972Y-106955497D01*
X145986974Y-106955497D01*
X146187454Y-106918021D01*
X146377635Y-106844345D01*
X146551039Y-106736978D01*
X146559047Y-106729678D01*
X147324500Y-106729678D01*
X147339032Y-106802735D01*
X147339033Y-106802739D01*
X147339034Y-106802740D01*
X147394399Y-106885601D01*
X147477260Y-106940966D01*
X147477264Y-106940967D01*
X147550321Y-106955499D01*
X147550324Y-106955500D01*
X147550326Y-106955500D01*
X149299676Y-106955500D01*
X149299677Y-106955499D01*
X149372740Y-106940966D01*
X149455601Y-106885601D01*
X149510966Y-106802740D01*
X149525500Y-106729674D01*
X149525500Y-104980326D01*
X149525500Y-104980323D01*
X149525499Y-104980321D01*
X149510967Y-104907264D01*
X149510966Y-104907260D01*
X149455601Y-104824399D01*
X149372740Y-104769034D01*
X149372739Y-104769033D01*
X149372735Y-104769032D01*
X149299677Y-104754500D01*
X149299674Y-104754500D01*
X147550326Y-104754500D01*
X147550323Y-104754500D01*
X147477264Y-104769032D01*
X147477260Y-104769033D01*
X147394399Y-104824399D01*
X147339033Y-104907260D01*
X147339032Y-104907264D01*
X147324500Y-104980321D01*
X147324500Y-106729678D01*
X146559047Y-106729678D01*
X146701762Y-106599576D01*
X146824671Y-106436818D01*
X146915580Y-106254247D01*
X146971395Y-106058080D01*
X146990213Y-105854997D01*
X146971395Y-105651914D01*
X146915580Y-105455747D01*
X146824671Y-105273176D01*
X146765702Y-105195088D01*
X146701760Y-105110415D01*
X146551039Y-104973016D01*
X146551037Y-104973014D01*
X146377640Y-104865652D01*
X146377633Y-104865648D01*
X146187464Y-104791977D01*
X146187454Y-104791973D01*
X145986974Y-104754497D01*
X145783022Y-104754497D01*
X145582542Y-104791973D01*
X145582539Y-104791973D01*
X145582539Y-104791974D01*
X145392362Y-104865648D01*
X145392355Y-104865652D01*
X145218958Y-104973014D01*
X145218956Y-104973016D01*
X145068235Y-105110415D01*
X144945325Y-105273175D01*
X144854420Y-105455736D01*
X144854415Y-105455749D01*
X144798600Y-105651914D01*
X144779783Y-105854996D01*
X144779783Y-105854997D01*
X144450215Y-105854997D01*
X144431397Y-105651917D01*
X144375582Y-105455750D01*
X144375575Y-105455736D01*
X144331272Y-105366764D01*
X144284673Y-105273179D01*
X144161764Y-105110421D01*
X144161762Y-105110418D01*
X144011041Y-104973019D01*
X144011039Y-104973017D01*
X143837642Y-104865655D01*
X143837635Y-104865651D01*
X143731150Y-104824399D01*
X143647456Y-104791976D01*
X143446976Y-104754500D01*
X143243024Y-104754500D01*
X143042544Y-104791976D01*
X143042541Y-104791976D01*
X143042541Y-104791977D01*
X142852364Y-104865651D01*
X142852357Y-104865655D01*
X142678960Y-104973017D01*
X142678958Y-104973019D01*
X142528237Y-105110418D01*
X142405327Y-105273178D01*
X142314422Y-105455739D01*
X142314417Y-105455752D01*
X142258602Y-105651917D01*
X142239785Y-105854999D01*
X142239785Y-105855000D01*
X134000500Y-105855000D01*
X134000500Y-102340000D01*
X141694750Y-102340000D01*
X141713670Y-102483708D01*
X141713671Y-102483712D01*
X141769137Y-102617622D01*
X141769138Y-102617624D01*
X141769139Y-102617625D01*
X141857379Y-102732621D01*
X141972375Y-102820861D01*
X142106291Y-102876330D01*
X142233280Y-102893048D01*
X142249999Y-102895250D01*
X142250000Y-102895250D01*
X142250001Y-102895250D01*
X142264977Y-102893278D01*
X142393709Y-102876330D01*
X142527625Y-102820861D01*
X142642621Y-102732621D01*
X142730861Y-102617625D01*
X142786330Y-102483709D01*
X142805250Y-102340000D01*
X142786330Y-102196291D01*
X142730861Y-102062375D01*
X142642621Y-101947379D01*
X142527625Y-101859139D01*
X142527624Y-101859138D01*
X142527622Y-101859137D01*
X142393712Y-101803671D01*
X142393710Y-101803670D01*
X142393709Y-101803670D01*
X142321854Y-101794210D01*
X142250001Y-101784750D01*
X142249999Y-101784750D01*
X142106291Y-101803670D01*
X142106287Y-101803671D01*
X141972377Y-101859137D01*
X141857379Y-101947379D01*
X141769137Y-102062377D01*
X141713671Y-102196287D01*
X141713670Y-102196291D01*
X141694750Y-102339999D01*
X141694750Y-102340000D01*
X134000500Y-102340000D01*
X134000500Y-99220000D01*
X148044750Y-99220000D01*
X148063670Y-99363708D01*
X148063671Y-99363712D01*
X148119137Y-99497622D01*
X148119138Y-99497624D01*
X148119139Y-99497625D01*
X148207379Y-99612621D01*
X148322375Y-99700861D01*
X148456291Y-99756330D01*
X148583280Y-99773048D01*
X148599999Y-99775250D01*
X148600000Y-99775250D01*
X148600001Y-99775250D01*
X148614977Y-99773278D01*
X148743709Y-99756330D01*
X148877625Y-99700861D01*
X148992621Y-99612621D01*
X149080861Y-99497625D01*
X149136330Y-99363709D01*
X149155250Y-99220000D01*
X149146034Y-99150000D01*
X154114750Y-99150000D01*
X154133670Y-99293708D01*
X154133671Y-99293712D01*
X154189137Y-99427622D01*
X154189138Y-99427624D01*
X154189139Y-99427625D01*
X154277379Y-99542621D01*
X154392375Y-99630861D01*
X154526291Y-99686330D01*
X154653280Y-99703048D01*
X154669999Y-99705250D01*
X154670000Y-99705250D01*
X154670001Y-99705250D01*
X154684977Y-99703278D01*
X154813709Y-99686330D01*
X154947625Y-99630861D01*
X155062621Y-99542621D01*
X155150861Y-99427625D01*
X155206330Y-99293709D01*
X155225250Y-99150000D01*
X155206330Y-99006291D01*
X155150861Y-98872375D01*
X155062621Y-98757379D01*
X154947625Y-98669139D01*
X154947624Y-98669138D01*
X154947622Y-98669137D01*
X154813712Y-98613671D01*
X154813710Y-98613670D01*
X154813709Y-98613670D01*
X154741854Y-98604210D01*
X154670001Y-98594750D01*
X154669999Y-98594750D01*
X154526291Y-98613670D01*
X154526287Y-98613671D01*
X154392377Y-98669137D01*
X154277379Y-98757379D01*
X154189137Y-98872377D01*
X154133671Y-99006287D01*
X154133670Y-99006291D01*
X154114750Y-99149999D01*
X154114750Y-99150000D01*
X149146034Y-99150000D01*
X149136330Y-99076291D01*
X149080861Y-98942375D01*
X148992621Y-98827379D01*
X148877625Y-98739139D01*
X148877624Y-98739138D01*
X148877622Y-98739137D01*
X148743712Y-98683671D01*
X148743710Y-98683670D01*
X148743709Y-98683670D01*
X148671854Y-98674210D01*
X148600001Y-98664750D01*
X148599999Y-98664750D01*
X148456291Y-98683670D01*
X148456287Y-98683671D01*
X148322377Y-98739137D01*
X148207379Y-98827379D01*
X148119137Y-98942377D01*
X148063671Y-99076287D01*
X148063670Y-99076291D01*
X148044750Y-99219999D01*
X148044750Y-99220000D01*
X134000500Y-99220000D01*
X134000500Y-98250000D01*
X135554750Y-98250000D01*
X135573670Y-98393708D01*
X135573671Y-98393712D01*
X135629137Y-98527622D01*
X135629138Y-98527624D01*
X135629139Y-98527625D01*
X135717379Y-98642621D01*
X135832375Y-98730861D01*
X135966291Y-98786330D01*
X136093280Y-98803048D01*
X136109999Y-98805250D01*
X136110000Y-98805250D01*
X136110001Y-98805250D01*
X136124977Y-98803278D01*
X136253709Y-98786330D01*
X136387625Y-98730861D01*
X136502621Y-98642621D01*
X136590861Y-98527625D01*
X136646330Y-98393709D01*
X136665250Y-98250000D01*
X136646330Y-98106291D01*
X136590861Y-97972375D01*
X136502621Y-97857379D01*
X136387625Y-97769139D01*
X136387624Y-97769138D01*
X136387622Y-97769137D01*
X136253712Y-97713671D01*
X136253710Y-97713670D01*
X136253709Y-97713670D01*
X136181854Y-97704210D01*
X136110001Y-97694750D01*
X136109999Y-97694750D01*
X135966291Y-97713670D01*
X135966287Y-97713671D01*
X135832377Y-97769137D01*
X135717379Y-97857379D01*
X135629137Y-97972377D01*
X135573671Y-98106287D01*
X135573670Y-98106291D01*
X135554750Y-98249999D01*
X135554750Y-98250000D01*
X134000500Y-98250000D01*
X134000500Y-97670000D01*
X145734867Y-97670000D01*
X145753302Y-97798225D01*
X145800592Y-97901774D01*
X145807118Y-97916063D01*
X145891951Y-98013967D01*
X146000931Y-98084004D01*
X146125225Y-98120499D01*
X146125227Y-98120500D01*
X146125228Y-98120500D01*
X146254773Y-98120500D01*
X146254773Y-98120499D01*
X146379069Y-98084004D01*
X146463101Y-98030000D01*
X147534867Y-98030000D01*
X147553302Y-98158225D01*
X147595215Y-98249999D01*
X147607118Y-98276063D01*
X147691951Y-98373967D01*
X147800931Y-98444004D01*
X147925225Y-98480499D01*
X147925227Y-98480500D01*
X147925228Y-98480500D01*
X148054773Y-98480500D01*
X148054773Y-98480499D01*
X148179069Y-98444004D01*
X148288049Y-98373967D01*
X148372882Y-98276063D01*
X148426697Y-98158226D01*
X148445133Y-98030000D01*
X148426697Y-97901774D01*
X148372882Y-97783937D01*
X148288049Y-97686033D01*
X148179069Y-97615996D01*
X148179065Y-97615994D01*
X148179064Y-97615994D01*
X148054774Y-97579500D01*
X148054772Y-97579500D01*
X147925228Y-97579500D01*
X147925226Y-97579500D01*
X147800935Y-97615994D01*
X147800932Y-97615995D01*
X147800931Y-97615996D01*
X147749677Y-97648934D01*
X147691950Y-97686033D01*
X147607118Y-97783937D01*
X147607117Y-97783938D01*
X147553302Y-97901774D01*
X147534867Y-98030000D01*
X146463101Y-98030000D01*
X146488049Y-98013967D01*
X146572882Y-97916063D01*
X146626697Y-97798226D01*
X146645133Y-97670000D01*
X146626697Y-97541774D01*
X146572882Y-97423937D01*
X146488049Y-97326033D01*
X146379069Y-97255996D01*
X146379065Y-97255994D01*
X146379064Y-97255994D01*
X146254774Y-97219500D01*
X146254772Y-97219500D01*
X146125228Y-97219500D01*
X146125226Y-97219500D01*
X146000935Y-97255994D01*
X146000932Y-97255995D01*
X146000931Y-97255996D01*
X145949677Y-97288934D01*
X145891950Y-97326033D01*
X145807118Y-97423937D01*
X145807117Y-97423938D01*
X145753302Y-97541774D01*
X145734867Y-97670000D01*
X134000500Y-97670000D01*
X134000500Y-96670000D01*
X135194750Y-96670000D01*
X135213670Y-96813708D01*
X135213671Y-96813712D01*
X135269137Y-96947622D01*
X135269138Y-96947624D01*
X135269139Y-96947625D01*
X135357379Y-97062621D01*
X135472375Y-97150861D01*
X135606291Y-97206330D01*
X135733280Y-97223048D01*
X135749999Y-97225250D01*
X135750000Y-97225250D01*
X135750001Y-97225250D01*
X135764977Y-97223278D01*
X135893709Y-97206330D01*
X136027625Y-97150861D01*
X136142621Y-97062621D01*
X136230861Y-96947625D01*
X136286330Y-96813709D01*
X136305250Y-96670000D01*
X136286330Y-96526291D01*
X136230861Y-96392375D01*
X136142621Y-96277379D01*
X136027625Y-96189139D01*
X136027624Y-96189138D01*
X136027622Y-96189137D01*
X135893712Y-96133671D01*
X135893710Y-96133670D01*
X135893709Y-96133670D01*
X135821854Y-96124210D01*
X135750001Y-96114750D01*
X135749999Y-96114750D01*
X135606291Y-96133670D01*
X135606287Y-96133671D01*
X135472377Y-96189137D01*
X135357379Y-96277379D01*
X135269137Y-96392377D01*
X135213671Y-96526287D01*
X135213670Y-96526291D01*
X135194750Y-96669999D01*
X135194750Y-96670000D01*
X134000500Y-96670000D01*
X134000500Y-94720000D01*
X148534750Y-94720000D01*
X148547602Y-94817622D01*
X148553670Y-94863708D01*
X148553671Y-94863712D01*
X148609137Y-94997622D01*
X148609138Y-94997624D01*
X148609139Y-94997625D01*
X148697379Y-95112621D01*
X148812375Y-95200861D01*
X148946291Y-95256330D01*
X149073280Y-95273048D01*
X149089999Y-95275250D01*
X149090000Y-95275250D01*
X149090001Y-95275250D01*
X149104977Y-95273278D01*
X149233709Y-95256330D01*
X149367625Y-95200861D01*
X149482621Y-95112621D01*
X149570861Y-94997625D01*
X149626330Y-94863709D01*
X149645250Y-94720000D01*
X149626330Y-94576291D01*
X149611298Y-94540000D01*
X153034750Y-94540000D01*
X153052353Y-94673709D01*
X153053670Y-94683708D01*
X153053671Y-94683712D01*
X153109137Y-94817622D01*
X153109138Y-94817624D01*
X153109139Y-94817625D01*
X153197379Y-94932621D01*
X153312375Y-95020861D01*
X153446291Y-95076330D01*
X153573280Y-95093048D01*
X153589999Y-95095250D01*
X153590000Y-95095250D01*
X153590001Y-95095250D01*
X153604977Y-95093278D01*
X153733709Y-95076330D01*
X153867625Y-95020861D01*
X153982621Y-94932621D01*
X154070861Y-94817625D01*
X154126330Y-94683709D01*
X154145250Y-94540000D01*
X154143933Y-94530000D01*
X155674750Y-94530000D01*
X155693670Y-94673708D01*
X155693671Y-94673712D01*
X155749137Y-94807622D01*
X155749138Y-94807624D01*
X155749139Y-94807625D01*
X155837379Y-94922621D01*
X155952375Y-95010861D01*
X156086291Y-95066330D01*
X156213280Y-95083048D01*
X156229999Y-95085250D01*
X156230000Y-95085250D01*
X156230001Y-95085250D01*
X156244977Y-95083278D01*
X156373709Y-95066330D01*
X156507625Y-95010861D01*
X156622621Y-94922621D01*
X156710861Y-94807625D01*
X156766330Y-94673709D01*
X156785250Y-94530000D01*
X156766330Y-94386291D01*
X156710861Y-94252375D01*
X156622621Y-94137379D01*
X156507625Y-94049139D01*
X156507624Y-94049138D01*
X156507622Y-94049137D01*
X156373712Y-93993671D01*
X156373710Y-93993670D01*
X156373709Y-93993670D01*
X156301854Y-93984210D01*
X156230001Y-93974750D01*
X156229999Y-93974750D01*
X156086291Y-93993670D01*
X156086287Y-93993671D01*
X155952377Y-94049137D01*
X155837379Y-94137379D01*
X155749137Y-94252377D01*
X155693671Y-94386287D01*
X155693670Y-94386291D01*
X155674750Y-94529999D01*
X155674750Y-94530000D01*
X154143933Y-94530000D01*
X154143048Y-94523280D01*
X154126330Y-94396291D01*
X154070861Y-94262375D01*
X153982621Y-94147379D01*
X153867625Y-94059139D01*
X153867624Y-94059138D01*
X153867622Y-94059137D01*
X153733712Y-94003671D01*
X153733710Y-94003670D01*
X153733709Y-94003670D01*
X153661854Y-93994210D01*
X153590001Y-93984750D01*
X153589999Y-93984750D01*
X153446291Y-94003670D01*
X153446287Y-94003671D01*
X153312377Y-94059137D01*
X153197379Y-94147379D01*
X153109137Y-94262377D01*
X153053671Y-94396287D01*
X153053670Y-94396291D01*
X153036067Y-94530000D01*
X153034750Y-94540000D01*
X149611298Y-94540000D01*
X149572499Y-94446329D01*
X149570862Y-94442377D01*
X149570861Y-94442376D01*
X149570861Y-94442375D01*
X149482621Y-94327379D01*
X149367625Y-94239139D01*
X149367624Y-94239138D01*
X149367622Y-94239137D01*
X149233712Y-94183671D01*
X149233710Y-94183670D01*
X149233709Y-94183670D01*
X149161854Y-94174210D01*
X149090001Y-94164750D01*
X149089999Y-94164750D01*
X148946291Y-94183670D01*
X148946287Y-94183671D01*
X148812377Y-94239137D01*
X148697379Y-94327379D01*
X148609137Y-94442377D01*
X148553671Y-94576287D01*
X148553670Y-94576291D01*
X148540845Y-94673708D01*
X148534750Y-94720000D01*
X134000500Y-94720000D01*
X134000500Y-93910000D01*
X150614750Y-93910000D01*
X150633670Y-94053708D01*
X150633671Y-94053712D01*
X150689137Y-94187622D01*
X150689138Y-94187624D01*
X150689139Y-94187625D01*
X150777379Y-94302621D01*
X150892375Y-94390861D01*
X150892376Y-94390861D01*
X150892377Y-94390862D01*
X150905484Y-94396291D01*
X151026291Y-94446330D01*
X151153280Y-94463048D01*
X151169999Y-94465250D01*
X151170000Y-94465250D01*
X151170001Y-94465250D01*
X151184977Y-94463278D01*
X151313709Y-94446330D01*
X151447625Y-94390861D01*
X151562621Y-94302621D01*
X151650861Y-94187625D01*
X151706330Y-94053709D01*
X151725250Y-93910000D01*
X151706330Y-93766291D01*
X151650861Y-93632375D01*
X151562621Y-93517379D01*
X151447625Y-93429139D01*
X151447624Y-93429138D01*
X151447622Y-93429137D01*
X151313712Y-93373671D01*
X151313710Y-93373670D01*
X151313709Y-93373670D01*
X151241854Y-93364210D01*
X151170001Y-93354750D01*
X151169999Y-93354750D01*
X151026291Y-93373670D01*
X151026287Y-93373671D01*
X150892377Y-93429137D01*
X150777379Y-93517379D01*
X150689137Y-93632377D01*
X150633671Y-93766287D01*
X150633670Y-93766291D01*
X150614750Y-93909999D01*
X150614750Y-93910000D01*
X134000500Y-93910000D01*
X134000500Y-88490000D01*
X143744750Y-88490000D01*
X143763670Y-88633708D01*
X143763671Y-88633712D01*
X143819137Y-88767622D01*
X143819138Y-88767624D01*
X143819139Y-88767625D01*
X143907379Y-88882621D01*
X144022375Y-88970861D01*
X144156291Y-89026330D01*
X144283280Y-89043048D01*
X144299999Y-89045250D01*
X144300000Y-89045250D01*
X144300001Y-89045250D01*
X144314977Y-89043278D01*
X144443709Y-89026330D01*
X144531421Y-88989999D01*
X150784750Y-88989999D01*
X150803670Y-89133707D01*
X150803671Y-89133711D01*
X150859137Y-89267621D01*
X150859138Y-89267623D01*
X150859139Y-89267624D01*
X150947379Y-89382620D01*
X151062375Y-89470860D01*
X151196291Y-89526329D01*
X151323280Y-89543047D01*
X151339999Y-89545249D01*
X151340000Y-89545249D01*
X151340001Y-89545249D01*
X151354977Y-89543277D01*
X151483709Y-89526329D01*
X151617625Y-89470860D01*
X151732621Y-89382620D01*
X151820861Y-89267624D01*
X151876330Y-89133708D01*
X151895250Y-88989999D01*
X151876330Y-88846290D01*
X151820861Y-88712374D01*
X151732621Y-88597378D01*
X151617625Y-88509138D01*
X151617624Y-88509137D01*
X151617622Y-88509136D01*
X151483712Y-88453670D01*
X151483710Y-88453669D01*
X151483709Y-88453669D01*
X151411854Y-88444209D01*
X151340001Y-88434749D01*
X151339999Y-88434749D01*
X151196291Y-88453669D01*
X151196287Y-88453670D01*
X151062377Y-88509136D01*
X150947379Y-88597378D01*
X150859137Y-88712376D01*
X150803671Y-88846286D01*
X150803670Y-88846290D01*
X150784750Y-88989998D01*
X150784750Y-88989999D01*
X144531421Y-88989999D01*
X144577625Y-88970861D01*
X144692621Y-88882621D01*
X144780861Y-88767625D01*
X144836330Y-88633709D01*
X144855250Y-88490000D01*
X144836330Y-88346291D01*
X144780861Y-88212375D01*
X144692621Y-88097379D01*
X144577625Y-88009139D01*
X144577624Y-88009138D01*
X144577622Y-88009137D01*
X144443712Y-87953671D01*
X144443710Y-87953670D01*
X144443709Y-87953670D01*
X144371854Y-87944210D01*
X144300001Y-87934750D01*
X144299999Y-87934750D01*
X144156291Y-87953670D01*
X144156287Y-87953671D01*
X144022377Y-88009137D01*
X143907379Y-88097379D01*
X143819137Y-88212377D01*
X143763671Y-88346287D01*
X143763670Y-88346291D01*
X143744750Y-88489999D01*
X143744750Y-88490000D01*
X134000500Y-88490000D01*
X134000500Y-84359999D01*
X142339866Y-84359999D01*
X142358301Y-84488224D01*
X142412116Y-84606060D01*
X142412117Y-84606062D01*
X142496950Y-84703966D01*
X142605930Y-84774003D01*
X142730224Y-84810498D01*
X142730226Y-84810499D01*
X142730227Y-84810499D01*
X142859772Y-84810499D01*
X142859772Y-84810498D01*
X142984068Y-84774003D01*
X143093048Y-84703966D01*
X143177881Y-84606062D01*
X143231696Y-84488225D01*
X143250132Y-84359999D01*
X143231696Y-84231773D01*
X143217186Y-84200000D01*
X152204750Y-84200000D01*
X152222353Y-84333709D01*
X152223670Y-84343708D01*
X152223671Y-84343712D01*
X152279137Y-84477622D01*
X152279138Y-84477624D01*
X152279139Y-84477625D01*
X152367379Y-84592621D01*
X152482375Y-84680861D01*
X152616291Y-84736330D01*
X152743280Y-84753048D01*
X152759999Y-84755250D01*
X152760000Y-84755250D01*
X152760001Y-84755250D01*
X152774977Y-84753278D01*
X152903709Y-84736330D01*
X153037625Y-84680861D01*
X153152621Y-84592621D01*
X153240861Y-84477625D01*
X153296330Y-84343709D01*
X153315250Y-84200000D01*
X153313933Y-84190000D01*
X153904750Y-84190000D01*
X153923670Y-84333708D01*
X153923671Y-84333712D01*
X153979137Y-84467622D01*
X153979138Y-84467624D01*
X153979139Y-84467625D01*
X154067379Y-84582621D01*
X154182375Y-84670861D01*
X154316291Y-84726330D01*
X154443280Y-84743048D01*
X154459999Y-84745250D01*
X154460000Y-84745250D01*
X154460001Y-84745250D01*
X154474977Y-84743278D01*
X154603709Y-84726330D01*
X154737625Y-84670861D01*
X154852621Y-84582621D01*
X154940861Y-84467625D01*
X154996330Y-84333709D01*
X155015250Y-84190000D01*
X154996330Y-84046291D01*
X154940861Y-83912375D01*
X154852621Y-83797379D01*
X154737625Y-83709139D01*
X154737624Y-83709138D01*
X154737622Y-83709137D01*
X154603712Y-83653671D01*
X154603710Y-83653670D01*
X154603709Y-83653670D01*
X154531854Y-83644210D01*
X154460001Y-83634750D01*
X154459999Y-83634750D01*
X154316291Y-83653670D01*
X154316287Y-83653671D01*
X154182377Y-83709137D01*
X154067379Y-83797379D01*
X153979137Y-83912377D01*
X153923671Y-84046287D01*
X153923670Y-84046291D01*
X153904750Y-84189999D01*
X153904750Y-84190000D01*
X153313933Y-84190000D01*
X153303919Y-84113936D01*
X153296330Y-84056291D01*
X153240861Y-83922375D01*
X153152621Y-83807379D01*
X153037625Y-83719139D01*
X153037624Y-83719138D01*
X153037622Y-83719137D01*
X152903712Y-83663671D01*
X152903710Y-83663670D01*
X152903709Y-83663670D01*
X152831854Y-83654210D01*
X152760001Y-83644750D01*
X152759999Y-83644750D01*
X152616291Y-83663670D01*
X152616287Y-83663671D01*
X152482377Y-83719137D01*
X152367379Y-83807379D01*
X152279137Y-83922377D01*
X152223671Y-84056287D01*
X152223670Y-84056291D01*
X152206067Y-84190000D01*
X152204750Y-84200000D01*
X143217186Y-84200000D01*
X143177881Y-84113936D01*
X143093048Y-84016032D01*
X142984068Y-83945995D01*
X142984064Y-83945993D01*
X142984063Y-83945993D01*
X142859773Y-83909499D01*
X142859771Y-83909499D01*
X142730227Y-83909499D01*
X142730225Y-83909499D01*
X142605934Y-83945993D01*
X142605931Y-83945994D01*
X142605930Y-83945995D01*
X142554676Y-83978933D01*
X142496949Y-84016032D01*
X142412117Y-84113936D01*
X142412116Y-84113937D01*
X142358301Y-84231773D01*
X142339866Y-84359999D01*
X134000500Y-84359999D01*
X134000500Y-82170000D01*
X135074750Y-82170000D01*
X135093670Y-82313708D01*
X135093671Y-82313712D01*
X135149137Y-82447622D01*
X135149138Y-82447624D01*
X135149139Y-82447625D01*
X135237379Y-82562621D01*
X135352375Y-82650861D01*
X135486291Y-82706330D01*
X135613280Y-82723048D01*
X135629999Y-82725250D01*
X135630000Y-82725250D01*
X135630001Y-82725250D01*
X135644977Y-82723278D01*
X135773709Y-82706330D01*
X135907625Y-82650861D01*
X136022621Y-82562621D01*
X136110861Y-82447625D01*
X136166330Y-82313709D01*
X136185250Y-82170000D01*
X136166330Y-82026291D01*
X136110861Y-81892375D01*
X136022621Y-81777379D01*
X135907625Y-81689139D01*
X135907624Y-81689138D01*
X135907622Y-81689137D01*
X135773712Y-81633671D01*
X135773710Y-81633670D01*
X135773709Y-81633670D01*
X135701854Y-81624210D01*
X135630001Y-81614750D01*
X135629999Y-81614750D01*
X135486291Y-81633670D01*
X135486287Y-81633671D01*
X135352377Y-81689137D01*
X135237379Y-81777379D01*
X135149137Y-81892377D01*
X135093671Y-82026287D01*
X135093670Y-82026291D01*
X135074750Y-82169999D01*
X135074750Y-82170000D01*
X134000500Y-82170000D01*
X134000500Y-81520000D01*
X147554750Y-81520000D01*
X147573670Y-81663708D01*
X147573671Y-81663712D01*
X147629137Y-81797622D01*
X147629138Y-81797624D01*
X147629139Y-81797625D01*
X147717379Y-81912621D01*
X147832375Y-82000861D01*
X147966291Y-82056330D01*
X148093280Y-82073048D01*
X148109999Y-82075250D01*
X148110000Y-82075250D01*
X148110001Y-82075250D01*
X148124977Y-82073278D01*
X148253709Y-82056330D01*
X148387625Y-82000861D01*
X148502621Y-81912621D01*
X148590861Y-81797625D01*
X148646330Y-81663709D01*
X148665250Y-81520000D01*
X150104750Y-81520000D01*
X150123670Y-81663708D01*
X150123671Y-81663712D01*
X150179137Y-81797622D01*
X150179138Y-81797624D01*
X150179139Y-81797625D01*
X150267379Y-81912621D01*
X150382375Y-82000861D01*
X150516291Y-82056330D01*
X150643280Y-82073048D01*
X150659999Y-82075250D01*
X150660000Y-82075250D01*
X150660001Y-82075250D01*
X150674977Y-82073278D01*
X150803709Y-82056330D01*
X150937625Y-82000861D01*
X151052621Y-81912621D01*
X151140861Y-81797625D01*
X151196330Y-81663709D01*
X151215250Y-81520000D01*
X151196330Y-81376291D01*
X151140861Y-81242375D01*
X151052621Y-81127379D01*
X150937625Y-81039139D01*
X150937624Y-81039138D01*
X150937622Y-81039137D01*
X150803712Y-80983671D01*
X150803710Y-80983670D01*
X150803709Y-80983670D01*
X150731854Y-80974210D01*
X150660001Y-80964750D01*
X150659999Y-80964750D01*
X150516291Y-80983670D01*
X150516287Y-80983671D01*
X150382377Y-81039137D01*
X150267379Y-81127379D01*
X150179137Y-81242377D01*
X150123671Y-81376287D01*
X150123670Y-81376291D01*
X150104750Y-81519999D01*
X150104750Y-81520000D01*
X148665250Y-81520000D01*
X148646330Y-81376291D01*
X148590861Y-81242375D01*
X148502621Y-81127379D01*
X148387625Y-81039139D01*
X148387624Y-81039138D01*
X148387622Y-81039137D01*
X148253712Y-80983671D01*
X148253710Y-80983670D01*
X148253709Y-80983670D01*
X148181854Y-80974210D01*
X148110001Y-80964750D01*
X148109999Y-80964750D01*
X147966291Y-80983670D01*
X147966287Y-80983671D01*
X147832377Y-81039137D01*
X147717379Y-81127379D01*
X147629137Y-81242377D01*
X147573671Y-81376287D01*
X147573670Y-81376291D01*
X147554750Y-81519999D01*
X147554750Y-81520000D01*
X134000500Y-81520000D01*
X134000500Y-79780000D01*
X142344750Y-79780000D01*
X142363670Y-79923708D01*
X142363671Y-79923712D01*
X142419137Y-80057622D01*
X142419138Y-80057624D01*
X142419139Y-80057625D01*
X142507379Y-80172621D01*
X142622375Y-80260861D01*
X142756291Y-80316330D01*
X142883280Y-80333048D01*
X142899999Y-80335250D01*
X142900000Y-80335250D01*
X142900001Y-80335250D01*
X142914977Y-80333278D01*
X143043709Y-80316330D01*
X143177625Y-80260861D01*
X143292621Y-80172621D01*
X143380861Y-80057625D01*
X143436330Y-79923709D01*
X143455250Y-79780000D01*
X143436330Y-79636291D01*
X143380861Y-79502375D01*
X143292621Y-79387379D01*
X143177625Y-79299139D01*
X143177624Y-79299138D01*
X143177622Y-79299137D01*
X143043712Y-79243671D01*
X143043710Y-79243670D01*
X143043709Y-79243670D01*
X142971854Y-79234210D01*
X142900001Y-79224750D01*
X142899999Y-79224750D01*
X142756291Y-79243670D01*
X142756287Y-79243671D01*
X142622377Y-79299137D01*
X142507379Y-79387379D01*
X142419137Y-79502377D01*
X142363671Y-79636287D01*
X142363670Y-79636291D01*
X142344750Y-79779999D01*
X142344750Y-79780000D01*
X134000500Y-79780000D01*
X134000500Y-78711413D01*
X134020185Y-78644374D01*
X134025992Y-78636099D01*
X134045950Y-78610000D01*
X135614750Y-78610000D01*
X135633670Y-78753708D01*
X135633671Y-78753712D01*
X135689137Y-78887622D01*
X135689138Y-78887624D01*
X135689139Y-78887625D01*
X135777379Y-79002621D01*
X135892375Y-79090861D01*
X136026291Y-79146330D01*
X136153280Y-79163048D01*
X136169999Y-79165250D01*
X136170000Y-79165250D01*
X136170001Y-79165250D01*
X136184977Y-79163278D01*
X136313709Y-79146330D01*
X136447625Y-79090861D01*
X136562621Y-79002621D01*
X136650861Y-78887625D01*
X136706330Y-78753709D01*
X136725250Y-78610000D01*
X136706330Y-78466291D01*
X136650861Y-78332375D01*
X136562621Y-78217379D01*
X136447625Y-78129139D01*
X136447624Y-78129138D01*
X136447622Y-78129137D01*
X136313712Y-78073671D01*
X136313710Y-78073670D01*
X136313709Y-78073670D01*
X136241854Y-78064210D01*
X136170001Y-78054750D01*
X136169999Y-78054750D01*
X136026291Y-78073670D01*
X136026287Y-78073671D01*
X135892377Y-78129137D01*
X135777379Y-78217379D01*
X135689137Y-78332377D01*
X135633671Y-78466287D01*
X135633670Y-78466291D01*
X135614750Y-78609999D01*
X135614750Y-78610000D01*
X134045950Y-78610000D01*
X134894774Y-77500000D01*
X155274750Y-77500000D01*
X155293670Y-77643708D01*
X155293671Y-77643712D01*
X155349137Y-77777622D01*
X155349138Y-77777624D01*
X155349139Y-77777625D01*
X155437379Y-77892621D01*
X155552375Y-77980861D01*
X155686291Y-78036330D01*
X155813280Y-78053048D01*
X155829999Y-78055250D01*
X155830000Y-78055250D01*
X155830001Y-78055250D01*
X155844977Y-78053278D01*
X155973709Y-78036330D01*
X156107625Y-77980861D01*
X156222621Y-77892621D01*
X156310861Y-77777625D01*
X156366330Y-77643709D01*
X156385250Y-77500000D01*
X156366330Y-77356291D01*
X156310861Y-77222375D01*
X156222621Y-77107379D01*
X156107625Y-77019139D01*
X156107624Y-77019138D01*
X156107622Y-77019137D01*
X155973712Y-76963671D01*
X155973710Y-76963670D01*
X155973709Y-76963670D01*
X155901854Y-76954210D01*
X155830001Y-76944750D01*
X155829999Y-76944750D01*
X155686291Y-76963670D01*
X155686287Y-76963671D01*
X155552377Y-77019137D01*
X155437379Y-77107379D01*
X155349137Y-77222377D01*
X155293671Y-77356287D01*
X155293670Y-77356291D01*
X155274750Y-77499999D01*
X155274750Y-77500000D01*
X134894774Y-77500000D01*
X136319966Y-75636287D01*
X137209500Y-75636287D01*
X137242754Y-75846243D01*
X137304503Y-76036287D01*
X137308444Y-76048414D01*
X137404951Y-76237820D01*
X137529890Y-76409786D01*
X137680213Y-76560109D01*
X137852179Y-76685048D01*
X137852181Y-76685049D01*
X137852184Y-76685051D01*
X138041588Y-76781557D01*
X138243757Y-76847246D01*
X138453713Y-76880500D01*
X138453714Y-76880500D01*
X138666286Y-76880500D01*
X138666287Y-76880500D01*
X138876243Y-76847246D01*
X139078412Y-76781557D01*
X139267816Y-76685051D01*
X139334191Y-76636827D01*
X139439786Y-76560109D01*
X139439788Y-76560106D01*
X139439792Y-76560104D01*
X139590104Y-76409792D01*
X139590106Y-76409788D01*
X139590109Y-76409786D01*
X139699086Y-76259789D01*
X139706983Y-76248920D01*
X140929499Y-76248920D01*
X140958340Y-76393907D01*
X140958343Y-76393917D01*
X141014912Y-76530488D01*
X141014919Y-76530501D01*
X141097048Y-76653415D01*
X141097051Y-76653419D01*
X141201580Y-76757948D01*
X141201584Y-76757951D01*
X141324498Y-76840080D01*
X141324511Y-76840087D01*
X141422078Y-76880500D01*
X141461087Y-76896658D01*
X141461091Y-76896658D01*
X141461092Y-76896659D01*
X141606079Y-76925500D01*
X141606082Y-76925500D01*
X141753920Y-76925500D01*
X141851462Y-76906096D01*
X141898913Y-76896658D01*
X142004547Y-76852902D01*
X142035488Y-76840087D01*
X142035488Y-76840086D01*
X142035495Y-76840084D01*
X142158416Y-76757951D01*
X142262951Y-76653416D01*
X142274035Y-76636826D01*
X142327646Y-76592020D01*
X142396971Y-76583311D01*
X142452624Y-76607339D01*
X142463931Y-76616015D01*
X142522373Y-76660860D01*
X142522374Y-76660860D01*
X142522375Y-76660861D01*
X142656291Y-76716330D01*
X142783280Y-76733048D01*
X142799999Y-76735250D01*
X142800000Y-76735250D01*
X142800001Y-76735250D01*
X142814977Y-76733278D01*
X142943709Y-76716330D01*
X143077625Y-76660861D01*
X143192621Y-76572621D01*
X143280861Y-76457625D01*
X143336330Y-76323709D01*
X143355250Y-76180000D01*
X143336330Y-76036291D01*
X143280861Y-75902375D01*
X143236399Y-75844431D01*
X143211205Y-75779262D01*
X143225243Y-75710817D01*
X143274057Y-75660828D01*
X143302679Y-75649171D01*
X143332135Y-75641279D01*
X143463365Y-75565513D01*
X143570515Y-75458363D01*
X143646281Y-75327133D01*
X143685499Y-75180766D01*
X148314500Y-75180766D01*
X148315302Y-75183760D01*
X148353719Y-75327136D01*
X148391602Y-75392750D01*
X148429485Y-75458365D01*
X148536635Y-75565515D01*
X148639233Y-75624750D01*
X148667861Y-75641279D01*
X148667865Y-75641281D01*
X148716411Y-75654288D01*
X148776071Y-75690653D01*
X148806600Y-75753500D01*
X148798305Y-75822875D01*
X148782693Y-75849549D01*
X148719139Y-75932374D01*
X148719138Y-75932376D01*
X148663671Y-76066287D01*
X148663670Y-76066291D01*
X148644750Y-76209999D01*
X148644750Y-76210000D01*
X148663670Y-76353708D01*
X148663671Y-76353712D01*
X148719137Y-76487622D01*
X148719138Y-76487624D01*
X148719139Y-76487625D01*
X148807379Y-76602621D01*
X148922375Y-76690861D01*
X149056291Y-76746330D01*
X149183280Y-76763048D01*
X149199999Y-76765250D01*
X149200000Y-76765250D01*
X149200001Y-76765250D01*
X149214977Y-76763278D01*
X149343709Y-76746330D01*
X149477625Y-76690861D01*
X149560626Y-76627171D01*
X149625794Y-76601977D01*
X149694239Y-76616015D01*
X149731731Y-76649900D01*
X149733185Y-76648708D01*
X149737051Y-76653419D01*
X149841580Y-76757948D01*
X149841584Y-76757951D01*
X149964498Y-76840080D01*
X149964511Y-76840087D01*
X150062078Y-76880500D01*
X150101087Y-76896658D01*
X150101091Y-76896658D01*
X150101092Y-76896659D01*
X150246079Y-76925500D01*
X150246082Y-76925500D01*
X150393920Y-76925500D01*
X150491462Y-76906096D01*
X150538913Y-76896658D01*
X150644547Y-76852902D01*
X150675488Y-76840087D01*
X150675488Y-76840086D01*
X150675495Y-76840084D01*
X150798416Y-76757951D01*
X150902951Y-76653416D01*
X150985084Y-76530495D01*
X151041658Y-76393913D01*
X151070500Y-76248918D01*
X151070500Y-75606286D01*
X152149500Y-75606286D01*
X152176896Y-75779262D01*
X152182754Y-75816243D01*
X152220487Y-75932374D01*
X152248444Y-76018414D01*
X152344951Y-76207820D01*
X152469890Y-76379786D01*
X152620213Y-76530109D01*
X152792179Y-76655048D01*
X152792181Y-76655049D01*
X152792184Y-76655051D01*
X152981588Y-76751557D01*
X153183757Y-76817246D01*
X153393713Y-76850500D01*
X153393714Y-76850500D01*
X153606286Y-76850500D01*
X153606287Y-76850500D01*
X153816243Y-76817246D01*
X154018412Y-76751557D01*
X154207816Y-76655051D01*
X154232899Y-76636827D01*
X154379786Y-76530109D01*
X154379788Y-76530106D01*
X154379792Y-76530104D01*
X154530104Y-76379792D01*
X154530106Y-76379788D01*
X154530109Y-76379786D01*
X154655048Y-76207820D01*
X154655047Y-76207820D01*
X154655051Y-76207816D01*
X154751557Y-76018412D01*
X154817246Y-75816243D01*
X154850500Y-75606287D01*
X154850500Y-75393713D01*
X154817246Y-75183757D01*
X154751557Y-74981588D01*
X154655051Y-74792184D01*
X154655049Y-74792181D01*
X154655048Y-74792179D01*
X154530109Y-74620213D01*
X154379786Y-74469890D01*
X154207820Y-74344951D01*
X154018414Y-74248444D01*
X154018413Y-74248443D01*
X154018412Y-74248443D01*
X153816243Y-74182754D01*
X153816241Y-74182753D01*
X153816240Y-74182753D01*
X153654957Y-74157208D01*
X153606287Y-74149500D01*
X153393713Y-74149500D01*
X153345042Y-74157208D01*
X153183760Y-74182753D01*
X152981585Y-74248444D01*
X152792179Y-74344951D01*
X152620213Y-74469890D01*
X152469890Y-74620213D01*
X152344951Y-74792179D01*
X152248444Y-74981585D01*
X152182753Y-75183760D01*
X152149500Y-75393713D01*
X152149500Y-75606286D01*
X151070500Y-75606286D01*
X151070500Y-75001082D01*
X151070500Y-75001079D01*
X151041659Y-74856092D01*
X151041658Y-74856091D01*
X151041658Y-74856087D01*
X151015189Y-74792184D01*
X150985087Y-74719511D01*
X150985080Y-74719498D01*
X150902951Y-74596584D01*
X150902948Y-74596580D01*
X150798419Y-74492051D01*
X150798415Y-74492048D01*
X150675501Y-74409919D01*
X150675488Y-74409912D01*
X150538917Y-74353343D01*
X150538907Y-74353340D01*
X150393920Y-74324500D01*
X150393918Y-74324500D01*
X150246082Y-74324500D01*
X150246080Y-74324500D01*
X150101092Y-74353340D01*
X150101082Y-74353343D01*
X149964511Y-74409912D01*
X149964498Y-74409919D01*
X149841584Y-74492048D01*
X149841580Y-74492051D01*
X149737051Y-74596580D01*
X149737048Y-74596584D01*
X149654919Y-74719498D01*
X149654914Y-74719508D01*
X149616231Y-74812897D01*
X149572390Y-74867301D01*
X149506095Y-74889365D01*
X149438396Y-74872085D01*
X149394284Y-74827445D01*
X149350515Y-74751635D01*
X149243365Y-74644485D01*
X149177750Y-74606602D01*
X149112136Y-74568719D01*
X149038950Y-74549109D01*
X148965766Y-74529500D01*
X148814234Y-74529500D01*
X148667863Y-74568719D01*
X148536635Y-74644485D01*
X148536632Y-74644487D01*
X148429487Y-74751632D01*
X148429485Y-74751635D01*
X148353719Y-74882863D01*
X148322044Y-75001079D01*
X148314500Y-75029234D01*
X148314500Y-75180766D01*
X143685499Y-75180766D01*
X143685500Y-75180764D01*
X143685500Y-75029232D01*
X143646281Y-74882863D01*
X143570515Y-74751633D01*
X143463365Y-74644483D01*
X143380395Y-74596580D01*
X143332136Y-74568717D01*
X143258950Y-74549107D01*
X143185766Y-74529498D01*
X143034234Y-74529498D01*
X142887863Y-74568717D01*
X142756635Y-74644483D01*
X142756632Y-74644485D01*
X142649487Y-74751630D01*
X142649483Y-74751636D01*
X142605714Y-74827444D01*
X142555146Y-74875658D01*
X142486539Y-74888880D01*
X142421675Y-74862911D01*
X142383767Y-74812894D01*
X142345087Y-74719511D01*
X142345080Y-74719498D01*
X142262951Y-74596584D01*
X142262948Y-74596580D01*
X142158419Y-74492051D01*
X142158415Y-74492048D01*
X142035501Y-74409919D01*
X142035488Y-74409912D01*
X141898917Y-74353343D01*
X141898907Y-74353340D01*
X141753920Y-74324500D01*
X141753918Y-74324500D01*
X141606082Y-74324500D01*
X141606080Y-74324500D01*
X141461092Y-74353340D01*
X141461082Y-74353343D01*
X141324511Y-74409912D01*
X141324498Y-74409919D01*
X141201584Y-74492048D01*
X141201580Y-74492051D01*
X141097051Y-74596580D01*
X141097048Y-74596584D01*
X141014919Y-74719498D01*
X141014912Y-74719511D01*
X140958343Y-74856082D01*
X140958340Y-74856092D01*
X140929500Y-75001079D01*
X140929500Y-75001082D01*
X140929500Y-76248918D01*
X140929500Y-76248920D01*
X140929499Y-76248920D01*
X139706983Y-76248920D01*
X139715051Y-76237816D01*
X139811557Y-76048412D01*
X139877246Y-75846243D01*
X139910500Y-75636287D01*
X139910500Y-75423713D01*
X139877246Y-75213757D01*
X139811557Y-75011588D01*
X139715051Y-74822184D01*
X139715049Y-74822181D01*
X139715048Y-74822179D01*
X139590109Y-74650213D01*
X139439786Y-74499890D01*
X139267820Y-74374951D01*
X139078414Y-74278444D01*
X139078413Y-74278443D01*
X139078412Y-74278443D01*
X138876243Y-74212754D01*
X138876241Y-74212753D01*
X138876240Y-74212753D01*
X138714957Y-74187208D01*
X138666287Y-74179500D01*
X138453713Y-74179500D01*
X138405042Y-74187208D01*
X138243760Y-74212753D01*
X138041585Y-74278444D01*
X137852179Y-74374951D01*
X137680213Y-74499890D01*
X137529890Y-74650213D01*
X137404951Y-74822179D01*
X137308444Y-75011585D01*
X137242753Y-75213760D01*
X137209500Y-75423713D01*
X137209500Y-75636287D01*
X136319966Y-75636287D01*
X140210110Y-70549175D01*
X140266469Y-70507880D01*
X140308610Y-70500500D01*
X140899341Y-70500500D01*
X140966380Y-70520185D01*
G37*
%TD.AperFunction*%
%TD*%
M02*
