%TF.GenerationSoftware,KiCad,Pcbnew,8.0.0*%
%TF.CreationDate,2026-01-12T19:07:33+05:30*%
%TF.ProjectId,PICKit_Clone_KiCAD,5049434b-6974-45f4-936c-6f6e655f4b69,1.0*%
%TF.SameCoordinates,Original*%
%TF.FileFunction,Soldermask,Top*%
%TF.FilePolarity,Negative*%
%FSLAX46Y46*%
G04 Gerber Fmt 4.6, Leading zero omitted, Abs format (unit mm)*
G04 Created by KiCad (PCBNEW 8.0.0) date 2026-01-12 19:07:33*
%MOMM*%
%LPD*%
G01*
G04 APERTURE LIST*
G04 Aperture macros list*
%AMRoundRect*
0 Rectangle with rounded corners*
0 $1 Rounding radius*
0 $2 $3 $4 $5 $6 $7 $8 $9 X,Y pos of 4 corners*
0 Add a 4 corners polygon primitive as box body*
4,1,4,$2,$3,$4,$5,$6,$7,$8,$9,$2,$3,0*
0 Add four circle primitives for the rounded corners*
1,1,$1+$1,$2,$3*
1,1,$1+$1,$4,$5*
1,1,$1+$1,$6,$7*
1,1,$1+$1,$8,$9*
0 Add four rect primitives between the rounded corners*
20,1,$1+$1,$2,$3,$4,$5,0*
20,1,$1+$1,$4,$5,$6,$7,0*
20,1,$1+$1,$6,$7,$8,$9,0*
20,1,$1+$1,$8,$9,$2,$3,0*%
G04 Aperture macros list end*
%ADD10RoundRect,0.250000X-0.412500X-0.650000X0.412500X-0.650000X0.412500X0.650000X-0.412500X0.650000X0*%
%ADD11C,2.200000*%
%ADD12RoundRect,0.250001X0.624999X-0.462499X0.624999X0.462499X-0.624999X0.462499X-0.624999X-0.462499X0*%
%ADD13R,2.000000X4.500000*%
%ADD14RoundRect,0.250000X1.000000X0.650000X-1.000000X0.650000X-1.000000X-0.650000X1.000000X-0.650000X0*%
%ADD15RoundRect,0.250000X0.625000X-0.400000X0.625000X0.400000X-0.625000X0.400000X-0.625000X-0.400000X0*%
%ADD16RoundRect,0.125000X0.125000X-0.825000X0.125000X0.825000X-0.125000X0.825000X-0.125000X-0.825000X0*%
%ADD17RoundRect,0.250000X-0.650000X0.412500X-0.650000X-0.412500X0.650000X-0.412500X0.650000X0.412500X0*%
%ADD18RoundRect,0.250000X-0.625000X0.400000X-0.625000X-0.400000X0.625000X-0.400000X0.625000X0.400000X0*%
%ADD19RoundRect,0.375000X0.375000X-0.625000X0.375000X0.625000X-0.375000X0.625000X-0.375000X-0.625000X0*%
%ADD20RoundRect,0.500000X1.400000X-0.500000X1.400000X0.500000X-1.400000X0.500000X-1.400000X-0.500000X0*%
%ADD21C,0.650000*%
%ADD22R,0.600000X1.240000*%
%ADD23R,0.300000X1.240000*%
%ADD24O,1.000000X1.800000*%
%ADD25O,1.000000X2.100000*%
%ADD26R,1.700000X1.700000*%
%ADD27O,1.700000X1.700000*%
%ADD28RoundRect,0.250001X-0.624999X0.462499X-0.624999X-0.462499X0.624999X-0.462499X0.624999X0.462499X0*%
%ADD29RoundRect,0.250000X0.650000X-0.412500X0.650000X0.412500X-0.650000X0.412500X-0.650000X-0.412500X0*%
G04 APERTURE END LIST*
D10*
%TO.C,C6*%
X136127500Y-78580000D03*
X139252500Y-78580000D03*
%TD*%
D11*
%TO.C,H3*%
X137000000Y-107500000D03*
%TD*%
D12*
%TO.C,D2*%
X152189999Y-102157500D03*
X152190001Y-99182500D03*
%TD*%
D13*
%TO.C,Y1*%
X137780000Y-91280000D03*
X137780000Y-82780000D03*
%TD*%
D14*
%TO.C,D5*%
X155651050Y-79425584D03*
X151651050Y-79425584D03*
%TD*%
D15*
%TO.C,R7*%
X154670000Y-102250000D03*
X154670000Y-99150000D03*
%TD*%
%TO.C,R8*%
X148600000Y-102320000D03*
X148600000Y-99220000D03*
%TD*%
D16*
%TO.C,U1*%
X142795001Y-91360000D03*
X143445000Y-91360000D03*
X144094999Y-91360001D03*
X144744999Y-91359999D03*
X145395000Y-91360000D03*
X146045000Y-91360000D03*
X146694999Y-91359999D03*
X147345000Y-91360000D03*
X147995000Y-91360000D03*
X148645001Y-91360001D03*
X148644999Y-84360000D03*
X147995000Y-84360000D03*
X147345001Y-84359999D03*
X146695001Y-84360001D03*
X146045000Y-84360000D03*
X145395000Y-84360000D03*
X144745001Y-84360001D03*
X144095000Y-84360000D03*
X143445000Y-84360000D03*
X142794999Y-84359999D03*
%TD*%
D15*
%TO.C,R15*%
X148400000Y-81570000D03*
X148400000Y-78470000D03*
%TD*%
D17*
%TO.C,C4*%
X156230003Y-91417498D03*
X156229997Y-94542502D03*
%TD*%
D18*
%TO.C,R6*%
X142240000Y-99262499D03*
X142240000Y-102362499D03*
%TD*%
D11*
%TO.C,H4*%
X155000000Y-107500000D03*
%TD*%
D19*
%TO.C,U3*%
X151340000Y-88989999D03*
X153640000Y-88990000D03*
D20*
X153640000Y-82690000D03*
D19*
X155939998Y-88990001D03*
%TD*%
D21*
%TO.C,J1*%
X148890000Y-75105000D03*
X143110000Y-75104998D03*
D22*
X149200000Y-76225000D03*
X148399998Y-76225000D03*
D23*
X147250001Y-76225002D03*
X146249998Y-76224998D03*
X145750000Y-76224998D03*
X144750002Y-76225000D03*
D22*
X143600002Y-76225000D03*
X142800000Y-76225000D03*
X142800000Y-76225000D03*
X143600002Y-76225000D03*
D23*
X144249998Y-76225001D03*
X145250000Y-76225000D03*
X146750002Y-76225001D03*
X147750001Y-76224999D03*
D22*
X148399998Y-76225000D03*
X149200000Y-76225000D03*
D24*
X150320001Y-71425000D03*
D25*
X150320000Y-75625000D03*
X141680000Y-75625000D03*
D24*
X141680000Y-71425000D03*
%TD*%
D15*
%TO.C,R14*%
X142990000Y-81600000D03*
X142990000Y-78500000D03*
%TD*%
D11*
%TO.C,H2*%
X153500000Y-75500000D03*
%TD*%
D26*
%TO.C,J2*%
X148425000Y-105855000D03*
D27*
X148424997Y-108395002D03*
X145884998Y-105854997D03*
X145885000Y-108395000D03*
X143345000Y-105855000D03*
X143345000Y-108395001D03*
%TD*%
D12*
%TO.C,D3*%
X146019999Y-102247500D03*
X146020001Y-99272500D03*
%TD*%
D28*
%TO.C,D1*%
X139310000Y-99347499D03*
X139310002Y-102322499D03*
%TD*%
D11*
%TO.C,H1*%
X138560000Y-75530000D03*
%TD*%
D17*
%TO.C,C5*%
X153620000Y-91420000D03*
X153620002Y-94545002D03*
%TD*%
D29*
%TO.C,C7*%
X136109999Y-98282501D03*
X136110001Y-95157499D03*
%TD*%
M02*
