%TF.GenerationSoftware,KiCad,Pcbnew,8.0.0*%
%TF.CreationDate,2026-01-20T23:42:29+05:30*%
%TF.ProjectId,PICKit_Clone_KiCAD,5049434b-6974-45f4-936c-6f6e655f4b69,1.0*%
%TF.SameCoordinates,Original*%
%TF.FileFunction,Drillmap*%
%TF.FilePolarity,Positive*%
%FSLAX45Y45*%
G04 Gerber Fmt 4.5, Leading zero omitted, Abs format (unit mm)*
G04 Created by KiCad (PCBNEW 8.0.0) date 2026-01-20 23:42:29*
%MOMM*%
%LPD*%
G01*
G04 APERTURE LIST*
%ADD10C,0.200000*%
%ADD11C,0.100000*%
%ADD12C,0.220000*%
G04 APERTURE END LIST*
D10*
X13350000Y-7850000D02*
X13350000Y-11000000D01*
X15850000Y-11000000D02*
X15850000Y-7850000D01*
X13600000Y-11300000D02*
X13349998Y-11000002D01*
X15600000Y-11300000D02*
X13600000Y-11300000D01*
X13350000Y-7850000D02*
X14000000Y-7000000D01*
X15850000Y-7850000D02*
X15200000Y-7000000D01*
X15600000Y-11300000D02*
X15850000Y-11000000D01*
X14000000Y-7000000D02*
X15200000Y-7000000D01*
D11*
X14278500Y-7478000D02*
X14343500Y-7543000D01*
X14343500Y-7478000D02*
X14278500Y-7543000D01*
X14856500Y-7478000D02*
X14921500Y-7543000D01*
X14921500Y-7478000D02*
X14856500Y-7543000D01*
D12*
X13810000Y-10750000D02*
G75*
G02*
X13590000Y-10750000I-110000J0D01*
G01*
X13590000Y-10750000D02*
G75*
G02*
X13810000Y-10750000I110000J0D01*
G01*
X13966000Y-7553000D02*
G75*
G02*
X13746000Y-7553000I-110000J0D01*
G01*
X13746000Y-7553000D02*
G75*
G02*
X13966000Y-7553000I110000J0D01*
G01*
X15460000Y-7550000D02*
G75*
G02*
X15240000Y-7550000I-110000J0D01*
G01*
X15240000Y-7550000D02*
G75*
G02*
X15460000Y-7550000I110000J0D01*
G01*
X15610000Y-10750000D02*
G75*
G02*
X15390000Y-10750000I-110000J0D01*
G01*
X15390000Y-10750000D02*
G75*
G02*
X15610000Y-10750000I110000J0D01*
G01*
D10*
X13600774Y-11621484D02*
X13600774Y-11421484D01*
X13600774Y-11421484D02*
X13648393Y-11421484D01*
X13648393Y-11421484D02*
X13676965Y-11431008D01*
X13676965Y-11431008D02*
X13696013Y-11450055D01*
X13696013Y-11450055D02*
X13705536Y-11469103D01*
X13705536Y-11469103D02*
X13715060Y-11507198D01*
X13715060Y-11507198D02*
X13715060Y-11535769D01*
X13715060Y-11535769D02*
X13705536Y-11573865D01*
X13705536Y-11573865D02*
X13696013Y-11592912D01*
X13696013Y-11592912D02*
X13676965Y-11611960D01*
X13676965Y-11611960D02*
X13648393Y-11621484D01*
X13648393Y-11621484D02*
X13600774Y-11621484D01*
X13800774Y-11621484D02*
X13800774Y-11488150D01*
X13800774Y-11526246D02*
X13810298Y-11507198D01*
X13810298Y-11507198D02*
X13819822Y-11497674D01*
X13819822Y-11497674D02*
X13838870Y-11488150D01*
X13838870Y-11488150D02*
X13857917Y-11488150D01*
X13924584Y-11621484D02*
X13924584Y-11488150D01*
X13924584Y-11421484D02*
X13915060Y-11431008D01*
X13915060Y-11431008D02*
X13924584Y-11440531D01*
X13924584Y-11440531D02*
X13934108Y-11431008D01*
X13934108Y-11431008D02*
X13924584Y-11421484D01*
X13924584Y-11421484D02*
X13924584Y-11440531D01*
X14048393Y-11621484D02*
X14029346Y-11611960D01*
X14029346Y-11611960D02*
X14019822Y-11592912D01*
X14019822Y-11592912D02*
X14019822Y-11421484D01*
X14153155Y-11621484D02*
X14134108Y-11611960D01*
X14134108Y-11611960D02*
X14124584Y-11592912D01*
X14124584Y-11592912D02*
X14124584Y-11421484D01*
X14381727Y-11621484D02*
X14381727Y-11421484D01*
X14381727Y-11421484D02*
X14448394Y-11564341D01*
X14448394Y-11564341D02*
X14515060Y-11421484D01*
X14515060Y-11421484D02*
X14515060Y-11621484D01*
X14696013Y-11621484D02*
X14696013Y-11516722D01*
X14696013Y-11516722D02*
X14686489Y-11497674D01*
X14686489Y-11497674D02*
X14667441Y-11488150D01*
X14667441Y-11488150D02*
X14629346Y-11488150D01*
X14629346Y-11488150D02*
X14610298Y-11497674D01*
X14696013Y-11611960D02*
X14676965Y-11621484D01*
X14676965Y-11621484D02*
X14629346Y-11621484D01*
X14629346Y-11621484D02*
X14610298Y-11611960D01*
X14610298Y-11611960D02*
X14600774Y-11592912D01*
X14600774Y-11592912D02*
X14600774Y-11573865D01*
X14600774Y-11573865D02*
X14610298Y-11554817D01*
X14610298Y-11554817D02*
X14629346Y-11545293D01*
X14629346Y-11545293D02*
X14676965Y-11545293D01*
X14676965Y-11545293D02*
X14696013Y-11535769D01*
X14791251Y-11488150D02*
X14791251Y-11688150D01*
X14791251Y-11497674D02*
X14810298Y-11488150D01*
X14810298Y-11488150D02*
X14848394Y-11488150D01*
X14848394Y-11488150D02*
X14867441Y-11497674D01*
X14867441Y-11497674D02*
X14876965Y-11507198D01*
X14876965Y-11507198D02*
X14886489Y-11526246D01*
X14886489Y-11526246D02*
X14886489Y-11583388D01*
X14886489Y-11583388D02*
X14876965Y-11602436D01*
X14876965Y-11602436D02*
X14867441Y-11611960D01*
X14867441Y-11611960D02*
X14848394Y-11621484D01*
X14848394Y-11621484D02*
X14810298Y-11621484D01*
X14810298Y-11621484D02*
X14791251Y-11611960D01*
X14972203Y-11602436D02*
X14981727Y-11611960D01*
X14981727Y-11611960D02*
X14972203Y-11621484D01*
X14972203Y-11621484D02*
X14962679Y-11611960D01*
X14962679Y-11611960D02*
X14972203Y-11602436D01*
X14972203Y-11602436D02*
X14972203Y-11621484D01*
X14972203Y-11497674D02*
X14981727Y-11507198D01*
X14981727Y-11507198D02*
X14972203Y-11516722D01*
X14972203Y-11516722D02*
X14962679Y-11507198D01*
X14962679Y-11507198D02*
X14972203Y-11497674D01*
X14972203Y-11497674D02*
X14972203Y-11516722D01*
D11*
X13274998Y-11917500D02*
X13339998Y-11982500D01*
X13339998Y-11917500D02*
X13274998Y-11982500D01*
D10*
X13638870Y-11841484D02*
X13657917Y-11841484D01*
X13657917Y-11841484D02*
X13676965Y-11851008D01*
X13676965Y-11851008D02*
X13686489Y-11860531D01*
X13686489Y-11860531D02*
X13696013Y-11879579D01*
X13696013Y-11879579D02*
X13705536Y-11917674D01*
X13705536Y-11917674D02*
X13705536Y-11965293D01*
X13705536Y-11965293D02*
X13696013Y-12003388D01*
X13696013Y-12003388D02*
X13686489Y-12022436D01*
X13686489Y-12022436D02*
X13676965Y-12031960D01*
X13676965Y-12031960D02*
X13657917Y-12041484D01*
X13657917Y-12041484D02*
X13638870Y-12041484D01*
X13638870Y-12041484D02*
X13619822Y-12031960D01*
X13619822Y-12031960D02*
X13610298Y-12022436D01*
X13610298Y-12022436D02*
X13600774Y-12003388D01*
X13600774Y-12003388D02*
X13591251Y-11965293D01*
X13591251Y-11965293D02*
X13591251Y-11917674D01*
X13591251Y-11917674D02*
X13600774Y-11879579D01*
X13600774Y-11879579D02*
X13610298Y-11860531D01*
X13610298Y-11860531D02*
X13619822Y-11851008D01*
X13619822Y-11851008D02*
X13638870Y-11841484D01*
X13791251Y-12022436D02*
X13800774Y-12031960D01*
X13800774Y-12031960D02*
X13791251Y-12041484D01*
X13791251Y-12041484D02*
X13781727Y-12031960D01*
X13781727Y-12031960D02*
X13791251Y-12022436D01*
X13791251Y-12022436D02*
X13791251Y-12041484D01*
X13972203Y-11841484D02*
X13934108Y-11841484D01*
X13934108Y-11841484D02*
X13915060Y-11851008D01*
X13915060Y-11851008D02*
X13905536Y-11860531D01*
X13905536Y-11860531D02*
X13886489Y-11889103D01*
X13886489Y-11889103D02*
X13876965Y-11927198D01*
X13876965Y-11927198D02*
X13876965Y-12003388D01*
X13876965Y-12003388D02*
X13886489Y-12022436D01*
X13886489Y-12022436D02*
X13896013Y-12031960D01*
X13896013Y-12031960D02*
X13915060Y-12041484D01*
X13915060Y-12041484D02*
X13953155Y-12041484D01*
X13953155Y-12041484D02*
X13972203Y-12031960D01*
X13972203Y-12031960D02*
X13981727Y-12022436D01*
X13981727Y-12022436D02*
X13991251Y-12003388D01*
X13991251Y-12003388D02*
X13991251Y-11955769D01*
X13991251Y-11955769D02*
X13981727Y-11936722D01*
X13981727Y-11936722D02*
X13972203Y-11927198D01*
X13972203Y-11927198D02*
X13953155Y-11917674D01*
X13953155Y-11917674D02*
X13915060Y-11917674D01*
X13915060Y-11917674D02*
X13896013Y-11927198D01*
X13896013Y-11927198D02*
X13886489Y-11936722D01*
X13886489Y-11936722D02*
X13876965Y-11955769D01*
X14172203Y-11841484D02*
X14076965Y-11841484D01*
X14076965Y-11841484D02*
X14067441Y-11936722D01*
X14067441Y-11936722D02*
X14076965Y-11927198D01*
X14076965Y-11927198D02*
X14096013Y-11917674D01*
X14096013Y-11917674D02*
X14143632Y-11917674D01*
X14143632Y-11917674D02*
X14162679Y-11927198D01*
X14162679Y-11927198D02*
X14172203Y-11936722D01*
X14172203Y-11936722D02*
X14181727Y-11955769D01*
X14181727Y-11955769D02*
X14181727Y-12003388D01*
X14181727Y-12003388D02*
X14172203Y-12022436D01*
X14172203Y-12022436D02*
X14162679Y-12031960D01*
X14162679Y-12031960D02*
X14143632Y-12041484D01*
X14143632Y-12041484D02*
X14096013Y-12041484D01*
X14096013Y-12041484D02*
X14076965Y-12031960D01*
X14076965Y-12031960D02*
X14067441Y-12022436D01*
X14305536Y-11841484D02*
X14324584Y-11841484D01*
X14324584Y-11841484D02*
X14343632Y-11851008D01*
X14343632Y-11851008D02*
X14353155Y-11860531D01*
X14353155Y-11860531D02*
X14362679Y-11879579D01*
X14362679Y-11879579D02*
X14372203Y-11917674D01*
X14372203Y-11917674D02*
X14372203Y-11965293D01*
X14372203Y-11965293D02*
X14362679Y-12003388D01*
X14362679Y-12003388D02*
X14353155Y-12022436D01*
X14353155Y-12022436D02*
X14343632Y-12031960D01*
X14343632Y-12031960D02*
X14324584Y-12041484D01*
X14324584Y-12041484D02*
X14305536Y-12041484D01*
X14305536Y-12041484D02*
X14286489Y-12031960D01*
X14286489Y-12031960D02*
X14276965Y-12022436D01*
X14276965Y-12022436D02*
X14267441Y-12003388D01*
X14267441Y-12003388D02*
X14257917Y-11965293D01*
X14257917Y-11965293D02*
X14257917Y-11917674D01*
X14257917Y-11917674D02*
X14267441Y-11879579D01*
X14267441Y-11879579D02*
X14276965Y-11860531D01*
X14276965Y-11860531D02*
X14286489Y-11851008D01*
X14286489Y-11851008D02*
X14305536Y-11841484D01*
X14457917Y-12041484D02*
X14457917Y-11908150D01*
X14457917Y-11927198D02*
X14467441Y-11917674D01*
X14467441Y-11917674D02*
X14486489Y-11908150D01*
X14486489Y-11908150D02*
X14515060Y-11908150D01*
X14515060Y-11908150D02*
X14534108Y-11917674D01*
X14534108Y-11917674D02*
X14543632Y-11936722D01*
X14543632Y-11936722D02*
X14543632Y-12041484D01*
X14543632Y-11936722D02*
X14553155Y-11917674D01*
X14553155Y-11917674D02*
X14572203Y-11908150D01*
X14572203Y-11908150D02*
X14600774Y-11908150D01*
X14600774Y-11908150D02*
X14619822Y-11917674D01*
X14619822Y-11917674D02*
X14629346Y-11936722D01*
X14629346Y-11936722D02*
X14629346Y-12041484D01*
X14724584Y-12041484D02*
X14724584Y-11908150D01*
X14724584Y-11927198D02*
X14734108Y-11917674D01*
X14734108Y-11917674D02*
X14753155Y-11908150D01*
X14753155Y-11908150D02*
X14781727Y-11908150D01*
X14781727Y-11908150D02*
X14800775Y-11917674D01*
X14800775Y-11917674D02*
X14810298Y-11936722D01*
X14810298Y-11936722D02*
X14810298Y-12041484D01*
X14810298Y-11936722D02*
X14819822Y-11917674D01*
X14819822Y-11917674D02*
X14838870Y-11908150D01*
X14838870Y-11908150D02*
X14867441Y-11908150D01*
X14867441Y-11908150D02*
X14886489Y-11917674D01*
X14886489Y-11917674D02*
X14896013Y-11936722D01*
X14896013Y-11936722D02*
X14896013Y-12041484D01*
X15286489Y-11831960D02*
X15115060Y-12089103D01*
X15543632Y-11841484D02*
X15562679Y-11841484D01*
X15562679Y-11841484D02*
X15581727Y-11851008D01*
X15581727Y-11851008D02*
X15591251Y-11860531D01*
X15591251Y-11860531D02*
X15600775Y-11879579D01*
X15600775Y-11879579D02*
X15610298Y-11917674D01*
X15610298Y-11917674D02*
X15610298Y-11965293D01*
X15610298Y-11965293D02*
X15600775Y-12003388D01*
X15600775Y-12003388D02*
X15591251Y-12022436D01*
X15591251Y-12022436D02*
X15581727Y-12031960D01*
X15581727Y-12031960D02*
X15562679Y-12041484D01*
X15562679Y-12041484D02*
X15543632Y-12041484D01*
X15543632Y-12041484D02*
X15524584Y-12031960D01*
X15524584Y-12031960D02*
X15515060Y-12022436D01*
X15515060Y-12022436D02*
X15505537Y-12003388D01*
X15505537Y-12003388D02*
X15496013Y-11965293D01*
X15496013Y-11965293D02*
X15496013Y-11917674D01*
X15496013Y-11917674D02*
X15505537Y-11879579D01*
X15505537Y-11879579D02*
X15515060Y-11860531D01*
X15515060Y-11860531D02*
X15524584Y-11851008D01*
X15524584Y-11851008D02*
X15543632Y-11841484D01*
X15696013Y-12022436D02*
X15705537Y-12031960D01*
X15705537Y-12031960D02*
X15696013Y-12041484D01*
X15696013Y-12041484D02*
X15686489Y-12031960D01*
X15686489Y-12031960D02*
X15696013Y-12022436D01*
X15696013Y-12022436D02*
X15696013Y-12041484D01*
X15829346Y-11841484D02*
X15848394Y-11841484D01*
X15848394Y-11841484D02*
X15867441Y-11851008D01*
X15867441Y-11851008D02*
X15876965Y-11860531D01*
X15876965Y-11860531D02*
X15886489Y-11879579D01*
X15886489Y-11879579D02*
X15896013Y-11917674D01*
X15896013Y-11917674D02*
X15896013Y-11965293D01*
X15896013Y-11965293D02*
X15886489Y-12003388D01*
X15886489Y-12003388D02*
X15876965Y-12022436D01*
X15876965Y-12022436D02*
X15867441Y-12031960D01*
X15867441Y-12031960D02*
X15848394Y-12041484D01*
X15848394Y-12041484D02*
X15829346Y-12041484D01*
X15829346Y-12041484D02*
X15810298Y-12031960D01*
X15810298Y-12031960D02*
X15800775Y-12022436D01*
X15800775Y-12022436D02*
X15791251Y-12003388D01*
X15791251Y-12003388D02*
X15781727Y-11965293D01*
X15781727Y-11965293D02*
X15781727Y-11917674D01*
X15781727Y-11917674D02*
X15791251Y-11879579D01*
X15791251Y-11879579D02*
X15800775Y-11860531D01*
X15800775Y-11860531D02*
X15810298Y-11851008D01*
X15810298Y-11851008D02*
X15829346Y-11841484D01*
X15972203Y-11860531D02*
X15981727Y-11851008D01*
X15981727Y-11851008D02*
X16000775Y-11841484D01*
X16000775Y-11841484D02*
X16048394Y-11841484D01*
X16048394Y-11841484D02*
X16067441Y-11851008D01*
X16067441Y-11851008D02*
X16076965Y-11860531D01*
X16076965Y-11860531D02*
X16086489Y-11879579D01*
X16086489Y-11879579D02*
X16086489Y-11898627D01*
X16086489Y-11898627D02*
X16076965Y-11927198D01*
X16076965Y-11927198D02*
X15962679Y-12041484D01*
X15962679Y-12041484D02*
X16086489Y-12041484D01*
X16267441Y-11841484D02*
X16172203Y-11841484D01*
X16172203Y-11841484D02*
X16162679Y-11936722D01*
X16162679Y-11936722D02*
X16172203Y-11927198D01*
X16172203Y-11927198D02*
X16191251Y-11917674D01*
X16191251Y-11917674D02*
X16238870Y-11917674D01*
X16238870Y-11917674D02*
X16257918Y-11927198D01*
X16257918Y-11927198D02*
X16267441Y-11936722D01*
X16267441Y-11936722D02*
X16276965Y-11955769D01*
X16276965Y-11955769D02*
X16276965Y-12003388D01*
X16276965Y-12003388D02*
X16267441Y-12022436D01*
X16267441Y-12022436D02*
X16257918Y-12031960D01*
X16257918Y-12031960D02*
X16238870Y-12041484D01*
X16238870Y-12041484D02*
X16191251Y-12041484D01*
X16191251Y-12041484D02*
X16172203Y-12031960D01*
X16172203Y-12031960D02*
X16162679Y-12022436D01*
X16448394Y-11841484D02*
X16410298Y-11841484D01*
X16410298Y-11841484D02*
X16391251Y-11851008D01*
X16391251Y-11851008D02*
X16381727Y-11860531D01*
X16381727Y-11860531D02*
X16362679Y-11889103D01*
X16362679Y-11889103D02*
X16353156Y-11927198D01*
X16353156Y-11927198D02*
X16353156Y-12003388D01*
X16353156Y-12003388D02*
X16362679Y-12022436D01*
X16362679Y-12022436D02*
X16372203Y-12031960D01*
X16372203Y-12031960D02*
X16391251Y-12041484D01*
X16391251Y-12041484D02*
X16429346Y-12041484D01*
X16429346Y-12041484D02*
X16448394Y-12031960D01*
X16448394Y-12031960D02*
X16457918Y-12022436D01*
X16457918Y-12022436D02*
X16467441Y-12003388D01*
X16467441Y-12003388D02*
X16467441Y-11955769D01*
X16467441Y-11955769D02*
X16457918Y-11936722D01*
X16457918Y-11936722D02*
X16448394Y-11927198D01*
X16448394Y-11927198D02*
X16429346Y-11917674D01*
X16429346Y-11917674D02*
X16391251Y-11917674D01*
X16391251Y-11917674D02*
X16372203Y-11927198D01*
X16372203Y-11927198D02*
X16362679Y-11936722D01*
X16362679Y-11936722D02*
X16353156Y-11955769D01*
X16543632Y-11841484D02*
X16543632Y-11879579D01*
X16619822Y-11841484D02*
X16619822Y-11879579D01*
X16915061Y-12117674D02*
X16905537Y-12108150D01*
X16905537Y-12108150D02*
X16886489Y-12079579D01*
X16886489Y-12079579D02*
X16876965Y-12060531D01*
X16876965Y-12060531D02*
X16867442Y-12031960D01*
X16867442Y-12031960D02*
X16857918Y-11984341D01*
X16857918Y-11984341D02*
X16857918Y-11946246D01*
X16857918Y-11946246D02*
X16867442Y-11898627D01*
X16867442Y-11898627D02*
X16876965Y-11870055D01*
X16876965Y-11870055D02*
X16886489Y-11851008D01*
X16886489Y-11851008D02*
X16905537Y-11822436D01*
X16905537Y-11822436D02*
X16915061Y-11812912D01*
X16981727Y-11860531D02*
X16991251Y-11851008D01*
X16991251Y-11851008D02*
X17010299Y-11841484D01*
X17010299Y-11841484D02*
X17057918Y-11841484D01*
X17057918Y-11841484D02*
X17076965Y-11851008D01*
X17076965Y-11851008D02*
X17086489Y-11860531D01*
X17086489Y-11860531D02*
X17096013Y-11879579D01*
X17096013Y-11879579D02*
X17096013Y-11898627D01*
X17096013Y-11898627D02*
X17086489Y-11927198D01*
X17086489Y-11927198D02*
X16972203Y-12041484D01*
X16972203Y-12041484D02*
X17096013Y-12041484D01*
X17334108Y-12041484D02*
X17334108Y-11841484D01*
X17419823Y-12041484D02*
X17419823Y-11936722D01*
X17419823Y-11936722D02*
X17410299Y-11917674D01*
X17410299Y-11917674D02*
X17391251Y-11908150D01*
X17391251Y-11908150D02*
X17362680Y-11908150D01*
X17362680Y-11908150D02*
X17343632Y-11917674D01*
X17343632Y-11917674D02*
X17334108Y-11927198D01*
X17543632Y-12041484D02*
X17524584Y-12031960D01*
X17524584Y-12031960D02*
X17515061Y-12022436D01*
X17515061Y-12022436D02*
X17505537Y-12003388D01*
X17505537Y-12003388D02*
X17505537Y-11946246D01*
X17505537Y-11946246D02*
X17515061Y-11927198D01*
X17515061Y-11927198D02*
X17524584Y-11917674D01*
X17524584Y-11917674D02*
X17543632Y-11908150D01*
X17543632Y-11908150D02*
X17572204Y-11908150D01*
X17572204Y-11908150D02*
X17591251Y-11917674D01*
X17591251Y-11917674D02*
X17600775Y-11927198D01*
X17600775Y-11927198D02*
X17610299Y-11946246D01*
X17610299Y-11946246D02*
X17610299Y-12003388D01*
X17610299Y-12003388D02*
X17600775Y-12022436D01*
X17600775Y-12022436D02*
X17591251Y-12031960D01*
X17591251Y-12031960D02*
X17572204Y-12041484D01*
X17572204Y-12041484D02*
X17543632Y-12041484D01*
X17724584Y-12041484D02*
X17705537Y-12031960D01*
X17705537Y-12031960D02*
X17696013Y-12012912D01*
X17696013Y-12012912D02*
X17696013Y-11841484D01*
X17876965Y-12031960D02*
X17857918Y-12041484D01*
X17857918Y-12041484D02*
X17819823Y-12041484D01*
X17819823Y-12041484D02*
X17800775Y-12031960D01*
X17800775Y-12031960D02*
X17791251Y-12012912D01*
X17791251Y-12012912D02*
X17791251Y-11936722D01*
X17791251Y-11936722D02*
X17800775Y-11917674D01*
X17800775Y-11917674D02*
X17819823Y-11908150D01*
X17819823Y-11908150D02*
X17857918Y-11908150D01*
X17857918Y-11908150D02*
X17876965Y-11917674D01*
X17876965Y-11917674D02*
X17886489Y-11936722D01*
X17886489Y-11936722D02*
X17886489Y-11955769D01*
X17886489Y-11955769D02*
X17791251Y-11974817D01*
X17962680Y-12031960D02*
X17981727Y-12041484D01*
X17981727Y-12041484D02*
X18019823Y-12041484D01*
X18019823Y-12041484D02*
X18038870Y-12031960D01*
X18038870Y-12031960D02*
X18048394Y-12012912D01*
X18048394Y-12012912D02*
X18048394Y-12003388D01*
X18048394Y-12003388D02*
X18038870Y-11984341D01*
X18038870Y-11984341D02*
X18019823Y-11974817D01*
X18019823Y-11974817D02*
X17991251Y-11974817D01*
X17991251Y-11974817D02*
X17972204Y-11965293D01*
X17972204Y-11965293D02*
X17962680Y-11946246D01*
X17962680Y-11946246D02*
X17962680Y-11936722D01*
X17962680Y-11936722D02*
X17972204Y-11917674D01*
X17972204Y-11917674D02*
X17991251Y-11908150D01*
X17991251Y-11908150D02*
X18019823Y-11908150D01*
X18019823Y-11908150D02*
X18038870Y-11917674D01*
X18115061Y-12117674D02*
X18124585Y-12108150D01*
X18124585Y-12108150D02*
X18143632Y-12079579D01*
X18143632Y-12079579D02*
X18153156Y-12060531D01*
X18153156Y-12060531D02*
X18162680Y-12031960D01*
X18162680Y-12031960D02*
X18172204Y-11984341D01*
X18172204Y-11984341D02*
X18172204Y-11946246D01*
X18172204Y-11946246D02*
X18162680Y-11898627D01*
X18162680Y-11898627D02*
X18153156Y-11870055D01*
X18153156Y-11870055D02*
X18143632Y-11851008D01*
X18143632Y-11851008D02*
X18124585Y-11822436D01*
X18124585Y-11822436D02*
X18115061Y-11812912D01*
X18476966Y-12117674D02*
X18467442Y-12108150D01*
X18467442Y-12108150D02*
X18448394Y-12079579D01*
X18448394Y-12079579D02*
X18438870Y-12060531D01*
X18438870Y-12060531D02*
X18429346Y-12031960D01*
X18429346Y-12031960D02*
X18419823Y-11984341D01*
X18419823Y-11984341D02*
X18419823Y-11946246D01*
X18419823Y-11946246D02*
X18429346Y-11898627D01*
X18429346Y-11898627D02*
X18438870Y-11870055D01*
X18438870Y-11870055D02*
X18448394Y-11851008D01*
X18448394Y-11851008D02*
X18467442Y-11822436D01*
X18467442Y-11822436D02*
X18476966Y-11812912D01*
X18553156Y-11908150D02*
X18553156Y-12041484D01*
X18553156Y-11927198D02*
X18562680Y-11917674D01*
X18562680Y-11917674D02*
X18581727Y-11908150D01*
X18581727Y-11908150D02*
X18610299Y-11908150D01*
X18610299Y-11908150D02*
X18629346Y-11917674D01*
X18629346Y-11917674D02*
X18638870Y-11936722D01*
X18638870Y-11936722D02*
X18638870Y-12041484D01*
X18762680Y-12041484D02*
X18743632Y-12031960D01*
X18743632Y-12031960D02*
X18734108Y-12022436D01*
X18734108Y-12022436D02*
X18724585Y-12003388D01*
X18724585Y-12003388D02*
X18724585Y-11946246D01*
X18724585Y-11946246D02*
X18734108Y-11927198D01*
X18734108Y-11927198D02*
X18743632Y-11917674D01*
X18743632Y-11917674D02*
X18762680Y-11908150D01*
X18762680Y-11908150D02*
X18791251Y-11908150D01*
X18791251Y-11908150D02*
X18810299Y-11917674D01*
X18810299Y-11917674D02*
X18819823Y-11927198D01*
X18819823Y-11927198D02*
X18829346Y-11946246D01*
X18829346Y-11946246D02*
X18829346Y-12003388D01*
X18829346Y-12003388D02*
X18819823Y-12022436D01*
X18819823Y-12022436D02*
X18810299Y-12031960D01*
X18810299Y-12031960D02*
X18791251Y-12041484D01*
X18791251Y-12041484D02*
X18762680Y-12041484D01*
X18886489Y-11908150D02*
X18962680Y-11908150D01*
X18915061Y-11841484D02*
X18915061Y-12012912D01*
X18915061Y-12012912D02*
X18924585Y-12031960D01*
X18924585Y-12031960D02*
X18943632Y-12041484D01*
X18943632Y-12041484D02*
X18962680Y-12041484D01*
X19181727Y-11908150D02*
X19181727Y-12108150D01*
X19181727Y-11917674D02*
X19200775Y-11908150D01*
X19200775Y-11908150D02*
X19238870Y-11908150D01*
X19238870Y-11908150D02*
X19257918Y-11917674D01*
X19257918Y-11917674D02*
X19267442Y-11927198D01*
X19267442Y-11927198D02*
X19276966Y-11946246D01*
X19276966Y-11946246D02*
X19276966Y-12003388D01*
X19276966Y-12003388D02*
X19267442Y-12022436D01*
X19267442Y-12022436D02*
X19257918Y-12031960D01*
X19257918Y-12031960D02*
X19238870Y-12041484D01*
X19238870Y-12041484D02*
X19200775Y-12041484D01*
X19200775Y-12041484D02*
X19181727Y-12031960D01*
X19391251Y-12041484D02*
X19372204Y-12031960D01*
X19372204Y-12031960D02*
X19362680Y-12012912D01*
X19362680Y-12012912D02*
X19362680Y-11841484D01*
X19553156Y-12041484D02*
X19553156Y-11936722D01*
X19553156Y-11936722D02*
X19543632Y-11917674D01*
X19543632Y-11917674D02*
X19524585Y-11908150D01*
X19524585Y-11908150D02*
X19486489Y-11908150D01*
X19486489Y-11908150D02*
X19467442Y-11917674D01*
X19553156Y-12031960D02*
X19534108Y-12041484D01*
X19534108Y-12041484D02*
X19486489Y-12041484D01*
X19486489Y-12041484D02*
X19467442Y-12031960D01*
X19467442Y-12031960D02*
X19457918Y-12012912D01*
X19457918Y-12012912D02*
X19457918Y-11993865D01*
X19457918Y-11993865D02*
X19467442Y-11974817D01*
X19467442Y-11974817D02*
X19486489Y-11965293D01*
X19486489Y-11965293D02*
X19534108Y-11965293D01*
X19534108Y-11965293D02*
X19553156Y-11955769D01*
X19619823Y-11908150D02*
X19696013Y-11908150D01*
X19648394Y-11841484D02*
X19648394Y-12012912D01*
X19648394Y-12012912D02*
X19657918Y-12031960D01*
X19657918Y-12031960D02*
X19676966Y-12041484D01*
X19676966Y-12041484D02*
X19696013Y-12041484D01*
X19838870Y-12031960D02*
X19819823Y-12041484D01*
X19819823Y-12041484D02*
X19781727Y-12041484D01*
X19781727Y-12041484D02*
X19762680Y-12031960D01*
X19762680Y-12031960D02*
X19753156Y-12012912D01*
X19753156Y-12012912D02*
X19753156Y-11936722D01*
X19753156Y-11936722D02*
X19762680Y-11917674D01*
X19762680Y-11917674D02*
X19781727Y-11908150D01*
X19781727Y-11908150D02*
X19819823Y-11908150D01*
X19819823Y-11908150D02*
X19838870Y-11917674D01*
X19838870Y-11917674D02*
X19848394Y-11936722D01*
X19848394Y-11936722D02*
X19848394Y-11955769D01*
X19848394Y-11955769D02*
X19753156Y-11974817D01*
X20019823Y-12041484D02*
X20019823Y-11841484D01*
X20019823Y-12031960D02*
X20000775Y-12041484D01*
X20000775Y-12041484D02*
X19962680Y-12041484D01*
X19962680Y-12041484D02*
X19943632Y-12031960D01*
X19943632Y-12031960D02*
X19934108Y-12022436D01*
X19934108Y-12022436D02*
X19924585Y-12003388D01*
X19924585Y-12003388D02*
X19924585Y-11946246D01*
X19924585Y-11946246D02*
X19934108Y-11927198D01*
X19934108Y-11927198D02*
X19943632Y-11917674D01*
X19943632Y-11917674D02*
X19962680Y-11908150D01*
X19962680Y-11908150D02*
X20000775Y-11908150D01*
X20000775Y-11908150D02*
X20019823Y-11917674D01*
X20096013Y-12117674D02*
X20105537Y-12108150D01*
X20105537Y-12108150D02*
X20124585Y-12079579D01*
X20124585Y-12079579D02*
X20134108Y-12060531D01*
X20134108Y-12060531D02*
X20143632Y-12031960D01*
X20143632Y-12031960D02*
X20153156Y-11984341D01*
X20153156Y-11984341D02*
X20153156Y-11946246D01*
X20153156Y-11946246D02*
X20143632Y-11898627D01*
X20143632Y-11898627D02*
X20134108Y-11870055D01*
X20134108Y-11870055D02*
X20124585Y-11851008D01*
X20124585Y-11851008D02*
X20105537Y-11822436D01*
X20105537Y-11822436D02*
X20096013Y-11812912D01*
X13339998Y-12214000D02*
G75*
G02*
X13139998Y-12214000I-100000J0D01*
G01*
X13139998Y-12214000D02*
G75*
G02*
X13339998Y-12214000I100000J0D01*
G01*
X13591251Y-12124531D02*
X13600774Y-12115008D01*
X13600774Y-12115008D02*
X13619822Y-12105484D01*
X13619822Y-12105484D02*
X13667441Y-12105484D01*
X13667441Y-12105484D02*
X13686489Y-12115008D01*
X13686489Y-12115008D02*
X13696013Y-12124531D01*
X13696013Y-12124531D02*
X13705536Y-12143579D01*
X13705536Y-12143579D02*
X13705536Y-12162627D01*
X13705536Y-12162627D02*
X13696013Y-12191198D01*
X13696013Y-12191198D02*
X13581727Y-12305484D01*
X13581727Y-12305484D02*
X13705536Y-12305484D01*
X13791251Y-12286436D02*
X13800774Y-12295960D01*
X13800774Y-12295960D02*
X13791251Y-12305484D01*
X13791251Y-12305484D02*
X13781727Y-12295960D01*
X13781727Y-12295960D02*
X13791251Y-12286436D01*
X13791251Y-12286436D02*
X13791251Y-12305484D01*
X13876965Y-12124531D02*
X13886489Y-12115008D01*
X13886489Y-12115008D02*
X13905536Y-12105484D01*
X13905536Y-12105484D02*
X13953155Y-12105484D01*
X13953155Y-12105484D02*
X13972203Y-12115008D01*
X13972203Y-12115008D02*
X13981727Y-12124531D01*
X13981727Y-12124531D02*
X13991251Y-12143579D01*
X13991251Y-12143579D02*
X13991251Y-12162627D01*
X13991251Y-12162627D02*
X13981727Y-12191198D01*
X13981727Y-12191198D02*
X13867441Y-12305484D01*
X13867441Y-12305484D02*
X13991251Y-12305484D01*
X14115060Y-12105484D02*
X14134108Y-12105484D01*
X14134108Y-12105484D02*
X14153155Y-12115008D01*
X14153155Y-12115008D02*
X14162679Y-12124531D01*
X14162679Y-12124531D02*
X14172203Y-12143579D01*
X14172203Y-12143579D02*
X14181727Y-12181674D01*
X14181727Y-12181674D02*
X14181727Y-12229293D01*
X14181727Y-12229293D02*
X14172203Y-12267388D01*
X14172203Y-12267388D02*
X14162679Y-12286436D01*
X14162679Y-12286436D02*
X14153155Y-12295960D01*
X14153155Y-12295960D02*
X14134108Y-12305484D01*
X14134108Y-12305484D02*
X14115060Y-12305484D01*
X14115060Y-12305484D02*
X14096013Y-12295960D01*
X14096013Y-12295960D02*
X14086489Y-12286436D01*
X14086489Y-12286436D02*
X14076965Y-12267388D01*
X14076965Y-12267388D02*
X14067441Y-12229293D01*
X14067441Y-12229293D02*
X14067441Y-12181674D01*
X14067441Y-12181674D02*
X14076965Y-12143579D01*
X14076965Y-12143579D02*
X14086489Y-12124531D01*
X14086489Y-12124531D02*
X14096013Y-12115008D01*
X14096013Y-12115008D02*
X14115060Y-12105484D01*
X14305536Y-12105484D02*
X14324584Y-12105484D01*
X14324584Y-12105484D02*
X14343632Y-12115008D01*
X14343632Y-12115008D02*
X14353155Y-12124531D01*
X14353155Y-12124531D02*
X14362679Y-12143579D01*
X14362679Y-12143579D02*
X14372203Y-12181674D01*
X14372203Y-12181674D02*
X14372203Y-12229293D01*
X14372203Y-12229293D02*
X14362679Y-12267388D01*
X14362679Y-12267388D02*
X14353155Y-12286436D01*
X14353155Y-12286436D02*
X14343632Y-12295960D01*
X14343632Y-12295960D02*
X14324584Y-12305484D01*
X14324584Y-12305484D02*
X14305536Y-12305484D01*
X14305536Y-12305484D02*
X14286489Y-12295960D01*
X14286489Y-12295960D02*
X14276965Y-12286436D01*
X14276965Y-12286436D02*
X14267441Y-12267388D01*
X14267441Y-12267388D02*
X14257917Y-12229293D01*
X14257917Y-12229293D02*
X14257917Y-12181674D01*
X14257917Y-12181674D02*
X14267441Y-12143579D01*
X14267441Y-12143579D02*
X14276965Y-12124531D01*
X14276965Y-12124531D02*
X14286489Y-12115008D01*
X14286489Y-12115008D02*
X14305536Y-12105484D01*
X14457917Y-12305484D02*
X14457917Y-12172150D01*
X14457917Y-12191198D02*
X14467441Y-12181674D01*
X14467441Y-12181674D02*
X14486489Y-12172150D01*
X14486489Y-12172150D02*
X14515060Y-12172150D01*
X14515060Y-12172150D02*
X14534108Y-12181674D01*
X14534108Y-12181674D02*
X14543632Y-12200722D01*
X14543632Y-12200722D02*
X14543632Y-12305484D01*
X14543632Y-12200722D02*
X14553155Y-12181674D01*
X14553155Y-12181674D02*
X14572203Y-12172150D01*
X14572203Y-12172150D02*
X14600774Y-12172150D01*
X14600774Y-12172150D02*
X14619822Y-12181674D01*
X14619822Y-12181674D02*
X14629346Y-12200722D01*
X14629346Y-12200722D02*
X14629346Y-12305484D01*
X14724584Y-12305484D02*
X14724584Y-12172150D01*
X14724584Y-12191198D02*
X14734108Y-12181674D01*
X14734108Y-12181674D02*
X14753155Y-12172150D01*
X14753155Y-12172150D02*
X14781727Y-12172150D01*
X14781727Y-12172150D02*
X14800775Y-12181674D01*
X14800775Y-12181674D02*
X14810298Y-12200722D01*
X14810298Y-12200722D02*
X14810298Y-12305484D01*
X14810298Y-12200722D02*
X14819822Y-12181674D01*
X14819822Y-12181674D02*
X14838870Y-12172150D01*
X14838870Y-12172150D02*
X14867441Y-12172150D01*
X14867441Y-12172150D02*
X14886489Y-12181674D01*
X14886489Y-12181674D02*
X14896013Y-12200722D01*
X14896013Y-12200722D02*
X14896013Y-12305484D01*
X15286489Y-12095960D02*
X15115060Y-12353103D01*
X15543632Y-12105484D02*
X15562679Y-12105484D01*
X15562679Y-12105484D02*
X15581727Y-12115008D01*
X15581727Y-12115008D02*
X15591251Y-12124531D01*
X15591251Y-12124531D02*
X15600775Y-12143579D01*
X15600775Y-12143579D02*
X15610298Y-12181674D01*
X15610298Y-12181674D02*
X15610298Y-12229293D01*
X15610298Y-12229293D02*
X15600775Y-12267388D01*
X15600775Y-12267388D02*
X15591251Y-12286436D01*
X15591251Y-12286436D02*
X15581727Y-12295960D01*
X15581727Y-12295960D02*
X15562679Y-12305484D01*
X15562679Y-12305484D02*
X15543632Y-12305484D01*
X15543632Y-12305484D02*
X15524584Y-12295960D01*
X15524584Y-12295960D02*
X15515060Y-12286436D01*
X15515060Y-12286436D02*
X15505537Y-12267388D01*
X15505537Y-12267388D02*
X15496013Y-12229293D01*
X15496013Y-12229293D02*
X15496013Y-12181674D01*
X15496013Y-12181674D02*
X15505537Y-12143579D01*
X15505537Y-12143579D02*
X15515060Y-12124531D01*
X15515060Y-12124531D02*
X15524584Y-12115008D01*
X15524584Y-12115008D02*
X15543632Y-12105484D01*
X15696013Y-12286436D02*
X15705537Y-12295960D01*
X15705537Y-12295960D02*
X15696013Y-12305484D01*
X15696013Y-12305484D02*
X15686489Y-12295960D01*
X15686489Y-12295960D02*
X15696013Y-12286436D01*
X15696013Y-12286436D02*
X15696013Y-12305484D01*
X15829346Y-12105484D02*
X15848394Y-12105484D01*
X15848394Y-12105484D02*
X15867441Y-12115008D01*
X15867441Y-12115008D02*
X15876965Y-12124531D01*
X15876965Y-12124531D02*
X15886489Y-12143579D01*
X15886489Y-12143579D02*
X15896013Y-12181674D01*
X15896013Y-12181674D02*
X15896013Y-12229293D01*
X15896013Y-12229293D02*
X15886489Y-12267388D01*
X15886489Y-12267388D02*
X15876965Y-12286436D01*
X15876965Y-12286436D02*
X15867441Y-12295960D01*
X15867441Y-12295960D02*
X15848394Y-12305484D01*
X15848394Y-12305484D02*
X15829346Y-12305484D01*
X15829346Y-12305484D02*
X15810298Y-12295960D01*
X15810298Y-12295960D02*
X15800775Y-12286436D01*
X15800775Y-12286436D02*
X15791251Y-12267388D01*
X15791251Y-12267388D02*
X15781727Y-12229293D01*
X15781727Y-12229293D02*
X15781727Y-12181674D01*
X15781727Y-12181674D02*
X15791251Y-12143579D01*
X15791251Y-12143579D02*
X15800775Y-12124531D01*
X15800775Y-12124531D02*
X15810298Y-12115008D01*
X15810298Y-12115008D02*
X15829346Y-12105484D01*
X16010298Y-12191198D02*
X15991251Y-12181674D01*
X15991251Y-12181674D02*
X15981727Y-12172150D01*
X15981727Y-12172150D02*
X15972203Y-12153103D01*
X15972203Y-12153103D02*
X15972203Y-12143579D01*
X15972203Y-12143579D02*
X15981727Y-12124531D01*
X15981727Y-12124531D02*
X15991251Y-12115008D01*
X15991251Y-12115008D02*
X16010298Y-12105484D01*
X16010298Y-12105484D02*
X16048394Y-12105484D01*
X16048394Y-12105484D02*
X16067441Y-12115008D01*
X16067441Y-12115008D02*
X16076965Y-12124531D01*
X16076965Y-12124531D02*
X16086489Y-12143579D01*
X16086489Y-12143579D02*
X16086489Y-12153103D01*
X16086489Y-12153103D02*
X16076965Y-12172150D01*
X16076965Y-12172150D02*
X16067441Y-12181674D01*
X16067441Y-12181674D02*
X16048394Y-12191198D01*
X16048394Y-12191198D02*
X16010298Y-12191198D01*
X16010298Y-12191198D02*
X15991251Y-12200722D01*
X15991251Y-12200722D02*
X15981727Y-12210246D01*
X15981727Y-12210246D02*
X15972203Y-12229293D01*
X15972203Y-12229293D02*
X15972203Y-12267388D01*
X15972203Y-12267388D02*
X15981727Y-12286436D01*
X15981727Y-12286436D02*
X15991251Y-12295960D01*
X15991251Y-12295960D02*
X16010298Y-12305484D01*
X16010298Y-12305484D02*
X16048394Y-12305484D01*
X16048394Y-12305484D02*
X16067441Y-12295960D01*
X16067441Y-12295960D02*
X16076965Y-12286436D01*
X16076965Y-12286436D02*
X16086489Y-12267388D01*
X16086489Y-12267388D02*
X16086489Y-12229293D01*
X16086489Y-12229293D02*
X16076965Y-12210246D01*
X16076965Y-12210246D02*
X16067441Y-12200722D01*
X16067441Y-12200722D02*
X16048394Y-12191198D01*
X16257918Y-12105484D02*
X16219822Y-12105484D01*
X16219822Y-12105484D02*
X16200775Y-12115008D01*
X16200775Y-12115008D02*
X16191251Y-12124531D01*
X16191251Y-12124531D02*
X16172203Y-12153103D01*
X16172203Y-12153103D02*
X16162679Y-12191198D01*
X16162679Y-12191198D02*
X16162679Y-12267388D01*
X16162679Y-12267388D02*
X16172203Y-12286436D01*
X16172203Y-12286436D02*
X16181727Y-12295960D01*
X16181727Y-12295960D02*
X16200775Y-12305484D01*
X16200775Y-12305484D02*
X16238870Y-12305484D01*
X16238870Y-12305484D02*
X16257918Y-12295960D01*
X16257918Y-12295960D02*
X16267441Y-12286436D01*
X16267441Y-12286436D02*
X16276965Y-12267388D01*
X16276965Y-12267388D02*
X16276965Y-12219769D01*
X16276965Y-12219769D02*
X16267441Y-12200722D01*
X16267441Y-12200722D02*
X16257918Y-12191198D01*
X16257918Y-12191198D02*
X16238870Y-12181674D01*
X16238870Y-12181674D02*
X16200775Y-12181674D01*
X16200775Y-12181674D02*
X16181727Y-12191198D01*
X16181727Y-12191198D02*
X16172203Y-12200722D01*
X16172203Y-12200722D02*
X16162679Y-12219769D01*
X16448394Y-12105484D02*
X16410298Y-12105484D01*
X16410298Y-12105484D02*
X16391251Y-12115008D01*
X16391251Y-12115008D02*
X16381727Y-12124531D01*
X16381727Y-12124531D02*
X16362679Y-12153103D01*
X16362679Y-12153103D02*
X16353156Y-12191198D01*
X16353156Y-12191198D02*
X16353156Y-12267388D01*
X16353156Y-12267388D02*
X16362679Y-12286436D01*
X16362679Y-12286436D02*
X16372203Y-12295960D01*
X16372203Y-12295960D02*
X16391251Y-12305484D01*
X16391251Y-12305484D02*
X16429346Y-12305484D01*
X16429346Y-12305484D02*
X16448394Y-12295960D01*
X16448394Y-12295960D02*
X16457918Y-12286436D01*
X16457918Y-12286436D02*
X16467441Y-12267388D01*
X16467441Y-12267388D02*
X16467441Y-12219769D01*
X16467441Y-12219769D02*
X16457918Y-12200722D01*
X16457918Y-12200722D02*
X16448394Y-12191198D01*
X16448394Y-12191198D02*
X16429346Y-12181674D01*
X16429346Y-12181674D02*
X16391251Y-12181674D01*
X16391251Y-12181674D02*
X16372203Y-12191198D01*
X16372203Y-12191198D02*
X16362679Y-12200722D01*
X16362679Y-12200722D02*
X16353156Y-12219769D01*
X16543632Y-12105484D02*
X16543632Y-12143579D01*
X16619822Y-12105484D02*
X16619822Y-12143579D01*
X16915061Y-12381674D02*
X16905537Y-12372150D01*
X16905537Y-12372150D02*
X16886489Y-12343579D01*
X16886489Y-12343579D02*
X16876965Y-12324531D01*
X16876965Y-12324531D02*
X16867442Y-12295960D01*
X16867442Y-12295960D02*
X16857918Y-12248341D01*
X16857918Y-12248341D02*
X16857918Y-12210246D01*
X16857918Y-12210246D02*
X16867442Y-12162627D01*
X16867442Y-12162627D02*
X16876965Y-12134055D01*
X16876965Y-12134055D02*
X16886489Y-12115008D01*
X16886489Y-12115008D02*
X16905537Y-12086436D01*
X16905537Y-12086436D02*
X16915061Y-12076912D01*
X17076965Y-12172150D02*
X17076965Y-12305484D01*
X17029346Y-12095960D02*
X16981727Y-12238817D01*
X16981727Y-12238817D02*
X17105537Y-12238817D01*
X17334108Y-12305484D02*
X17334108Y-12105484D01*
X17419823Y-12305484D02*
X17419823Y-12200722D01*
X17419823Y-12200722D02*
X17410299Y-12181674D01*
X17410299Y-12181674D02*
X17391251Y-12172150D01*
X17391251Y-12172150D02*
X17362680Y-12172150D01*
X17362680Y-12172150D02*
X17343632Y-12181674D01*
X17343632Y-12181674D02*
X17334108Y-12191198D01*
X17543632Y-12305484D02*
X17524584Y-12295960D01*
X17524584Y-12295960D02*
X17515061Y-12286436D01*
X17515061Y-12286436D02*
X17505537Y-12267388D01*
X17505537Y-12267388D02*
X17505537Y-12210246D01*
X17505537Y-12210246D02*
X17515061Y-12191198D01*
X17515061Y-12191198D02*
X17524584Y-12181674D01*
X17524584Y-12181674D02*
X17543632Y-12172150D01*
X17543632Y-12172150D02*
X17572204Y-12172150D01*
X17572204Y-12172150D02*
X17591251Y-12181674D01*
X17591251Y-12181674D02*
X17600775Y-12191198D01*
X17600775Y-12191198D02*
X17610299Y-12210246D01*
X17610299Y-12210246D02*
X17610299Y-12267388D01*
X17610299Y-12267388D02*
X17600775Y-12286436D01*
X17600775Y-12286436D02*
X17591251Y-12295960D01*
X17591251Y-12295960D02*
X17572204Y-12305484D01*
X17572204Y-12305484D02*
X17543632Y-12305484D01*
X17724584Y-12305484D02*
X17705537Y-12295960D01*
X17705537Y-12295960D02*
X17696013Y-12276912D01*
X17696013Y-12276912D02*
X17696013Y-12105484D01*
X17876965Y-12295960D02*
X17857918Y-12305484D01*
X17857918Y-12305484D02*
X17819823Y-12305484D01*
X17819823Y-12305484D02*
X17800775Y-12295960D01*
X17800775Y-12295960D02*
X17791251Y-12276912D01*
X17791251Y-12276912D02*
X17791251Y-12200722D01*
X17791251Y-12200722D02*
X17800775Y-12181674D01*
X17800775Y-12181674D02*
X17819823Y-12172150D01*
X17819823Y-12172150D02*
X17857918Y-12172150D01*
X17857918Y-12172150D02*
X17876965Y-12181674D01*
X17876965Y-12181674D02*
X17886489Y-12200722D01*
X17886489Y-12200722D02*
X17886489Y-12219769D01*
X17886489Y-12219769D02*
X17791251Y-12238817D01*
X17962680Y-12295960D02*
X17981727Y-12305484D01*
X17981727Y-12305484D02*
X18019823Y-12305484D01*
X18019823Y-12305484D02*
X18038870Y-12295960D01*
X18038870Y-12295960D02*
X18048394Y-12276912D01*
X18048394Y-12276912D02*
X18048394Y-12267388D01*
X18048394Y-12267388D02*
X18038870Y-12248341D01*
X18038870Y-12248341D02*
X18019823Y-12238817D01*
X18019823Y-12238817D02*
X17991251Y-12238817D01*
X17991251Y-12238817D02*
X17972204Y-12229293D01*
X17972204Y-12229293D02*
X17962680Y-12210246D01*
X17962680Y-12210246D02*
X17962680Y-12200722D01*
X17962680Y-12200722D02*
X17972204Y-12181674D01*
X17972204Y-12181674D02*
X17991251Y-12172150D01*
X17991251Y-12172150D02*
X18019823Y-12172150D01*
X18019823Y-12172150D02*
X18038870Y-12181674D01*
X18115061Y-12381674D02*
X18124585Y-12372150D01*
X18124585Y-12372150D02*
X18143632Y-12343579D01*
X18143632Y-12343579D02*
X18153156Y-12324531D01*
X18153156Y-12324531D02*
X18162680Y-12295960D01*
X18162680Y-12295960D02*
X18172204Y-12248341D01*
X18172204Y-12248341D02*
X18172204Y-12210246D01*
X18172204Y-12210246D02*
X18162680Y-12162627D01*
X18162680Y-12162627D02*
X18153156Y-12134055D01*
X18153156Y-12134055D02*
X18143632Y-12115008D01*
X18143632Y-12115008D02*
X18124585Y-12086436D01*
X18124585Y-12086436D02*
X18115061Y-12076912D01*
X18476966Y-12381674D02*
X18467442Y-12372150D01*
X18467442Y-12372150D02*
X18448394Y-12343579D01*
X18448394Y-12343579D02*
X18438870Y-12324531D01*
X18438870Y-12324531D02*
X18429346Y-12295960D01*
X18429346Y-12295960D02*
X18419823Y-12248341D01*
X18419823Y-12248341D02*
X18419823Y-12210246D01*
X18419823Y-12210246D02*
X18429346Y-12162627D01*
X18429346Y-12162627D02*
X18438870Y-12134055D01*
X18438870Y-12134055D02*
X18448394Y-12115008D01*
X18448394Y-12115008D02*
X18467442Y-12086436D01*
X18467442Y-12086436D02*
X18476966Y-12076912D01*
X18553156Y-12172150D02*
X18553156Y-12305484D01*
X18553156Y-12191198D02*
X18562680Y-12181674D01*
X18562680Y-12181674D02*
X18581727Y-12172150D01*
X18581727Y-12172150D02*
X18610299Y-12172150D01*
X18610299Y-12172150D02*
X18629346Y-12181674D01*
X18629346Y-12181674D02*
X18638870Y-12200722D01*
X18638870Y-12200722D02*
X18638870Y-12305484D01*
X18762680Y-12305484D02*
X18743632Y-12295960D01*
X18743632Y-12295960D02*
X18734108Y-12286436D01*
X18734108Y-12286436D02*
X18724585Y-12267388D01*
X18724585Y-12267388D02*
X18724585Y-12210246D01*
X18724585Y-12210246D02*
X18734108Y-12191198D01*
X18734108Y-12191198D02*
X18743632Y-12181674D01*
X18743632Y-12181674D02*
X18762680Y-12172150D01*
X18762680Y-12172150D02*
X18791251Y-12172150D01*
X18791251Y-12172150D02*
X18810299Y-12181674D01*
X18810299Y-12181674D02*
X18819823Y-12191198D01*
X18819823Y-12191198D02*
X18829346Y-12210246D01*
X18829346Y-12210246D02*
X18829346Y-12267388D01*
X18829346Y-12267388D02*
X18819823Y-12286436D01*
X18819823Y-12286436D02*
X18810299Y-12295960D01*
X18810299Y-12295960D02*
X18791251Y-12305484D01*
X18791251Y-12305484D02*
X18762680Y-12305484D01*
X18886489Y-12172150D02*
X18962680Y-12172150D01*
X18915061Y-12105484D02*
X18915061Y-12276912D01*
X18915061Y-12276912D02*
X18924585Y-12295960D01*
X18924585Y-12295960D02*
X18943632Y-12305484D01*
X18943632Y-12305484D02*
X18962680Y-12305484D01*
X19181727Y-12172150D02*
X19181727Y-12372150D01*
X19181727Y-12181674D02*
X19200775Y-12172150D01*
X19200775Y-12172150D02*
X19238870Y-12172150D01*
X19238870Y-12172150D02*
X19257918Y-12181674D01*
X19257918Y-12181674D02*
X19267442Y-12191198D01*
X19267442Y-12191198D02*
X19276966Y-12210246D01*
X19276966Y-12210246D02*
X19276966Y-12267388D01*
X19276966Y-12267388D02*
X19267442Y-12286436D01*
X19267442Y-12286436D02*
X19257918Y-12295960D01*
X19257918Y-12295960D02*
X19238870Y-12305484D01*
X19238870Y-12305484D02*
X19200775Y-12305484D01*
X19200775Y-12305484D02*
X19181727Y-12295960D01*
X19391251Y-12305484D02*
X19372204Y-12295960D01*
X19372204Y-12295960D02*
X19362680Y-12276912D01*
X19362680Y-12276912D02*
X19362680Y-12105484D01*
X19553156Y-12305484D02*
X19553156Y-12200722D01*
X19553156Y-12200722D02*
X19543632Y-12181674D01*
X19543632Y-12181674D02*
X19524585Y-12172150D01*
X19524585Y-12172150D02*
X19486489Y-12172150D01*
X19486489Y-12172150D02*
X19467442Y-12181674D01*
X19553156Y-12295960D02*
X19534108Y-12305484D01*
X19534108Y-12305484D02*
X19486489Y-12305484D01*
X19486489Y-12305484D02*
X19467442Y-12295960D01*
X19467442Y-12295960D02*
X19457918Y-12276912D01*
X19457918Y-12276912D02*
X19457918Y-12257865D01*
X19457918Y-12257865D02*
X19467442Y-12238817D01*
X19467442Y-12238817D02*
X19486489Y-12229293D01*
X19486489Y-12229293D02*
X19534108Y-12229293D01*
X19534108Y-12229293D02*
X19553156Y-12219769D01*
X19619823Y-12172150D02*
X19696013Y-12172150D01*
X19648394Y-12105484D02*
X19648394Y-12276912D01*
X19648394Y-12276912D02*
X19657918Y-12295960D01*
X19657918Y-12295960D02*
X19676966Y-12305484D01*
X19676966Y-12305484D02*
X19696013Y-12305484D01*
X19838870Y-12295960D02*
X19819823Y-12305484D01*
X19819823Y-12305484D02*
X19781727Y-12305484D01*
X19781727Y-12305484D02*
X19762680Y-12295960D01*
X19762680Y-12295960D02*
X19753156Y-12276912D01*
X19753156Y-12276912D02*
X19753156Y-12200722D01*
X19753156Y-12200722D02*
X19762680Y-12181674D01*
X19762680Y-12181674D02*
X19781727Y-12172150D01*
X19781727Y-12172150D02*
X19819823Y-12172150D01*
X19819823Y-12172150D02*
X19838870Y-12181674D01*
X19838870Y-12181674D02*
X19848394Y-12200722D01*
X19848394Y-12200722D02*
X19848394Y-12219769D01*
X19848394Y-12219769D02*
X19753156Y-12238817D01*
X20019823Y-12305484D02*
X20019823Y-12105484D01*
X20019823Y-12295960D02*
X20000775Y-12305484D01*
X20000775Y-12305484D02*
X19962680Y-12305484D01*
X19962680Y-12305484D02*
X19943632Y-12295960D01*
X19943632Y-12295960D02*
X19934108Y-12286436D01*
X19934108Y-12286436D02*
X19924585Y-12267388D01*
X19924585Y-12267388D02*
X19924585Y-12210246D01*
X19924585Y-12210246D02*
X19934108Y-12191198D01*
X19934108Y-12191198D02*
X19943632Y-12181674D01*
X19943632Y-12181674D02*
X19962680Y-12172150D01*
X19962680Y-12172150D02*
X20000775Y-12172150D01*
X20000775Y-12172150D02*
X20019823Y-12181674D01*
X20096013Y-12381674D02*
X20105537Y-12372150D01*
X20105537Y-12372150D02*
X20124585Y-12343579D01*
X20124585Y-12343579D02*
X20134108Y-12324531D01*
X20134108Y-12324531D02*
X20143632Y-12295960D01*
X20143632Y-12295960D02*
X20153156Y-12248341D01*
X20153156Y-12248341D02*
X20153156Y-12210246D01*
X20153156Y-12210246D02*
X20143632Y-12162627D01*
X20143632Y-12162627D02*
X20134108Y-12134055D01*
X20134108Y-12134055D02*
X20124585Y-12115008D01*
X20124585Y-12115008D02*
X20105537Y-12086436D01*
X20105537Y-12086436D02*
X20096013Y-12076912D01*
M02*
