%TF.GenerationSoftware,KiCad,Pcbnew,8.0.0*%
%TF.CreationDate,2026-01-12T19:07:33+05:30*%
%TF.ProjectId,PICKit_Clone_KiCAD,5049434b-6974-45f4-936c-6f6e655f4b69,1.0*%
%TF.SameCoordinates,Original*%
%TF.FileFunction,Paste,Bot*%
%TF.FilePolarity,Positive*%
%FSLAX46Y46*%
G04 Gerber Fmt 4.6, Leading zero omitted, Abs format (unit mm)*
G04 Created by KiCad (PCBNEW 8.0.0) date 2026-01-12 19:07:33*
%MOMM*%
%LPD*%
G01*
G04 APERTURE LIST*
G04 Aperture macros list*
%AMRoundRect*
0 Rectangle with rounded corners*
0 $1 Rounding radius*
0 $2 $3 $4 $5 $6 $7 $8 $9 X,Y pos of 4 corners*
0 Add a 4 corners polygon primitive as box body*
4,1,4,$2,$3,$4,$5,$6,$7,$8,$9,$2,$3,0*
0 Add four circle primitives for the rounded corners*
1,1,$1+$1,$2,$3*
1,1,$1+$1,$4,$5*
1,1,$1+$1,$6,$7*
1,1,$1+$1,$8,$9*
0 Add four rect primitives between the rounded corners*
20,1,$1+$1,$2,$3,$4,$5,0*
20,1,$1+$1,$4,$5,$6,$7,0*
20,1,$1+$1,$6,$7,$8,$9,0*
20,1,$1+$1,$8,$9,$2,$3,0*%
G04 Aperture macros list end*
%ADD10RoundRect,0.250000X0.400000X0.625000X-0.400000X0.625000X-0.400000X-0.625000X0.400000X-0.625000X0*%
%ADD11RoundRect,0.250000X-0.625000X0.400000X-0.625000X-0.400000X0.625000X-0.400000X0.625000X0.400000X0*%
%ADD12RoundRect,0.250000X0.412500X0.650000X-0.412500X0.650000X-0.412500X-0.650000X0.412500X-0.650000X0*%
%ADD13RoundRect,0.250000X-0.400000X-0.625000X0.400000X-0.625000X0.400000X0.625000X-0.400000X0.625000X0*%
%ADD14RoundRect,0.200000X-0.200000X0.750000X-0.200000X-0.750000X0.200000X-0.750000X0.200000X0.750000X0*%
%ADD15R,1.700000X5.700000*%
%ADD16RoundRect,0.150000X-0.150000X0.825000X-0.150000X-0.825000X0.150000X-0.825000X0.150000X0.825000X0*%
%ADD17RoundRect,0.250000X0.625000X-0.400000X0.625000X0.400000X-0.625000X0.400000X-0.625000X-0.400000X0*%
%ADD18RoundRect,0.250000X1.500000X0.550000X-1.500000X0.550000X-1.500000X-0.550000X1.500000X-0.550000X0*%
%ADD19RoundRect,0.250000X0.250000X-0.250000X0.250000X0.250000X-0.250000X0.250000X-0.250000X-0.250000X0*%
G04 APERTURE END LIST*
D10*
%TO.C,R9*%
X151080000Y-91550000D03*
X147980000Y-91550000D03*
%TD*%
D11*
%TO.C,R12*%
X147860000Y-93880000D03*
X147860000Y-96980000D03*
%TD*%
D12*
%TO.C,C3*%
X148952501Y-78840004D03*
X145827499Y-78839996D03*
%TD*%
D13*
%TO.C,R5*%
X146670000Y-88900000D03*
X149770000Y-88900000D03*
%TD*%
D14*
%TO.C,Q2*%
X147560000Y-99350000D03*
X149459999Y-99350001D03*
X148510000Y-102350000D03*
%TD*%
D15*
%TO.C,L1*%
X139880000Y-89360000D03*
X135380000Y-89360000D03*
%TD*%
D14*
%TO.C,Q1*%
X143422501Y-99360000D03*
X145322501Y-99360000D03*
X144372501Y-102360000D03*
%TD*%
D16*
%TO.C,U2*%
X146845000Y-81585000D03*
X148115000Y-81585000D03*
X149385000Y-81585000D03*
X150655001Y-81585001D03*
X150655000Y-86535000D03*
X149385000Y-86535000D03*
X148115000Y-86535000D03*
X146844999Y-86534999D03*
%TD*%
D17*
%TO.C,R13*%
X151150000Y-96980001D03*
X151150000Y-93880001D03*
%TD*%
D10*
%TO.C,R1*%
X155770000Y-78950001D03*
X152670000Y-78950001D03*
%TD*%
D18*
%TO.C,C2*%
X141070000Y-96660000D03*
X135670000Y-96660000D03*
%TD*%
D11*
%TO.C,R11*%
X144570000Y-93879999D03*
X144570000Y-96979999D03*
%TD*%
D17*
%TO.C,R10*%
X144310000Y-91530000D03*
X144310000Y-88430000D03*
%TD*%
D19*
%TO.C,D4*%
X144790000Y-85260000D03*
X144790000Y-82760000D03*
%TD*%
D13*
%TO.C,R2*%
X152670000Y-81550000D03*
X155770000Y-81550000D03*
%TD*%
D18*
%TO.C,C1*%
X141490000Y-82150000D03*
X135890000Y-82150000D03*
%TD*%
D13*
%TO.C,R4*%
X152690000Y-86710000D03*
X155790000Y-86710000D03*
%TD*%
D10*
%TO.C,R3*%
X155770000Y-84130001D03*
X152670000Y-84130001D03*
%TD*%
M02*
