%TF.GenerationSoftware,KiCad,Pcbnew,8.0.0*%
%TF.CreationDate,2026-01-20T23:42:29+05:30*%
%TF.ProjectId,PICKit_Clone_KiCAD,5049434b-6974-45f4-936c-6f6e655f4b69,1.0*%
%TF.SameCoordinates,Original*%
%TF.FileFunction,Drillmap*%
%TF.FilePolarity,Positive*%
%FSLAX45Y45*%
G04 Gerber Fmt 4.5, Leading zero omitted, Abs format (unit mm)*
G04 Created by KiCad (PCBNEW 8.0.0) date 2026-01-20 23:42:29*
%MOMM*%
%LPD*%
G01*
G04 APERTURE LIST*
%ADD10C,0.200000*%
%ADD11C,0.100000*%
G04 APERTURE END LIST*
D10*
X13350000Y-7850000D02*
X13350000Y-11000000D01*
X15850000Y-11000000D02*
X15850000Y-7850000D01*
X13600000Y-11300000D02*
X13349998Y-11000002D01*
X15600000Y-11300000D02*
X13600000Y-11300000D01*
X13350000Y-7850000D02*
X14000000Y-7000000D01*
X15850000Y-7850000D02*
X15200000Y-7000000D01*
X15600000Y-11300000D02*
X15850000Y-11000000D01*
X14000000Y-7000000D02*
X15200000Y-7000000D01*
D11*
X14269500Y-8426000D02*
X14289500Y-8446000D01*
X14289500Y-8426000D02*
X14269500Y-8446000D01*
X14269500Y-9126000D02*
X14289500Y-9146000D01*
X14289500Y-9126000D02*
X14269500Y-9146000D01*
X14464000Y-8427000D02*
X14484000Y-8447000D01*
X14484000Y-8427000D02*
X14464000Y-8447000D01*
X14609000Y-9757000D02*
X14629000Y-9777000D01*
X14629000Y-9757000D02*
X14609000Y-9777000D01*
X14789000Y-9793000D02*
X14809000Y-9813000D01*
X14809000Y-9793000D02*
X14789000Y-9813000D01*
X13578000Y-8217000D02*
G75*
G02*
X13548000Y-8217000I-15000J0D01*
G01*
X13548000Y-8217000D02*
G75*
G02*
X13578000Y-8217000I15000J0D01*
G01*
X13632000Y-7861000D02*
G75*
G02*
X13602000Y-7861000I-15000J0D01*
G01*
X13602000Y-7861000D02*
G75*
G02*
X13632000Y-7861000I15000J0D01*
G01*
X13682750Y-9671000D02*
G75*
G02*
X13652750Y-9671000I-15000J0D01*
G01*
X13652750Y-9671000D02*
G75*
G02*
X13682750Y-9671000I15000J0D01*
G01*
X13748000Y-9158000D02*
G75*
G02*
X13718000Y-9158000I-15000J0D01*
G01*
X13718000Y-9158000D02*
G75*
G02*
X13748000Y-9158000I15000J0D01*
G01*
X13767000Y-8911000D02*
G75*
G02*
X13737000Y-8911000I-15000J0D01*
G01*
X13737000Y-8911000D02*
G75*
G02*
X13767000Y-8911000I15000J0D01*
G01*
X13947000Y-10226000D02*
G75*
G02*
X13917000Y-10226000I-15000J0D01*
G01*
X13917000Y-10226000D02*
G75*
G02*
X13947000Y-10226000I15000J0D01*
G01*
X14027000Y-9419000D02*
G75*
G02*
X13997000Y-9419000I-15000J0D01*
G01*
X13997000Y-9419000D02*
G75*
G02*
X14027000Y-9419000I15000J0D01*
G01*
X14130000Y-9667000D02*
G75*
G02*
X14100000Y-9667000I-15000J0D01*
G01*
X14100000Y-9667000D02*
G75*
G02*
X14130000Y-9667000I15000J0D01*
G01*
X14240000Y-10234000D02*
G75*
G02*
X14210000Y-10234000I-15000J0D01*
G01*
X14210000Y-10234000D02*
G75*
G02*
X14240000Y-10234000I15000J0D01*
G01*
X14295000Y-7618000D02*
G75*
G02*
X14265000Y-7618000I-15000J0D01*
G01*
X14265000Y-7618000D02*
G75*
G02*
X14295000Y-7618000I15000J0D01*
G01*
X14305000Y-7978000D02*
G75*
G02*
X14275000Y-7978000I-15000J0D01*
G01*
X14275000Y-7978000D02*
G75*
G02*
X14305000Y-7978000I15000J0D01*
G01*
X14445000Y-8849000D02*
G75*
G02*
X14415000Y-8849000I-15000J0D01*
G01*
X14415000Y-8849000D02*
G75*
G02*
X14445000Y-8849000I15000J0D01*
G01*
X14826000Y-8152000D02*
G75*
G02*
X14796000Y-8152000I-15000J0D01*
G01*
X14796000Y-8152000D02*
G75*
G02*
X14826000Y-8152000I15000J0D01*
G01*
X14875000Y-9922000D02*
G75*
G02*
X14845000Y-9922000I-15000J0D01*
G01*
X14845000Y-9922000D02*
G75*
G02*
X14875000Y-9922000I15000J0D01*
G01*
X14915000Y-11150000D02*
G75*
G02*
X14885000Y-11150000I-15000J0D01*
G01*
X14885000Y-11150000D02*
G75*
G02*
X14915000Y-11150000I15000J0D01*
G01*
X14924000Y-9472000D02*
G75*
G02*
X14894000Y-9472000I-15000J0D01*
G01*
X14894000Y-9472000D02*
G75*
G02*
X14924000Y-9472000I15000J0D01*
G01*
X14935000Y-7621000D02*
G75*
G02*
X14905000Y-7621000I-15000J0D01*
G01*
X14905000Y-7621000D02*
G75*
G02*
X14935000Y-7621000I15000J0D01*
G01*
X14954000Y-8656000D02*
G75*
G02*
X14924000Y-8656000I-15000J0D01*
G01*
X14924000Y-8656000D02*
G75*
G02*
X14954000Y-8656000I15000J0D01*
G01*
X15081000Y-8152000D02*
G75*
G02*
X15051000Y-8152000I-15000J0D01*
G01*
X15051000Y-8152000D02*
G75*
G02*
X15081000Y-8152000I15000J0D01*
G01*
X15132000Y-9391000D02*
G75*
G02*
X15102000Y-9391000I-15000J0D01*
G01*
X15102000Y-9391000D02*
G75*
G02*
X15132000Y-9391000I15000J0D01*
G01*
X15149000Y-8899000D02*
G75*
G02*
X15119000Y-8899000I-15000J0D01*
G01*
X15119000Y-8899000D02*
G75*
G02*
X15149000Y-8899000I15000J0D01*
G01*
X15215000Y-11150000D02*
G75*
G02*
X15185000Y-11150000I-15000J0D01*
G01*
X15185000Y-11150000D02*
G75*
G02*
X15215000Y-11150000I15000J0D01*
G01*
X15291000Y-8420000D02*
G75*
G02*
X15261000Y-8420000I-15000J0D01*
G01*
X15261000Y-8420000D02*
G75*
G02*
X15291000Y-8420000I15000J0D01*
G01*
X15374000Y-9454000D02*
G75*
G02*
X15344000Y-9454000I-15000J0D01*
G01*
X15344000Y-9454000D02*
G75*
G02*
X15374000Y-9454000I15000J0D01*
G01*
X15377000Y-9142000D02*
G75*
G02*
X15347000Y-9142000I-15000J0D01*
G01*
X15347000Y-9142000D02*
G75*
G02*
X15377000Y-9142000I15000J0D01*
G01*
X15379000Y-8899000D02*
G75*
G02*
X15349000Y-8899000I-15000J0D01*
G01*
X15349000Y-8899000D02*
G75*
G02*
X15379000Y-8899000I15000J0D01*
G01*
X15451000Y-8271000D02*
G75*
G02*
X15421000Y-8271000I-15000J0D01*
G01*
X15421000Y-8271000D02*
G75*
G02*
X15451000Y-8271000I15000J0D01*
G01*
X15461000Y-8419000D02*
G75*
G02*
X15431000Y-8419000I-15000J0D01*
G01*
X15431000Y-8419000D02*
G75*
G02*
X15461000Y-8419000I15000J0D01*
G01*
X15482000Y-9915000D02*
G75*
G02*
X15452000Y-9915000I-15000J0D01*
G01*
X15452000Y-9915000D02*
G75*
G02*
X15482000Y-9915000I15000J0D01*
G01*
X15566000Y-8670000D02*
G75*
G02*
X15536000Y-8670000I-15000J0D01*
G01*
X15536000Y-8670000D02*
G75*
G02*
X15566000Y-8670000I15000J0D01*
G01*
X15598000Y-7750000D02*
G75*
G02*
X15568000Y-7750000I-15000J0D01*
G01*
X15568000Y-7750000D02*
G75*
G02*
X15598000Y-7750000I15000J0D01*
G01*
X15638000Y-9453000D02*
G75*
G02*
X15608000Y-9453000I-15000J0D01*
G01*
X15608000Y-9453000D02*
G75*
G02*
X15638000Y-9453000I15000J0D01*
G01*
X14168000Y-7112500D02*
X14168000Y-7172500D01*
X14138000Y-7142500D02*
X14198000Y-7142500D01*
X14198000Y-7182500D02*
X14198000Y-7102500D01*
X14138000Y-7102500D02*
G75*
G02*
X14198000Y-7102500I30000J0D01*
G01*
X14138000Y-7102500D02*
X14138000Y-7182500D01*
X14138000Y-7182500D02*
G75*
G03*
X14198000Y-7182500I30000J0D01*
G01*
X14168000Y-7532500D02*
X14168000Y-7592500D01*
X14138000Y-7562500D02*
X14198000Y-7562500D01*
X14198000Y-7617500D02*
X14198000Y-7507500D01*
X14138000Y-7507500D02*
G75*
G02*
X14198000Y-7507500I30000J0D01*
G01*
X14138000Y-7507500D02*
X14138000Y-7617500D01*
X14138000Y-7617500D02*
G75*
G03*
X14198000Y-7617500I30000J0D01*
G01*
X15032000Y-7532500D02*
X15032000Y-7592500D01*
X15002000Y-7562500D02*
X15062000Y-7562500D01*
X15062000Y-7617500D02*
X15062000Y-7507500D01*
X15002000Y-7507500D02*
G75*
G02*
X15062000Y-7507500I30000J0D01*
G01*
X15002000Y-7507500D02*
X15002000Y-7617500D01*
X15002000Y-7617500D02*
G75*
G03*
X15062000Y-7617500I30000J0D01*
G01*
X15032000Y-7112500D02*
X15032000Y-7172500D01*
X15002000Y-7142500D02*
X15062000Y-7142500D01*
X15062000Y-7182500D02*
X15062000Y-7102500D01*
X15002000Y-7102500D02*
G75*
G02*
X15062000Y-7102500I30000J0D01*
G01*
X15002000Y-7102500D02*
X15002000Y-7182500D01*
X15002000Y-7182500D02*
G75*
G03*
X15062000Y-7182500I30000J0D01*
G01*
X14369856Y-10620856D02*
X14369856Y-10550144D01*
X14299144Y-10550144D01*
X14299144Y-10620856D01*
X14369856Y-10620856D01*
X14369856Y-10874856D02*
X14369856Y-10804144D01*
X14299144Y-10804144D01*
X14299144Y-10874856D01*
X14369856Y-10874856D01*
X14623855Y-10620855D02*
X14623855Y-10550144D01*
X14553144Y-10550144D01*
X14553144Y-10620855D01*
X14623855Y-10620855D01*
X14623856Y-10874856D02*
X14623856Y-10804144D01*
X14553144Y-10804144D01*
X14553144Y-10874856D01*
X14623856Y-10874856D01*
X14877855Y-10874856D02*
X14877855Y-10804145D01*
X14807144Y-10804145D01*
X14807144Y-10874856D01*
X14877855Y-10874856D01*
X14877856Y-10620856D02*
X14877856Y-10550144D01*
X14807144Y-10550144D01*
X14807144Y-10620856D01*
X14877856Y-10620856D01*
D10*
X13600774Y-11621484D02*
X13600774Y-11421484D01*
X13600774Y-11421484D02*
X13648393Y-11421484D01*
X13648393Y-11421484D02*
X13676965Y-11431008D01*
X13676965Y-11431008D02*
X13696013Y-11450055D01*
X13696013Y-11450055D02*
X13705536Y-11469103D01*
X13705536Y-11469103D02*
X13715060Y-11507198D01*
X13715060Y-11507198D02*
X13715060Y-11535769D01*
X13715060Y-11535769D02*
X13705536Y-11573865D01*
X13705536Y-11573865D02*
X13696013Y-11592912D01*
X13696013Y-11592912D02*
X13676965Y-11611960D01*
X13676965Y-11611960D02*
X13648393Y-11621484D01*
X13648393Y-11621484D02*
X13600774Y-11621484D01*
X13800774Y-11621484D02*
X13800774Y-11488150D01*
X13800774Y-11526246D02*
X13810298Y-11507198D01*
X13810298Y-11507198D02*
X13819822Y-11497674D01*
X13819822Y-11497674D02*
X13838870Y-11488150D01*
X13838870Y-11488150D02*
X13857917Y-11488150D01*
X13924584Y-11621484D02*
X13924584Y-11488150D01*
X13924584Y-11421484D02*
X13915060Y-11431008D01*
X13915060Y-11431008D02*
X13924584Y-11440531D01*
X13924584Y-11440531D02*
X13934108Y-11431008D01*
X13934108Y-11431008D02*
X13924584Y-11421484D01*
X13924584Y-11421484D02*
X13924584Y-11440531D01*
X14048393Y-11621484D02*
X14029346Y-11611960D01*
X14029346Y-11611960D02*
X14019822Y-11592912D01*
X14019822Y-11592912D02*
X14019822Y-11421484D01*
X14153155Y-11621484D02*
X14134108Y-11611960D01*
X14134108Y-11611960D02*
X14124584Y-11592912D01*
X14124584Y-11592912D02*
X14124584Y-11421484D01*
X14381727Y-11621484D02*
X14381727Y-11421484D01*
X14381727Y-11421484D02*
X14448394Y-11564341D01*
X14448394Y-11564341D02*
X14515060Y-11421484D01*
X14515060Y-11421484D02*
X14515060Y-11621484D01*
X14696013Y-11621484D02*
X14696013Y-11516722D01*
X14696013Y-11516722D02*
X14686489Y-11497674D01*
X14686489Y-11497674D02*
X14667441Y-11488150D01*
X14667441Y-11488150D02*
X14629346Y-11488150D01*
X14629346Y-11488150D02*
X14610298Y-11497674D01*
X14696013Y-11611960D02*
X14676965Y-11621484D01*
X14676965Y-11621484D02*
X14629346Y-11621484D01*
X14629346Y-11621484D02*
X14610298Y-11611960D01*
X14610298Y-11611960D02*
X14600774Y-11592912D01*
X14600774Y-11592912D02*
X14600774Y-11573865D01*
X14600774Y-11573865D02*
X14610298Y-11554817D01*
X14610298Y-11554817D02*
X14629346Y-11545293D01*
X14629346Y-11545293D02*
X14676965Y-11545293D01*
X14676965Y-11545293D02*
X14696013Y-11535769D01*
X14791251Y-11488150D02*
X14791251Y-11688150D01*
X14791251Y-11497674D02*
X14810298Y-11488150D01*
X14810298Y-11488150D02*
X14848394Y-11488150D01*
X14848394Y-11488150D02*
X14867441Y-11497674D01*
X14867441Y-11497674D02*
X14876965Y-11507198D01*
X14876965Y-11507198D02*
X14886489Y-11526246D01*
X14886489Y-11526246D02*
X14886489Y-11583388D01*
X14886489Y-11583388D02*
X14876965Y-11602436D01*
X14876965Y-11602436D02*
X14867441Y-11611960D01*
X14867441Y-11611960D02*
X14848394Y-11621484D01*
X14848394Y-11621484D02*
X14810298Y-11621484D01*
X14810298Y-11621484D02*
X14791251Y-11611960D01*
X14972203Y-11602436D02*
X14981727Y-11611960D01*
X14981727Y-11611960D02*
X14972203Y-11621484D01*
X14972203Y-11621484D02*
X14962679Y-11611960D01*
X14962679Y-11611960D02*
X14972203Y-11602436D01*
X14972203Y-11602436D02*
X14972203Y-11621484D01*
X14972203Y-11497674D02*
X14981727Y-11507198D01*
X14981727Y-11507198D02*
X14972203Y-11516722D01*
X14972203Y-11516722D02*
X14962679Y-11507198D01*
X14962679Y-11507198D02*
X14972203Y-11497674D01*
X14972203Y-11497674D02*
X14972203Y-11516722D01*
D11*
X13319998Y-11940000D02*
X13339998Y-11960000D01*
X13339998Y-11940000D02*
X13319998Y-11960000D01*
D10*
X13638870Y-11841484D02*
X13657917Y-11841484D01*
X13657917Y-11841484D02*
X13676965Y-11851008D01*
X13676965Y-11851008D02*
X13686489Y-11860531D01*
X13686489Y-11860531D02*
X13696013Y-11879579D01*
X13696013Y-11879579D02*
X13705536Y-11917674D01*
X13705536Y-11917674D02*
X13705536Y-11965293D01*
X13705536Y-11965293D02*
X13696013Y-12003388D01*
X13696013Y-12003388D02*
X13686489Y-12022436D01*
X13686489Y-12022436D02*
X13676965Y-12031960D01*
X13676965Y-12031960D02*
X13657917Y-12041484D01*
X13657917Y-12041484D02*
X13638870Y-12041484D01*
X13638870Y-12041484D02*
X13619822Y-12031960D01*
X13619822Y-12031960D02*
X13610298Y-12022436D01*
X13610298Y-12022436D02*
X13600774Y-12003388D01*
X13600774Y-12003388D02*
X13591251Y-11965293D01*
X13591251Y-11965293D02*
X13591251Y-11917674D01*
X13591251Y-11917674D02*
X13600774Y-11879579D01*
X13600774Y-11879579D02*
X13610298Y-11860531D01*
X13610298Y-11860531D02*
X13619822Y-11851008D01*
X13619822Y-11851008D02*
X13638870Y-11841484D01*
X13791251Y-12022436D02*
X13800774Y-12031960D01*
X13800774Y-12031960D02*
X13791251Y-12041484D01*
X13791251Y-12041484D02*
X13781727Y-12031960D01*
X13781727Y-12031960D02*
X13791251Y-12022436D01*
X13791251Y-12022436D02*
X13791251Y-12041484D01*
X13876965Y-11860531D02*
X13886489Y-11851008D01*
X13886489Y-11851008D02*
X13905536Y-11841484D01*
X13905536Y-11841484D02*
X13953155Y-11841484D01*
X13953155Y-11841484D02*
X13972203Y-11851008D01*
X13972203Y-11851008D02*
X13981727Y-11860531D01*
X13981727Y-11860531D02*
X13991251Y-11879579D01*
X13991251Y-11879579D02*
X13991251Y-11898627D01*
X13991251Y-11898627D02*
X13981727Y-11927198D01*
X13981727Y-11927198D02*
X13867441Y-12041484D01*
X13867441Y-12041484D02*
X13991251Y-12041484D01*
X14115060Y-11841484D02*
X14134108Y-11841484D01*
X14134108Y-11841484D02*
X14153155Y-11851008D01*
X14153155Y-11851008D02*
X14162679Y-11860531D01*
X14162679Y-11860531D02*
X14172203Y-11879579D01*
X14172203Y-11879579D02*
X14181727Y-11917674D01*
X14181727Y-11917674D02*
X14181727Y-11965293D01*
X14181727Y-11965293D02*
X14172203Y-12003388D01*
X14172203Y-12003388D02*
X14162679Y-12022436D01*
X14162679Y-12022436D02*
X14153155Y-12031960D01*
X14153155Y-12031960D02*
X14134108Y-12041484D01*
X14134108Y-12041484D02*
X14115060Y-12041484D01*
X14115060Y-12041484D02*
X14096013Y-12031960D01*
X14096013Y-12031960D02*
X14086489Y-12022436D01*
X14086489Y-12022436D02*
X14076965Y-12003388D01*
X14076965Y-12003388D02*
X14067441Y-11965293D01*
X14067441Y-11965293D02*
X14067441Y-11917674D01*
X14067441Y-11917674D02*
X14076965Y-11879579D01*
X14076965Y-11879579D02*
X14086489Y-11860531D01*
X14086489Y-11860531D02*
X14096013Y-11851008D01*
X14096013Y-11851008D02*
X14115060Y-11841484D01*
X14305536Y-11841484D02*
X14324584Y-11841484D01*
X14324584Y-11841484D02*
X14343632Y-11851008D01*
X14343632Y-11851008D02*
X14353155Y-11860531D01*
X14353155Y-11860531D02*
X14362679Y-11879579D01*
X14362679Y-11879579D02*
X14372203Y-11917674D01*
X14372203Y-11917674D02*
X14372203Y-11965293D01*
X14372203Y-11965293D02*
X14362679Y-12003388D01*
X14362679Y-12003388D02*
X14353155Y-12022436D01*
X14353155Y-12022436D02*
X14343632Y-12031960D01*
X14343632Y-12031960D02*
X14324584Y-12041484D01*
X14324584Y-12041484D02*
X14305536Y-12041484D01*
X14305536Y-12041484D02*
X14286489Y-12031960D01*
X14286489Y-12031960D02*
X14276965Y-12022436D01*
X14276965Y-12022436D02*
X14267441Y-12003388D01*
X14267441Y-12003388D02*
X14257917Y-11965293D01*
X14257917Y-11965293D02*
X14257917Y-11917674D01*
X14257917Y-11917674D02*
X14267441Y-11879579D01*
X14267441Y-11879579D02*
X14276965Y-11860531D01*
X14276965Y-11860531D02*
X14286489Y-11851008D01*
X14286489Y-11851008D02*
X14305536Y-11841484D01*
X14457917Y-12041484D02*
X14457917Y-11908150D01*
X14457917Y-11927198D02*
X14467441Y-11917674D01*
X14467441Y-11917674D02*
X14486489Y-11908150D01*
X14486489Y-11908150D02*
X14515060Y-11908150D01*
X14515060Y-11908150D02*
X14534108Y-11917674D01*
X14534108Y-11917674D02*
X14543632Y-11936722D01*
X14543632Y-11936722D02*
X14543632Y-12041484D01*
X14543632Y-11936722D02*
X14553155Y-11917674D01*
X14553155Y-11917674D02*
X14572203Y-11908150D01*
X14572203Y-11908150D02*
X14600774Y-11908150D01*
X14600774Y-11908150D02*
X14619822Y-11917674D01*
X14619822Y-11917674D02*
X14629346Y-11936722D01*
X14629346Y-11936722D02*
X14629346Y-12041484D01*
X14724584Y-12041484D02*
X14724584Y-11908150D01*
X14724584Y-11927198D02*
X14734108Y-11917674D01*
X14734108Y-11917674D02*
X14753155Y-11908150D01*
X14753155Y-11908150D02*
X14781727Y-11908150D01*
X14781727Y-11908150D02*
X14800775Y-11917674D01*
X14800775Y-11917674D02*
X14810298Y-11936722D01*
X14810298Y-11936722D02*
X14810298Y-12041484D01*
X14810298Y-11936722D02*
X14819822Y-11917674D01*
X14819822Y-11917674D02*
X14838870Y-11908150D01*
X14838870Y-11908150D02*
X14867441Y-11908150D01*
X14867441Y-11908150D02*
X14886489Y-11917674D01*
X14886489Y-11917674D02*
X14896013Y-11936722D01*
X14896013Y-11936722D02*
X14896013Y-12041484D01*
X15286489Y-11831960D02*
X15115060Y-12089103D01*
X15543632Y-11841484D02*
X15562679Y-11841484D01*
X15562679Y-11841484D02*
X15581727Y-11851008D01*
X15581727Y-11851008D02*
X15591251Y-11860531D01*
X15591251Y-11860531D02*
X15600775Y-11879579D01*
X15600775Y-11879579D02*
X15610298Y-11917674D01*
X15610298Y-11917674D02*
X15610298Y-11965293D01*
X15610298Y-11965293D02*
X15600775Y-12003388D01*
X15600775Y-12003388D02*
X15591251Y-12022436D01*
X15591251Y-12022436D02*
X15581727Y-12031960D01*
X15581727Y-12031960D02*
X15562679Y-12041484D01*
X15562679Y-12041484D02*
X15543632Y-12041484D01*
X15543632Y-12041484D02*
X15524584Y-12031960D01*
X15524584Y-12031960D02*
X15515060Y-12022436D01*
X15515060Y-12022436D02*
X15505537Y-12003388D01*
X15505537Y-12003388D02*
X15496013Y-11965293D01*
X15496013Y-11965293D02*
X15496013Y-11917674D01*
X15496013Y-11917674D02*
X15505537Y-11879579D01*
X15505537Y-11879579D02*
X15515060Y-11860531D01*
X15515060Y-11860531D02*
X15524584Y-11851008D01*
X15524584Y-11851008D02*
X15543632Y-11841484D01*
X15696013Y-12022436D02*
X15705537Y-12031960D01*
X15705537Y-12031960D02*
X15696013Y-12041484D01*
X15696013Y-12041484D02*
X15686489Y-12031960D01*
X15686489Y-12031960D02*
X15696013Y-12022436D01*
X15696013Y-12022436D02*
X15696013Y-12041484D01*
X15829346Y-11841484D02*
X15848394Y-11841484D01*
X15848394Y-11841484D02*
X15867441Y-11851008D01*
X15867441Y-11851008D02*
X15876965Y-11860531D01*
X15876965Y-11860531D02*
X15886489Y-11879579D01*
X15886489Y-11879579D02*
X15896013Y-11917674D01*
X15896013Y-11917674D02*
X15896013Y-11965293D01*
X15896013Y-11965293D02*
X15886489Y-12003388D01*
X15886489Y-12003388D02*
X15876965Y-12022436D01*
X15876965Y-12022436D02*
X15867441Y-12031960D01*
X15867441Y-12031960D02*
X15848394Y-12041484D01*
X15848394Y-12041484D02*
X15829346Y-12041484D01*
X15829346Y-12041484D02*
X15810298Y-12031960D01*
X15810298Y-12031960D02*
X15800775Y-12022436D01*
X15800775Y-12022436D02*
X15791251Y-12003388D01*
X15791251Y-12003388D02*
X15781727Y-11965293D01*
X15781727Y-11965293D02*
X15781727Y-11917674D01*
X15781727Y-11917674D02*
X15791251Y-11879579D01*
X15791251Y-11879579D02*
X15800775Y-11860531D01*
X15800775Y-11860531D02*
X15810298Y-11851008D01*
X15810298Y-11851008D02*
X15829346Y-11841484D01*
X16019822Y-11841484D02*
X16038870Y-11841484D01*
X16038870Y-11841484D02*
X16057918Y-11851008D01*
X16057918Y-11851008D02*
X16067441Y-11860531D01*
X16067441Y-11860531D02*
X16076965Y-11879579D01*
X16076965Y-11879579D02*
X16086489Y-11917674D01*
X16086489Y-11917674D02*
X16086489Y-11965293D01*
X16086489Y-11965293D02*
X16076965Y-12003388D01*
X16076965Y-12003388D02*
X16067441Y-12022436D01*
X16067441Y-12022436D02*
X16057918Y-12031960D01*
X16057918Y-12031960D02*
X16038870Y-12041484D01*
X16038870Y-12041484D02*
X16019822Y-12041484D01*
X16019822Y-12041484D02*
X16000775Y-12031960D01*
X16000775Y-12031960D02*
X15991251Y-12022436D01*
X15991251Y-12022436D02*
X15981727Y-12003388D01*
X15981727Y-12003388D02*
X15972203Y-11965293D01*
X15972203Y-11965293D02*
X15972203Y-11917674D01*
X15972203Y-11917674D02*
X15981727Y-11879579D01*
X15981727Y-11879579D02*
X15991251Y-11860531D01*
X15991251Y-11860531D02*
X16000775Y-11851008D01*
X16000775Y-11851008D02*
X16019822Y-11841484D01*
X16153156Y-11841484D02*
X16286489Y-11841484D01*
X16286489Y-11841484D02*
X16200775Y-12041484D01*
X16372203Y-12041484D02*
X16410298Y-12041484D01*
X16410298Y-12041484D02*
X16429346Y-12031960D01*
X16429346Y-12031960D02*
X16438870Y-12022436D01*
X16438870Y-12022436D02*
X16457918Y-11993865D01*
X16457918Y-11993865D02*
X16467441Y-11955769D01*
X16467441Y-11955769D02*
X16467441Y-11879579D01*
X16467441Y-11879579D02*
X16457918Y-11860531D01*
X16457918Y-11860531D02*
X16448394Y-11851008D01*
X16448394Y-11851008D02*
X16429346Y-11841484D01*
X16429346Y-11841484D02*
X16391251Y-11841484D01*
X16391251Y-11841484D02*
X16372203Y-11851008D01*
X16372203Y-11851008D02*
X16362679Y-11860531D01*
X16362679Y-11860531D02*
X16353156Y-11879579D01*
X16353156Y-11879579D02*
X16353156Y-11927198D01*
X16353156Y-11927198D02*
X16362679Y-11946246D01*
X16362679Y-11946246D02*
X16372203Y-11955769D01*
X16372203Y-11955769D02*
X16391251Y-11965293D01*
X16391251Y-11965293D02*
X16429346Y-11965293D01*
X16429346Y-11965293D02*
X16448394Y-11955769D01*
X16448394Y-11955769D02*
X16457918Y-11946246D01*
X16457918Y-11946246D02*
X16467441Y-11927198D01*
X16543632Y-11841484D02*
X16543632Y-11879579D01*
X16619822Y-11841484D02*
X16619822Y-11879579D01*
X16915061Y-12117674D02*
X16905537Y-12108150D01*
X16905537Y-12108150D02*
X16886489Y-12079579D01*
X16886489Y-12079579D02*
X16876965Y-12060531D01*
X16876965Y-12060531D02*
X16867442Y-12031960D01*
X16867442Y-12031960D02*
X16857918Y-11984341D01*
X16857918Y-11984341D02*
X16857918Y-11946246D01*
X16857918Y-11946246D02*
X16867442Y-11898627D01*
X16867442Y-11898627D02*
X16876965Y-11870055D01*
X16876965Y-11870055D02*
X16886489Y-11851008D01*
X16886489Y-11851008D02*
X16905537Y-11822436D01*
X16905537Y-11822436D02*
X16915061Y-11812912D01*
X17086489Y-11841484D02*
X16991251Y-11841484D01*
X16991251Y-11841484D02*
X16981727Y-11936722D01*
X16981727Y-11936722D02*
X16991251Y-11927198D01*
X16991251Y-11927198D02*
X17010299Y-11917674D01*
X17010299Y-11917674D02*
X17057918Y-11917674D01*
X17057918Y-11917674D02*
X17076965Y-11927198D01*
X17076965Y-11927198D02*
X17086489Y-11936722D01*
X17086489Y-11936722D02*
X17096013Y-11955769D01*
X17096013Y-11955769D02*
X17096013Y-12003388D01*
X17096013Y-12003388D02*
X17086489Y-12022436D01*
X17086489Y-12022436D02*
X17076965Y-12031960D01*
X17076965Y-12031960D02*
X17057918Y-12041484D01*
X17057918Y-12041484D02*
X17010299Y-12041484D01*
X17010299Y-12041484D02*
X16991251Y-12031960D01*
X16991251Y-12031960D02*
X16981727Y-12022436D01*
X17334108Y-12041484D02*
X17334108Y-11841484D01*
X17419823Y-12041484D02*
X17419823Y-11936722D01*
X17419823Y-11936722D02*
X17410299Y-11917674D01*
X17410299Y-11917674D02*
X17391251Y-11908150D01*
X17391251Y-11908150D02*
X17362680Y-11908150D01*
X17362680Y-11908150D02*
X17343632Y-11917674D01*
X17343632Y-11917674D02*
X17334108Y-11927198D01*
X17543632Y-12041484D02*
X17524584Y-12031960D01*
X17524584Y-12031960D02*
X17515061Y-12022436D01*
X17515061Y-12022436D02*
X17505537Y-12003388D01*
X17505537Y-12003388D02*
X17505537Y-11946246D01*
X17505537Y-11946246D02*
X17515061Y-11927198D01*
X17515061Y-11927198D02*
X17524584Y-11917674D01*
X17524584Y-11917674D02*
X17543632Y-11908150D01*
X17543632Y-11908150D02*
X17572204Y-11908150D01*
X17572204Y-11908150D02*
X17591251Y-11917674D01*
X17591251Y-11917674D02*
X17600775Y-11927198D01*
X17600775Y-11927198D02*
X17610299Y-11946246D01*
X17610299Y-11946246D02*
X17610299Y-12003388D01*
X17610299Y-12003388D02*
X17600775Y-12022436D01*
X17600775Y-12022436D02*
X17591251Y-12031960D01*
X17591251Y-12031960D02*
X17572204Y-12041484D01*
X17572204Y-12041484D02*
X17543632Y-12041484D01*
X17724584Y-12041484D02*
X17705537Y-12031960D01*
X17705537Y-12031960D02*
X17696013Y-12012912D01*
X17696013Y-12012912D02*
X17696013Y-11841484D01*
X17876965Y-12031960D02*
X17857918Y-12041484D01*
X17857918Y-12041484D02*
X17819823Y-12041484D01*
X17819823Y-12041484D02*
X17800775Y-12031960D01*
X17800775Y-12031960D02*
X17791251Y-12012912D01*
X17791251Y-12012912D02*
X17791251Y-11936722D01*
X17791251Y-11936722D02*
X17800775Y-11917674D01*
X17800775Y-11917674D02*
X17819823Y-11908150D01*
X17819823Y-11908150D02*
X17857918Y-11908150D01*
X17857918Y-11908150D02*
X17876965Y-11917674D01*
X17876965Y-11917674D02*
X17886489Y-11936722D01*
X17886489Y-11936722D02*
X17886489Y-11955769D01*
X17886489Y-11955769D02*
X17791251Y-11974817D01*
X17962680Y-12031960D02*
X17981727Y-12041484D01*
X17981727Y-12041484D02*
X18019823Y-12041484D01*
X18019823Y-12041484D02*
X18038870Y-12031960D01*
X18038870Y-12031960D02*
X18048394Y-12012912D01*
X18048394Y-12012912D02*
X18048394Y-12003388D01*
X18048394Y-12003388D02*
X18038870Y-11984341D01*
X18038870Y-11984341D02*
X18019823Y-11974817D01*
X18019823Y-11974817D02*
X17991251Y-11974817D01*
X17991251Y-11974817D02*
X17972204Y-11965293D01*
X17972204Y-11965293D02*
X17962680Y-11946246D01*
X17962680Y-11946246D02*
X17962680Y-11936722D01*
X17962680Y-11936722D02*
X17972204Y-11917674D01*
X17972204Y-11917674D02*
X17991251Y-11908150D01*
X17991251Y-11908150D02*
X18019823Y-11908150D01*
X18019823Y-11908150D02*
X18038870Y-11917674D01*
X18115061Y-12117674D02*
X18124585Y-12108150D01*
X18124585Y-12108150D02*
X18143632Y-12079579D01*
X18143632Y-12079579D02*
X18153156Y-12060531D01*
X18153156Y-12060531D02*
X18162680Y-12031960D01*
X18162680Y-12031960D02*
X18172204Y-11984341D01*
X18172204Y-11984341D02*
X18172204Y-11946246D01*
X18172204Y-11946246D02*
X18162680Y-11898627D01*
X18162680Y-11898627D02*
X18153156Y-11870055D01*
X18153156Y-11870055D02*
X18143632Y-11851008D01*
X18143632Y-11851008D02*
X18124585Y-11822436D01*
X18124585Y-11822436D02*
X18115061Y-11812912D01*
D11*
X13339998Y-12214000D02*
G75*
G02*
X13309998Y-12214000I-15000J0D01*
G01*
X13309998Y-12214000D02*
G75*
G02*
X13339998Y-12214000I15000J0D01*
G01*
D10*
X13638870Y-12105484D02*
X13657917Y-12105484D01*
X13657917Y-12105484D02*
X13676965Y-12115008D01*
X13676965Y-12115008D02*
X13686489Y-12124531D01*
X13686489Y-12124531D02*
X13696013Y-12143579D01*
X13696013Y-12143579D02*
X13705536Y-12181674D01*
X13705536Y-12181674D02*
X13705536Y-12229293D01*
X13705536Y-12229293D02*
X13696013Y-12267388D01*
X13696013Y-12267388D02*
X13686489Y-12286436D01*
X13686489Y-12286436D02*
X13676965Y-12295960D01*
X13676965Y-12295960D02*
X13657917Y-12305484D01*
X13657917Y-12305484D02*
X13638870Y-12305484D01*
X13638870Y-12305484D02*
X13619822Y-12295960D01*
X13619822Y-12295960D02*
X13610298Y-12286436D01*
X13610298Y-12286436D02*
X13600774Y-12267388D01*
X13600774Y-12267388D02*
X13591251Y-12229293D01*
X13591251Y-12229293D02*
X13591251Y-12181674D01*
X13591251Y-12181674D02*
X13600774Y-12143579D01*
X13600774Y-12143579D02*
X13610298Y-12124531D01*
X13610298Y-12124531D02*
X13619822Y-12115008D01*
X13619822Y-12115008D02*
X13638870Y-12105484D01*
X13791251Y-12286436D02*
X13800774Y-12295960D01*
X13800774Y-12295960D02*
X13791251Y-12305484D01*
X13791251Y-12305484D02*
X13781727Y-12295960D01*
X13781727Y-12295960D02*
X13791251Y-12286436D01*
X13791251Y-12286436D02*
X13791251Y-12305484D01*
X13867441Y-12105484D02*
X13991251Y-12105484D01*
X13991251Y-12105484D02*
X13924584Y-12181674D01*
X13924584Y-12181674D02*
X13953155Y-12181674D01*
X13953155Y-12181674D02*
X13972203Y-12191198D01*
X13972203Y-12191198D02*
X13981727Y-12200722D01*
X13981727Y-12200722D02*
X13991251Y-12219769D01*
X13991251Y-12219769D02*
X13991251Y-12267388D01*
X13991251Y-12267388D02*
X13981727Y-12286436D01*
X13981727Y-12286436D02*
X13972203Y-12295960D01*
X13972203Y-12295960D02*
X13953155Y-12305484D01*
X13953155Y-12305484D02*
X13896013Y-12305484D01*
X13896013Y-12305484D02*
X13876965Y-12295960D01*
X13876965Y-12295960D02*
X13867441Y-12286436D01*
X14115060Y-12105484D02*
X14134108Y-12105484D01*
X14134108Y-12105484D02*
X14153155Y-12115008D01*
X14153155Y-12115008D02*
X14162679Y-12124531D01*
X14162679Y-12124531D02*
X14172203Y-12143579D01*
X14172203Y-12143579D02*
X14181727Y-12181674D01*
X14181727Y-12181674D02*
X14181727Y-12229293D01*
X14181727Y-12229293D02*
X14172203Y-12267388D01*
X14172203Y-12267388D02*
X14162679Y-12286436D01*
X14162679Y-12286436D02*
X14153155Y-12295960D01*
X14153155Y-12295960D02*
X14134108Y-12305484D01*
X14134108Y-12305484D02*
X14115060Y-12305484D01*
X14115060Y-12305484D02*
X14096013Y-12295960D01*
X14096013Y-12295960D02*
X14086489Y-12286436D01*
X14086489Y-12286436D02*
X14076965Y-12267388D01*
X14076965Y-12267388D02*
X14067441Y-12229293D01*
X14067441Y-12229293D02*
X14067441Y-12181674D01*
X14067441Y-12181674D02*
X14076965Y-12143579D01*
X14076965Y-12143579D02*
X14086489Y-12124531D01*
X14086489Y-12124531D02*
X14096013Y-12115008D01*
X14096013Y-12115008D02*
X14115060Y-12105484D01*
X14305536Y-12105484D02*
X14324584Y-12105484D01*
X14324584Y-12105484D02*
X14343632Y-12115008D01*
X14343632Y-12115008D02*
X14353155Y-12124531D01*
X14353155Y-12124531D02*
X14362679Y-12143579D01*
X14362679Y-12143579D02*
X14372203Y-12181674D01*
X14372203Y-12181674D02*
X14372203Y-12229293D01*
X14372203Y-12229293D02*
X14362679Y-12267388D01*
X14362679Y-12267388D02*
X14353155Y-12286436D01*
X14353155Y-12286436D02*
X14343632Y-12295960D01*
X14343632Y-12295960D02*
X14324584Y-12305484D01*
X14324584Y-12305484D02*
X14305536Y-12305484D01*
X14305536Y-12305484D02*
X14286489Y-12295960D01*
X14286489Y-12295960D02*
X14276965Y-12286436D01*
X14276965Y-12286436D02*
X14267441Y-12267388D01*
X14267441Y-12267388D02*
X14257917Y-12229293D01*
X14257917Y-12229293D02*
X14257917Y-12181674D01*
X14257917Y-12181674D02*
X14267441Y-12143579D01*
X14267441Y-12143579D02*
X14276965Y-12124531D01*
X14276965Y-12124531D02*
X14286489Y-12115008D01*
X14286489Y-12115008D02*
X14305536Y-12105484D01*
X14457917Y-12305484D02*
X14457917Y-12172150D01*
X14457917Y-12191198D02*
X14467441Y-12181674D01*
X14467441Y-12181674D02*
X14486489Y-12172150D01*
X14486489Y-12172150D02*
X14515060Y-12172150D01*
X14515060Y-12172150D02*
X14534108Y-12181674D01*
X14534108Y-12181674D02*
X14543632Y-12200722D01*
X14543632Y-12200722D02*
X14543632Y-12305484D01*
X14543632Y-12200722D02*
X14553155Y-12181674D01*
X14553155Y-12181674D02*
X14572203Y-12172150D01*
X14572203Y-12172150D02*
X14600774Y-12172150D01*
X14600774Y-12172150D02*
X14619822Y-12181674D01*
X14619822Y-12181674D02*
X14629346Y-12200722D01*
X14629346Y-12200722D02*
X14629346Y-12305484D01*
X14724584Y-12305484D02*
X14724584Y-12172150D01*
X14724584Y-12191198D02*
X14734108Y-12181674D01*
X14734108Y-12181674D02*
X14753155Y-12172150D01*
X14753155Y-12172150D02*
X14781727Y-12172150D01*
X14781727Y-12172150D02*
X14800775Y-12181674D01*
X14800775Y-12181674D02*
X14810298Y-12200722D01*
X14810298Y-12200722D02*
X14810298Y-12305484D01*
X14810298Y-12200722D02*
X14819822Y-12181674D01*
X14819822Y-12181674D02*
X14838870Y-12172150D01*
X14838870Y-12172150D02*
X14867441Y-12172150D01*
X14867441Y-12172150D02*
X14886489Y-12181674D01*
X14886489Y-12181674D02*
X14896013Y-12200722D01*
X14896013Y-12200722D02*
X14896013Y-12305484D01*
X15286489Y-12095960D02*
X15115060Y-12353103D01*
X15543632Y-12105484D02*
X15562679Y-12105484D01*
X15562679Y-12105484D02*
X15581727Y-12115008D01*
X15581727Y-12115008D02*
X15591251Y-12124531D01*
X15591251Y-12124531D02*
X15600775Y-12143579D01*
X15600775Y-12143579D02*
X15610298Y-12181674D01*
X15610298Y-12181674D02*
X15610298Y-12229293D01*
X15610298Y-12229293D02*
X15600775Y-12267388D01*
X15600775Y-12267388D02*
X15591251Y-12286436D01*
X15591251Y-12286436D02*
X15581727Y-12295960D01*
X15581727Y-12295960D02*
X15562679Y-12305484D01*
X15562679Y-12305484D02*
X15543632Y-12305484D01*
X15543632Y-12305484D02*
X15524584Y-12295960D01*
X15524584Y-12295960D02*
X15515060Y-12286436D01*
X15515060Y-12286436D02*
X15505537Y-12267388D01*
X15505537Y-12267388D02*
X15496013Y-12229293D01*
X15496013Y-12229293D02*
X15496013Y-12181674D01*
X15496013Y-12181674D02*
X15505537Y-12143579D01*
X15505537Y-12143579D02*
X15515060Y-12124531D01*
X15515060Y-12124531D02*
X15524584Y-12115008D01*
X15524584Y-12115008D02*
X15543632Y-12105484D01*
X15696013Y-12286436D02*
X15705537Y-12295960D01*
X15705537Y-12295960D02*
X15696013Y-12305484D01*
X15696013Y-12305484D02*
X15686489Y-12295960D01*
X15686489Y-12295960D02*
X15696013Y-12286436D01*
X15696013Y-12286436D02*
X15696013Y-12305484D01*
X15829346Y-12105484D02*
X15848394Y-12105484D01*
X15848394Y-12105484D02*
X15867441Y-12115008D01*
X15867441Y-12115008D02*
X15876965Y-12124531D01*
X15876965Y-12124531D02*
X15886489Y-12143579D01*
X15886489Y-12143579D02*
X15896013Y-12181674D01*
X15896013Y-12181674D02*
X15896013Y-12229293D01*
X15896013Y-12229293D02*
X15886489Y-12267388D01*
X15886489Y-12267388D02*
X15876965Y-12286436D01*
X15876965Y-12286436D02*
X15867441Y-12295960D01*
X15867441Y-12295960D02*
X15848394Y-12305484D01*
X15848394Y-12305484D02*
X15829346Y-12305484D01*
X15829346Y-12305484D02*
X15810298Y-12295960D01*
X15810298Y-12295960D02*
X15800775Y-12286436D01*
X15800775Y-12286436D02*
X15791251Y-12267388D01*
X15791251Y-12267388D02*
X15781727Y-12229293D01*
X15781727Y-12229293D02*
X15781727Y-12181674D01*
X15781727Y-12181674D02*
X15791251Y-12143579D01*
X15791251Y-12143579D02*
X15800775Y-12124531D01*
X15800775Y-12124531D02*
X15810298Y-12115008D01*
X15810298Y-12115008D02*
X15829346Y-12105484D01*
X16086489Y-12305484D02*
X15972203Y-12305484D01*
X16029346Y-12305484D02*
X16029346Y-12105484D01*
X16029346Y-12105484D02*
X16010298Y-12134055D01*
X16010298Y-12134055D02*
X15991251Y-12153103D01*
X15991251Y-12153103D02*
X15972203Y-12162627D01*
X16276965Y-12305484D02*
X16162679Y-12305484D01*
X16219822Y-12305484D02*
X16219822Y-12105484D01*
X16219822Y-12105484D02*
X16200775Y-12134055D01*
X16200775Y-12134055D02*
X16181727Y-12153103D01*
X16181727Y-12153103D02*
X16162679Y-12162627D01*
X16391251Y-12191198D02*
X16372203Y-12181674D01*
X16372203Y-12181674D02*
X16362679Y-12172150D01*
X16362679Y-12172150D02*
X16353156Y-12153103D01*
X16353156Y-12153103D02*
X16353156Y-12143579D01*
X16353156Y-12143579D02*
X16362679Y-12124531D01*
X16362679Y-12124531D02*
X16372203Y-12115008D01*
X16372203Y-12115008D02*
X16391251Y-12105484D01*
X16391251Y-12105484D02*
X16429346Y-12105484D01*
X16429346Y-12105484D02*
X16448394Y-12115008D01*
X16448394Y-12115008D02*
X16457918Y-12124531D01*
X16457918Y-12124531D02*
X16467441Y-12143579D01*
X16467441Y-12143579D02*
X16467441Y-12153103D01*
X16467441Y-12153103D02*
X16457918Y-12172150D01*
X16457918Y-12172150D02*
X16448394Y-12181674D01*
X16448394Y-12181674D02*
X16429346Y-12191198D01*
X16429346Y-12191198D02*
X16391251Y-12191198D01*
X16391251Y-12191198D02*
X16372203Y-12200722D01*
X16372203Y-12200722D02*
X16362679Y-12210246D01*
X16362679Y-12210246D02*
X16353156Y-12229293D01*
X16353156Y-12229293D02*
X16353156Y-12267388D01*
X16353156Y-12267388D02*
X16362679Y-12286436D01*
X16362679Y-12286436D02*
X16372203Y-12295960D01*
X16372203Y-12295960D02*
X16391251Y-12305484D01*
X16391251Y-12305484D02*
X16429346Y-12305484D01*
X16429346Y-12305484D02*
X16448394Y-12295960D01*
X16448394Y-12295960D02*
X16457918Y-12286436D01*
X16457918Y-12286436D02*
X16467441Y-12267388D01*
X16467441Y-12267388D02*
X16467441Y-12229293D01*
X16467441Y-12229293D02*
X16457918Y-12210246D01*
X16457918Y-12210246D02*
X16448394Y-12200722D01*
X16448394Y-12200722D02*
X16429346Y-12191198D01*
X16543632Y-12105484D02*
X16543632Y-12143579D01*
X16619822Y-12105484D02*
X16619822Y-12143579D01*
X16915061Y-12381674D02*
X16905537Y-12372150D01*
X16905537Y-12372150D02*
X16886489Y-12343579D01*
X16886489Y-12343579D02*
X16876965Y-12324531D01*
X16876965Y-12324531D02*
X16867442Y-12295960D01*
X16867442Y-12295960D02*
X16857918Y-12248341D01*
X16857918Y-12248341D02*
X16857918Y-12210246D01*
X16857918Y-12210246D02*
X16867442Y-12162627D01*
X16867442Y-12162627D02*
X16876965Y-12134055D01*
X16876965Y-12134055D02*
X16886489Y-12115008D01*
X16886489Y-12115008D02*
X16905537Y-12086436D01*
X16905537Y-12086436D02*
X16915061Y-12076912D01*
X16972203Y-12105484D02*
X17096013Y-12105484D01*
X17096013Y-12105484D02*
X17029346Y-12181674D01*
X17029346Y-12181674D02*
X17057918Y-12181674D01*
X17057918Y-12181674D02*
X17076965Y-12191198D01*
X17076965Y-12191198D02*
X17086489Y-12200722D01*
X17086489Y-12200722D02*
X17096013Y-12219769D01*
X17096013Y-12219769D02*
X17096013Y-12267388D01*
X17096013Y-12267388D02*
X17086489Y-12286436D01*
X17086489Y-12286436D02*
X17076965Y-12295960D01*
X17076965Y-12295960D02*
X17057918Y-12305484D01*
X17057918Y-12305484D02*
X17000775Y-12305484D01*
X17000775Y-12305484D02*
X16981727Y-12295960D01*
X16981727Y-12295960D02*
X16972203Y-12286436D01*
X17172203Y-12124531D02*
X17181727Y-12115008D01*
X17181727Y-12115008D02*
X17200775Y-12105484D01*
X17200775Y-12105484D02*
X17248394Y-12105484D01*
X17248394Y-12105484D02*
X17267442Y-12115008D01*
X17267442Y-12115008D02*
X17276965Y-12124531D01*
X17276965Y-12124531D02*
X17286489Y-12143579D01*
X17286489Y-12143579D02*
X17286489Y-12162627D01*
X17286489Y-12162627D02*
X17276965Y-12191198D01*
X17276965Y-12191198D02*
X17162680Y-12305484D01*
X17162680Y-12305484D02*
X17286489Y-12305484D01*
X17524584Y-12305484D02*
X17524584Y-12105484D01*
X17610299Y-12305484D02*
X17610299Y-12200722D01*
X17610299Y-12200722D02*
X17600775Y-12181674D01*
X17600775Y-12181674D02*
X17581727Y-12172150D01*
X17581727Y-12172150D02*
X17553156Y-12172150D01*
X17553156Y-12172150D02*
X17534108Y-12181674D01*
X17534108Y-12181674D02*
X17524584Y-12191198D01*
X17734108Y-12305484D02*
X17715061Y-12295960D01*
X17715061Y-12295960D02*
X17705537Y-12286436D01*
X17705537Y-12286436D02*
X17696013Y-12267388D01*
X17696013Y-12267388D02*
X17696013Y-12210246D01*
X17696013Y-12210246D02*
X17705537Y-12191198D01*
X17705537Y-12191198D02*
X17715061Y-12181674D01*
X17715061Y-12181674D02*
X17734108Y-12172150D01*
X17734108Y-12172150D02*
X17762680Y-12172150D01*
X17762680Y-12172150D02*
X17781727Y-12181674D01*
X17781727Y-12181674D02*
X17791251Y-12191198D01*
X17791251Y-12191198D02*
X17800775Y-12210246D01*
X17800775Y-12210246D02*
X17800775Y-12267388D01*
X17800775Y-12267388D02*
X17791251Y-12286436D01*
X17791251Y-12286436D02*
X17781727Y-12295960D01*
X17781727Y-12295960D02*
X17762680Y-12305484D01*
X17762680Y-12305484D02*
X17734108Y-12305484D01*
X17915061Y-12305484D02*
X17896013Y-12295960D01*
X17896013Y-12295960D02*
X17886489Y-12276912D01*
X17886489Y-12276912D02*
X17886489Y-12105484D01*
X18067442Y-12295960D02*
X18048394Y-12305484D01*
X18048394Y-12305484D02*
X18010299Y-12305484D01*
X18010299Y-12305484D02*
X17991251Y-12295960D01*
X17991251Y-12295960D02*
X17981727Y-12276912D01*
X17981727Y-12276912D02*
X17981727Y-12200722D01*
X17981727Y-12200722D02*
X17991251Y-12181674D01*
X17991251Y-12181674D02*
X18010299Y-12172150D01*
X18010299Y-12172150D02*
X18048394Y-12172150D01*
X18048394Y-12172150D02*
X18067442Y-12181674D01*
X18067442Y-12181674D02*
X18076965Y-12200722D01*
X18076965Y-12200722D02*
X18076965Y-12219769D01*
X18076965Y-12219769D02*
X17981727Y-12238817D01*
X18153156Y-12295960D02*
X18172204Y-12305484D01*
X18172204Y-12305484D02*
X18210299Y-12305484D01*
X18210299Y-12305484D02*
X18229346Y-12295960D01*
X18229346Y-12295960D02*
X18238870Y-12276912D01*
X18238870Y-12276912D02*
X18238870Y-12267388D01*
X18238870Y-12267388D02*
X18229346Y-12248341D01*
X18229346Y-12248341D02*
X18210299Y-12238817D01*
X18210299Y-12238817D02*
X18181727Y-12238817D01*
X18181727Y-12238817D02*
X18162680Y-12229293D01*
X18162680Y-12229293D02*
X18153156Y-12210246D01*
X18153156Y-12210246D02*
X18153156Y-12200722D01*
X18153156Y-12200722D02*
X18162680Y-12181674D01*
X18162680Y-12181674D02*
X18181727Y-12172150D01*
X18181727Y-12172150D02*
X18210299Y-12172150D01*
X18210299Y-12172150D02*
X18229346Y-12181674D01*
X18305537Y-12381674D02*
X18315061Y-12372150D01*
X18315061Y-12372150D02*
X18334108Y-12343579D01*
X18334108Y-12343579D02*
X18343632Y-12324531D01*
X18343632Y-12324531D02*
X18353156Y-12295960D01*
X18353156Y-12295960D02*
X18362680Y-12248341D01*
X18362680Y-12248341D02*
X18362680Y-12210246D01*
X18362680Y-12210246D02*
X18353156Y-12162627D01*
X18353156Y-12162627D02*
X18343632Y-12134055D01*
X18343632Y-12134055D02*
X18334108Y-12115008D01*
X18334108Y-12115008D02*
X18315061Y-12086436D01*
X18315061Y-12086436D02*
X18305537Y-12076912D01*
D11*
X13309998Y-12448000D02*
X13309998Y-12508000D01*
X13279998Y-12478000D02*
X13339998Y-12478000D01*
D10*
X13638870Y-12369484D02*
X13657917Y-12369484D01*
X13657917Y-12369484D02*
X13676965Y-12379008D01*
X13676965Y-12379008D02*
X13686489Y-12388531D01*
X13686489Y-12388531D02*
X13696013Y-12407579D01*
X13696013Y-12407579D02*
X13705536Y-12445674D01*
X13705536Y-12445674D02*
X13705536Y-12493293D01*
X13705536Y-12493293D02*
X13696013Y-12531388D01*
X13696013Y-12531388D02*
X13686489Y-12550436D01*
X13686489Y-12550436D02*
X13676965Y-12559960D01*
X13676965Y-12559960D02*
X13657917Y-12569484D01*
X13657917Y-12569484D02*
X13638870Y-12569484D01*
X13638870Y-12569484D02*
X13619822Y-12559960D01*
X13619822Y-12559960D02*
X13610298Y-12550436D01*
X13610298Y-12550436D02*
X13600774Y-12531388D01*
X13600774Y-12531388D02*
X13591251Y-12493293D01*
X13591251Y-12493293D02*
X13591251Y-12445674D01*
X13591251Y-12445674D02*
X13600774Y-12407579D01*
X13600774Y-12407579D02*
X13610298Y-12388531D01*
X13610298Y-12388531D02*
X13619822Y-12379008D01*
X13619822Y-12379008D02*
X13638870Y-12369484D01*
X13791251Y-12550436D02*
X13800774Y-12559960D01*
X13800774Y-12559960D02*
X13791251Y-12569484D01*
X13791251Y-12569484D02*
X13781727Y-12559960D01*
X13781727Y-12559960D02*
X13791251Y-12550436D01*
X13791251Y-12550436D02*
X13791251Y-12569484D01*
X13972203Y-12369484D02*
X13934108Y-12369484D01*
X13934108Y-12369484D02*
X13915060Y-12379008D01*
X13915060Y-12379008D02*
X13905536Y-12388531D01*
X13905536Y-12388531D02*
X13886489Y-12417103D01*
X13886489Y-12417103D02*
X13876965Y-12455198D01*
X13876965Y-12455198D02*
X13876965Y-12531388D01*
X13876965Y-12531388D02*
X13886489Y-12550436D01*
X13886489Y-12550436D02*
X13896013Y-12559960D01*
X13896013Y-12559960D02*
X13915060Y-12569484D01*
X13915060Y-12569484D02*
X13953155Y-12569484D01*
X13953155Y-12569484D02*
X13972203Y-12559960D01*
X13972203Y-12559960D02*
X13981727Y-12550436D01*
X13981727Y-12550436D02*
X13991251Y-12531388D01*
X13991251Y-12531388D02*
X13991251Y-12483769D01*
X13991251Y-12483769D02*
X13981727Y-12464722D01*
X13981727Y-12464722D02*
X13972203Y-12455198D01*
X13972203Y-12455198D02*
X13953155Y-12445674D01*
X13953155Y-12445674D02*
X13915060Y-12445674D01*
X13915060Y-12445674D02*
X13896013Y-12455198D01*
X13896013Y-12455198D02*
X13886489Y-12464722D01*
X13886489Y-12464722D02*
X13876965Y-12483769D01*
X14115060Y-12369484D02*
X14134108Y-12369484D01*
X14134108Y-12369484D02*
X14153155Y-12379008D01*
X14153155Y-12379008D02*
X14162679Y-12388531D01*
X14162679Y-12388531D02*
X14172203Y-12407579D01*
X14172203Y-12407579D02*
X14181727Y-12445674D01*
X14181727Y-12445674D02*
X14181727Y-12493293D01*
X14181727Y-12493293D02*
X14172203Y-12531388D01*
X14172203Y-12531388D02*
X14162679Y-12550436D01*
X14162679Y-12550436D02*
X14153155Y-12559960D01*
X14153155Y-12559960D02*
X14134108Y-12569484D01*
X14134108Y-12569484D02*
X14115060Y-12569484D01*
X14115060Y-12569484D02*
X14096013Y-12559960D01*
X14096013Y-12559960D02*
X14086489Y-12550436D01*
X14086489Y-12550436D02*
X14076965Y-12531388D01*
X14076965Y-12531388D02*
X14067441Y-12493293D01*
X14067441Y-12493293D02*
X14067441Y-12445674D01*
X14067441Y-12445674D02*
X14076965Y-12407579D01*
X14076965Y-12407579D02*
X14086489Y-12388531D01*
X14086489Y-12388531D02*
X14096013Y-12379008D01*
X14096013Y-12379008D02*
X14115060Y-12369484D01*
X14305536Y-12369484D02*
X14324584Y-12369484D01*
X14324584Y-12369484D02*
X14343632Y-12379008D01*
X14343632Y-12379008D02*
X14353155Y-12388531D01*
X14353155Y-12388531D02*
X14362679Y-12407579D01*
X14362679Y-12407579D02*
X14372203Y-12445674D01*
X14372203Y-12445674D02*
X14372203Y-12493293D01*
X14372203Y-12493293D02*
X14362679Y-12531388D01*
X14362679Y-12531388D02*
X14353155Y-12550436D01*
X14353155Y-12550436D02*
X14343632Y-12559960D01*
X14343632Y-12559960D02*
X14324584Y-12569484D01*
X14324584Y-12569484D02*
X14305536Y-12569484D01*
X14305536Y-12569484D02*
X14286489Y-12559960D01*
X14286489Y-12559960D02*
X14276965Y-12550436D01*
X14276965Y-12550436D02*
X14267441Y-12531388D01*
X14267441Y-12531388D02*
X14257917Y-12493293D01*
X14257917Y-12493293D02*
X14257917Y-12445674D01*
X14257917Y-12445674D02*
X14267441Y-12407579D01*
X14267441Y-12407579D02*
X14276965Y-12388531D01*
X14276965Y-12388531D02*
X14286489Y-12379008D01*
X14286489Y-12379008D02*
X14305536Y-12369484D01*
X14457917Y-12569484D02*
X14457917Y-12436150D01*
X14457917Y-12455198D02*
X14467441Y-12445674D01*
X14467441Y-12445674D02*
X14486489Y-12436150D01*
X14486489Y-12436150D02*
X14515060Y-12436150D01*
X14515060Y-12436150D02*
X14534108Y-12445674D01*
X14534108Y-12445674D02*
X14543632Y-12464722D01*
X14543632Y-12464722D02*
X14543632Y-12569484D01*
X14543632Y-12464722D02*
X14553155Y-12445674D01*
X14553155Y-12445674D02*
X14572203Y-12436150D01*
X14572203Y-12436150D02*
X14600774Y-12436150D01*
X14600774Y-12436150D02*
X14619822Y-12445674D01*
X14619822Y-12445674D02*
X14629346Y-12464722D01*
X14629346Y-12464722D02*
X14629346Y-12569484D01*
X14724584Y-12569484D02*
X14724584Y-12436150D01*
X14724584Y-12455198D02*
X14734108Y-12445674D01*
X14734108Y-12445674D02*
X14753155Y-12436150D01*
X14753155Y-12436150D02*
X14781727Y-12436150D01*
X14781727Y-12436150D02*
X14800775Y-12445674D01*
X14800775Y-12445674D02*
X14810298Y-12464722D01*
X14810298Y-12464722D02*
X14810298Y-12569484D01*
X14810298Y-12464722D02*
X14819822Y-12445674D01*
X14819822Y-12445674D02*
X14838870Y-12436150D01*
X14838870Y-12436150D02*
X14867441Y-12436150D01*
X14867441Y-12436150D02*
X14886489Y-12445674D01*
X14886489Y-12445674D02*
X14896013Y-12464722D01*
X14896013Y-12464722D02*
X14896013Y-12569484D01*
X15286489Y-12359960D02*
X15115060Y-12617103D01*
X15543632Y-12369484D02*
X15562679Y-12369484D01*
X15562679Y-12369484D02*
X15581727Y-12379008D01*
X15581727Y-12379008D02*
X15591251Y-12388531D01*
X15591251Y-12388531D02*
X15600775Y-12407579D01*
X15600775Y-12407579D02*
X15610298Y-12445674D01*
X15610298Y-12445674D02*
X15610298Y-12493293D01*
X15610298Y-12493293D02*
X15600775Y-12531388D01*
X15600775Y-12531388D02*
X15591251Y-12550436D01*
X15591251Y-12550436D02*
X15581727Y-12559960D01*
X15581727Y-12559960D02*
X15562679Y-12569484D01*
X15562679Y-12569484D02*
X15543632Y-12569484D01*
X15543632Y-12569484D02*
X15524584Y-12559960D01*
X15524584Y-12559960D02*
X15515060Y-12550436D01*
X15515060Y-12550436D02*
X15505537Y-12531388D01*
X15505537Y-12531388D02*
X15496013Y-12493293D01*
X15496013Y-12493293D02*
X15496013Y-12445674D01*
X15496013Y-12445674D02*
X15505537Y-12407579D01*
X15505537Y-12407579D02*
X15515060Y-12388531D01*
X15515060Y-12388531D02*
X15524584Y-12379008D01*
X15524584Y-12379008D02*
X15543632Y-12369484D01*
X15696013Y-12550436D02*
X15705537Y-12559960D01*
X15705537Y-12559960D02*
X15696013Y-12569484D01*
X15696013Y-12569484D02*
X15686489Y-12559960D01*
X15686489Y-12559960D02*
X15696013Y-12550436D01*
X15696013Y-12550436D02*
X15696013Y-12569484D01*
X15829346Y-12369484D02*
X15848394Y-12369484D01*
X15848394Y-12369484D02*
X15867441Y-12379008D01*
X15867441Y-12379008D02*
X15876965Y-12388531D01*
X15876965Y-12388531D02*
X15886489Y-12407579D01*
X15886489Y-12407579D02*
X15896013Y-12445674D01*
X15896013Y-12445674D02*
X15896013Y-12493293D01*
X15896013Y-12493293D02*
X15886489Y-12531388D01*
X15886489Y-12531388D02*
X15876965Y-12550436D01*
X15876965Y-12550436D02*
X15867441Y-12559960D01*
X15867441Y-12559960D02*
X15848394Y-12569484D01*
X15848394Y-12569484D02*
X15829346Y-12569484D01*
X15829346Y-12569484D02*
X15810298Y-12559960D01*
X15810298Y-12559960D02*
X15800775Y-12550436D01*
X15800775Y-12550436D02*
X15791251Y-12531388D01*
X15791251Y-12531388D02*
X15781727Y-12493293D01*
X15781727Y-12493293D02*
X15781727Y-12445674D01*
X15781727Y-12445674D02*
X15791251Y-12407579D01*
X15791251Y-12407579D02*
X15800775Y-12388531D01*
X15800775Y-12388531D02*
X15810298Y-12379008D01*
X15810298Y-12379008D02*
X15829346Y-12369484D01*
X15972203Y-12388531D02*
X15981727Y-12379008D01*
X15981727Y-12379008D02*
X16000775Y-12369484D01*
X16000775Y-12369484D02*
X16048394Y-12369484D01*
X16048394Y-12369484D02*
X16067441Y-12379008D01*
X16067441Y-12379008D02*
X16076965Y-12388531D01*
X16076965Y-12388531D02*
X16086489Y-12407579D01*
X16086489Y-12407579D02*
X16086489Y-12426627D01*
X16086489Y-12426627D02*
X16076965Y-12455198D01*
X16076965Y-12455198D02*
X15962679Y-12569484D01*
X15962679Y-12569484D02*
X16086489Y-12569484D01*
X16153156Y-12369484D02*
X16276965Y-12369484D01*
X16276965Y-12369484D02*
X16210298Y-12445674D01*
X16210298Y-12445674D02*
X16238870Y-12445674D01*
X16238870Y-12445674D02*
X16257918Y-12455198D01*
X16257918Y-12455198D02*
X16267441Y-12464722D01*
X16267441Y-12464722D02*
X16276965Y-12483769D01*
X16276965Y-12483769D02*
X16276965Y-12531388D01*
X16276965Y-12531388D02*
X16267441Y-12550436D01*
X16267441Y-12550436D02*
X16257918Y-12559960D01*
X16257918Y-12559960D02*
X16238870Y-12569484D01*
X16238870Y-12569484D02*
X16181727Y-12569484D01*
X16181727Y-12569484D02*
X16162679Y-12559960D01*
X16162679Y-12559960D02*
X16153156Y-12550436D01*
X16448394Y-12369484D02*
X16410298Y-12369484D01*
X16410298Y-12369484D02*
X16391251Y-12379008D01*
X16391251Y-12379008D02*
X16381727Y-12388531D01*
X16381727Y-12388531D02*
X16362679Y-12417103D01*
X16362679Y-12417103D02*
X16353156Y-12455198D01*
X16353156Y-12455198D02*
X16353156Y-12531388D01*
X16353156Y-12531388D02*
X16362679Y-12550436D01*
X16362679Y-12550436D02*
X16372203Y-12559960D01*
X16372203Y-12559960D02*
X16391251Y-12569484D01*
X16391251Y-12569484D02*
X16429346Y-12569484D01*
X16429346Y-12569484D02*
X16448394Y-12559960D01*
X16448394Y-12559960D02*
X16457918Y-12550436D01*
X16457918Y-12550436D02*
X16467441Y-12531388D01*
X16467441Y-12531388D02*
X16467441Y-12483769D01*
X16467441Y-12483769D02*
X16457918Y-12464722D01*
X16457918Y-12464722D02*
X16448394Y-12455198D01*
X16448394Y-12455198D02*
X16429346Y-12445674D01*
X16429346Y-12445674D02*
X16391251Y-12445674D01*
X16391251Y-12445674D02*
X16372203Y-12455198D01*
X16372203Y-12455198D02*
X16362679Y-12464722D01*
X16362679Y-12464722D02*
X16353156Y-12483769D01*
X16543632Y-12369484D02*
X16543632Y-12407579D01*
X16619822Y-12369484D02*
X16619822Y-12407579D01*
X16915061Y-12645674D02*
X16905537Y-12636150D01*
X16905537Y-12636150D02*
X16886489Y-12607579D01*
X16886489Y-12607579D02*
X16876965Y-12588531D01*
X16876965Y-12588531D02*
X16867442Y-12559960D01*
X16867442Y-12559960D02*
X16857918Y-12512341D01*
X16857918Y-12512341D02*
X16857918Y-12474246D01*
X16857918Y-12474246D02*
X16867442Y-12426627D01*
X16867442Y-12426627D02*
X16876965Y-12398055D01*
X16876965Y-12398055D02*
X16886489Y-12379008D01*
X16886489Y-12379008D02*
X16905537Y-12350436D01*
X16905537Y-12350436D02*
X16915061Y-12340912D01*
X17029346Y-12369484D02*
X17048394Y-12369484D01*
X17048394Y-12369484D02*
X17067442Y-12379008D01*
X17067442Y-12379008D02*
X17076965Y-12388531D01*
X17076965Y-12388531D02*
X17086489Y-12407579D01*
X17086489Y-12407579D02*
X17096013Y-12445674D01*
X17096013Y-12445674D02*
X17096013Y-12493293D01*
X17096013Y-12493293D02*
X17086489Y-12531388D01*
X17086489Y-12531388D02*
X17076965Y-12550436D01*
X17076965Y-12550436D02*
X17067442Y-12559960D01*
X17067442Y-12559960D02*
X17048394Y-12569484D01*
X17048394Y-12569484D02*
X17029346Y-12569484D01*
X17029346Y-12569484D02*
X17010299Y-12559960D01*
X17010299Y-12559960D02*
X17000775Y-12550436D01*
X17000775Y-12550436D02*
X16991251Y-12531388D01*
X16991251Y-12531388D02*
X16981727Y-12493293D01*
X16981727Y-12493293D02*
X16981727Y-12445674D01*
X16981727Y-12445674D02*
X16991251Y-12407579D01*
X16991251Y-12407579D02*
X17000775Y-12388531D01*
X17000775Y-12388531D02*
X17010299Y-12379008D01*
X17010299Y-12379008D02*
X17029346Y-12369484D01*
X17334108Y-12569484D02*
X17334108Y-12369484D01*
X17419823Y-12569484D02*
X17419823Y-12464722D01*
X17419823Y-12464722D02*
X17410299Y-12445674D01*
X17410299Y-12445674D02*
X17391251Y-12436150D01*
X17391251Y-12436150D02*
X17362680Y-12436150D01*
X17362680Y-12436150D02*
X17343632Y-12445674D01*
X17343632Y-12445674D02*
X17334108Y-12455198D01*
X17543632Y-12569484D02*
X17524584Y-12559960D01*
X17524584Y-12559960D02*
X17515061Y-12550436D01*
X17515061Y-12550436D02*
X17505537Y-12531388D01*
X17505537Y-12531388D02*
X17505537Y-12474246D01*
X17505537Y-12474246D02*
X17515061Y-12455198D01*
X17515061Y-12455198D02*
X17524584Y-12445674D01*
X17524584Y-12445674D02*
X17543632Y-12436150D01*
X17543632Y-12436150D02*
X17572204Y-12436150D01*
X17572204Y-12436150D02*
X17591251Y-12445674D01*
X17591251Y-12445674D02*
X17600775Y-12455198D01*
X17600775Y-12455198D02*
X17610299Y-12474246D01*
X17610299Y-12474246D02*
X17610299Y-12531388D01*
X17610299Y-12531388D02*
X17600775Y-12550436D01*
X17600775Y-12550436D02*
X17591251Y-12559960D01*
X17591251Y-12559960D02*
X17572204Y-12569484D01*
X17572204Y-12569484D02*
X17543632Y-12569484D01*
X17724584Y-12569484D02*
X17705537Y-12559960D01*
X17705537Y-12559960D02*
X17696013Y-12540912D01*
X17696013Y-12540912D02*
X17696013Y-12369484D01*
X17876965Y-12559960D02*
X17857918Y-12569484D01*
X17857918Y-12569484D02*
X17819823Y-12569484D01*
X17819823Y-12569484D02*
X17800775Y-12559960D01*
X17800775Y-12559960D02*
X17791251Y-12540912D01*
X17791251Y-12540912D02*
X17791251Y-12464722D01*
X17791251Y-12464722D02*
X17800775Y-12445674D01*
X17800775Y-12445674D02*
X17819823Y-12436150D01*
X17819823Y-12436150D02*
X17857918Y-12436150D01*
X17857918Y-12436150D02*
X17876965Y-12445674D01*
X17876965Y-12445674D02*
X17886489Y-12464722D01*
X17886489Y-12464722D02*
X17886489Y-12483769D01*
X17886489Y-12483769D02*
X17791251Y-12502817D01*
X17962680Y-12559960D02*
X17981727Y-12569484D01*
X17981727Y-12569484D02*
X18019823Y-12569484D01*
X18019823Y-12569484D02*
X18038870Y-12559960D01*
X18038870Y-12559960D02*
X18048394Y-12540912D01*
X18048394Y-12540912D02*
X18048394Y-12531388D01*
X18048394Y-12531388D02*
X18038870Y-12512341D01*
X18038870Y-12512341D02*
X18019823Y-12502817D01*
X18019823Y-12502817D02*
X17991251Y-12502817D01*
X17991251Y-12502817D02*
X17972204Y-12493293D01*
X17972204Y-12493293D02*
X17962680Y-12474246D01*
X17962680Y-12474246D02*
X17962680Y-12464722D01*
X17962680Y-12464722D02*
X17972204Y-12445674D01*
X17972204Y-12445674D02*
X17991251Y-12436150D01*
X17991251Y-12436150D02*
X18019823Y-12436150D01*
X18019823Y-12436150D02*
X18038870Y-12445674D01*
X18286489Y-12493293D02*
X18438870Y-12493293D01*
X18362680Y-12569484D02*
X18362680Y-12417103D01*
X18772204Y-12436150D02*
X18772204Y-12569484D01*
X18724585Y-12359960D02*
X18676966Y-12502817D01*
X18676966Y-12502817D02*
X18800775Y-12502817D01*
X19019823Y-12559960D02*
X19038870Y-12569484D01*
X19038870Y-12569484D02*
X19076966Y-12569484D01*
X19076966Y-12569484D02*
X19096013Y-12559960D01*
X19096013Y-12559960D02*
X19105537Y-12540912D01*
X19105537Y-12540912D02*
X19105537Y-12531388D01*
X19105537Y-12531388D02*
X19096013Y-12512341D01*
X19096013Y-12512341D02*
X19076966Y-12502817D01*
X19076966Y-12502817D02*
X19048394Y-12502817D01*
X19048394Y-12502817D02*
X19029347Y-12493293D01*
X19029347Y-12493293D02*
X19019823Y-12474246D01*
X19019823Y-12474246D02*
X19019823Y-12464722D01*
X19019823Y-12464722D02*
X19029347Y-12445674D01*
X19029347Y-12445674D02*
X19048394Y-12436150D01*
X19048394Y-12436150D02*
X19076966Y-12436150D01*
X19076966Y-12436150D02*
X19096013Y-12445674D01*
X19219823Y-12569484D02*
X19200775Y-12559960D01*
X19200775Y-12559960D02*
X19191251Y-12540912D01*
X19191251Y-12540912D02*
X19191251Y-12369484D01*
X19324585Y-12569484D02*
X19305537Y-12559960D01*
X19305537Y-12559960D02*
X19296013Y-12550436D01*
X19296013Y-12550436D02*
X19286489Y-12531388D01*
X19286489Y-12531388D02*
X19286489Y-12474246D01*
X19286489Y-12474246D02*
X19296013Y-12455198D01*
X19296013Y-12455198D02*
X19305537Y-12445674D01*
X19305537Y-12445674D02*
X19324585Y-12436150D01*
X19324585Y-12436150D02*
X19353156Y-12436150D01*
X19353156Y-12436150D02*
X19372204Y-12445674D01*
X19372204Y-12445674D02*
X19381728Y-12455198D01*
X19381728Y-12455198D02*
X19391251Y-12474246D01*
X19391251Y-12474246D02*
X19391251Y-12531388D01*
X19391251Y-12531388D02*
X19381728Y-12550436D01*
X19381728Y-12550436D02*
X19372204Y-12559960D01*
X19372204Y-12559960D02*
X19353156Y-12569484D01*
X19353156Y-12569484D02*
X19324585Y-12569484D01*
X19448394Y-12436150D02*
X19524585Y-12436150D01*
X19476966Y-12369484D02*
X19476966Y-12540912D01*
X19476966Y-12540912D02*
X19486489Y-12559960D01*
X19486489Y-12559960D02*
X19505537Y-12569484D01*
X19505537Y-12569484D02*
X19524585Y-12569484D01*
X19581728Y-12559960D02*
X19600775Y-12569484D01*
X19600775Y-12569484D02*
X19638870Y-12569484D01*
X19638870Y-12569484D02*
X19657918Y-12559960D01*
X19657918Y-12559960D02*
X19667442Y-12540912D01*
X19667442Y-12540912D02*
X19667442Y-12531388D01*
X19667442Y-12531388D02*
X19657918Y-12512341D01*
X19657918Y-12512341D02*
X19638870Y-12502817D01*
X19638870Y-12502817D02*
X19610299Y-12502817D01*
X19610299Y-12502817D02*
X19591251Y-12493293D01*
X19591251Y-12493293D02*
X19581728Y-12474246D01*
X19581728Y-12474246D02*
X19581728Y-12464722D01*
X19581728Y-12464722D02*
X19591251Y-12445674D01*
X19591251Y-12445674D02*
X19610299Y-12436150D01*
X19610299Y-12436150D02*
X19638870Y-12436150D01*
X19638870Y-12436150D02*
X19657918Y-12445674D01*
X19734109Y-12645674D02*
X19743632Y-12636150D01*
X19743632Y-12636150D02*
X19762680Y-12607579D01*
X19762680Y-12607579D02*
X19772204Y-12588531D01*
X19772204Y-12588531D02*
X19781728Y-12559960D01*
X19781728Y-12559960D02*
X19791251Y-12512341D01*
X19791251Y-12512341D02*
X19791251Y-12474246D01*
X19791251Y-12474246D02*
X19781728Y-12426627D01*
X19781728Y-12426627D02*
X19772204Y-12398055D01*
X19772204Y-12398055D02*
X19762680Y-12379008D01*
X19762680Y-12379008D02*
X19743632Y-12350436D01*
X19743632Y-12350436D02*
X19734109Y-12340912D01*
D11*
X13325353Y-12777356D02*
X13325353Y-12706644D01*
X13254642Y-12706644D01*
X13254642Y-12777356D01*
X13325353Y-12777356D01*
D10*
X13705536Y-12833484D02*
X13591251Y-12833484D01*
X13648393Y-12833484D02*
X13648393Y-12633484D01*
X13648393Y-12633484D02*
X13629346Y-12662055D01*
X13629346Y-12662055D02*
X13610298Y-12681103D01*
X13610298Y-12681103D02*
X13591251Y-12690627D01*
X13791251Y-12814436D02*
X13800774Y-12823960D01*
X13800774Y-12823960D02*
X13791251Y-12833484D01*
X13791251Y-12833484D02*
X13781727Y-12823960D01*
X13781727Y-12823960D02*
X13791251Y-12814436D01*
X13791251Y-12814436D02*
X13791251Y-12833484D01*
X13924584Y-12633484D02*
X13943632Y-12633484D01*
X13943632Y-12633484D02*
X13962679Y-12643008D01*
X13962679Y-12643008D02*
X13972203Y-12652531D01*
X13972203Y-12652531D02*
X13981727Y-12671579D01*
X13981727Y-12671579D02*
X13991251Y-12709674D01*
X13991251Y-12709674D02*
X13991251Y-12757293D01*
X13991251Y-12757293D02*
X13981727Y-12795388D01*
X13981727Y-12795388D02*
X13972203Y-12814436D01*
X13972203Y-12814436D02*
X13962679Y-12823960D01*
X13962679Y-12823960D02*
X13943632Y-12833484D01*
X13943632Y-12833484D02*
X13924584Y-12833484D01*
X13924584Y-12833484D02*
X13905536Y-12823960D01*
X13905536Y-12823960D02*
X13896013Y-12814436D01*
X13896013Y-12814436D02*
X13886489Y-12795388D01*
X13886489Y-12795388D02*
X13876965Y-12757293D01*
X13876965Y-12757293D02*
X13876965Y-12709674D01*
X13876965Y-12709674D02*
X13886489Y-12671579D01*
X13886489Y-12671579D02*
X13896013Y-12652531D01*
X13896013Y-12652531D02*
X13905536Y-12643008D01*
X13905536Y-12643008D02*
X13924584Y-12633484D01*
X14115060Y-12633484D02*
X14134108Y-12633484D01*
X14134108Y-12633484D02*
X14153155Y-12643008D01*
X14153155Y-12643008D02*
X14162679Y-12652531D01*
X14162679Y-12652531D02*
X14172203Y-12671579D01*
X14172203Y-12671579D02*
X14181727Y-12709674D01*
X14181727Y-12709674D02*
X14181727Y-12757293D01*
X14181727Y-12757293D02*
X14172203Y-12795388D01*
X14172203Y-12795388D02*
X14162679Y-12814436D01*
X14162679Y-12814436D02*
X14153155Y-12823960D01*
X14153155Y-12823960D02*
X14134108Y-12833484D01*
X14134108Y-12833484D02*
X14115060Y-12833484D01*
X14115060Y-12833484D02*
X14096013Y-12823960D01*
X14096013Y-12823960D02*
X14086489Y-12814436D01*
X14086489Y-12814436D02*
X14076965Y-12795388D01*
X14076965Y-12795388D02*
X14067441Y-12757293D01*
X14067441Y-12757293D02*
X14067441Y-12709674D01*
X14067441Y-12709674D02*
X14076965Y-12671579D01*
X14076965Y-12671579D02*
X14086489Y-12652531D01*
X14086489Y-12652531D02*
X14096013Y-12643008D01*
X14096013Y-12643008D02*
X14115060Y-12633484D01*
X14305536Y-12633484D02*
X14324584Y-12633484D01*
X14324584Y-12633484D02*
X14343632Y-12643008D01*
X14343632Y-12643008D02*
X14353155Y-12652531D01*
X14353155Y-12652531D02*
X14362679Y-12671579D01*
X14362679Y-12671579D02*
X14372203Y-12709674D01*
X14372203Y-12709674D02*
X14372203Y-12757293D01*
X14372203Y-12757293D02*
X14362679Y-12795388D01*
X14362679Y-12795388D02*
X14353155Y-12814436D01*
X14353155Y-12814436D02*
X14343632Y-12823960D01*
X14343632Y-12823960D02*
X14324584Y-12833484D01*
X14324584Y-12833484D02*
X14305536Y-12833484D01*
X14305536Y-12833484D02*
X14286489Y-12823960D01*
X14286489Y-12823960D02*
X14276965Y-12814436D01*
X14276965Y-12814436D02*
X14267441Y-12795388D01*
X14267441Y-12795388D02*
X14257917Y-12757293D01*
X14257917Y-12757293D02*
X14257917Y-12709674D01*
X14257917Y-12709674D02*
X14267441Y-12671579D01*
X14267441Y-12671579D02*
X14276965Y-12652531D01*
X14276965Y-12652531D02*
X14286489Y-12643008D01*
X14286489Y-12643008D02*
X14305536Y-12633484D01*
X14457917Y-12833484D02*
X14457917Y-12700150D01*
X14457917Y-12719198D02*
X14467441Y-12709674D01*
X14467441Y-12709674D02*
X14486489Y-12700150D01*
X14486489Y-12700150D02*
X14515060Y-12700150D01*
X14515060Y-12700150D02*
X14534108Y-12709674D01*
X14534108Y-12709674D02*
X14543632Y-12728722D01*
X14543632Y-12728722D02*
X14543632Y-12833484D01*
X14543632Y-12728722D02*
X14553155Y-12709674D01*
X14553155Y-12709674D02*
X14572203Y-12700150D01*
X14572203Y-12700150D02*
X14600774Y-12700150D01*
X14600774Y-12700150D02*
X14619822Y-12709674D01*
X14619822Y-12709674D02*
X14629346Y-12728722D01*
X14629346Y-12728722D02*
X14629346Y-12833484D01*
X14724584Y-12833484D02*
X14724584Y-12700150D01*
X14724584Y-12719198D02*
X14734108Y-12709674D01*
X14734108Y-12709674D02*
X14753155Y-12700150D01*
X14753155Y-12700150D02*
X14781727Y-12700150D01*
X14781727Y-12700150D02*
X14800775Y-12709674D01*
X14800775Y-12709674D02*
X14810298Y-12728722D01*
X14810298Y-12728722D02*
X14810298Y-12833484D01*
X14810298Y-12728722D02*
X14819822Y-12709674D01*
X14819822Y-12709674D02*
X14838870Y-12700150D01*
X14838870Y-12700150D02*
X14867441Y-12700150D01*
X14867441Y-12700150D02*
X14886489Y-12709674D01*
X14886489Y-12709674D02*
X14896013Y-12728722D01*
X14896013Y-12728722D02*
X14896013Y-12833484D01*
X15286489Y-12623960D02*
X15115060Y-12881103D01*
X15543632Y-12633484D02*
X15562679Y-12633484D01*
X15562679Y-12633484D02*
X15581727Y-12643008D01*
X15581727Y-12643008D02*
X15591251Y-12652531D01*
X15591251Y-12652531D02*
X15600775Y-12671579D01*
X15600775Y-12671579D02*
X15610298Y-12709674D01*
X15610298Y-12709674D02*
X15610298Y-12757293D01*
X15610298Y-12757293D02*
X15600775Y-12795388D01*
X15600775Y-12795388D02*
X15591251Y-12814436D01*
X15591251Y-12814436D02*
X15581727Y-12823960D01*
X15581727Y-12823960D02*
X15562679Y-12833484D01*
X15562679Y-12833484D02*
X15543632Y-12833484D01*
X15543632Y-12833484D02*
X15524584Y-12823960D01*
X15524584Y-12823960D02*
X15515060Y-12814436D01*
X15515060Y-12814436D02*
X15505537Y-12795388D01*
X15505537Y-12795388D02*
X15496013Y-12757293D01*
X15496013Y-12757293D02*
X15496013Y-12709674D01*
X15496013Y-12709674D02*
X15505537Y-12671579D01*
X15505537Y-12671579D02*
X15515060Y-12652531D01*
X15515060Y-12652531D02*
X15524584Y-12643008D01*
X15524584Y-12643008D02*
X15543632Y-12633484D01*
X15696013Y-12814436D02*
X15705537Y-12823960D01*
X15705537Y-12823960D02*
X15696013Y-12833484D01*
X15696013Y-12833484D02*
X15686489Y-12823960D01*
X15686489Y-12823960D02*
X15696013Y-12814436D01*
X15696013Y-12814436D02*
X15696013Y-12833484D01*
X15829346Y-12633484D02*
X15848394Y-12633484D01*
X15848394Y-12633484D02*
X15867441Y-12643008D01*
X15867441Y-12643008D02*
X15876965Y-12652531D01*
X15876965Y-12652531D02*
X15886489Y-12671579D01*
X15886489Y-12671579D02*
X15896013Y-12709674D01*
X15896013Y-12709674D02*
X15896013Y-12757293D01*
X15896013Y-12757293D02*
X15886489Y-12795388D01*
X15886489Y-12795388D02*
X15876965Y-12814436D01*
X15876965Y-12814436D02*
X15867441Y-12823960D01*
X15867441Y-12823960D02*
X15848394Y-12833484D01*
X15848394Y-12833484D02*
X15829346Y-12833484D01*
X15829346Y-12833484D02*
X15810298Y-12823960D01*
X15810298Y-12823960D02*
X15800775Y-12814436D01*
X15800775Y-12814436D02*
X15791251Y-12795388D01*
X15791251Y-12795388D02*
X15781727Y-12757293D01*
X15781727Y-12757293D02*
X15781727Y-12709674D01*
X15781727Y-12709674D02*
X15791251Y-12671579D01*
X15791251Y-12671579D02*
X15800775Y-12652531D01*
X15800775Y-12652531D02*
X15810298Y-12643008D01*
X15810298Y-12643008D02*
X15829346Y-12633484D01*
X15962679Y-12633484D02*
X16086489Y-12633484D01*
X16086489Y-12633484D02*
X16019822Y-12709674D01*
X16019822Y-12709674D02*
X16048394Y-12709674D01*
X16048394Y-12709674D02*
X16067441Y-12719198D01*
X16067441Y-12719198D02*
X16076965Y-12728722D01*
X16076965Y-12728722D02*
X16086489Y-12747769D01*
X16086489Y-12747769D02*
X16086489Y-12795388D01*
X16086489Y-12795388D02*
X16076965Y-12814436D01*
X16076965Y-12814436D02*
X16067441Y-12823960D01*
X16067441Y-12823960D02*
X16048394Y-12833484D01*
X16048394Y-12833484D02*
X15991251Y-12833484D01*
X15991251Y-12833484D02*
X15972203Y-12823960D01*
X15972203Y-12823960D02*
X15962679Y-12814436D01*
X16181727Y-12833484D02*
X16219822Y-12833484D01*
X16219822Y-12833484D02*
X16238870Y-12823960D01*
X16238870Y-12823960D02*
X16248394Y-12814436D01*
X16248394Y-12814436D02*
X16267441Y-12785865D01*
X16267441Y-12785865D02*
X16276965Y-12747769D01*
X16276965Y-12747769D02*
X16276965Y-12671579D01*
X16276965Y-12671579D02*
X16267441Y-12652531D01*
X16267441Y-12652531D02*
X16257918Y-12643008D01*
X16257918Y-12643008D02*
X16238870Y-12633484D01*
X16238870Y-12633484D02*
X16200775Y-12633484D01*
X16200775Y-12633484D02*
X16181727Y-12643008D01*
X16181727Y-12643008D02*
X16172203Y-12652531D01*
X16172203Y-12652531D02*
X16162679Y-12671579D01*
X16162679Y-12671579D02*
X16162679Y-12719198D01*
X16162679Y-12719198D02*
X16172203Y-12738246D01*
X16172203Y-12738246D02*
X16181727Y-12747769D01*
X16181727Y-12747769D02*
X16200775Y-12757293D01*
X16200775Y-12757293D02*
X16238870Y-12757293D01*
X16238870Y-12757293D02*
X16257918Y-12747769D01*
X16257918Y-12747769D02*
X16267441Y-12738246D01*
X16267441Y-12738246D02*
X16276965Y-12719198D01*
X16448394Y-12700150D02*
X16448394Y-12833484D01*
X16400775Y-12623960D02*
X16353156Y-12766817D01*
X16353156Y-12766817D02*
X16476965Y-12766817D01*
X16543632Y-12633484D02*
X16543632Y-12671579D01*
X16619822Y-12633484D02*
X16619822Y-12671579D01*
X16915061Y-12909674D02*
X16905537Y-12900150D01*
X16905537Y-12900150D02*
X16886489Y-12871579D01*
X16886489Y-12871579D02*
X16876965Y-12852531D01*
X16876965Y-12852531D02*
X16867442Y-12823960D01*
X16867442Y-12823960D02*
X16857918Y-12776341D01*
X16857918Y-12776341D02*
X16857918Y-12738246D01*
X16857918Y-12738246D02*
X16867442Y-12690627D01*
X16867442Y-12690627D02*
X16876965Y-12662055D01*
X16876965Y-12662055D02*
X16886489Y-12643008D01*
X16886489Y-12643008D02*
X16905537Y-12614436D01*
X16905537Y-12614436D02*
X16915061Y-12604912D01*
X17076965Y-12633484D02*
X17038870Y-12633484D01*
X17038870Y-12633484D02*
X17019822Y-12643008D01*
X17019822Y-12643008D02*
X17010299Y-12652531D01*
X17010299Y-12652531D02*
X16991251Y-12681103D01*
X16991251Y-12681103D02*
X16981727Y-12719198D01*
X16981727Y-12719198D02*
X16981727Y-12795388D01*
X16981727Y-12795388D02*
X16991251Y-12814436D01*
X16991251Y-12814436D02*
X17000775Y-12823960D01*
X17000775Y-12823960D02*
X17019822Y-12833484D01*
X17019822Y-12833484D02*
X17057918Y-12833484D01*
X17057918Y-12833484D02*
X17076965Y-12823960D01*
X17076965Y-12823960D02*
X17086489Y-12814436D01*
X17086489Y-12814436D02*
X17096013Y-12795388D01*
X17096013Y-12795388D02*
X17096013Y-12747769D01*
X17096013Y-12747769D02*
X17086489Y-12728722D01*
X17086489Y-12728722D02*
X17076965Y-12719198D01*
X17076965Y-12719198D02*
X17057918Y-12709674D01*
X17057918Y-12709674D02*
X17019822Y-12709674D01*
X17019822Y-12709674D02*
X17000775Y-12719198D01*
X17000775Y-12719198D02*
X16991251Y-12728722D01*
X16991251Y-12728722D02*
X16981727Y-12747769D01*
X17334108Y-12833484D02*
X17334108Y-12633484D01*
X17419823Y-12833484D02*
X17419823Y-12728722D01*
X17419823Y-12728722D02*
X17410299Y-12709674D01*
X17410299Y-12709674D02*
X17391251Y-12700150D01*
X17391251Y-12700150D02*
X17362680Y-12700150D01*
X17362680Y-12700150D02*
X17343632Y-12709674D01*
X17343632Y-12709674D02*
X17334108Y-12719198D01*
X17543632Y-12833484D02*
X17524584Y-12823960D01*
X17524584Y-12823960D02*
X17515061Y-12814436D01*
X17515061Y-12814436D02*
X17505537Y-12795388D01*
X17505537Y-12795388D02*
X17505537Y-12738246D01*
X17505537Y-12738246D02*
X17515061Y-12719198D01*
X17515061Y-12719198D02*
X17524584Y-12709674D01*
X17524584Y-12709674D02*
X17543632Y-12700150D01*
X17543632Y-12700150D02*
X17572204Y-12700150D01*
X17572204Y-12700150D02*
X17591251Y-12709674D01*
X17591251Y-12709674D02*
X17600775Y-12719198D01*
X17600775Y-12719198D02*
X17610299Y-12738246D01*
X17610299Y-12738246D02*
X17610299Y-12795388D01*
X17610299Y-12795388D02*
X17600775Y-12814436D01*
X17600775Y-12814436D02*
X17591251Y-12823960D01*
X17591251Y-12823960D02*
X17572204Y-12833484D01*
X17572204Y-12833484D02*
X17543632Y-12833484D01*
X17724584Y-12833484D02*
X17705537Y-12823960D01*
X17705537Y-12823960D02*
X17696013Y-12804912D01*
X17696013Y-12804912D02*
X17696013Y-12633484D01*
X17876965Y-12823960D02*
X17857918Y-12833484D01*
X17857918Y-12833484D02*
X17819823Y-12833484D01*
X17819823Y-12833484D02*
X17800775Y-12823960D01*
X17800775Y-12823960D02*
X17791251Y-12804912D01*
X17791251Y-12804912D02*
X17791251Y-12728722D01*
X17791251Y-12728722D02*
X17800775Y-12709674D01*
X17800775Y-12709674D02*
X17819823Y-12700150D01*
X17819823Y-12700150D02*
X17857918Y-12700150D01*
X17857918Y-12700150D02*
X17876965Y-12709674D01*
X17876965Y-12709674D02*
X17886489Y-12728722D01*
X17886489Y-12728722D02*
X17886489Y-12747769D01*
X17886489Y-12747769D02*
X17791251Y-12766817D01*
X17962680Y-12823960D02*
X17981727Y-12833484D01*
X17981727Y-12833484D02*
X18019823Y-12833484D01*
X18019823Y-12833484D02*
X18038870Y-12823960D01*
X18038870Y-12823960D02*
X18048394Y-12804912D01*
X18048394Y-12804912D02*
X18048394Y-12795388D01*
X18048394Y-12795388D02*
X18038870Y-12776341D01*
X18038870Y-12776341D02*
X18019823Y-12766817D01*
X18019823Y-12766817D02*
X17991251Y-12766817D01*
X17991251Y-12766817D02*
X17972204Y-12757293D01*
X17972204Y-12757293D02*
X17962680Y-12738246D01*
X17962680Y-12738246D02*
X17962680Y-12728722D01*
X17962680Y-12728722D02*
X17972204Y-12709674D01*
X17972204Y-12709674D02*
X17991251Y-12700150D01*
X17991251Y-12700150D02*
X18019823Y-12700150D01*
X18019823Y-12700150D02*
X18038870Y-12709674D01*
X18115061Y-12909674D02*
X18124585Y-12900150D01*
X18124585Y-12900150D02*
X18143632Y-12871579D01*
X18143632Y-12871579D02*
X18153156Y-12852531D01*
X18153156Y-12852531D02*
X18162680Y-12823960D01*
X18162680Y-12823960D02*
X18172204Y-12776341D01*
X18172204Y-12776341D02*
X18172204Y-12738246D01*
X18172204Y-12738246D02*
X18162680Y-12690627D01*
X18162680Y-12690627D02*
X18153156Y-12662055D01*
X18153156Y-12662055D02*
X18143632Y-12643008D01*
X18143632Y-12643008D02*
X18124585Y-12614436D01*
X18124585Y-12614436D02*
X18115061Y-12604912D01*
M02*
