%TF.GenerationSoftware,KiCad,Pcbnew,8.0.0*%
%TF.CreationDate,2026-01-20T23:42:33+05:30*%
%TF.ProjectId,PICKit_Clone_KiCAD,5049434b-6974-45f4-936c-6f6e655f4b69,1.0*%
%TF.SameCoordinates,Original*%
%TF.FileFunction,Legend,Bot*%
%TF.FilePolarity,Positive*%
%FSLAX46Y46*%
G04 Gerber Fmt 4.6, Leading zero omitted, Abs format (unit mm)*
G04 Created by KiCad (PCBNEW 8.0.0) date 2026-01-20 23:42:33*
%MOMM*%
%LPD*%
G01*
G04 APERTURE LIST*
%ADD10C,0.150000*%
%ADD11C,0.120000*%
G04 APERTURE END LIST*
D10*
X149696666Y-90184819D02*
X150029999Y-89708628D01*
X150268094Y-90184819D02*
X150268094Y-89184819D01*
X150268094Y-89184819D02*
X149887142Y-89184819D01*
X149887142Y-89184819D02*
X149791904Y-89232438D01*
X149791904Y-89232438D02*
X149744285Y-89280057D01*
X149744285Y-89280057D02*
X149696666Y-89375295D01*
X149696666Y-89375295D02*
X149696666Y-89518152D01*
X149696666Y-89518152D02*
X149744285Y-89613390D01*
X149744285Y-89613390D02*
X149791904Y-89661009D01*
X149791904Y-89661009D02*
X149887142Y-89708628D01*
X149887142Y-89708628D02*
X150268094Y-89708628D01*
X149220475Y-90184819D02*
X149029999Y-90184819D01*
X149029999Y-90184819D02*
X148934761Y-90137200D01*
X148934761Y-90137200D02*
X148887142Y-90089580D01*
X148887142Y-90089580D02*
X148791904Y-89946723D01*
X148791904Y-89946723D02*
X148744285Y-89756247D01*
X148744285Y-89756247D02*
X148744285Y-89375295D01*
X148744285Y-89375295D02*
X148791904Y-89280057D01*
X148791904Y-89280057D02*
X148839523Y-89232438D01*
X148839523Y-89232438D02*
X148934761Y-89184819D01*
X148934761Y-89184819D02*
X149125237Y-89184819D01*
X149125237Y-89184819D02*
X149220475Y-89232438D01*
X149220475Y-89232438D02*
X149268094Y-89280057D01*
X149268094Y-89280057D02*
X149315713Y-89375295D01*
X149315713Y-89375295D02*
X149315713Y-89613390D01*
X149315713Y-89613390D02*
X149268094Y-89708628D01*
X149268094Y-89708628D02*
X149220475Y-89756247D01*
X149220475Y-89756247D02*
X149125237Y-89803866D01*
X149125237Y-89803866D02*
X148934761Y-89803866D01*
X148934761Y-89803866D02*
X148839523Y-89756247D01*
X148839523Y-89756247D02*
X148791904Y-89708628D01*
X148791904Y-89708628D02*
X148744285Y-89613390D01*
X146494819Y-94787142D02*
X146018628Y-94453809D01*
X146494819Y-94215714D02*
X145494819Y-94215714D01*
X145494819Y-94215714D02*
X145494819Y-94596666D01*
X145494819Y-94596666D02*
X145542438Y-94691904D01*
X145542438Y-94691904D02*
X145590057Y-94739523D01*
X145590057Y-94739523D02*
X145685295Y-94787142D01*
X145685295Y-94787142D02*
X145828152Y-94787142D01*
X145828152Y-94787142D02*
X145923390Y-94739523D01*
X145923390Y-94739523D02*
X145971009Y-94691904D01*
X145971009Y-94691904D02*
X146018628Y-94596666D01*
X146018628Y-94596666D02*
X146018628Y-94215714D01*
X146494819Y-95739523D02*
X146494819Y-95168095D01*
X146494819Y-95453809D02*
X145494819Y-95453809D01*
X145494819Y-95453809D02*
X145637676Y-95358571D01*
X145637676Y-95358571D02*
X145732914Y-95263333D01*
X145732914Y-95263333D02*
X145780533Y-95168095D01*
X145590057Y-96120476D02*
X145542438Y-96168095D01*
X145542438Y-96168095D02*
X145494819Y-96263333D01*
X145494819Y-96263333D02*
X145494819Y-96501428D01*
X145494819Y-96501428D02*
X145542438Y-96596666D01*
X145542438Y-96596666D02*
X145590057Y-96644285D01*
X145590057Y-96644285D02*
X145685295Y-96691904D01*
X145685295Y-96691904D02*
X145780533Y-96691904D01*
X145780533Y-96691904D02*
X145923390Y-96644285D01*
X145923390Y-96644285D02*
X146494819Y-96072857D01*
X146494819Y-96072857D02*
X146494819Y-96691904D01*
X147556665Y-77349580D02*
X147604284Y-77397200D01*
X147604284Y-77397200D02*
X147747141Y-77444819D01*
X147747141Y-77444819D02*
X147842379Y-77444819D01*
X147842379Y-77444819D02*
X147985236Y-77397200D01*
X147985236Y-77397200D02*
X148080474Y-77301961D01*
X148080474Y-77301961D02*
X148128093Y-77206723D01*
X148128093Y-77206723D02*
X148175712Y-77016247D01*
X148175712Y-77016247D02*
X148175712Y-76873390D01*
X148175712Y-76873390D02*
X148128093Y-76682914D01*
X148128093Y-76682914D02*
X148080474Y-76587676D01*
X148080474Y-76587676D02*
X147985236Y-76492438D01*
X147985236Y-76492438D02*
X147842379Y-76444819D01*
X147842379Y-76444819D02*
X147747141Y-76444819D01*
X147747141Y-76444819D02*
X147604284Y-76492438D01*
X147604284Y-76492438D02*
X147556665Y-76540057D01*
X147223331Y-76444819D02*
X146604284Y-76444819D01*
X146604284Y-76444819D02*
X146937617Y-76825771D01*
X146937617Y-76825771D02*
X146794760Y-76825771D01*
X146794760Y-76825771D02*
X146699522Y-76873390D01*
X146699522Y-76873390D02*
X146651903Y-76921009D01*
X146651903Y-76921009D02*
X146604284Y-77016247D01*
X146604284Y-77016247D02*
X146604284Y-77254342D01*
X146604284Y-77254342D02*
X146651903Y-77349580D01*
X146651903Y-77349580D02*
X146699522Y-77397200D01*
X146699522Y-77397200D02*
X146794760Y-77444819D01*
X146794760Y-77444819D02*
X147080474Y-77444819D01*
X147080474Y-77444819D02*
X147175712Y-77397200D01*
X147175712Y-77397200D02*
X147223331Y-77349580D01*
X148386666Y-91174819D02*
X148719999Y-90698628D01*
X148958094Y-91174819D02*
X148958094Y-90174819D01*
X148958094Y-90174819D02*
X148577142Y-90174819D01*
X148577142Y-90174819D02*
X148481904Y-90222438D01*
X148481904Y-90222438D02*
X148434285Y-90270057D01*
X148434285Y-90270057D02*
X148386666Y-90365295D01*
X148386666Y-90365295D02*
X148386666Y-90508152D01*
X148386666Y-90508152D02*
X148434285Y-90603390D01*
X148434285Y-90603390D02*
X148481904Y-90651009D01*
X148481904Y-90651009D02*
X148577142Y-90698628D01*
X148577142Y-90698628D02*
X148958094Y-90698628D01*
X147481904Y-90174819D02*
X147958094Y-90174819D01*
X147958094Y-90174819D02*
X148005713Y-90651009D01*
X148005713Y-90651009D02*
X147958094Y-90603390D01*
X147958094Y-90603390D02*
X147862856Y-90555771D01*
X147862856Y-90555771D02*
X147624761Y-90555771D01*
X147624761Y-90555771D02*
X147529523Y-90603390D01*
X147529523Y-90603390D02*
X147481904Y-90651009D01*
X147481904Y-90651009D02*
X147434285Y-90746247D01*
X147434285Y-90746247D02*
X147434285Y-90984342D01*
X147434285Y-90984342D02*
X147481904Y-91079580D01*
X147481904Y-91079580D02*
X147529523Y-91127200D01*
X147529523Y-91127200D02*
X147624761Y-91174819D01*
X147624761Y-91174819D02*
X147862856Y-91174819D01*
X147862856Y-91174819D02*
X147958094Y-91127200D01*
X147958094Y-91127200D02*
X148005713Y-91079580D01*
X153400057Y-100664761D02*
X153352438Y-100569523D01*
X153352438Y-100569523D02*
X153257200Y-100474285D01*
X153257200Y-100474285D02*
X153114342Y-100331428D01*
X153114342Y-100331428D02*
X153066723Y-100236190D01*
X153066723Y-100236190D02*
X153066723Y-100140952D01*
X153304819Y-100188571D02*
X153257200Y-100093333D01*
X153257200Y-100093333D02*
X153161961Y-99998095D01*
X153161961Y-99998095D02*
X152971485Y-99950476D01*
X152971485Y-99950476D02*
X152638152Y-99950476D01*
X152638152Y-99950476D02*
X152447676Y-99998095D01*
X152447676Y-99998095D02*
X152352438Y-100093333D01*
X152352438Y-100093333D02*
X152304819Y-100188571D01*
X152304819Y-100188571D02*
X152304819Y-100379047D01*
X152304819Y-100379047D02*
X152352438Y-100474285D01*
X152352438Y-100474285D02*
X152447676Y-100569523D01*
X152447676Y-100569523D02*
X152638152Y-100617142D01*
X152638152Y-100617142D02*
X152971485Y-100617142D01*
X152971485Y-100617142D02*
X153161961Y-100569523D01*
X153161961Y-100569523D02*
X153257200Y-100474285D01*
X153257200Y-100474285D02*
X153304819Y-100379047D01*
X153304819Y-100379047D02*
X153304819Y-100188571D01*
X152400057Y-100998095D02*
X152352438Y-101045714D01*
X152352438Y-101045714D02*
X152304819Y-101140952D01*
X152304819Y-101140952D02*
X152304819Y-101379047D01*
X152304819Y-101379047D02*
X152352438Y-101474285D01*
X152352438Y-101474285D02*
X152400057Y-101521904D01*
X152400057Y-101521904D02*
X152495295Y-101569523D01*
X152495295Y-101569523D02*
X152590533Y-101569523D01*
X152590533Y-101569523D02*
X152733390Y-101521904D01*
X152733390Y-101521904D02*
X153304819Y-100950476D01*
X153304819Y-100950476D02*
X153304819Y-101569523D01*
X137796666Y-85814819D02*
X138272856Y-85814819D01*
X138272856Y-85814819D02*
X138272856Y-84814819D01*
X136939523Y-85814819D02*
X137510951Y-85814819D01*
X137225237Y-85814819D02*
X137225237Y-84814819D01*
X137225237Y-84814819D02*
X137320475Y-84957676D01*
X137320475Y-84957676D02*
X137415713Y-85052914D01*
X137415713Y-85052914D02*
X137510951Y-85100533D01*
X142172558Y-100764761D02*
X142124939Y-100669523D01*
X142124939Y-100669523D02*
X142029701Y-100574285D01*
X142029701Y-100574285D02*
X141886843Y-100431428D01*
X141886843Y-100431428D02*
X141839224Y-100336190D01*
X141839224Y-100336190D02*
X141839224Y-100240952D01*
X142077320Y-100288571D02*
X142029701Y-100193333D01*
X142029701Y-100193333D02*
X141934462Y-100098095D01*
X141934462Y-100098095D02*
X141743986Y-100050476D01*
X141743986Y-100050476D02*
X141410653Y-100050476D01*
X141410653Y-100050476D02*
X141220177Y-100098095D01*
X141220177Y-100098095D02*
X141124939Y-100193333D01*
X141124939Y-100193333D02*
X141077320Y-100288571D01*
X141077320Y-100288571D02*
X141077320Y-100479047D01*
X141077320Y-100479047D02*
X141124939Y-100574285D01*
X141124939Y-100574285D02*
X141220177Y-100669523D01*
X141220177Y-100669523D02*
X141410653Y-100717142D01*
X141410653Y-100717142D02*
X141743986Y-100717142D01*
X141743986Y-100717142D02*
X141934462Y-100669523D01*
X141934462Y-100669523D02*
X142029701Y-100574285D01*
X142029701Y-100574285D02*
X142077320Y-100479047D01*
X142077320Y-100479047D02*
X142077320Y-100288571D01*
X142077320Y-101669523D02*
X142077320Y-101098095D01*
X142077320Y-101383809D02*
X141077320Y-101383809D01*
X141077320Y-101383809D02*
X141220177Y-101288571D01*
X141220177Y-101288571D02*
X141315415Y-101193333D01*
X141315415Y-101193333D02*
X141363034Y-101098095D01*
X144804820Y-83298095D02*
X145614343Y-83298095D01*
X145614343Y-83298095D02*
X145709581Y-83345714D01*
X145709581Y-83345714D02*
X145757201Y-83393333D01*
X145757201Y-83393333D02*
X145804820Y-83488571D01*
X145804820Y-83488571D02*
X145804820Y-83679047D01*
X145804820Y-83679047D02*
X145757201Y-83774285D01*
X145757201Y-83774285D02*
X145709581Y-83821904D01*
X145709581Y-83821904D02*
X145614343Y-83869523D01*
X145614343Y-83869523D02*
X144804820Y-83869523D01*
X144900058Y-84298095D02*
X144852439Y-84345714D01*
X144852439Y-84345714D02*
X144804820Y-84440952D01*
X144804820Y-84440952D02*
X144804820Y-84679047D01*
X144804820Y-84679047D02*
X144852439Y-84774285D01*
X144852439Y-84774285D02*
X144900058Y-84821904D01*
X144900058Y-84821904D02*
X144995296Y-84869523D01*
X144995296Y-84869523D02*
X145090534Y-84869523D01*
X145090534Y-84869523D02*
X145233391Y-84821904D01*
X145233391Y-84821904D02*
X145804820Y-84250476D01*
X145804820Y-84250476D02*
X145804820Y-84869523D01*
X153424819Y-94787143D02*
X152948628Y-94453810D01*
X153424819Y-94215715D02*
X152424819Y-94215715D01*
X152424819Y-94215715D02*
X152424819Y-94596667D01*
X152424819Y-94596667D02*
X152472438Y-94691905D01*
X152472438Y-94691905D02*
X152520057Y-94739524D01*
X152520057Y-94739524D02*
X152615295Y-94787143D01*
X152615295Y-94787143D02*
X152758152Y-94787143D01*
X152758152Y-94787143D02*
X152853390Y-94739524D01*
X152853390Y-94739524D02*
X152901009Y-94691905D01*
X152901009Y-94691905D02*
X152948628Y-94596667D01*
X152948628Y-94596667D02*
X152948628Y-94215715D01*
X153424819Y-95739524D02*
X153424819Y-95168096D01*
X153424819Y-95453810D02*
X152424819Y-95453810D01*
X152424819Y-95453810D02*
X152567676Y-95358572D01*
X152567676Y-95358572D02*
X152662914Y-95263334D01*
X152662914Y-95263334D02*
X152710533Y-95168096D01*
X152424819Y-96072858D02*
X152424819Y-96691905D01*
X152424819Y-96691905D02*
X152805771Y-96358572D01*
X152805771Y-96358572D02*
X152805771Y-96501429D01*
X152805771Y-96501429D02*
X152853390Y-96596667D01*
X152853390Y-96596667D02*
X152901009Y-96644286D01*
X152901009Y-96644286D02*
X152996247Y-96691905D01*
X152996247Y-96691905D02*
X153234342Y-96691905D01*
X153234342Y-96691905D02*
X153329580Y-96644286D01*
X153329580Y-96644286D02*
X153377200Y-96596667D01*
X153377200Y-96596667D02*
X153424819Y-96501429D01*
X153424819Y-96501429D02*
X153424819Y-96215715D01*
X153424819Y-96215715D02*
X153377200Y-96120477D01*
X153377200Y-96120477D02*
X153329580Y-96072858D01*
X154386666Y-77584820D02*
X154719999Y-77108629D01*
X154958094Y-77584820D02*
X154958094Y-76584820D01*
X154958094Y-76584820D02*
X154577142Y-76584820D01*
X154577142Y-76584820D02*
X154481904Y-76632439D01*
X154481904Y-76632439D02*
X154434285Y-76680058D01*
X154434285Y-76680058D02*
X154386666Y-76775296D01*
X154386666Y-76775296D02*
X154386666Y-76918153D01*
X154386666Y-76918153D02*
X154434285Y-77013391D01*
X154434285Y-77013391D02*
X154481904Y-77061010D01*
X154481904Y-77061010D02*
X154577142Y-77108629D01*
X154577142Y-77108629D02*
X154958094Y-77108629D01*
X153434285Y-77584820D02*
X154005713Y-77584820D01*
X153719999Y-77584820D02*
X153719999Y-76584820D01*
X153719999Y-76584820D02*
X153815237Y-76727677D01*
X153815237Y-76727677D02*
X153910475Y-76822915D01*
X153910475Y-76822915D02*
X154005713Y-76870534D01*
X138536666Y-92669580D02*
X138584285Y-92717200D01*
X138584285Y-92717200D02*
X138727142Y-92764819D01*
X138727142Y-92764819D02*
X138822380Y-92764819D01*
X138822380Y-92764819D02*
X138965237Y-92717200D01*
X138965237Y-92717200D02*
X139060475Y-92621961D01*
X139060475Y-92621961D02*
X139108094Y-92526723D01*
X139108094Y-92526723D02*
X139155713Y-92336247D01*
X139155713Y-92336247D02*
X139155713Y-92193390D01*
X139155713Y-92193390D02*
X139108094Y-92002914D01*
X139108094Y-92002914D02*
X139060475Y-91907676D01*
X139060475Y-91907676D02*
X138965237Y-91812438D01*
X138965237Y-91812438D02*
X138822380Y-91764819D01*
X138822380Y-91764819D02*
X138727142Y-91764819D01*
X138727142Y-91764819D02*
X138584285Y-91812438D01*
X138584285Y-91812438D02*
X138536666Y-91860057D01*
X138155713Y-91860057D02*
X138108094Y-91812438D01*
X138108094Y-91812438D02*
X138012856Y-91764819D01*
X138012856Y-91764819D02*
X137774761Y-91764819D01*
X137774761Y-91764819D02*
X137679523Y-91812438D01*
X137679523Y-91812438D02*
X137631904Y-91860057D01*
X137631904Y-91860057D02*
X137584285Y-91955295D01*
X137584285Y-91955295D02*
X137584285Y-92050533D01*
X137584285Y-92050533D02*
X137631904Y-92193390D01*
X137631904Y-92193390D02*
X138203332Y-92764819D01*
X138203332Y-92764819D02*
X137584285Y-92764819D01*
X143204819Y-94787141D02*
X142728628Y-94453808D01*
X143204819Y-94215713D02*
X142204819Y-94215713D01*
X142204819Y-94215713D02*
X142204819Y-94596665D01*
X142204819Y-94596665D02*
X142252438Y-94691903D01*
X142252438Y-94691903D02*
X142300057Y-94739522D01*
X142300057Y-94739522D02*
X142395295Y-94787141D01*
X142395295Y-94787141D02*
X142538152Y-94787141D01*
X142538152Y-94787141D02*
X142633390Y-94739522D01*
X142633390Y-94739522D02*
X142681009Y-94691903D01*
X142681009Y-94691903D02*
X142728628Y-94596665D01*
X142728628Y-94596665D02*
X142728628Y-94215713D01*
X143204819Y-95739522D02*
X143204819Y-95168094D01*
X143204819Y-95453808D02*
X142204819Y-95453808D01*
X142204819Y-95453808D02*
X142347676Y-95358570D01*
X142347676Y-95358570D02*
X142442914Y-95263332D01*
X142442914Y-95263332D02*
X142490533Y-95168094D01*
X143204819Y-96691903D02*
X143204819Y-96120475D01*
X143204819Y-96406189D02*
X142204819Y-96406189D01*
X142204819Y-96406189D02*
X142347676Y-96310951D01*
X142347676Y-96310951D02*
X142442914Y-96215713D01*
X142442914Y-96215713D02*
X142490533Y-96120475D01*
X146584819Y-89337142D02*
X146108628Y-89003809D01*
X146584819Y-88765714D02*
X145584819Y-88765714D01*
X145584819Y-88765714D02*
X145584819Y-89146666D01*
X145584819Y-89146666D02*
X145632438Y-89241904D01*
X145632438Y-89241904D02*
X145680057Y-89289523D01*
X145680057Y-89289523D02*
X145775295Y-89337142D01*
X145775295Y-89337142D02*
X145918152Y-89337142D01*
X145918152Y-89337142D02*
X146013390Y-89289523D01*
X146013390Y-89289523D02*
X146061009Y-89241904D01*
X146061009Y-89241904D02*
X146108628Y-89146666D01*
X146108628Y-89146666D02*
X146108628Y-88765714D01*
X146584819Y-90289523D02*
X146584819Y-89718095D01*
X146584819Y-90003809D02*
X145584819Y-90003809D01*
X145584819Y-90003809D02*
X145727676Y-89908571D01*
X145727676Y-89908571D02*
X145822914Y-89813333D01*
X145822914Y-89813333D02*
X145870533Y-89718095D01*
X145584819Y-90908571D02*
X145584819Y-91003809D01*
X145584819Y-91003809D02*
X145632438Y-91099047D01*
X145632438Y-91099047D02*
X145680057Y-91146666D01*
X145680057Y-91146666D02*
X145775295Y-91194285D01*
X145775295Y-91194285D02*
X145965771Y-91241904D01*
X145965771Y-91241904D02*
X146203866Y-91241904D01*
X146203866Y-91241904D02*
X146394342Y-91194285D01*
X146394342Y-91194285D02*
X146489580Y-91146666D01*
X146489580Y-91146666D02*
X146537200Y-91099047D01*
X146537200Y-91099047D02*
X146584819Y-91003809D01*
X146584819Y-91003809D02*
X146584819Y-90908571D01*
X146584819Y-90908571D02*
X146537200Y-90813333D01*
X146537200Y-90813333D02*
X146489580Y-90765714D01*
X146489580Y-90765714D02*
X146394342Y-90718095D01*
X146394342Y-90718095D02*
X146203866Y-90670476D01*
X146203866Y-90670476D02*
X145965771Y-90670476D01*
X145965771Y-90670476D02*
X145775295Y-90718095D01*
X145775295Y-90718095D02*
X145680057Y-90765714D01*
X145680057Y-90765714D02*
X145632438Y-90813333D01*
X145632438Y-90813333D02*
X145584819Y-90908571D01*
X147094819Y-83271904D02*
X146094819Y-83271904D01*
X146094819Y-83271904D02*
X146094819Y-83509999D01*
X146094819Y-83509999D02*
X146142438Y-83652856D01*
X146142438Y-83652856D02*
X146237676Y-83748094D01*
X146237676Y-83748094D02*
X146332914Y-83795713D01*
X146332914Y-83795713D02*
X146523390Y-83843332D01*
X146523390Y-83843332D02*
X146666247Y-83843332D01*
X146666247Y-83843332D02*
X146856723Y-83795713D01*
X146856723Y-83795713D02*
X146951961Y-83748094D01*
X146951961Y-83748094D02*
X147047200Y-83652856D01*
X147047200Y-83652856D02*
X147094819Y-83509999D01*
X147094819Y-83509999D02*
X147094819Y-83271904D01*
X146428152Y-84700475D02*
X147094819Y-84700475D01*
X146047200Y-84462380D02*
X146761485Y-84224285D01*
X146761485Y-84224285D02*
X146761485Y-84843332D01*
X154136666Y-83844819D02*
X154469999Y-83368628D01*
X154708094Y-83844819D02*
X154708094Y-82844819D01*
X154708094Y-82844819D02*
X154327142Y-82844819D01*
X154327142Y-82844819D02*
X154231904Y-82892438D01*
X154231904Y-82892438D02*
X154184285Y-82940057D01*
X154184285Y-82940057D02*
X154136666Y-83035295D01*
X154136666Y-83035295D02*
X154136666Y-83178152D01*
X154136666Y-83178152D02*
X154184285Y-83273390D01*
X154184285Y-83273390D02*
X154231904Y-83321009D01*
X154231904Y-83321009D02*
X154327142Y-83368628D01*
X154327142Y-83368628D02*
X154708094Y-83368628D01*
X153755713Y-82940057D02*
X153708094Y-82892438D01*
X153708094Y-82892438D02*
X153612856Y-82844819D01*
X153612856Y-82844819D02*
X153374761Y-82844819D01*
X153374761Y-82844819D02*
X153279523Y-82892438D01*
X153279523Y-82892438D02*
X153231904Y-82940057D01*
X153231904Y-82940057D02*
X153184285Y-83035295D01*
X153184285Y-83035295D02*
X153184285Y-83130533D01*
X153184285Y-83130533D02*
X153231904Y-83273390D01*
X153231904Y-83273390D02*
X153803332Y-83844819D01*
X153803332Y-83844819D02*
X153184285Y-83844819D01*
X138856666Y-78159580D02*
X138904285Y-78207200D01*
X138904285Y-78207200D02*
X139047142Y-78254819D01*
X139047142Y-78254819D02*
X139142380Y-78254819D01*
X139142380Y-78254819D02*
X139285237Y-78207200D01*
X139285237Y-78207200D02*
X139380475Y-78111961D01*
X139380475Y-78111961D02*
X139428094Y-78016723D01*
X139428094Y-78016723D02*
X139475713Y-77826247D01*
X139475713Y-77826247D02*
X139475713Y-77683390D01*
X139475713Y-77683390D02*
X139428094Y-77492914D01*
X139428094Y-77492914D02*
X139380475Y-77397676D01*
X139380475Y-77397676D02*
X139285237Y-77302438D01*
X139285237Y-77302438D02*
X139142380Y-77254819D01*
X139142380Y-77254819D02*
X139047142Y-77254819D01*
X139047142Y-77254819D02*
X138904285Y-77302438D01*
X138904285Y-77302438D02*
X138856666Y-77350057D01*
X137904285Y-78254819D02*
X138475713Y-78254819D01*
X138189999Y-78254819D02*
X138189999Y-77254819D01*
X138189999Y-77254819D02*
X138285237Y-77397676D01*
X138285237Y-77397676D02*
X138380475Y-77492914D01*
X138380475Y-77492914D02*
X138475713Y-77540533D01*
X154406666Y-88984819D02*
X154739999Y-88508628D01*
X154978094Y-88984819D02*
X154978094Y-87984819D01*
X154978094Y-87984819D02*
X154597142Y-87984819D01*
X154597142Y-87984819D02*
X154501904Y-88032438D01*
X154501904Y-88032438D02*
X154454285Y-88080057D01*
X154454285Y-88080057D02*
X154406666Y-88175295D01*
X154406666Y-88175295D02*
X154406666Y-88318152D01*
X154406666Y-88318152D02*
X154454285Y-88413390D01*
X154454285Y-88413390D02*
X154501904Y-88461009D01*
X154501904Y-88461009D02*
X154597142Y-88508628D01*
X154597142Y-88508628D02*
X154978094Y-88508628D01*
X153549523Y-88318152D02*
X153549523Y-88984819D01*
X153787618Y-87937200D02*
X154025713Y-88651485D01*
X154025713Y-88651485D02*
X153406666Y-88651485D01*
X154386666Y-82764820D02*
X154719999Y-82288629D01*
X154958094Y-82764820D02*
X154958094Y-81764820D01*
X154958094Y-81764820D02*
X154577142Y-81764820D01*
X154577142Y-81764820D02*
X154481904Y-81812439D01*
X154481904Y-81812439D02*
X154434285Y-81860058D01*
X154434285Y-81860058D02*
X154386666Y-81955296D01*
X154386666Y-81955296D02*
X154386666Y-82098153D01*
X154386666Y-82098153D02*
X154434285Y-82193391D01*
X154434285Y-82193391D02*
X154481904Y-82241010D01*
X154481904Y-82241010D02*
X154577142Y-82288629D01*
X154577142Y-82288629D02*
X154958094Y-82288629D01*
X154053332Y-81764820D02*
X153434285Y-81764820D01*
X153434285Y-81764820D02*
X153767618Y-82145772D01*
X153767618Y-82145772D02*
X153624761Y-82145772D01*
X153624761Y-82145772D02*
X153529523Y-82193391D01*
X153529523Y-82193391D02*
X153481904Y-82241010D01*
X153481904Y-82241010D02*
X153434285Y-82336248D01*
X153434285Y-82336248D02*
X153434285Y-82574343D01*
X153434285Y-82574343D02*
X153481904Y-82669581D01*
X153481904Y-82669581D02*
X153529523Y-82717201D01*
X153529523Y-82717201D02*
X153624761Y-82764820D01*
X153624761Y-82764820D02*
X153910475Y-82764820D01*
X153910475Y-82764820D02*
X154005713Y-82717201D01*
X154005713Y-82717201D02*
X154053332Y-82669581D01*
D11*
%TO.C,R9*%
X148802935Y-92460000D02*
X150257064Y-92459999D01*
X148802936Y-90640001D02*
X150257065Y-90640000D01*
%TO.C,R12*%
X146950001Y-96157064D02*
X146949999Y-94702935D01*
X148770001Y-96157065D02*
X148769999Y-94702936D01*
%TO.C,C3*%
X146678748Y-77930000D02*
X148101252Y-77930000D01*
X146678748Y-79750000D02*
X148101252Y-79750000D01*
%TO.C,R5*%
X148947064Y-89809999D02*
X147492934Y-89810000D01*
X148947066Y-87990000D02*
X147492936Y-87990001D01*
%TO.C,Q2*%
X146930000Y-101609999D02*
X146929999Y-100809999D01*
X146930001Y-100010000D02*
X146929999Y-100809999D01*
X147860000Y-101610000D02*
X146930000Y-101609999D01*
X149160000Y-101610000D02*
X150090000Y-101610000D01*
X150090000Y-100150000D02*
X150090000Y-101610000D01*
X146900000Y-99510000D02*
X146570000Y-99750000D01*
X146569999Y-99270001D01*
X146900000Y-99510000D01*
G36*
X146900000Y-99510000D02*
G01*
X146570000Y-99750000D01*
X146569999Y-99270001D01*
X146900000Y-99510000D01*
G37*
%TO.C,L1*%
X134370000Y-86100000D02*
X140890000Y-86100000D01*
X134370000Y-86250000D02*
X134370000Y-86100000D01*
X134370000Y-92470000D02*
X134370000Y-92620000D01*
X134370000Y-92620000D02*
X140890000Y-92620000D01*
X140890000Y-86250000D02*
X140890000Y-86100000D01*
X140890000Y-92470000D02*
X140890000Y-92620000D01*
%TO.C,Q1*%
X142792501Y-101619999D02*
X142792501Y-100820000D01*
X142792503Y-100020000D02*
X142792501Y-100820000D01*
X143722501Y-101620000D02*
X142792501Y-101619999D01*
X145022501Y-101620000D02*
X145952501Y-101620000D01*
X145952501Y-100160000D02*
X145952501Y-101620000D01*
X142762501Y-99520000D02*
X142432501Y-99760000D01*
X142432499Y-99279999D01*
X142762501Y-99520000D01*
G36*
X142762501Y-99520000D02*
G01*
X142432501Y-99760000D01*
X142432499Y-99279999D01*
X142762501Y-99520000D01*
G37*
%TO.C,U2*%
X146190000Y-82109999D02*
X146190000Y-84060000D01*
X146190001Y-86010000D02*
X146190000Y-84060000D01*
X151309999Y-82110000D02*
X151310000Y-84060000D01*
X151310000Y-86010001D02*
X151310000Y-84060000D01*
X146285000Y-81360000D02*
X145955000Y-81600001D01*
X145955001Y-81120000D01*
X146285000Y-81360000D01*
G36*
X146285000Y-81360000D02*
G01*
X145955000Y-81600001D01*
X145955001Y-81120000D01*
X146285000Y-81360000D01*
G37*
%TO.C,R13*%
X150239997Y-94702935D02*
X150240001Y-96157065D01*
X152059999Y-94702937D02*
X152060003Y-96157067D01*
%TO.C,R1*%
X153492934Y-79860001D02*
X154947064Y-79860000D01*
X153492936Y-78040002D02*
X154947066Y-78040001D01*
%TO.C,C2*%
X134960000Y-93250000D02*
X140715563Y-93250000D01*
X134960000Y-95600000D02*
X134960000Y-93250000D01*
X134960000Y-97720000D02*
X134960000Y-100070000D01*
X134960000Y-100070000D02*
X140715563Y-100070000D01*
X140715563Y-93250000D02*
X141780000Y-94314437D01*
X140715563Y-100070000D02*
X141780000Y-99005563D01*
X141780000Y-95600000D02*
X141780000Y-94314437D01*
X141780000Y-97720000D02*
X141780000Y-99005563D01*
X142020000Y-94812500D02*
X142807500Y-94812500D01*
X142413750Y-95206250D02*
X142413750Y-94418750D01*
%TO.C,R11*%
X143660001Y-96157063D02*
X143659999Y-94702934D01*
X145480001Y-96157064D02*
X145479999Y-94702935D01*
%TO.C,R10*%
X143399997Y-89252934D02*
X143400001Y-90707064D01*
X145219999Y-89252936D02*
X145220003Y-90707066D01*
%TO.C,D4*%
X143939999Y-82759998D02*
X143940002Y-86019999D01*
X143940002Y-86019999D02*
X145639999Y-86019998D01*
X145640001Y-82759999D02*
X145639999Y-86019998D01*
%TO.C,R2*%
X154947064Y-82459999D02*
X153492935Y-82460002D01*
X154947065Y-80639998D02*
X153492936Y-80640001D01*
%TO.C,C1*%
X135279999Y-85560000D02*
X141035563Y-85560000D01*
X135280000Y-78739999D02*
X141035563Y-78740000D01*
X135280000Y-81090000D02*
X135280000Y-78739999D01*
X135280000Y-83210000D02*
X135279999Y-85560000D01*
X141035563Y-78740000D02*
X142100000Y-79804437D01*
X141035563Y-85560000D02*
X142100000Y-84495563D01*
X142100000Y-81090000D02*
X142100000Y-79804437D01*
X142100000Y-83210000D02*
X142100000Y-84495563D01*
X142340000Y-80302500D02*
X143127500Y-80302501D01*
X142733750Y-80696250D02*
X142733750Y-79908750D01*
%TO.C,R4*%
X154967064Y-87619999D02*
X153512934Y-87620003D01*
X154967066Y-85799997D02*
X153512936Y-85800001D01*
%TO.C,R3*%
X153492934Y-85040001D02*
X154947064Y-85040000D01*
X153492936Y-83220002D02*
X154947066Y-83220001D01*
%TD*%
M02*
