%TF.GenerationSoftware,KiCad,Pcbnew,8.0.0*%
%TF.CreationDate,2026-01-12T19:07:33+05:30*%
%TF.ProjectId,PICKit_Clone_KiCAD,5049434b-6974-45f4-936c-6f6e655f4b69,1.0*%
%TF.SameCoordinates,Original*%
%TF.FileFunction,Legend,Top*%
%TF.FilePolarity,Positive*%
%FSLAX46Y46*%
G04 Gerber Fmt 4.6, Leading zero omitted, Abs format (unit mm)*
G04 Created by KiCad (PCBNEW 8.0.0) date 2026-01-12 19:07:33*
%MOMM*%
%LPD*%
G01*
G04 APERTURE LIST*
%ADD10C,0.150000*%
%ADD11C,0.120000*%
G04 APERTURE END LIST*
D10*
X137523333Y-77089580D02*
X137475714Y-77137200D01*
X137475714Y-77137200D02*
X137332857Y-77184819D01*
X137332857Y-77184819D02*
X137237619Y-77184819D01*
X137237619Y-77184819D02*
X137094762Y-77137200D01*
X137094762Y-77137200D02*
X136999524Y-77041961D01*
X136999524Y-77041961D02*
X136951905Y-76946723D01*
X136951905Y-76946723D02*
X136904286Y-76756247D01*
X136904286Y-76756247D02*
X136904286Y-76613390D01*
X136904286Y-76613390D02*
X136951905Y-76422914D01*
X136951905Y-76422914D02*
X136999524Y-76327676D01*
X136999524Y-76327676D02*
X137094762Y-76232438D01*
X137094762Y-76232438D02*
X137237619Y-76184819D01*
X137237619Y-76184819D02*
X137332857Y-76184819D01*
X137332857Y-76184819D02*
X137475714Y-76232438D01*
X137475714Y-76232438D02*
X137523333Y-76280057D01*
X138380476Y-76184819D02*
X138190000Y-76184819D01*
X138190000Y-76184819D02*
X138094762Y-76232438D01*
X138094762Y-76232438D02*
X138047143Y-76280057D01*
X138047143Y-76280057D02*
X137951905Y-76422914D01*
X137951905Y-76422914D02*
X137904286Y-76613390D01*
X137904286Y-76613390D02*
X137904286Y-76994342D01*
X137904286Y-76994342D02*
X137951905Y-77089580D01*
X137951905Y-77089580D02*
X137999524Y-77137200D01*
X137999524Y-77137200D02*
X138094762Y-77184819D01*
X138094762Y-77184819D02*
X138285238Y-77184819D01*
X138285238Y-77184819D02*
X138380476Y-77137200D01*
X138380476Y-77137200D02*
X138428095Y-77089580D01*
X138428095Y-77089580D02*
X138475714Y-76994342D01*
X138475714Y-76994342D02*
X138475714Y-76756247D01*
X138475714Y-76756247D02*
X138428095Y-76661009D01*
X138428095Y-76661009D02*
X138380476Y-76613390D01*
X138380476Y-76613390D02*
X138285238Y-76565771D01*
X138285238Y-76565771D02*
X138094762Y-76565771D01*
X138094762Y-76565771D02*
X137999524Y-76613390D01*
X137999524Y-76613390D02*
X137951905Y-76661009D01*
X137951905Y-76661009D02*
X137904286Y-76756247D01*
X136238095Y-104754819D02*
X136238095Y-103754819D01*
X136238095Y-104231009D02*
X136809523Y-104231009D01*
X136809523Y-104754819D02*
X136809523Y-103754819D01*
X137190476Y-103754819D02*
X137809523Y-103754819D01*
X137809523Y-103754819D02*
X137476190Y-104135771D01*
X137476190Y-104135771D02*
X137619047Y-104135771D01*
X137619047Y-104135771D02*
X137714285Y-104183390D01*
X137714285Y-104183390D02*
X137761904Y-104231009D01*
X137761904Y-104231009D02*
X137809523Y-104326247D01*
X137809523Y-104326247D02*
X137809523Y-104564342D01*
X137809523Y-104564342D02*
X137761904Y-104659580D01*
X137761904Y-104659580D02*
X137714285Y-104707200D01*
X137714285Y-104707200D02*
X137619047Y-104754819D01*
X137619047Y-104754819D02*
X137333333Y-104754819D01*
X137333333Y-104754819D02*
X137238095Y-104707200D01*
X137238095Y-104707200D02*
X137190476Y-104659580D01*
X150824819Y-101408094D02*
X149824819Y-101408094D01*
X149824819Y-101408094D02*
X149824819Y-101169999D01*
X149824819Y-101169999D02*
X149872438Y-101027142D01*
X149872438Y-101027142D02*
X149967676Y-100931904D01*
X149967676Y-100931904D02*
X150062914Y-100884285D01*
X150062914Y-100884285D02*
X150253390Y-100836666D01*
X150253390Y-100836666D02*
X150396247Y-100836666D01*
X150396247Y-100836666D02*
X150586723Y-100884285D01*
X150586723Y-100884285D02*
X150681961Y-100931904D01*
X150681961Y-100931904D02*
X150777200Y-101027142D01*
X150777200Y-101027142D02*
X150824819Y-101169999D01*
X150824819Y-101169999D02*
X150824819Y-101408094D01*
X149920057Y-100455713D02*
X149872438Y-100408094D01*
X149872438Y-100408094D02*
X149824819Y-100312856D01*
X149824819Y-100312856D02*
X149824819Y-100074761D01*
X149824819Y-100074761D02*
X149872438Y-99979523D01*
X149872438Y-99979523D02*
X149920057Y-99931904D01*
X149920057Y-99931904D02*
X150015295Y-99884285D01*
X150015295Y-99884285D02*
X150110533Y-99884285D01*
X150110533Y-99884285D02*
X150253390Y-99931904D01*
X150253390Y-99931904D02*
X150824819Y-100503332D01*
X150824819Y-100503332D02*
X150824819Y-99884285D01*
X134208628Y-87506190D02*
X134684819Y-87506190D01*
X133684819Y-87839523D02*
X134208628Y-87506190D01*
X134208628Y-87506190D02*
X133684819Y-87172857D01*
X134684819Y-86315714D02*
X134684819Y-86887142D01*
X134684819Y-86601428D02*
X133684819Y-86601428D01*
X133684819Y-86601428D02*
X133827676Y-86696666D01*
X133827676Y-86696666D02*
X133922914Y-86791904D01*
X133922914Y-86791904D02*
X133970533Y-86887142D01*
X152912956Y-82380403D02*
X152912956Y-81380403D01*
X152912956Y-81380403D02*
X153151051Y-81380403D01*
X153151051Y-81380403D02*
X153293908Y-81428022D01*
X153293908Y-81428022D02*
X153389146Y-81523260D01*
X153389146Y-81523260D02*
X153436765Y-81618498D01*
X153436765Y-81618498D02*
X153484384Y-81808974D01*
X153484384Y-81808974D02*
X153484384Y-81951831D01*
X153484384Y-81951831D02*
X153436765Y-82142307D01*
X153436765Y-82142307D02*
X153389146Y-82237545D01*
X153389146Y-82237545D02*
X153293908Y-82332784D01*
X153293908Y-82332784D02*
X153151051Y-82380403D01*
X153151051Y-82380403D02*
X152912956Y-82380403D01*
X154389146Y-81380403D02*
X153912956Y-81380403D01*
X153912956Y-81380403D02*
X153865337Y-81856593D01*
X153865337Y-81856593D02*
X153912956Y-81808974D01*
X153912956Y-81808974D02*
X154008194Y-81761355D01*
X154008194Y-81761355D02*
X154246289Y-81761355D01*
X154246289Y-81761355D02*
X154341527Y-81808974D01*
X154341527Y-81808974D02*
X154389146Y-81856593D01*
X154389146Y-81856593D02*
X154436765Y-81951831D01*
X154436765Y-81951831D02*
X154436765Y-82189926D01*
X154436765Y-82189926D02*
X154389146Y-82285164D01*
X154389146Y-82285164D02*
X154341527Y-82332784D01*
X154341527Y-82332784D02*
X154246289Y-82380403D01*
X154246289Y-82380403D02*
X154008194Y-82380403D01*
X154008194Y-82380403D02*
X153912956Y-82332784D01*
X153912956Y-82332784D02*
X153865337Y-82285164D01*
X153304819Y-100866666D02*
X152828628Y-101199999D01*
X153304819Y-101438094D02*
X152304819Y-101438094D01*
X152304819Y-101438094D02*
X152304819Y-101057142D01*
X152304819Y-101057142D02*
X152352438Y-100961904D01*
X152352438Y-100961904D02*
X152400057Y-100914285D01*
X152400057Y-100914285D02*
X152495295Y-100866666D01*
X152495295Y-100866666D02*
X152638152Y-100866666D01*
X152638152Y-100866666D02*
X152733390Y-100914285D01*
X152733390Y-100914285D02*
X152781009Y-100961904D01*
X152781009Y-100961904D02*
X152828628Y-101057142D01*
X152828628Y-101057142D02*
X152828628Y-101438094D01*
X152304819Y-100533332D02*
X152304819Y-99866666D01*
X152304819Y-99866666D02*
X153304819Y-100295237D01*
X150204819Y-101066666D02*
X149728628Y-101399999D01*
X150204819Y-101638094D02*
X149204819Y-101638094D01*
X149204819Y-101638094D02*
X149204819Y-101257142D01*
X149204819Y-101257142D02*
X149252438Y-101161904D01*
X149252438Y-101161904D02*
X149300057Y-101114285D01*
X149300057Y-101114285D02*
X149395295Y-101066666D01*
X149395295Y-101066666D02*
X149538152Y-101066666D01*
X149538152Y-101066666D02*
X149633390Y-101114285D01*
X149633390Y-101114285D02*
X149681009Y-101161904D01*
X149681009Y-101161904D02*
X149728628Y-101257142D01*
X149728628Y-101257142D02*
X149728628Y-101638094D01*
X149633390Y-100495237D02*
X149585771Y-100590475D01*
X149585771Y-100590475D02*
X149538152Y-100638094D01*
X149538152Y-100638094D02*
X149442914Y-100685713D01*
X149442914Y-100685713D02*
X149395295Y-100685713D01*
X149395295Y-100685713D02*
X149300057Y-100638094D01*
X149300057Y-100638094D02*
X149252438Y-100590475D01*
X149252438Y-100590475D02*
X149204819Y-100495237D01*
X149204819Y-100495237D02*
X149204819Y-100304761D01*
X149204819Y-100304761D02*
X149252438Y-100209523D01*
X149252438Y-100209523D02*
X149300057Y-100161904D01*
X149300057Y-100161904D02*
X149395295Y-100114285D01*
X149395295Y-100114285D02*
X149442914Y-100114285D01*
X149442914Y-100114285D02*
X149538152Y-100161904D01*
X149538152Y-100161904D02*
X149585771Y-100209523D01*
X149585771Y-100209523D02*
X149633390Y-100304761D01*
X149633390Y-100304761D02*
X149633390Y-100495237D01*
X149633390Y-100495237D02*
X149681009Y-100590475D01*
X149681009Y-100590475D02*
X149728628Y-100638094D01*
X149728628Y-100638094D02*
X149823866Y-100685713D01*
X149823866Y-100685713D02*
X150014342Y-100685713D01*
X150014342Y-100685713D02*
X150109580Y-100638094D01*
X150109580Y-100638094D02*
X150157200Y-100590475D01*
X150157200Y-100590475D02*
X150204819Y-100495237D01*
X150204819Y-100495237D02*
X150204819Y-100304761D01*
X150204819Y-100304761D02*
X150157200Y-100209523D01*
X150157200Y-100209523D02*
X150109580Y-100161904D01*
X150109580Y-100161904D02*
X150014342Y-100114285D01*
X150014342Y-100114285D02*
X149823866Y-100114285D01*
X149823866Y-100114285D02*
X149728628Y-100161904D01*
X149728628Y-100161904D02*
X149681009Y-100209523D01*
X149681009Y-100209523D02*
X149633390Y-100304761D01*
X140624818Y-88621904D02*
X141434341Y-88621904D01*
X141434341Y-88621904D02*
X141529579Y-88574285D01*
X141529579Y-88574285D02*
X141577199Y-88526666D01*
X141577199Y-88526666D02*
X141624818Y-88431428D01*
X141624818Y-88431428D02*
X141624818Y-88240952D01*
X141624818Y-88240952D02*
X141577199Y-88145714D01*
X141577199Y-88145714D02*
X141529579Y-88098095D01*
X141529579Y-88098095D02*
X141434341Y-88050476D01*
X141434341Y-88050476D02*
X140624818Y-88050476D01*
X141624818Y-87050476D02*
X141624818Y-87621904D01*
X141624818Y-87336190D02*
X140624818Y-87336190D01*
X140624818Y-87336190D02*
X140767675Y-87431428D01*
X140767675Y-87431428D02*
X140862913Y-87526666D01*
X140862913Y-87526666D02*
X140910532Y-87621904D01*
X147034819Y-80662857D02*
X146558628Y-80996190D01*
X147034819Y-81234285D02*
X146034819Y-81234285D01*
X146034819Y-81234285D02*
X146034819Y-80853333D01*
X146034819Y-80853333D02*
X146082438Y-80758095D01*
X146082438Y-80758095D02*
X146130057Y-80710476D01*
X146130057Y-80710476D02*
X146225295Y-80662857D01*
X146225295Y-80662857D02*
X146368152Y-80662857D01*
X146368152Y-80662857D02*
X146463390Y-80710476D01*
X146463390Y-80710476D02*
X146511009Y-80758095D01*
X146511009Y-80758095D02*
X146558628Y-80853333D01*
X146558628Y-80853333D02*
X146558628Y-81234285D01*
X147034819Y-79710476D02*
X147034819Y-80281904D01*
X147034819Y-79996190D02*
X146034819Y-79996190D01*
X146034819Y-79996190D02*
X146177676Y-80091428D01*
X146177676Y-80091428D02*
X146272914Y-80186666D01*
X146272914Y-80186666D02*
X146320533Y-80281904D01*
X146034819Y-78805714D02*
X146034819Y-79281904D01*
X146034819Y-79281904D02*
X146511009Y-79329523D01*
X146511009Y-79329523D02*
X146463390Y-79281904D01*
X146463390Y-79281904D02*
X146415771Y-79186666D01*
X146415771Y-79186666D02*
X146415771Y-78948571D01*
X146415771Y-78948571D02*
X146463390Y-78853333D01*
X146463390Y-78853333D02*
X146511009Y-78805714D01*
X146511009Y-78805714D02*
X146606247Y-78758095D01*
X146606247Y-78758095D02*
X146844342Y-78758095D01*
X146844342Y-78758095D02*
X146939580Y-78805714D01*
X146939580Y-78805714D02*
X146987200Y-78853333D01*
X146987200Y-78853333D02*
X147034819Y-78948571D01*
X147034819Y-78948571D02*
X147034819Y-79186666D01*
X147034819Y-79186666D02*
X146987200Y-79281904D01*
X146987200Y-79281904D02*
X146939580Y-79329523D01*
X158439580Y-93146665D02*
X158487200Y-93194284D01*
X158487200Y-93194284D02*
X158534819Y-93337141D01*
X158534819Y-93337141D02*
X158534819Y-93432379D01*
X158534819Y-93432379D02*
X158487200Y-93575236D01*
X158487200Y-93575236D02*
X158391961Y-93670474D01*
X158391961Y-93670474D02*
X158296723Y-93718093D01*
X158296723Y-93718093D02*
X158106247Y-93765712D01*
X158106247Y-93765712D02*
X157963390Y-93765712D01*
X157963390Y-93765712D02*
X157772914Y-93718093D01*
X157772914Y-93718093D02*
X157677676Y-93670474D01*
X157677676Y-93670474D02*
X157582438Y-93575236D01*
X157582438Y-93575236D02*
X157534819Y-93432379D01*
X157534819Y-93432379D02*
X157534819Y-93337141D01*
X157534819Y-93337141D02*
X157582438Y-93194284D01*
X157582438Y-93194284D02*
X157630057Y-93146665D01*
X157868152Y-92289522D02*
X158534819Y-92289522D01*
X157487200Y-92527617D02*
X158201485Y-92765712D01*
X158201485Y-92765712D02*
X158201485Y-92146665D01*
X144514819Y-100979165D02*
X144038628Y-101312498D01*
X144514819Y-101550593D02*
X143514819Y-101550593D01*
X143514819Y-101550593D02*
X143514819Y-101169641D01*
X143514819Y-101169641D02*
X143562438Y-101074403D01*
X143562438Y-101074403D02*
X143610057Y-101026784D01*
X143610057Y-101026784D02*
X143705295Y-100979165D01*
X143705295Y-100979165D02*
X143848152Y-100979165D01*
X143848152Y-100979165D02*
X143943390Y-101026784D01*
X143943390Y-101026784D02*
X143991009Y-101074403D01*
X143991009Y-101074403D02*
X144038628Y-101169641D01*
X144038628Y-101169641D02*
X144038628Y-101550593D01*
X143514819Y-100122022D02*
X143514819Y-100312498D01*
X143514819Y-100312498D02*
X143562438Y-100407736D01*
X143562438Y-100407736D02*
X143610057Y-100455355D01*
X143610057Y-100455355D02*
X143752914Y-100550593D01*
X143752914Y-100550593D02*
X143943390Y-100598212D01*
X143943390Y-100598212D02*
X144324342Y-100598212D01*
X144324342Y-100598212D02*
X144419580Y-100550593D01*
X144419580Y-100550593D02*
X144467200Y-100502974D01*
X144467200Y-100502974D02*
X144514819Y-100407736D01*
X144514819Y-100407736D02*
X144514819Y-100217260D01*
X144514819Y-100217260D02*
X144467200Y-100122022D01*
X144467200Y-100122022D02*
X144419580Y-100074403D01*
X144419580Y-100074403D02*
X144324342Y-100026784D01*
X144324342Y-100026784D02*
X144086247Y-100026784D01*
X144086247Y-100026784D02*
X143991009Y-100074403D01*
X143991009Y-100074403D02*
X143943390Y-100122022D01*
X143943390Y-100122022D02*
X143895771Y-100217260D01*
X143895771Y-100217260D02*
X143895771Y-100407736D01*
X143895771Y-100407736D02*
X143943390Y-100502974D01*
X143943390Y-100502974D02*
X143991009Y-100550593D01*
X143991009Y-100550593D02*
X144086247Y-100598212D01*
X154238095Y-104754819D02*
X154238095Y-103754819D01*
X154238095Y-104231009D02*
X154809523Y-104231009D01*
X154809523Y-104754819D02*
X154809523Y-103754819D01*
X155714285Y-104088152D02*
X155714285Y-104754819D01*
X155476190Y-103707200D02*
X155238095Y-104421485D01*
X155238095Y-104421485D02*
X155857142Y-104421485D01*
X148594819Y-86601904D02*
X149404342Y-86601904D01*
X149404342Y-86601904D02*
X149499580Y-86554285D01*
X149499580Y-86554285D02*
X149547200Y-86506666D01*
X149547200Y-86506666D02*
X149594819Y-86411428D01*
X149594819Y-86411428D02*
X149594819Y-86220952D01*
X149594819Y-86220952D02*
X149547200Y-86125714D01*
X149547200Y-86125714D02*
X149499580Y-86078095D01*
X149499580Y-86078095D02*
X149404342Y-86030476D01*
X149404342Y-86030476D02*
X148594819Y-86030476D01*
X148594819Y-85649523D02*
X148594819Y-85030476D01*
X148594819Y-85030476D02*
X148975771Y-85363809D01*
X148975771Y-85363809D02*
X148975771Y-85220952D01*
X148975771Y-85220952D02*
X149023390Y-85125714D01*
X149023390Y-85125714D02*
X149071009Y-85078095D01*
X149071009Y-85078095D02*
X149166247Y-85030476D01*
X149166247Y-85030476D02*
X149404342Y-85030476D01*
X149404342Y-85030476D02*
X149499580Y-85078095D01*
X149499580Y-85078095D02*
X149547200Y-85125714D01*
X149547200Y-85125714D02*
X149594819Y-85220952D01*
X149594819Y-85220952D02*
X149594819Y-85506666D01*
X149594819Y-85506666D02*
X149547200Y-85601904D01*
X149547200Y-85601904D02*
X149499580Y-85649523D01*
X145666666Y-77454821D02*
X145666666Y-78169106D01*
X145666666Y-78169106D02*
X145619047Y-78311963D01*
X145619047Y-78311963D02*
X145523809Y-78407202D01*
X145523809Y-78407202D02*
X145380952Y-78454821D01*
X145380952Y-78454821D02*
X145285714Y-78454821D01*
X146666666Y-78454821D02*
X146095238Y-78454821D01*
X146380952Y-78454821D02*
X146380952Y-77454821D01*
X146380952Y-77454821D02*
X146285714Y-77597678D01*
X146285714Y-77597678D02*
X146190476Y-77692916D01*
X146190476Y-77692916D02*
X146095238Y-77740535D01*
X141624819Y-80692857D02*
X141148628Y-81026190D01*
X141624819Y-81264285D02*
X140624819Y-81264285D01*
X140624819Y-81264285D02*
X140624819Y-80883333D01*
X140624819Y-80883333D02*
X140672438Y-80788095D01*
X140672438Y-80788095D02*
X140720057Y-80740476D01*
X140720057Y-80740476D02*
X140815295Y-80692857D01*
X140815295Y-80692857D02*
X140958152Y-80692857D01*
X140958152Y-80692857D02*
X141053390Y-80740476D01*
X141053390Y-80740476D02*
X141101009Y-80788095D01*
X141101009Y-80788095D02*
X141148628Y-80883333D01*
X141148628Y-80883333D02*
X141148628Y-81264285D01*
X141624819Y-79740476D02*
X141624819Y-80311904D01*
X141624819Y-80026190D02*
X140624819Y-80026190D01*
X140624819Y-80026190D02*
X140767676Y-80121428D01*
X140767676Y-80121428D02*
X140862914Y-80216666D01*
X140862914Y-80216666D02*
X140910533Y-80311904D01*
X140958152Y-78883333D02*
X141624819Y-78883333D01*
X140577200Y-79121428D02*
X141291485Y-79359523D01*
X141291485Y-79359523D02*
X141291485Y-78740476D01*
X152738095Y-72754819D02*
X152738095Y-71754819D01*
X152738095Y-72231009D02*
X153309523Y-72231009D01*
X153309523Y-72754819D02*
X153309523Y-71754819D01*
X153738095Y-71850057D02*
X153785714Y-71802438D01*
X153785714Y-71802438D02*
X153880952Y-71754819D01*
X153880952Y-71754819D02*
X154119047Y-71754819D01*
X154119047Y-71754819D02*
X154214285Y-71802438D01*
X154214285Y-71802438D02*
X154261904Y-71850057D01*
X154261904Y-71850057D02*
X154309523Y-71945295D01*
X154309523Y-71945295D02*
X154309523Y-72040533D01*
X154309523Y-72040533D02*
X154261904Y-72183390D01*
X154261904Y-72183390D02*
X153690476Y-72754819D01*
X153690476Y-72754819D02*
X154309523Y-72754819D01*
X150209819Y-107458332D02*
X150924104Y-107458332D01*
X150924104Y-107458332D02*
X151066961Y-107505951D01*
X151066961Y-107505951D02*
X151162200Y-107601189D01*
X151162200Y-107601189D02*
X151209819Y-107744046D01*
X151209819Y-107744046D02*
X151209819Y-107839284D01*
X150305057Y-107029760D02*
X150257438Y-106982141D01*
X150257438Y-106982141D02*
X150209819Y-106886903D01*
X150209819Y-106886903D02*
X150209819Y-106648808D01*
X150209819Y-106648808D02*
X150257438Y-106553570D01*
X150257438Y-106553570D02*
X150305057Y-106505951D01*
X150305057Y-106505951D02*
X150400295Y-106458332D01*
X150400295Y-106458332D02*
X150495533Y-106458332D01*
X150495533Y-106458332D02*
X150638390Y-106505951D01*
X150638390Y-106505951D02*
X151209819Y-107077379D01*
X151209819Y-107077379D02*
X151209819Y-106458332D01*
X147624819Y-101628094D02*
X146624819Y-101628094D01*
X146624819Y-101628094D02*
X146624819Y-101389999D01*
X146624819Y-101389999D02*
X146672438Y-101247142D01*
X146672438Y-101247142D02*
X146767676Y-101151904D01*
X146767676Y-101151904D02*
X146862914Y-101104285D01*
X146862914Y-101104285D02*
X147053390Y-101056666D01*
X147053390Y-101056666D02*
X147196247Y-101056666D01*
X147196247Y-101056666D02*
X147386723Y-101104285D01*
X147386723Y-101104285D02*
X147481961Y-101151904D01*
X147481961Y-101151904D02*
X147577200Y-101247142D01*
X147577200Y-101247142D02*
X147624819Y-101389999D01*
X147624819Y-101389999D02*
X147624819Y-101628094D01*
X146624819Y-100723332D02*
X146624819Y-100104285D01*
X146624819Y-100104285D02*
X147005771Y-100437618D01*
X147005771Y-100437618D02*
X147005771Y-100294761D01*
X147005771Y-100294761D02*
X147053390Y-100199523D01*
X147053390Y-100199523D02*
X147101009Y-100151904D01*
X147101009Y-100151904D02*
X147196247Y-100104285D01*
X147196247Y-100104285D02*
X147434342Y-100104285D01*
X147434342Y-100104285D02*
X147529580Y-100151904D01*
X147529580Y-100151904D02*
X147577200Y-100199523D01*
X147577200Y-100199523D02*
X147624819Y-100294761D01*
X147624819Y-100294761D02*
X147624819Y-100580475D01*
X147624819Y-100580475D02*
X147577200Y-100675713D01*
X147577200Y-100675713D02*
X147529580Y-100723332D01*
X141584820Y-101573093D02*
X140584820Y-101573093D01*
X140584820Y-101573093D02*
X140584820Y-101334998D01*
X140584820Y-101334998D02*
X140632439Y-101192141D01*
X140632439Y-101192141D02*
X140727677Y-101096903D01*
X140727677Y-101096903D02*
X140822915Y-101049284D01*
X140822915Y-101049284D02*
X141013391Y-101001665D01*
X141013391Y-101001665D02*
X141156248Y-101001665D01*
X141156248Y-101001665D02*
X141346724Y-101049284D01*
X141346724Y-101049284D02*
X141441962Y-101096903D01*
X141441962Y-101096903D02*
X141537201Y-101192141D01*
X141537201Y-101192141D02*
X141584820Y-101334998D01*
X141584820Y-101334998D02*
X141584820Y-101573093D01*
X141584820Y-100049284D02*
X141584820Y-100620712D01*
X141584820Y-100334998D02*
X140584820Y-100334998D01*
X140584820Y-100334998D02*
X140727677Y-100430236D01*
X140727677Y-100430236D02*
X140822915Y-100525474D01*
X140822915Y-100525474D02*
X140870534Y-100620712D01*
X137798095Y-72784819D02*
X137798095Y-71784819D01*
X137798095Y-72261009D02*
X138369523Y-72261009D01*
X138369523Y-72784819D02*
X138369523Y-71784819D01*
X139369523Y-72784819D02*
X138798095Y-72784819D01*
X139083809Y-72784819D02*
X139083809Y-71784819D01*
X139083809Y-71784819D02*
X138988571Y-71927676D01*
X138988571Y-71927676D02*
X138893333Y-72022914D01*
X138893333Y-72022914D02*
X138798095Y-72070533D01*
X155829582Y-93149168D02*
X155877202Y-93196787D01*
X155877202Y-93196787D02*
X155924821Y-93339644D01*
X155924821Y-93339644D02*
X155924821Y-93434882D01*
X155924821Y-93434882D02*
X155877202Y-93577739D01*
X155877202Y-93577739D02*
X155781963Y-93672977D01*
X155781963Y-93672977D02*
X155686725Y-93720596D01*
X155686725Y-93720596D02*
X155496249Y-93768215D01*
X155496249Y-93768215D02*
X155353392Y-93768215D01*
X155353392Y-93768215D02*
X155162916Y-93720596D01*
X155162916Y-93720596D02*
X155067678Y-93672977D01*
X155067678Y-93672977D02*
X154972440Y-93577739D01*
X154972440Y-93577739D02*
X154924821Y-93434882D01*
X154924821Y-93434882D02*
X154924821Y-93339644D01*
X154924821Y-93339644D02*
X154972440Y-93196787D01*
X154972440Y-93196787D02*
X155020059Y-93149168D01*
X154924821Y-92244406D02*
X154924821Y-92720596D01*
X154924821Y-92720596D02*
X155401011Y-92768215D01*
X155401011Y-92768215D02*
X155353392Y-92720596D01*
X155353392Y-92720596D02*
X155305773Y-92625358D01*
X155305773Y-92625358D02*
X155305773Y-92387263D01*
X155305773Y-92387263D02*
X155353392Y-92292025D01*
X155353392Y-92292025D02*
X155401011Y-92244406D01*
X155401011Y-92244406D02*
X155496249Y-92196787D01*
X155496249Y-92196787D02*
X155734344Y-92196787D01*
X155734344Y-92196787D02*
X155829582Y-92244406D01*
X155829582Y-92244406D02*
X155877202Y-92292025D01*
X155877202Y-92292025D02*
X155924821Y-92387263D01*
X155924821Y-92387263D02*
X155924821Y-92625358D01*
X155924821Y-92625358D02*
X155877202Y-92720596D01*
X155877202Y-92720596D02*
X155829582Y-92768215D01*
X134619579Y-96886667D02*
X134667199Y-96934286D01*
X134667199Y-96934286D02*
X134714818Y-97077143D01*
X134714818Y-97077143D02*
X134714818Y-97172381D01*
X134714818Y-97172381D02*
X134667199Y-97315238D01*
X134667199Y-97315238D02*
X134571960Y-97410476D01*
X134571960Y-97410476D02*
X134476722Y-97458095D01*
X134476722Y-97458095D02*
X134286246Y-97505714D01*
X134286246Y-97505714D02*
X134143389Y-97505714D01*
X134143389Y-97505714D02*
X133952913Y-97458095D01*
X133952913Y-97458095D02*
X133857675Y-97410476D01*
X133857675Y-97410476D02*
X133762437Y-97315238D01*
X133762437Y-97315238D02*
X133714818Y-97172381D01*
X133714818Y-97172381D02*
X133714818Y-97077143D01*
X133714818Y-97077143D02*
X133762437Y-96934286D01*
X133762437Y-96934286D02*
X133810056Y-96886667D01*
X133714818Y-96553333D02*
X133714818Y-95886667D01*
X133714818Y-95886667D02*
X134714818Y-96315238D01*
D11*
%TO.C,C6*%
X136978748Y-77670000D02*
X138401252Y-77670000D01*
X136978748Y-79490000D02*
X138401252Y-79490000D01*
%TO.C,D2*%
X151055000Y-99070000D02*
X151055000Y-103129999D01*
X151055000Y-103129999D02*
X153325000Y-103130000D01*
X153325000Y-103130000D02*
X153324998Y-99069999D01*
%TO.C,Y1*%
X135229999Y-81129999D02*
X135230001Y-93730000D01*
X135230001Y-93730000D02*
X140329999Y-93729999D01*
X140329999Y-93729999D02*
X140329999Y-81129999D01*
%TO.C,D5*%
X157161048Y-77775586D02*
X151651050Y-77775584D01*
X157161050Y-81075585D02*
X151651049Y-81075584D01*
X157161050Y-81075585D02*
X157161048Y-77775586D01*
%TO.C,R7*%
X153760001Y-101427064D02*
X153759999Y-99972935D01*
X155580001Y-101427065D02*
X155579999Y-99972936D01*
%TO.C,R8*%
X147690001Y-101497064D02*
X147689999Y-100042935D01*
X149510001Y-101497065D02*
X149509999Y-100042936D01*
%TO.C,U1*%
X142010000Y-85100000D02*
X142284999Y-85099999D01*
X142010000Y-87860000D02*
X142010000Y-85100000D01*
X142010000Y-87860000D02*
X142010000Y-90620000D01*
X142010000Y-90620000D02*
X142284999Y-90619999D01*
X149430000Y-85100000D02*
X149155001Y-85100001D01*
X149430000Y-87860000D02*
X149430000Y-85100000D01*
X149430000Y-87860000D02*
X149430000Y-90620000D01*
X149430000Y-90620000D02*
X149155001Y-90620001D01*
X142285000Y-91410000D02*
X141954999Y-91650001D01*
X141955001Y-91170000D01*
X142285000Y-91410000D01*
G36*
X142285000Y-91410000D02*
G01*
X141954999Y-91650001D01*
X141955001Y-91170000D01*
X142285000Y-91410000D01*
G37*
%TO.C,R15*%
X147490001Y-80747064D02*
X147490000Y-79292934D01*
X149310000Y-80747066D02*
X149309999Y-79292936D01*
%TO.C,C4*%
X155320000Y-92268748D02*
X155320000Y-93691252D01*
X157140000Y-92268748D02*
X157140000Y-93691252D01*
%TO.C,R6*%
X141330000Y-100085433D02*
X141330001Y-101539563D01*
X143149999Y-100085435D02*
X143150000Y-101539565D01*
%TO.C,U3*%
X150229999Y-87690000D02*
X150230000Y-83930001D01*
X150230000Y-83930001D02*
X151490000Y-83930000D01*
X157050001Y-87690000D02*
X157050002Y-83930000D01*
X157050002Y-83930000D02*
X155789999Y-83930001D01*
X150330000Y-88970000D02*
X150000001Y-89209998D01*
X150000002Y-88730001D01*
X150330000Y-88970000D01*
G36*
X150330000Y-88970000D02*
G01*
X150000001Y-89209998D01*
X150000002Y-88730001D01*
X150330000Y-88970000D01*
G37*
%TO.C,J1*%
X141419998Y-72430000D02*
X141419999Y-74350002D01*
X141420000Y-68715000D02*
X150580000Y-68715000D01*
X141420000Y-70420001D02*
X141420000Y-68715000D01*
X150580000Y-68715000D02*
X150580000Y-70420000D01*
X150580002Y-74349999D02*
X150580001Y-72429998D01*
%TO.C,R14*%
X142080001Y-80777064D02*
X142079997Y-79322934D01*
X143900003Y-80777066D02*
X143899999Y-79322936D01*
%TO.C,J2*%
X142015000Y-104525000D02*
X142015002Y-109725000D01*
X147155000Y-104525002D02*
X142015000Y-104525000D01*
X147155000Y-104525002D02*
X147155001Y-107125000D01*
X147155001Y-107125000D02*
X149755002Y-107125001D01*
X148425001Y-104524998D02*
X149755000Y-104525000D01*
X149755000Y-104525000D02*
X149755002Y-105855001D01*
X149755000Y-109724999D02*
X142015002Y-109725000D01*
X149755002Y-107125001D02*
X149755000Y-109724999D01*
%TO.C,D3*%
X144885000Y-99160000D02*
X144885000Y-103219999D01*
X144885000Y-103219999D02*
X147155000Y-103220000D01*
X147155000Y-103220000D02*
X147154998Y-99159999D01*
%TO.C,D1*%
X138175000Y-98375000D02*
X138175001Y-102434999D01*
X140444999Y-102435000D02*
X140445001Y-98374999D01*
X140445001Y-98374999D02*
X138175000Y-98375000D01*
%TO.C,C5*%
X152710001Y-92271249D02*
X152710001Y-93693753D01*
X154530001Y-92271249D02*
X154530001Y-93693753D01*
%TO.C,C7*%
X135200000Y-97431252D02*
X135200000Y-96008748D01*
X137020000Y-97431252D02*
X137020000Y-96008748D01*
%TD*%
M02*
