%TF.GenerationSoftware,KiCad,Pcbnew,8.0.0*%
%TF.CreationDate,2026-01-12T19:07:29+05:30*%
%TF.ProjectId,PICKit_Clone_KiCAD,5049434b-6974-45f4-936c-6f6e655f4b69,1.0*%
%TF.SameCoordinates,Original*%
%TF.FileFunction,Drillmap*%
%TF.FilePolarity,Positive*%
%FSLAX45Y45*%
G04 Gerber Fmt 4.5, Leading zero omitted, Abs format (unit mm)*
G04 Created by KiCad (PCBNEW 8.0.0) date 2026-01-12 19:07:29*
%MOMM*%
%LPD*%
G01*
G04 APERTURE LIST*
%ADD10C,0.200000*%
%ADD11C,0.100000*%
%ADD12C,0.220000*%
G04 APERTURE END LIST*
D10*
X13350000Y-7850000D02*
X13350000Y-10850000D01*
X13600000Y-11150000D02*
X13349998Y-10850002D01*
X15600000Y-11150000D02*
X13600000Y-11150000D01*
X13350000Y-7850000D02*
X14000000Y-7000000D01*
X15850000Y-7850000D02*
X15200000Y-7000000D01*
X15850000Y-7850000D02*
X15850000Y-10850000D01*
X15600000Y-11150000D02*
X15850000Y-10850000D01*
X14000000Y-7000000D02*
X15200000Y-7000000D01*
D11*
X14278500Y-7478000D02*
X14343500Y-7543000D01*
X14343500Y-7478000D02*
X14278500Y-7543000D01*
X14856500Y-7478000D02*
X14921500Y-7543000D01*
X14921500Y-7478000D02*
X14856500Y-7543000D01*
D12*
X13810000Y-10750000D02*
G75*
G02*
X13590000Y-10750000I-110000J0D01*
G01*
X13590000Y-10750000D02*
G75*
G02*
X13810000Y-10750000I110000J0D01*
G01*
X13966000Y-7553000D02*
G75*
G02*
X13746000Y-7553000I-110000J0D01*
G01*
X13746000Y-7553000D02*
G75*
G02*
X13966000Y-7553000I110000J0D01*
G01*
X15460000Y-7550000D02*
G75*
G02*
X15240000Y-7550000I-110000J0D01*
G01*
X15240000Y-7550000D02*
G75*
G02*
X15460000Y-7550000I110000J0D01*
G01*
X15610000Y-10750000D02*
G75*
G02*
X15390000Y-10750000I-110000J0D01*
G01*
X15390000Y-10750000D02*
G75*
G02*
X15610000Y-10750000I110000J0D01*
G01*
D10*
X13600774Y-11471484D02*
X13600774Y-11271484D01*
X13600774Y-11271484D02*
X13648393Y-11271484D01*
X13648393Y-11271484D02*
X13676965Y-11281008D01*
X13676965Y-11281008D02*
X13696013Y-11300055D01*
X13696013Y-11300055D02*
X13705536Y-11319103D01*
X13705536Y-11319103D02*
X13715060Y-11357198D01*
X13715060Y-11357198D02*
X13715060Y-11385769D01*
X13715060Y-11385769D02*
X13705536Y-11423865D01*
X13705536Y-11423865D02*
X13696013Y-11442912D01*
X13696013Y-11442912D02*
X13676965Y-11461960D01*
X13676965Y-11461960D02*
X13648393Y-11471484D01*
X13648393Y-11471484D02*
X13600774Y-11471484D01*
X13800774Y-11471484D02*
X13800774Y-11338150D01*
X13800774Y-11376246D02*
X13810298Y-11357198D01*
X13810298Y-11357198D02*
X13819822Y-11347674D01*
X13819822Y-11347674D02*
X13838870Y-11338150D01*
X13838870Y-11338150D02*
X13857917Y-11338150D01*
X13924584Y-11471484D02*
X13924584Y-11338150D01*
X13924584Y-11271484D02*
X13915060Y-11281008D01*
X13915060Y-11281008D02*
X13924584Y-11290531D01*
X13924584Y-11290531D02*
X13934108Y-11281008D01*
X13934108Y-11281008D02*
X13924584Y-11271484D01*
X13924584Y-11271484D02*
X13924584Y-11290531D01*
X14048393Y-11471484D02*
X14029346Y-11461960D01*
X14029346Y-11461960D02*
X14019822Y-11442912D01*
X14019822Y-11442912D02*
X14019822Y-11271484D01*
X14153155Y-11471484D02*
X14134108Y-11461960D01*
X14134108Y-11461960D02*
X14124584Y-11442912D01*
X14124584Y-11442912D02*
X14124584Y-11271484D01*
X14381727Y-11471484D02*
X14381727Y-11271484D01*
X14381727Y-11271484D02*
X14448394Y-11414341D01*
X14448394Y-11414341D02*
X14515060Y-11271484D01*
X14515060Y-11271484D02*
X14515060Y-11471484D01*
X14696013Y-11471484D02*
X14696013Y-11366722D01*
X14696013Y-11366722D02*
X14686489Y-11347674D01*
X14686489Y-11347674D02*
X14667441Y-11338150D01*
X14667441Y-11338150D02*
X14629346Y-11338150D01*
X14629346Y-11338150D02*
X14610298Y-11347674D01*
X14696013Y-11461960D02*
X14676965Y-11471484D01*
X14676965Y-11471484D02*
X14629346Y-11471484D01*
X14629346Y-11471484D02*
X14610298Y-11461960D01*
X14610298Y-11461960D02*
X14600774Y-11442912D01*
X14600774Y-11442912D02*
X14600774Y-11423865D01*
X14600774Y-11423865D02*
X14610298Y-11404817D01*
X14610298Y-11404817D02*
X14629346Y-11395293D01*
X14629346Y-11395293D02*
X14676965Y-11395293D01*
X14676965Y-11395293D02*
X14696013Y-11385769D01*
X14791251Y-11338150D02*
X14791251Y-11538150D01*
X14791251Y-11347674D02*
X14810298Y-11338150D01*
X14810298Y-11338150D02*
X14848394Y-11338150D01*
X14848394Y-11338150D02*
X14867441Y-11347674D01*
X14867441Y-11347674D02*
X14876965Y-11357198D01*
X14876965Y-11357198D02*
X14886489Y-11376246D01*
X14886489Y-11376246D02*
X14886489Y-11433388D01*
X14886489Y-11433388D02*
X14876965Y-11452436D01*
X14876965Y-11452436D02*
X14867441Y-11461960D01*
X14867441Y-11461960D02*
X14848394Y-11471484D01*
X14848394Y-11471484D02*
X14810298Y-11471484D01*
X14810298Y-11471484D02*
X14791251Y-11461960D01*
X14972203Y-11452436D02*
X14981727Y-11461960D01*
X14981727Y-11461960D02*
X14972203Y-11471484D01*
X14972203Y-11471484D02*
X14962679Y-11461960D01*
X14962679Y-11461960D02*
X14972203Y-11452436D01*
X14972203Y-11452436D02*
X14972203Y-11471484D01*
X14972203Y-11347674D02*
X14981727Y-11357198D01*
X14981727Y-11357198D02*
X14972203Y-11366722D01*
X14972203Y-11366722D02*
X14962679Y-11357198D01*
X14962679Y-11357198D02*
X14972203Y-11347674D01*
X14972203Y-11347674D02*
X14972203Y-11366722D01*
D11*
X13274998Y-11767500D02*
X13339998Y-11832500D01*
X13339998Y-11767500D02*
X13274998Y-11832500D01*
D10*
X13638870Y-11691484D02*
X13657917Y-11691484D01*
X13657917Y-11691484D02*
X13676965Y-11701008D01*
X13676965Y-11701008D02*
X13686489Y-11710531D01*
X13686489Y-11710531D02*
X13696013Y-11729579D01*
X13696013Y-11729579D02*
X13705536Y-11767674D01*
X13705536Y-11767674D02*
X13705536Y-11815293D01*
X13705536Y-11815293D02*
X13696013Y-11853388D01*
X13696013Y-11853388D02*
X13686489Y-11872436D01*
X13686489Y-11872436D02*
X13676965Y-11881960D01*
X13676965Y-11881960D02*
X13657917Y-11891484D01*
X13657917Y-11891484D02*
X13638870Y-11891484D01*
X13638870Y-11891484D02*
X13619822Y-11881960D01*
X13619822Y-11881960D02*
X13610298Y-11872436D01*
X13610298Y-11872436D02*
X13600774Y-11853388D01*
X13600774Y-11853388D02*
X13591251Y-11815293D01*
X13591251Y-11815293D02*
X13591251Y-11767674D01*
X13591251Y-11767674D02*
X13600774Y-11729579D01*
X13600774Y-11729579D02*
X13610298Y-11710531D01*
X13610298Y-11710531D02*
X13619822Y-11701008D01*
X13619822Y-11701008D02*
X13638870Y-11691484D01*
X13791251Y-11872436D02*
X13800774Y-11881960D01*
X13800774Y-11881960D02*
X13791251Y-11891484D01*
X13791251Y-11891484D02*
X13781727Y-11881960D01*
X13781727Y-11881960D02*
X13791251Y-11872436D01*
X13791251Y-11872436D02*
X13791251Y-11891484D01*
X13972203Y-11691484D02*
X13934108Y-11691484D01*
X13934108Y-11691484D02*
X13915060Y-11701008D01*
X13915060Y-11701008D02*
X13905536Y-11710531D01*
X13905536Y-11710531D02*
X13886489Y-11739103D01*
X13886489Y-11739103D02*
X13876965Y-11777198D01*
X13876965Y-11777198D02*
X13876965Y-11853388D01*
X13876965Y-11853388D02*
X13886489Y-11872436D01*
X13886489Y-11872436D02*
X13896013Y-11881960D01*
X13896013Y-11881960D02*
X13915060Y-11891484D01*
X13915060Y-11891484D02*
X13953155Y-11891484D01*
X13953155Y-11891484D02*
X13972203Y-11881960D01*
X13972203Y-11881960D02*
X13981727Y-11872436D01*
X13981727Y-11872436D02*
X13991251Y-11853388D01*
X13991251Y-11853388D02*
X13991251Y-11805769D01*
X13991251Y-11805769D02*
X13981727Y-11786722D01*
X13981727Y-11786722D02*
X13972203Y-11777198D01*
X13972203Y-11777198D02*
X13953155Y-11767674D01*
X13953155Y-11767674D02*
X13915060Y-11767674D01*
X13915060Y-11767674D02*
X13896013Y-11777198D01*
X13896013Y-11777198D02*
X13886489Y-11786722D01*
X13886489Y-11786722D02*
X13876965Y-11805769D01*
X14172203Y-11691484D02*
X14076965Y-11691484D01*
X14076965Y-11691484D02*
X14067441Y-11786722D01*
X14067441Y-11786722D02*
X14076965Y-11777198D01*
X14076965Y-11777198D02*
X14096013Y-11767674D01*
X14096013Y-11767674D02*
X14143632Y-11767674D01*
X14143632Y-11767674D02*
X14162679Y-11777198D01*
X14162679Y-11777198D02*
X14172203Y-11786722D01*
X14172203Y-11786722D02*
X14181727Y-11805769D01*
X14181727Y-11805769D02*
X14181727Y-11853388D01*
X14181727Y-11853388D02*
X14172203Y-11872436D01*
X14172203Y-11872436D02*
X14162679Y-11881960D01*
X14162679Y-11881960D02*
X14143632Y-11891484D01*
X14143632Y-11891484D02*
X14096013Y-11891484D01*
X14096013Y-11891484D02*
X14076965Y-11881960D01*
X14076965Y-11881960D02*
X14067441Y-11872436D01*
X14305536Y-11691484D02*
X14324584Y-11691484D01*
X14324584Y-11691484D02*
X14343632Y-11701008D01*
X14343632Y-11701008D02*
X14353155Y-11710531D01*
X14353155Y-11710531D02*
X14362679Y-11729579D01*
X14362679Y-11729579D02*
X14372203Y-11767674D01*
X14372203Y-11767674D02*
X14372203Y-11815293D01*
X14372203Y-11815293D02*
X14362679Y-11853388D01*
X14362679Y-11853388D02*
X14353155Y-11872436D01*
X14353155Y-11872436D02*
X14343632Y-11881960D01*
X14343632Y-11881960D02*
X14324584Y-11891484D01*
X14324584Y-11891484D02*
X14305536Y-11891484D01*
X14305536Y-11891484D02*
X14286489Y-11881960D01*
X14286489Y-11881960D02*
X14276965Y-11872436D01*
X14276965Y-11872436D02*
X14267441Y-11853388D01*
X14267441Y-11853388D02*
X14257917Y-11815293D01*
X14257917Y-11815293D02*
X14257917Y-11767674D01*
X14257917Y-11767674D02*
X14267441Y-11729579D01*
X14267441Y-11729579D02*
X14276965Y-11710531D01*
X14276965Y-11710531D02*
X14286489Y-11701008D01*
X14286489Y-11701008D02*
X14305536Y-11691484D01*
X14457917Y-11891484D02*
X14457917Y-11758150D01*
X14457917Y-11777198D02*
X14467441Y-11767674D01*
X14467441Y-11767674D02*
X14486489Y-11758150D01*
X14486489Y-11758150D02*
X14515060Y-11758150D01*
X14515060Y-11758150D02*
X14534108Y-11767674D01*
X14534108Y-11767674D02*
X14543632Y-11786722D01*
X14543632Y-11786722D02*
X14543632Y-11891484D01*
X14543632Y-11786722D02*
X14553155Y-11767674D01*
X14553155Y-11767674D02*
X14572203Y-11758150D01*
X14572203Y-11758150D02*
X14600774Y-11758150D01*
X14600774Y-11758150D02*
X14619822Y-11767674D01*
X14619822Y-11767674D02*
X14629346Y-11786722D01*
X14629346Y-11786722D02*
X14629346Y-11891484D01*
X14724584Y-11891484D02*
X14724584Y-11758150D01*
X14724584Y-11777198D02*
X14734108Y-11767674D01*
X14734108Y-11767674D02*
X14753155Y-11758150D01*
X14753155Y-11758150D02*
X14781727Y-11758150D01*
X14781727Y-11758150D02*
X14800775Y-11767674D01*
X14800775Y-11767674D02*
X14810298Y-11786722D01*
X14810298Y-11786722D02*
X14810298Y-11891484D01*
X14810298Y-11786722D02*
X14819822Y-11767674D01*
X14819822Y-11767674D02*
X14838870Y-11758150D01*
X14838870Y-11758150D02*
X14867441Y-11758150D01*
X14867441Y-11758150D02*
X14886489Y-11767674D01*
X14886489Y-11767674D02*
X14896013Y-11786722D01*
X14896013Y-11786722D02*
X14896013Y-11891484D01*
X15286489Y-11681960D02*
X15115060Y-11939103D01*
X15543632Y-11691484D02*
X15562679Y-11691484D01*
X15562679Y-11691484D02*
X15581727Y-11701008D01*
X15581727Y-11701008D02*
X15591251Y-11710531D01*
X15591251Y-11710531D02*
X15600775Y-11729579D01*
X15600775Y-11729579D02*
X15610298Y-11767674D01*
X15610298Y-11767674D02*
X15610298Y-11815293D01*
X15610298Y-11815293D02*
X15600775Y-11853388D01*
X15600775Y-11853388D02*
X15591251Y-11872436D01*
X15591251Y-11872436D02*
X15581727Y-11881960D01*
X15581727Y-11881960D02*
X15562679Y-11891484D01*
X15562679Y-11891484D02*
X15543632Y-11891484D01*
X15543632Y-11891484D02*
X15524584Y-11881960D01*
X15524584Y-11881960D02*
X15515060Y-11872436D01*
X15515060Y-11872436D02*
X15505537Y-11853388D01*
X15505537Y-11853388D02*
X15496013Y-11815293D01*
X15496013Y-11815293D02*
X15496013Y-11767674D01*
X15496013Y-11767674D02*
X15505537Y-11729579D01*
X15505537Y-11729579D02*
X15515060Y-11710531D01*
X15515060Y-11710531D02*
X15524584Y-11701008D01*
X15524584Y-11701008D02*
X15543632Y-11691484D01*
X15696013Y-11872436D02*
X15705537Y-11881960D01*
X15705537Y-11881960D02*
X15696013Y-11891484D01*
X15696013Y-11891484D02*
X15686489Y-11881960D01*
X15686489Y-11881960D02*
X15696013Y-11872436D01*
X15696013Y-11872436D02*
X15696013Y-11891484D01*
X15829346Y-11691484D02*
X15848394Y-11691484D01*
X15848394Y-11691484D02*
X15867441Y-11701008D01*
X15867441Y-11701008D02*
X15876965Y-11710531D01*
X15876965Y-11710531D02*
X15886489Y-11729579D01*
X15886489Y-11729579D02*
X15896013Y-11767674D01*
X15896013Y-11767674D02*
X15896013Y-11815293D01*
X15896013Y-11815293D02*
X15886489Y-11853388D01*
X15886489Y-11853388D02*
X15876965Y-11872436D01*
X15876965Y-11872436D02*
X15867441Y-11881960D01*
X15867441Y-11881960D02*
X15848394Y-11891484D01*
X15848394Y-11891484D02*
X15829346Y-11891484D01*
X15829346Y-11891484D02*
X15810298Y-11881960D01*
X15810298Y-11881960D02*
X15800775Y-11872436D01*
X15800775Y-11872436D02*
X15791251Y-11853388D01*
X15791251Y-11853388D02*
X15781727Y-11815293D01*
X15781727Y-11815293D02*
X15781727Y-11767674D01*
X15781727Y-11767674D02*
X15791251Y-11729579D01*
X15791251Y-11729579D02*
X15800775Y-11710531D01*
X15800775Y-11710531D02*
X15810298Y-11701008D01*
X15810298Y-11701008D02*
X15829346Y-11691484D01*
X15972203Y-11710531D02*
X15981727Y-11701008D01*
X15981727Y-11701008D02*
X16000775Y-11691484D01*
X16000775Y-11691484D02*
X16048394Y-11691484D01*
X16048394Y-11691484D02*
X16067441Y-11701008D01*
X16067441Y-11701008D02*
X16076965Y-11710531D01*
X16076965Y-11710531D02*
X16086489Y-11729579D01*
X16086489Y-11729579D02*
X16086489Y-11748627D01*
X16086489Y-11748627D02*
X16076965Y-11777198D01*
X16076965Y-11777198D02*
X15962679Y-11891484D01*
X15962679Y-11891484D02*
X16086489Y-11891484D01*
X16267441Y-11691484D02*
X16172203Y-11691484D01*
X16172203Y-11691484D02*
X16162679Y-11786722D01*
X16162679Y-11786722D02*
X16172203Y-11777198D01*
X16172203Y-11777198D02*
X16191251Y-11767674D01*
X16191251Y-11767674D02*
X16238870Y-11767674D01*
X16238870Y-11767674D02*
X16257918Y-11777198D01*
X16257918Y-11777198D02*
X16267441Y-11786722D01*
X16267441Y-11786722D02*
X16276965Y-11805769D01*
X16276965Y-11805769D02*
X16276965Y-11853388D01*
X16276965Y-11853388D02*
X16267441Y-11872436D01*
X16267441Y-11872436D02*
X16257918Y-11881960D01*
X16257918Y-11881960D02*
X16238870Y-11891484D01*
X16238870Y-11891484D02*
X16191251Y-11891484D01*
X16191251Y-11891484D02*
X16172203Y-11881960D01*
X16172203Y-11881960D02*
X16162679Y-11872436D01*
X16448394Y-11691484D02*
X16410298Y-11691484D01*
X16410298Y-11691484D02*
X16391251Y-11701008D01*
X16391251Y-11701008D02*
X16381727Y-11710531D01*
X16381727Y-11710531D02*
X16362679Y-11739103D01*
X16362679Y-11739103D02*
X16353156Y-11777198D01*
X16353156Y-11777198D02*
X16353156Y-11853388D01*
X16353156Y-11853388D02*
X16362679Y-11872436D01*
X16362679Y-11872436D02*
X16372203Y-11881960D01*
X16372203Y-11881960D02*
X16391251Y-11891484D01*
X16391251Y-11891484D02*
X16429346Y-11891484D01*
X16429346Y-11891484D02*
X16448394Y-11881960D01*
X16448394Y-11881960D02*
X16457918Y-11872436D01*
X16457918Y-11872436D02*
X16467441Y-11853388D01*
X16467441Y-11853388D02*
X16467441Y-11805769D01*
X16467441Y-11805769D02*
X16457918Y-11786722D01*
X16457918Y-11786722D02*
X16448394Y-11777198D01*
X16448394Y-11777198D02*
X16429346Y-11767674D01*
X16429346Y-11767674D02*
X16391251Y-11767674D01*
X16391251Y-11767674D02*
X16372203Y-11777198D01*
X16372203Y-11777198D02*
X16362679Y-11786722D01*
X16362679Y-11786722D02*
X16353156Y-11805769D01*
X16543632Y-11691484D02*
X16543632Y-11729579D01*
X16619822Y-11691484D02*
X16619822Y-11729579D01*
X16915061Y-11967674D02*
X16905537Y-11958150D01*
X16905537Y-11958150D02*
X16886489Y-11929579D01*
X16886489Y-11929579D02*
X16876965Y-11910531D01*
X16876965Y-11910531D02*
X16867442Y-11881960D01*
X16867442Y-11881960D02*
X16857918Y-11834341D01*
X16857918Y-11834341D02*
X16857918Y-11796246D01*
X16857918Y-11796246D02*
X16867442Y-11748627D01*
X16867442Y-11748627D02*
X16876965Y-11720055D01*
X16876965Y-11720055D02*
X16886489Y-11701008D01*
X16886489Y-11701008D02*
X16905537Y-11672436D01*
X16905537Y-11672436D02*
X16915061Y-11662912D01*
X16981727Y-11710531D02*
X16991251Y-11701008D01*
X16991251Y-11701008D02*
X17010299Y-11691484D01*
X17010299Y-11691484D02*
X17057918Y-11691484D01*
X17057918Y-11691484D02*
X17076965Y-11701008D01*
X17076965Y-11701008D02*
X17086489Y-11710531D01*
X17086489Y-11710531D02*
X17096013Y-11729579D01*
X17096013Y-11729579D02*
X17096013Y-11748627D01*
X17096013Y-11748627D02*
X17086489Y-11777198D01*
X17086489Y-11777198D02*
X16972203Y-11891484D01*
X16972203Y-11891484D02*
X17096013Y-11891484D01*
X17334108Y-11891484D02*
X17334108Y-11691484D01*
X17419823Y-11891484D02*
X17419823Y-11786722D01*
X17419823Y-11786722D02*
X17410299Y-11767674D01*
X17410299Y-11767674D02*
X17391251Y-11758150D01*
X17391251Y-11758150D02*
X17362680Y-11758150D01*
X17362680Y-11758150D02*
X17343632Y-11767674D01*
X17343632Y-11767674D02*
X17334108Y-11777198D01*
X17543632Y-11891484D02*
X17524584Y-11881960D01*
X17524584Y-11881960D02*
X17515061Y-11872436D01*
X17515061Y-11872436D02*
X17505537Y-11853388D01*
X17505537Y-11853388D02*
X17505537Y-11796246D01*
X17505537Y-11796246D02*
X17515061Y-11777198D01*
X17515061Y-11777198D02*
X17524584Y-11767674D01*
X17524584Y-11767674D02*
X17543632Y-11758150D01*
X17543632Y-11758150D02*
X17572204Y-11758150D01*
X17572204Y-11758150D02*
X17591251Y-11767674D01*
X17591251Y-11767674D02*
X17600775Y-11777198D01*
X17600775Y-11777198D02*
X17610299Y-11796246D01*
X17610299Y-11796246D02*
X17610299Y-11853388D01*
X17610299Y-11853388D02*
X17600775Y-11872436D01*
X17600775Y-11872436D02*
X17591251Y-11881960D01*
X17591251Y-11881960D02*
X17572204Y-11891484D01*
X17572204Y-11891484D02*
X17543632Y-11891484D01*
X17724584Y-11891484D02*
X17705537Y-11881960D01*
X17705537Y-11881960D02*
X17696013Y-11862912D01*
X17696013Y-11862912D02*
X17696013Y-11691484D01*
X17876965Y-11881960D02*
X17857918Y-11891484D01*
X17857918Y-11891484D02*
X17819823Y-11891484D01*
X17819823Y-11891484D02*
X17800775Y-11881960D01*
X17800775Y-11881960D02*
X17791251Y-11862912D01*
X17791251Y-11862912D02*
X17791251Y-11786722D01*
X17791251Y-11786722D02*
X17800775Y-11767674D01*
X17800775Y-11767674D02*
X17819823Y-11758150D01*
X17819823Y-11758150D02*
X17857918Y-11758150D01*
X17857918Y-11758150D02*
X17876965Y-11767674D01*
X17876965Y-11767674D02*
X17886489Y-11786722D01*
X17886489Y-11786722D02*
X17886489Y-11805769D01*
X17886489Y-11805769D02*
X17791251Y-11824817D01*
X17962680Y-11881960D02*
X17981727Y-11891484D01*
X17981727Y-11891484D02*
X18019823Y-11891484D01*
X18019823Y-11891484D02*
X18038870Y-11881960D01*
X18038870Y-11881960D02*
X18048394Y-11862912D01*
X18048394Y-11862912D02*
X18048394Y-11853388D01*
X18048394Y-11853388D02*
X18038870Y-11834341D01*
X18038870Y-11834341D02*
X18019823Y-11824817D01*
X18019823Y-11824817D02*
X17991251Y-11824817D01*
X17991251Y-11824817D02*
X17972204Y-11815293D01*
X17972204Y-11815293D02*
X17962680Y-11796246D01*
X17962680Y-11796246D02*
X17962680Y-11786722D01*
X17962680Y-11786722D02*
X17972204Y-11767674D01*
X17972204Y-11767674D02*
X17991251Y-11758150D01*
X17991251Y-11758150D02*
X18019823Y-11758150D01*
X18019823Y-11758150D02*
X18038870Y-11767674D01*
X18115061Y-11967674D02*
X18124585Y-11958150D01*
X18124585Y-11958150D02*
X18143632Y-11929579D01*
X18143632Y-11929579D02*
X18153156Y-11910531D01*
X18153156Y-11910531D02*
X18162680Y-11881960D01*
X18162680Y-11881960D02*
X18172204Y-11834341D01*
X18172204Y-11834341D02*
X18172204Y-11796246D01*
X18172204Y-11796246D02*
X18162680Y-11748627D01*
X18162680Y-11748627D02*
X18153156Y-11720055D01*
X18153156Y-11720055D02*
X18143632Y-11701008D01*
X18143632Y-11701008D02*
X18124585Y-11672436D01*
X18124585Y-11672436D02*
X18115061Y-11662912D01*
X18476966Y-11967674D02*
X18467442Y-11958150D01*
X18467442Y-11958150D02*
X18448394Y-11929579D01*
X18448394Y-11929579D02*
X18438870Y-11910531D01*
X18438870Y-11910531D02*
X18429346Y-11881960D01*
X18429346Y-11881960D02*
X18419823Y-11834341D01*
X18419823Y-11834341D02*
X18419823Y-11796246D01*
X18419823Y-11796246D02*
X18429346Y-11748627D01*
X18429346Y-11748627D02*
X18438870Y-11720055D01*
X18438870Y-11720055D02*
X18448394Y-11701008D01*
X18448394Y-11701008D02*
X18467442Y-11672436D01*
X18467442Y-11672436D02*
X18476966Y-11662912D01*
X18553156Y-11758150D02*
X18553156Y-11891484D01*
X18553156Y-11777198D02*
X18562680Y-11767674D01*
X18562680Y-11767674D02*
X18581727Y-11758150D01*
X18581727Y-11758150D02*
X18610299Y-11758150D01*
X18610299Y-11758150D02*
X18629346Y-11767674D01*
X18629346Y-11767674D02*
X18638870Y-11786722D01*
X18638870Y-11786722D02*
X18638870Y-11891484D01*
X18762680Y-11891484D02*
X18743632Y-11881960D01*
X18743632Y-11881960D02*
X18734108Y-11872436D01*
X18734108Y-11872436D02*
X18724585Y-11853388D01*
X18724585Y-11853388D02*
X18724585Y-11796246D01*
X18724585Y-11796246D02*
X18734108Y-11777198D01*
X18734108Y-11777198D02*
X18743632Y-11767674D01*
X18743632Y-11767674D02*
X18762680Y-11758150D01*
X18762680Y-11758150D02*
X18791251Y-11758150D01*
X18791251Y-11758150D02*
X18810299Y-11767674D01*
X18810299Y-11767674D02*
X18819823Y-11777198D01*
X18819823Y-11777198D02*
X18829346Y-11796246D01*
X18829346Y-11796246D02*
X18829346Y-11853388D01*
X18829346Y-11853388D02*
X18819823Y-11872436D01*
X18819823Y-11872436D02*
X18810299Y-11881960D01*
X18810299Y-11881960D02*
X18791251Y-11891484D01*
X18791251Y-11891484D02*
X18762680Y-11891484D01*
X18886489Y-11758150D02*
X18962680Y-11758150D01*
X18915061Y-11691484D02*
X18915061Y-11862912D01*
X18915061Y-11862912D02*
X18924585Y-11881960D01*
X18924585Y-11881960D02*
X18943632Y-11891484D01*
X18943632Y-11891484D02*
X18962680Y-11891484D01*
X19181727Y-11758150D02*
X19181727Y-11958150D01*
X19181727Y-11767674D02*
X19200775Y-11758150D01*
X19200775Y-11758150D02*
X19238870Y-11758150D01*
X19238870Y-11758150D02*
X19257918Y-11767674D01*
X19257918Y-11767674D02*
X19267442Y-11777198D01*
X19267442Y-11777198D02*
X19276966Y-11796246D01*
X19276966Y-11796246D02*
X19276966Y-11853388D01*
X19276966Y-11853388D02*
X19267442Y-11872436D01*
X19267442Y-11872436D02*
X19257918Y-11881960D01*
X19257918Y-11881960D02*
X19238870Y-11891484D01*
X19238870Y-11891484D02*
X19200775Y-11891484D01*
X19200775Y-11891484D02*
X19181727Y-11881960D01*
X19391251Y-11891484D02*
X19372204Y-11881960D01*
X19372204Y-11881960D02*
X19362680Y-11862912D01*
X19362680Y-11862912D02*
X19362680Y-11691484D01*
X19553156Y-11891484D02*
X19553156Y-11786722D01*
X19553156Y-11786722D02*
X19543632Y-11767674D01*
X19543632Y-11767674D02*
X19524585Y-11758150D01*
X19524585Y-11758150D02*
X19486489Y-11758150D01*
X19486489Y-11758150D02*
X19467442Y-11767674D01*
X19553156Y-11881960D02*
X19534108Y-11891484D01*
X19534108Y-11891484D02*
X19486489Y-11891484D01*
X19486489Y-11891484D02*
X19467442Y-11881960D01*
X19467442Y-11881960D02*
X19457918Y-11862912D01*
X19457918Y-11862912D02*
X19457918Y-11843865D01*
X19457918Y-11843865D02*
X19467442Y-11824817D01*
X19467442Y-11824817D02*
X19486489Y-11815293D01*
X19486489Y-11815293D02*
X19534108Y-11815293D01*
X19534108Y-11815293D02*
X19553156Y-11805769D01*
X19619823Y-11758150D02*
X19696013Y-11758150D01*
X19648394Y-11691484D02*
X19648394Y-11862912D01*
X19648394Y-11862912D02*
X19657918Y-11881960D01*
X19657918Y-11881960D02*
X19676966Y-11891484D01*
X19676966Y-11891484D02*
X19696013Y-11891484D01*
X19838870Y-11881960D02*
X19819823Y-11891484D01*
X19819823Y-11891484D02*
X19781727Y-11891484D01*
X19781727Y-11891484D02*
X19762680Y-11881960D01*
X19762680Y-11881960D02*
X19753156Y-11862912D01*
X19753156Y-11862912D02*
X19753156Y-11786722D01*
X19753156Y-11786722D02*
X19762680Y-11767674D01*
X19762680Y-11767674D02*
X19781727Y-11758150D01*
X19781727Y-11758150D02*
X19819823Y-11758150D01*
X19819823Y-11758150D02*
X19838870Y-11767674D01*
X19838870Y-11767674D02*
X19848394Y-11786722D01*
X19848394Y-11786722D02*
X19848394Y-11805769D01*
X19848394Y-11805769D02*
X19753156Y-11824817D01*
X20019823Y-11891484D02*
X20019823Y-11691484D01*
X20019823Y-11881960D02*
X20000775Y-11891484D01*
X20000775Y-11891484D02*
X19962680Y-11891484D01*
X19962680Y-11891484D02*
X19943632Y-11881960D01*
X19943632Y-11881960D02*
X19934108Y-11872436D01*
X19934108Y-11872436D02*
X19924585Y-11853388D01*
X19924585Y-11853388D02*
X19924585Y-11796246D01*
X19924585Y-11796246D02*
X19934108Y-11777198D01*
X19934108Y-11777198D02*
X19943632Y-11767674D01*
X19943632Y-11767674D02*
X19962680Y-11758150D01*
X19962680Y-11758150D02*
X20000775Y-11758150D01*
X20000775Y-11758150D02*
X20019823Y-11767674D01*
X20096013Y-11967674D02*
X20105537Y-11958150D01*
X20105537Y-11958150D02*
X20124585Y-11929579D01*
X20124585Y-11929579D02*
X20134108Y-11910531D01*
X20134108Y-11910531D02*
X20143632Y-11881960D01*
X20143632Y-11881960D02*
X20153156Y-11834341D01*
X20153156Y-11834341D02*
X20153156Y-11796246D01*
X20153156Y-11796246D02*
X20143632Y-11748627D01*
X20143632Y-11748627D02*
X20134108Y-11720055D01*
X20134108Y-11720055D02*
X20124585Y-11701008D01*
X20124585Y-11701008D02*
X20105537Y-11672436D01*
X20105537Y-11672436D02*
X20096013Y-11662912D01*
X13339998Y-12064000D02*
G75*
G02*
X13139998Y-12064000I-100000J0D01*
G01*
X13139998Y-12064000D02*
G75*
G02*
X13339998Y-12064000I100000J0D01*
G01*
X13591251Y-11974531D02*
X13600774Y-11965008D01*
X13600774Y-11965008D02*
X13619822Y-11955484D01*
X13619822Y-11955484D02*
X13667441Y-11955484D01*
X13667441Y-11955484D02*
X13686489Y-11965008D01*
X13686489Y-11965008D02*
X13696013Y-11974531D01*
X13696013Y-11974531D02*
X13705536Y-11993579D01*
X13705536Y-11993579D02*
X13705536Y-12012627D01*
X13705536Y-12012627D02*
X13696013Y-12041198D01*
X13696013Y-12041198D02*
X13581727Y-12155484D01*
X13581727Y-12155484D02*
X13705536Y-12155484D01*
X13791251Y-12136436D02*
X13800774Y-12145960D01*
X13800774Y-12145960D02*
X13791251Y-12155484D01*
X13791251Y-12155484D02*
X13781727Y-12145960D01*
X13781727Y-12145960D02*
X13791251Y-12136436D01*
X13791251Y-12136436D02*
X13791251Y-12155484D01*
X13876965Y-11974531D02*
X13886489Y-11965008D01*
X13886489Y-11965008D02*
X13905536Y-11955484D01*
X13905536Y-11955484D02*
X13953155Y-11955484D01*
X13953155Y-11955484D02*
X13972203Y-11965008D01*
X13972203Y-11965008D02*
X13981727Y-11974531D01*
X13981727Y-11974531D02*
X13991251Y-11993579D01*
X13991251Y-11993579D02*
X13991251Y-12012627D01*
X13991251Y-12012627D02*
X13981727Y-12041198D01*
X13981727Y-12041198D02*
X13867441Y-12155484D01*
X13867441Y-12155484D02*
X13991251Y-12155484D01*
X14115060Y-11955484D02*
X14134108Y-11955484D01*
X14134108Y-11955484D02*
X14153155Y-11965008D01*
X14153155Y-11965008D02*
X14162679Y-11974531D01*
X14162679Y-11974531D02*
X14172203Y-11993579D01*
X14172203Y-11993579D02*
X14181727Y-12031674D01*
X14181727Y-12031674D02*
X14181727Y-12079293D01*
X14181727Y-12079293D02*
X14172203Y-12117388D01*
X14172203Y-12117388D02*
X14162679Y-12136436D01*
X14162679Y-12136436D02*
X14153155Y-12145960D01*
X14153155Y-12145960D02*
X14134108Y-12155484D01*
X14134108Y-12155484D02*
X14115060Y-12155484D01*
X14115060Y-12155484D02*
X14096013Y-12145960D01*
X14096013Y-12145960D02*
X14086489Y-12136436D01*
X14086489Y-12136436D02*
X14076965Y-12117388D01*
X14076965Y-12117388D02*
X14067441Y-12079293D01*
X14067441Y-12079293D02*
X14067441Y-12031674D01*
X14067441Y-12031674D02*
X14076965Y-11993579D01*
X14076965Y-11993579D02*
X14086489Y-11974531D01*
X14086489Y-11974531D02*
X14096013Y-11965008D01*
X14096013Y-11965008D02*
X14115060Y-11955484D01*
X14305536Y-11955484D02*
X14324584Y-11955484D01*
X14324584Y-11955484D02*
X14343632Y-11965008D01*
X14343632Y-11965008D02*
X14353155Y-11974531D01*
X14353155Y-11974531D02*
X14362679Y-11993579D01*
X14362679Y-11993579D02*
X14372203Y-12031674D01*
X14372203Y-12031674D02*
X14372203Y-12079293D01*
X14372203Y-12079293D02*
X14362679Y-12117388D01*
X14362679Y-12117388D02*
X14353155Y-12136436D01*
X14353155Y-12136436D02*
X14343632Y-12145960D01*
X14343632Y-12145960D02*
X14324584Y-12155484D01*
X14324584Y-12155484D02*
X14305536Y-12155484D01*
X14305536Y-12155484D02*
X14286489Y-12145960D01*
X14286489Y-12145960D02*
X14276965Y-12136436D01*
X14276965Y-12136436D02*
X14267441Y-12117388D01*
X14267441Y-12117388D02*
X14257917Y-12079293D01*
X14257917Y-12079293D02*
X14257917Y-12031674D01*
X14257917Y-12031674D02*
X14267441Y-11993579D01*
X14267441Y-11993579D02*
X14276965Y-11974531D01*
X14276965Y-11974531D02*
X14286489Y-11965008D01*
X14286489Y-11965008D02*
X14305536Y-11955484D01*
X14457917Y-12155484D02*
X14457917Y-12022150D01*
X14457917Y-12041198D02*
X14467441Y-12031674D01*
X14467441Y-12031674D02*
X14486489Y-12022150D01*
X14486489Y-12022150D02*
X14515060Y-12022150D01*
X14515060Y-12022150D02*
X14534108Y-12031674D01*
X14534108Y-12031674D02*
X14543632Y-12050722D01*
X14543632Y-12050722D02*
X14543632Y-12155484D01*
X14543632Y-12050722D02*
X14553155Y-12031674D01*
X14553155Y-12031674D02*
X14572203Y-12022150D01*
X14572203Y-12022150D02*
X14600774Y-12022150D01*
X14600774Y-12022150D02*
X14619822Y-12031674D01*
X14619822Y-12031674D02*
X14629346Y-12050722D01*
X14629346Y-12050722D02*
X14629346Y-12155484D01*
X14724584Y-12155484D02*
X14724584Y-12022150D01*
X14724584Y-12041198D02*
X14734108Y-12031674D01*
X14734108Y-12031674D02*
X14753155Y-12022150D01*
X14753155Y-12022150D02*
X14781727Y-12022150D01*
X14781727Y-12022150D02*
X14800775Y-12031674D01*
X14800775Y-12031674D02*
X14810298Y-12050722D01*
X14810298Y-12050722D02*
X14810298Y-12155484D01*
X14810298Y-12050722D02*
X14819822Y-12031674D01*
X14819822Y-12031674D02*
X14838870Y-12022150D01*
X14838870Y-12022150D02*
X14867441Y-12022150D01*
X14867441Y-12022150D02*
X14886489Y-12031674D01*
X14886489Y-12031674D02*
X14896013Y-12050722D01*
X14896013Y-12050722D02*
X14896013Y-12155484D01*
X15286489Y-11945960D02*
X15115060Y-12203103D01*
X15543632Y-11955484D02*
X15562679Y-11955484D01*
X15562679Y-11955484D02*
X15581727Y-11965008D01*
X15581727Y-11965008D02*
X15591251Y-11974531D01*
X15591251Y-11974531D02*
X15600775Y-11993579D01*
X15600775Y-11993579D02*
X15610298Y-12031674D01*
X15610298Y-12031674D02*
X15610298Y-12079293D01*
X15610298Y-12079293D02*
X15600775Y-12117388D01*
X15600775Y-12117388D02*
X15591251Y-12136436D01*
X15591251Y-12136436D02*
X15581727Y-12145960D01*
X15581727Y-12145960D02*
X15562679Y-12155484D01*
X15562679Y-12155484D02*
X15543632Y-12155484D01*
X15543632Y-12155484D02*
X15524584Y-12145960D01*
X15524584Y-12145960D02*
X15515060Y-12136436D01*
X15515060Y-12136436D02*
X15505537Y-12117388D01*
X15505537Y-12117388D02*
X15496013Y-12079293D01*
X15496013Y-12079293D02*
X15496013Y-12031674D01*
X15496013Y-12031674D02*
X15505537Y-11993579D01*
X15505537Y-11993579D02*
X15515060Y-11974531D01*
X15515060Y-11974531D02*
X15524584Y-11965008D01*
X15524584Y-11965008D02*
X15543632Y-11955484D01*
X15696013Y-12136436D02*
X15705537Y-12145960D01*
X15705537Y-12145960D02*
X15696013Y-12155484D01*
X15696013Y-12155484D02*
X15686489Y-12145960D01*
X15686489Y-12145960D02*
X15696013Y-12136436D01*
X15696013Y-12136436D02*
X15696013Y-12155484D01*
X15829346Y-11955484D02*
X15848394Y-11955484D01*
X15848394Y-11955484D02*
X15867441Y-11965008D01*
X15867441Y-11965008D02*
X15876965Y-11974531D01*
X15876965Y-11974531D02*
X15886489Y-11993579D01*
X15886489Y-11993579D02*
X15896013Y-12031674D01*
X15896013Y-12031674D02*
X15896013Y-12079293D01*
X15896013Y-12079293D02*
X15886489Y-12117388D01*
X15886489Y-12117388D02*
X15876965Y-12136436D01*
X15876965Y-12136436D02*
X15867441Y-12145960D01*
X15867441Y-12145960D02*
X15848394Y-12155484D01*
X15848394Y-12155484D02*
X15829346Y-12155484D01*
X15829346Y-12155484D02*
X15810298Y-12145960D01*
X15810298Y-12145960D02*
X15800775Y-12136436D01*
X15800775Y-12136436D02*
X15791251Y-12117388D01*
X15791251Y-12117388D02*
X15781727Y-12079293D01*
X15781727Y-12079293D02*
X15781727Y-12031674D01*
X15781727Y-12031674D02*
X15791251Y-11993579D01*
X15791251Y-11993579D02*
X15800775Y-11974531D01*
X15800775Y-11974531D02*
X15810298Y-11965008D01*
X15810298Y-11965008D02*
X15829346Y-11955484D01*
X16010298Y-12041198D02*
X15991251Y-12031674D01*
X15991251Y-12031674D02*
X15981727Y-12022150D01*
X15981727Y-12022150D02*
X15972203Y-12003103D01*
X15972203Y-12003103D02*
X15972203Y-11993579D01*
X15972203Y-11993579D02*
X15981727Y-11974531D01*
X15981727Y-11974531D02*
X15991251Y-11965008D01*
X15991251Y-11965008D02*
X16010298Y-11955484D01*
X16010298Y-11955484D02*
X16048394Y-11955484D01*
X16048394Y-11955484D02*
X16067441Y-11965008D01*
X16067441Y-11965008D02*
X16076965Y-11974531D01*
X16076965Y-11974531D02*
X16086489Y-11993579D01*
X16086489Y-11993579D02*
X16086489Y-12003103D01*
X16086489Y-12003103D02*
X16076965Y-12022150D01*
X16076965Y-12022150D02*
X16067441Y-12031674D01*
X16067441Y-12031674D02*
X16048394Y-12041198D01*
X16048394Y-12041198D02*
X16010298Y-12041198D01*
X16010298Y-12041198D02*
X15991251Y-12050722D01*
X15991251Y-12050722D02*
X15981727Y-12060246D01*
X15981727Y-12060246D02*
X15972203Y-12079293D01*
X15972203Y-12079293D02*
X15972203Y-12117388D01*
X15972203Y-12117388D02*
X15981727Y-12136436D01*
X15981727Y-12136436D02*
X15991251Y-12145960D01*
X15991251Y-12145960D02*
X16010298Y-12155484D01*
X16010298Y-12155484D02*
X16048394Y-12155484D01*
X16048394Y-12155484D02*
X16067441Y-12145960D01*
X16067441Y-12145960D02*
X16076965Y-12136436D01*
X16076965Y-12136436D02*
X16086489Y-12117388D01*
X16086489Y-12117388D02*
X16086489Y-12079293D01*
X16086489Y-12079293D02*
X16076965Y-12060246D01*
X16076965Y-12060246D02*
X16067441Y-12050722D01*
X16067441Y-12050722D02*
X16048394Y-12041198D01*
X16257918Y-11955484D02*
X16219822Y-11955484D01*
X16219822Y-11955484D02*
X16200775Y-11965008D01*
X16200775Y-11965008D02*
X16191251Y-11974531D01*
X16191251Y-11974531D02*
X16172203Y-12003103D01*
X16172203Y-12003103D02*
X16162679Y-12041198D01*
X16162679Y-12041198D02*
X16162679Y-12117388D01*
X16162679Y-12117388D02*
X16172203Y-12136436D01*
X16172203Y-12136436D02*
X16181727Y-12145960D01*
X16181727Y-12145960D02*
X16200775Y-12155484D01*
X16200775Y-12155484D02*
X16238870Y-12155484D01*
X16238870Y-12155484D02*
X16257918Y-12145960D01*
X16257918Y-12145960D02*
X16267441Y-12136436D01*
X16267441Y-12136436D02*
X16276965Y-12117388D01*
X16276965Y-12117388D02*
X16276965Y-12069769D01*
X16276965Y-12069769D02*
X16267441Y-12050722D01*
X16267441Y-12050722D02*
X16257918Y-12041198D01*
X16257918Y-12041198D02*
X16238870Y-12031674D01*
X16238870Y-12031674D02*
X16200775Y-12031674D01*
X16200775Y-12031674D02*
X16181727Y-12041198D01*
X16181727Y-12041198D02*
X16172203Y-12050722D01*
X16172203Y-12050722D02*
X16162679Y-12069769D01*
X16448394Y-11955484D02*
X16410298Y-11955484D01*
X16410298Y-11955484D02*
X16391251Y-11965008D01*
X16391251Y-11965008D02*
X16381727Y-11974531D01*
X16381727Y-11974531D02*
X16362679Y-12003103D01*
X16362679Y-12003103D02*
X16353156Y-12041198D01*
X16353156Y-12041198D02*
X16353156Y-12117388D01*
X16353156Y-12117388D02*
X16362679Y-12136436D01*
X16362679Y-12136436D02*
X16372203Y-12145960D01*
X16372203Y-12145960D02*
X16391251Y-12155484D01*
X16391251Y-12155484D02*
X16429346Y-12155484D01*
X16429346Y-12155484D02*
X16448394Y-12145960D01*
X16448394Y-12145960D02*
X16457918Y-12136436D01*
X16457918Y-12136436D02*
X16467441Y-12117388D01*
X16467441Y-12117388D02*
X16467441Y-12069769D01*
X16467441Y-12069769D02*
X16457918Y-12050722D01*
X16457918Y-12050722D02*
X16448394Y-12041198D01*
X16448394Y-12041198D02*
X16429346Y-12031674D01*
X16429346Y-12031674D02*
X16391251Y-12031674D01*
X16391251Y-12031674D02*
X16372203Y-12041198D01*
X16372203Y-12041198D02*
X16362679Y-12050722D01*
X16362679Y-12050722D02*
X16353156Y-12069769D01*
X16543632Y-11955484D02*
X16543632Y-11993579D01*
X16619822Y-11955484D02*
X16619822Y-11993579D01*
X16915061Y-12231674D02*
X16905537Y-12222150D01*
X16905537Y-12222150D02*
X16886489Y-12193579D01*
X16886489Y-12193579D02*
X16876965Y-12174531D01*
X16876965Y-12174531D02*
X16867442Y-12145960D01*
X16867442Y-12145960D02*
X16857918Y-12098341D01*
X16857918Y-12098341D02*
X16857918Y-12060246D01*
X16857918Y-12060246D02*
X16867442Y-12012627D01*
X16867442Y-12012627D02*
X16876965Y-11984055D01*
X16876965Y-11984055D02*
X16886489Y-11965008D01*
X16886489Y-11965008D02*
X16905537Y-11936436D01*
X16905537Y-11936436D02*
X16915061Y-11926912D01*
X17076965Y-12022150D02*
X17076965Y-12155484D01*
X17029346Y-11945960D02*
X16981727Y-12088817D01*
X16981727Y-12088817D02*
X17105537Y-12088817D01*
X17334108Y-12155484D02*
X17334108Y-11955484D01*
X17419823Y-12155484D02*
X17419823Y-12050722D01*
X17419823Y-12050722D02*
X17410299Y-12031674D01*
X17410299Y-12031674D02*
X17391251Y-12022150D01*
X17391251Y-12022150D02*
X17362680Y-12022150D01*
X17362680Y-12022150D02*
X17343632Y-12031674D01*
X17343632Y-12031674D02*
X17334108Y-12041198D01*
X17543632Y-12155484D02*
X17524584Y-12145960D01*
X17524584Y-12145960D02*
X17515061Y-12136436D01*
X17515061Y-12136436D02*
X17505537Y-12117388D01*
X17505537Y-12117388D02*
X17505537Y-12060246D01*
X17505537Y-12060246D02*
X17515061Y-12041198D01*
X17515061Y-12041198D02*
X17524584Y-12031674D01*
X17524584Y-12031674D02*
X17543632Y-12022150D01*
X17543632Y-12022150D02*
X17572204Y-12022150D01*
X17572204Y-12022150D02*
X17591251Y-12031674D01*
X17591251Y-12031674D02*
X17600775Y-12041198D01*
X17600775Y-12041198D02*
X17610299Y-12060246D01*
X17610299Y-12060246D02*
X17610299Y-12117388D01*
X17610299Y-12117388D02*
X17600775Y-12136436D01*
X17600775Y-12136436D02*
X17591251Y-12145960D01*
X17591251Y-12145960D02*
X17572204Y-12155484D01*
X17572204Y-12155484D02*
X17543632Y-12155484D01*
X17724584Y-12155484D02*
X17705537Y-12145960D01*
X17705537Y-12145960D02*
X17696013Y-12126912D01*
X17696013Y-12126912D02*
X17696013Y-11955484D01*
X17876965Y-12145960D02*
X17857918Y-12155484D01*
X17857918Y-12155484D02*
X17819823Y-12155484D01*
X17819823Y-12155484D02*
X17800775Y-12145960D01*
X17800775Y-12145960D02*
X17791251Y-12126912D01*
X17791251Y-12126912D02*
X17791251Y-12050722D01*
X17791251Y-12050722D02*
X17800775Y-12031674D01*
X17800775Y-12031674D02*
X17819823Y-12022150D01*
X17819823Y-12022150D02*
X17857918Y-12022150D01*
X17857918Y-12022150D02*
X17876965Y-12031674D01*
X17876965Y-12031674D02*
X17886489Y-12050722D01*
X17886489Y-12050722D02*
X17886489Y-12069769D01*
X17886489Y-12069769D02*
X17791251Y-12088817D01*
X17962680Y-12145960D02*
X17981727Y-12155484D01*
X17981727Y-12155484D02*
X18019823Y-12155484D01*
X18019823Y-12155484D02*
X18038870Y-12145960D01*
X18038870Y-12145960D02*
X18048394Y-12126912D01*
X18048394Y-12126912D02*
X18048394Y-12117388D01*
X18048394Y-12117388D02*
X18038870Y-12098341D01*
X18038870Y-12098341D02*
X18019823Y-12088817D01*
X18019823Y-12088817D02*
X17991251Y-12088817D01*
X17991251Y-12088817D02*
X17972204Y-12079293D01*
X17972204Y-12079293D02*
X17962680Y-12060246D01*
X17962680Y-12060246D02*
X17962680Y-12050722D01*
X17962680Y-12050722D02*
X17972204Y-12031674D01*
X17972204Y-12031674D02*
X17991251Y-12022150D01*
X17991251Y-12022150D02*
X18019823Y-12022150D01*
X18019823Y-12022150D02*
X18038870Y-12031674D01*
X18115061Y-12231674D02*
X18124585Y-12222150D01*
X18124585Y-12222150D02*
X18143632Y-12193579D01*
X18143632Y-12193579D02*
X18153156Y-12174531D01*
X18153156Y-12174531D02*
X18162680Y-12145960D01*
X18162680Y-12145960D02*
X18172204Y-12098341D01*
X18172204Y-12098341D02*
X18172204Y-12060246D01*
X18172204Y-12060246D02*
X18162680Y-12012627D01*
X18162680Y-12012627D02*
X18153156Y-11984055D01*
X18153156Y-11984055D02*
X18143632Y-11965008D01*
X18143632Y-11965008D02*
X18124585Y-11936436D01*
X18124585Y-11936436D02*
X18115061Y-11926912D01*
X18476966Y-12231674D02*
X18467442Y-12222150D01*
X18467442Y-12222150D02*
X18448394Y-12193579D01*
X18448394Y-12193579D02*
X18438870Y-12174531D01*
X18438870Y-12174531D02*
X18429346Y-12145960D01*
X18429346Y-12145960D02*
X18419823Y-12098341D01*
X18419823Y-12098341D02*
X18419823Y-12060246D01*
X18419823Y-12060246D02*
X18429346Y-12012627D01*
X18429346Y-12012627D02*
X18438870Y-11984055D01*
X18438870Y-11984055D02*
X18448394Y-11965008D01*
X18448394Y-11965008D02*
X18467442Y-11936436D01*
X18467442Y-11936436D02*
X18476966Y-11926912D01*
X18553156Y-12022150D02*
X18553156Y-12155484D01*
X18553156Y-12041198D02*
X18562680Y-12031674D01*
X18562680Y-12031674D02*
X18581727Y-12022150D01*
X18581727Y-12022150D02*
X18610299Y-12022150D01*
X18610299Y-12022150D02*
X18629346Y-12031674D01*
X18629346Y-12031674D02*
X18638870Y-12050722D01*
X18638870Y-12050722D02*
X18638870Y-12155484D01*
X18762680Y-12155484D02*
X18743632Y-12145960D01*
X18743632Y-12145960D02*
X18734108Y-12136436D01*
X18734108Y-12136436D02*
X18724585Y-12117388D01*
X18724585Y-12117388D02*
X18724585Y-12060246D01*
X18724585Y-12060246D02*
X18734108Y-12041198D01*
X18734108Y-12041198D02*
X18743632Y-12031674D01*
X18743632Y-12031674D02*
X18762680Y-12022150D01*
X18762680Y-12022150D02*
X18791251Y-12022150D01*
X18791251Y-12022150D02*
X18810299Y-12031674D01*
X18810299Y-12031674D02*
X18819823Y-12041198D01*
X18819823Y-12041198D02*
X18829346Y-12060246D01*
X18829346Y-12060246D02*
X18829346Y-12117388D01*
X18829346Y-12117388D02*
X18819823Y-12136436D01*
X18819823Y-12136436D02*
X18810299Y-12145960D01*
X18810299Y-12145960D02*
X18791251Y-12155484D01*
X18791251Y-12155484D02*
X18762680Y-12155484D01*
X18886489Y-12022150D02*
X18962680Y-12022150D01*
X18915061Y-11955484D02*
X18915061Y-12126912D01*
X18915061Y-12126912D02*
X18924585Y-12145960D01*
X18924585Y-12145960D02*
X18943632Y-12155484D01*
X18943632Y-12155484D02*
X18962680Y-12155484D01*
X19181727Y-12022150D02*
X19181727Y-12222150D01*
X19181727Y-12031674D02*
X19200775Y-12022150D01*
X19200775Y-12022150D02*
X19238870Y-12022150D01*
X19238870Y-12022150D02*
X19257918Y-12031674D01*
X19257918Y-12031674D02*
X19267442Y-12041198D01*
X19267442Y-12041198D02*
X19276966Y-12060246D01*
X19276966Y-12060246D02*
X19276966Y-12117388D01*
X19276966Y-12117388D02*
X19267442Y-12136436D01*
X19267442Y-12136436D02*
X19257918Y-12145960D01*
X19257918Y-12145960D02*
X19238870Y-12155484D01*
X19238870Y-12155484D02*
X19200775Y-12155484D01*
X19200775Y-12155484D02*
X19181727Y-12145960D01*
X19391251Y-12155484D02*
X19372204Y-12145960D01*
X19372204Y-12145960D02*
X19362680Y-12126912D01*
X19362680Y-12126912D02*
X19362680Y-11955484D01*
X19553156Y-12155484D02*
X19553156Y-12050722D01*
X19553156Y-12050722D02*
X19543632Y-12031674D01*
X19543632Y-12031674D02*
X19524585Y-12022150D01*
X19524585Y-12022150D02*
X19486489Y-12022150D01*
X19486489Y-12022150D02*
X19467442Y-12031674D01*
X19553156Y-12145960D02*
X19534108Y-12155484D01*
X19534108Y-12155484D02*
X19486489Y-12155484D01*
X19486489Y-12155484D02*
X19467442Y-12145960D01*
X19467442Y-12145960D02*
X19457918Y-12126912D01*
X19457918Y-12126912D02*
X19457918Y-12107865D01*
X19457918Y-12107865D02*
X19467442Y-12088817D01*
X19467442Y-12088817D02*
X19486489Y-12079293D01*
X19486489Y-12079293D02*
X19534108Y-12079293D01*
X19534108Y-12079293D02*
X19553156Y-12069769D01*
X19619823Y-12022150D02*
X19696013Y-12022150D01*
X19648394Y-11955484D02*
X19648394Y-12126912D01*
X19648394Y-12126912D02*
X19657918Y-12145960D01*
X19657918Y-12145960D02*
X19676966Y-12155484D01*
X19676966Y-12155484D02*
X19696013Y-12155484D01*
X19838870Y-12145960D02*
X19819823Y-12155484D01*
X19819823Y-12155484D02*
X19781727Y-12155484D01*
X19781727Y-12155484D02*
X19762680Y-12145960D01*
X19762680Y-12145960D02*
X19753156Y-12126912D01*
X19753156Y-12126912D02*
X19753156Y-12050722D01*
X19753156Y-12050722D02*
X19762680Y-12031674D01*
X19762680Y-12031674D02*
X19781727Y-12022150D01*
X19781727Y-12022150D02*
X19819823Y-12022150D01*
X19819823Y-12022150D02*
X19838870Y-12031674D01*
X19838870Y-12031674D02*
X19848394Y-12050722D01*
X19848394Y-12050722D02*
X19848394Y-12069769D01*
X19848394Y-12069769D02*
X19753156Y-12088817D01*
X20019823Y-12155484D02*
X20019823Y-11955484D01*
X20019823Y-12145960D02*
X20000775Y-12155484D01*
X20000775Y-12155484D02*
X19962680Y-12155484D01*
X19962680Y-12155484D02*
X19943632Y-12145960D01*
X19943632Y-12145960D02*
X19934108Y-12136436D01*
X19934108Y-12136436D02*
X19924585Y-12117388D01*
X19924585Y-12117388D02*
X19924585Y-12060246D01*
X19924585Y-12060246D02*
X19934108Y-12041198D01*
X19934108Y-12041198D02*
X19943632Y-12031674D01*
X19943632Y-12031674D02*
X19962680Y-12022150D01*
X19962680Y-12022150D02*
X20000775Y-12022150D01*
X20000775Y-12022150D02*
X20019823Y-12031674D01*
X20096013Y-12231674D02*
X20105537Y-12222150D01*
X20105537Y-12222150D02*
X20124585Y-12193579D01*
X20124585Y-12193579D02*
X20134108Y-12174531D01*
X20134108Y-12174531D02*
X20143632Y-12145960D01*
X20143632Y-12145960D02*
X20153156Y-12098341D01*
X20153156Y-12098341D02*
X20153156Y-12060246D01*
X20153156Y-12060246D02*
X20143632Y-12012627D01*
X20143632Y-12012627D02*
X20134108Y-11984055D01*
X20134108Y-11984055D02*
X20124585Y-11965008D01*
X20124585Y-11965008D02*
X20105537Y-11936436D01*
X20105537Y-11936436D02*
X20096013Y-11926912D01*
M02*
