%TF.GenerationSoftware,KiCad,Pcbnew,8.0.0*%
%TF.CreationDate,2026-01-20T23:42:32+05:30*%
%TF.ProjectId,PICKit_Clone_KiCAD,5049434b-6974-45f4-936c-6f6e655f4b69,1.0*%
%TF.SameCoordinates,Original*%
%TF.FileFunction,Copper,L1,Top*%
%TF.FilePolarity,Positive*%
%FSLAX46Y46*%
G04 Gerber Fmt 4.6, Leading zero omitted, Abs format (unit mm)*
G04 Created by KiCad (PCBNEW 8.0.0) date 2026-01-20 23:42:32*
%MOMM*%
%LPD*%
G01*
G04 APERTURE LIST*
G04 Aperture macros list*
%AMRoundRect*
0 Rectangle with rounded corners*
0 $1 Rounding radius*
0 $2 $3 $4 $5 $6 $7 $8 $9 X,Y pos of 4 corners*
0 Add a 4 corners polygon primitive as box body*
4,1,4,$2,$3,$4,$5,$6,$7,$8,$9,$2,$3,0*
0 Add four circle primitives for the rounded corners*
1,1,$1+$1,$2,$3*
1,1,$1+$1,$4,$5*
1,1,$1+$1,$6,$7*
1,1,$1+$1,$8,$9*
0 Add four rect primitives between the rounded corners*
20,1,$1+$1,$2,$3,$4,$5,0*
20,1,$1+$1,$4,$5,$6,$7,0*
20,1,$1+$1,$6,$7,$8,$9,0*
20,1,$1+$1,$8,$9,$2,$3,0*%
G04 Aperture macros list end*
%ADD10C,0.300000*%
%TA.AperFunction,NonConductor*%
%ADD11C,0.300000*%
%TD*%
%TA.AperFunction,NonConductor*%
%ADD12C,0.200000*%
%TD*%
%TA.AperFunction,SMDPad,CuDef*%
%ADD13R,2.100000X1.800000*%
%TD*%
%TA.AperFunction,SMDPad,CuDef*%
%ADD14R,1.000000X1.500000*%
%TD*%
%TA.AperFunction,SMDPad,CuDef*%
%ADD15C,1.000000*%
%TD*%
%TA.AperFunction,SMDPad,CuDef*%
%ADD16RoundRect,0.250000X-0.412500X-0.650000X0.412500X-0.650000X0.412500X0.650000X-0.412500X0.650000X0*%
%TD*%
%TA.AperFunction,SMDPad,CuDef*%
%ADD17RoundRect,0.250001X0.624999X-0.462499X0.624999X0.462499X-0.624999X0.462499X-0.624999X-0.462499X0*%
%TD*%
%TA.AperFunction,SMDPad,CuDef*%
%ADD18RoundRect,0.250000X1.000000X0.650000X-1.000000X0.650000X-1.000000X-0.650000X1.000000X-0.650000X0*%
%TD*%
%TA.AperFunction,SMDPad,CuDef*%
%ADD19RoundRect,0.250000X0.625000X-0.400000X0.625000X0.400000X-0.625000X0.400000X-0.625000X-0.400000X0*%
%TD*%
%TA.AperFunction,SMDPad,CuDef*%
%ADD20RoundRect,0.125000X0.125000X-0.825000X0.125000X0.825000X-0.125000X0.825000X-0.125000X-0.825000X0*%
%TD*%
%TA.AperFunction,SMDPad,CuDef*%
%ADD21RoundRect,0.250000X-0.650000X0.412500X-0.650000X-0.412500X0.650000X-0.412500X0.650000X0.412500X0*%
%TD*%
%TA.AperFunction,SMDPad,CuDef*%
%ADD22RoundRect,0.250000X-0.625000X0.400000X-0.625000X-0.400000X0.625000X-0.400000X0.625000X0.400000X0*%
%TD*%
%TA.AperFunction,SMDPad,CuDef*%
%ADD23RoundRect,0.375000X0.375000X-0.625000X0.375000X0.625000X-0.375000X0.625000X-0.375000X-0.625000X0*%
%TD*%
%TA.AperFunction,SMDPad,CuDef*%
%ADD24RoundRect,0.500000X1.400000X-0.500000X1.400000X0.500000X-1.400000X0.500000X-1.400000X-0.500000X0*%
%TD*%
%TA.AperFunction,SMDPad,CuDef*%
%ADD25R,0.600000X1.240000*%
%TD*%
%TA.AperFunction,SMDPad,CuDef*%
%ADD26R,0.300000X1.240000*%
%TD*%
%TA.AperFunction,ComponentPad*%
%ADD27O,1.000000X1.800000*%
%TD*%
%TA.AperFunction,ComponentPad*%
%ADD28O,1.000000X2.100000*%
%TD*%
%TA.AperFunction,ComponentPad*%
%ADD29R,1.700000X1.700000*%
%TD*%
%TA.AperFunction,ComponentPad*%
%ADD30O,1.700000X1.700000*%
%TD*%
%TA.AperFunction,SMDPad,CuDef*%
%ADD31RoundRect,0.250001X-0.624999X0.462499X-0.624999X-0.462499X0.624999X-0.462499X0.624999X0.462499X0*%
%TD*%
%TA.AperFunction,ViaPad*%
%ADD32C,0.600000*%
%TD*%
%TA.AperFunction,ViaPad*%
%ADD33C,0.400000*%
%TD*%
%TA.AperFunction,Conductor*%
%ADD34C,0.400000*%
%TD*%
%TA.AperFunction,Conductor*%
%ADD35C,0.200000*%
%TD*%
%TA.AperFunction,Conductor*%
%ADD36C,0.300000*%
%TD*%
G04 APERTURE END LIST*
D10*
D11*
X122788328Y-101249998D02*
X122788328Y-100321426D01*
X122788328Y-100321426D02*
X123359757Y-100821426D01*
X123359757Y-100821426D02*
X123359757Y-100607141D01*
X123359757Y-100607141D02*
X123431185Y-100464284D01*
X123431185Y-100464284D02*
X123502614Y-100392855D01*
X123502614Y-100392855D02*
X123645471Y-100321426D01*
X123645471Y-100321426D02*
X124002614Y-100321426D01*
X124002614Y-100321426D02*
X124145471Y-100392855D01*
X124145471Y-100392855D02*
X124216900Y-100464284D01*
X124216900Y-100464284D02*
X124288328Y-100607141D01*
X124288328Y-100607141D02*
X124288328Y-101035712D01*
X124288328Y-101035712D02*
X124216900Y-101178569D01*
X124216900Y-101178569D02*
X124145471Y-101249998D01*
X124288328Y-98892855D02*
X124288328Y-99749998D01*
X124288328Y-99321427D02*
X122788328Y-99321427D01*
X122788328Y-99321427D02*
X123002614Y-99464284D01*
X123002614Y-99464284D02*
X123145471Y-99607141D01*
X123145471Y-99607141D02*
X123216900Y-99749998D01*
X124145471Y-98249999D02*
X124216900Y-98178570D01*
X124216900Y-98178570D02*
X124288328Y-98249999D01*
X124288328Y-98249999D02*
X124216900Y-98321427D01*
X124216900Y-98321427D02*
X124145471Y-98249999D01*
X124145471Y-98249999D02*
X124288328Y-98249999D01*
X122788328Y-96821427D02*
X122788328Y-97535713D01*
X122788328Y-97535713D02*
X123502614Y-97607141D01*
X123502614Y-97607141D02*
X123431185Y-97535713D01*
X123431185Y-97535713D02*
X123359757Y-97392856D01*
X123359757Y-97392856D02*
X123359757Y-97035713D01*
X123359757Y-97035713D02*
X123431185Y-96892856D01*
X123431185Y-96892856D02*
X123502614Y-96821427D01*
X123502614Y-96821427D02*
X123645471Y-96749998D01*
X123645471Y-96749998D02*
X124002614Y-96749998D01*
X124002614Y-96749998D02*
X124145471Y-96821427D01*
X124145471Y-96821427D02*
X124216900Y-96892856D01*
X124216900Y-96892856D02*
X124288328Y-97035713D01*
X124288328Y-97035713D02*
X124288328Y-97392856D01*
X124288328Y-97392856D02*
X124216900Y-97535713D01*
X124216900Y-97535713D02*
X124145471Y-97607141D01*
X122788328Y-95821427D02*
X122788328Y-95678570D01*
X122788328Y-95678570D02*
X122859757Y-95535713D01*
X122859757Y-95535713D02*
X122931185Y-95464285D01*
X122931185Y-95464285D02*
X123074042Y-95392856D01*
X123074042Y-95392856D02*
X123359757Y-95321427D01*
X123359757Y-95321427D02*
X123716900Y-95321427D01*
X123716900Y-95321427D02*
X124002614Y-95392856D01*
X124002614Y-95392856D02*
X124145471Y-95464285D01*
X124145471Y-95464285D02*
X124216900Y-95535713D01*
X124216900Y-95535713D02*
X124288328Y-95678570D01*
X124288328Y-95678570D02*
X124288328Y-95821427D01*
X124288328Y-95821427D02*
X124216900Y-95964285D01*
X124216900Y-95964285D02*
X124145471Y-96035713D01*
X124145471Y-96035713D02*
X124002614Y-96107142D01*
X124002614Y-96107142D02*
X123716900Y-96178570D01*
X123716900Y-96178570D02*
X123359757Y-96178570D01*
X123359757Y-96178570D02*
X123074042Y-96107142D01*
X123074042Y-96107142D02*
X122931185Y-96035713D01*
X122931185Y-96035713D02*
X122859757Y-95964285D01*
X122859757Y-95964285D02*
X122788328Y-95821427D01*
X122788328Y-94392856D02*
X122788328Y-94249999D01*
X122788328Y-94249999D02*
X122859757Y-94107142D01*
X122859757Y-94107142D02*
X122931185Y-94035714D01*
X122931185Y-94035714D02*
X123074042Y-93964285D01*
X123074042Y-93964285D02*
X123359757Y-93892856D01*
X123359757Y-93892856D02*
X123716900Y-93892856D01*
X123716900Y-93892856D02*
X124002614Y-93964285D01*
X124002614Y-93964285D02*
X124145471Y-94035714D01*
X124145471Y-94035714D02*
X124216900Y-94107142D01*
X124216900Y-94107142D02*
X124288328Y-94249999D01*
X124288328Y-94249999D02*
X124288328Y-94392856D01*
X124288328Y-94392856D02*
X124216900Y-94535714D01*
X124216900Y-94535714D02*
X124145471Y-94607142D01*
X124145471Y-94607142D02*
X124002614Y-94678571D01*
X124002614Y-94678571D02*
X123716900Y-94749999D01*
X123716900Y-94749999D02*
X123359757Y-94749999D01*
X123359757Y-94749999D02*
X123074042Y-94678571D01*
X123074042Y-94678571D02*
X122931185Y-94607142D01*
X122931185Y-94607142D02*
X122859757Y-94535714D01*
X122859757Y-94535714D02*
X122788328Y-94392856D01*
X122788328Y-92964285D02*
X122788328Y-92821428D01*
X122788328Y-92821428D02*
X122859757Y-92678571D01*
X122859757Y-92678571D02*
X122931185Y-92607143D01*
X122931185Y-92607143D02*
X123074042Y-92535714D01*
X123074042Y-92535714D02*
X123359757Y-92464285D01*
X123359757Y-92464285D02*
X123716900Y-92464285D01*
X123716900Y-92464285D02*
X124002614Y-92535714D01*
X124002614Y-92535714D02*
X124145471Y-92607143D01*
X124145471Y-92607143D02*
X124216900Y-92678571D01*
X124216900Y-92678571D02*
X124288328Y-92821428D01*
X124288328Y-92821428D02*
X124288328Y-92964285D01*
X124288328Y-92964285D02*
X124216900Y-93107143D01*
X124216900Y-93107143D02*
X124145471Y-93178571D01*
X124145471Y-93178571D02*
X124002614Y-93250000D01*
X124002614Y-93250000D02*
X123716900Y-93321428D01*
X123716900Y-93321428D02*
X123359757Y-93321428D01*
X123359757Y-93321428D02*
X123074042Y-93250000D01*
X123074042Y-93250000D02*
X122931185Y-93178571D01*
X122931185Y-93178571D02*
X122859757Y-93107143D01*
X122859757Y-93107143D02*
X122788328Y-92964285D01*
X124288328Y-90678572D02*
X123288328Y-90678572D01*
X123431185Y-90678572D02*
X123359757Y-90607143D01*
X123359757Y-90607143D02*
X123288328Y-90464286D01*
X123288328Y-90464286D02*
X123288328Y-90250000D01*
X123288328Y-90250000D02*
X123359757Y-90107143D01*
X123359757Y-90107143D02*
X123502614Y-90035715D01*
X123502614Y-90035715D02*
X124288328Y-90035715D01*
X123502614Y-90035715D02*
X123359757Y-89964286D01*
X123359757Y-89964286D02*
X123288328Y-89821429D01*
X123288328Y-89821429D02*
X123288328Y-89607143D01*
X123288328Y-89607143D02*
X123359757Y-89464286D01*
X123359757Y-89464286D02*
X123502614Y-89392857D01*
X123502614Y-89392857D02*
X124288328Y-89392857D01*
X124288328Y-88678572D02*
X123288328Y-88678572D01*
X123431185Y-88678572D02*
X123359757Y-88607143D01*
X123359757Y-88607143D02*
X123288328Y-88464286D01*
X123288328Y-88464286D02*
X123288328Y-88250000D01*
X123288328Y-88250000D02*
X123359757Y-88107143D01*
X123359757Y-88107143D02*
X123502614Y-88035715D01*
X123502614Y-88035715D02*
X124288328Y-88035715D01*
X123502614Y-88035715D02*
X123359757Y-87964286D01*
X123359757Y-87964286D02*
X123288328Y-87821429D01*
X123288328Y-87821429D02*
X123288328Y-87607143D01*
X123288328Y-87607143D02*
X123359757Y-87464286D01*
X123359757Y-87464286D02*
X123502614Y-87392857D01*
X123502614Y-87392857D02*
X124288328Y-87392857D01*
D12*
X133000000Y-110000000D02*
X124823580Y-110000000D01*
X133000000Y-78500000D02*
X124823580Y-78500000D01*
X125410000Y-110000000D02*
X125410000Y-78500000D01*
X125410000Y-110000000D02*
X125410000Y-78500000D01*
X125410000Y-110000000D02*
X124823579Y-108873496D01*
X125410000Y-110000000D02*
X125996421Y-108873496D01*
X125410000Y-78500000D02*
X125996421Y-79626504D01*
X125410000Y-78500000D02*
X124823579Y-79626504D01*
D10*
D11*
X163348328Y-101249998D02*
X163348328Y-100321426D01*
X163348328Y-100321426D02*
X163919757Y-100821426D01*
X163919757Y-100821426D02*
X163919757Y-100607141D01*
X163919757Y-100607141D02*
X163991185Y-100464284D01*
X163991185Y-100464284D02*
X164062614Y-100392855D01*
X164062614Y-100392855D02*
X164205471Y-100321426D01*
X164205471Y-100321426D02*
X164562614Y-100321426D01*
X164562614Y-100321426D02*
X164705471Y-100392855D01*
X164705471Y-100392855D02*
X164776900Y-100464284D01*
X164776900Y-100464284D02*
X164848328Y-100607141D01*
X164848328Y-100607141D02*
X164848328Y-101035712D01*
X164848328Y-101035712D02*
X164776900Y-101178569D01*
X164776900Y-101178569D02*
X164705471Y-101249998D01*
X164848328Y-98892855D02*
X164848328Y-99749998D01*
X164848328Y-99321427D02*
X163348328Y-99321427D01*
X163348328Y-99321427D02*
X163562614Y-99464284D01*
X163562614Y-99464284D02*
X163705471Y-99607141D01*
X163705471Y-99607141D02*
X163776900Y-99749998D01*
X164705471Y-98249999D02*
X164776900Y-98178570D01*
X164776900Y-98178570D02*
X164848328Y-98249999D01*
X164848328Y-98249999D02*
X164776900Y-98321427D01*
X164776900Y-98321427D02*
X164705471Y-98249999D01*
X164705471Y-98249999D02*
X164848328Y-98249999D01*
X163348328Y-96821427D02*
X163348328Y-97535713D01*
X163348328Y-97535713D02*
X164062614Y-97607141D01*
X164062614Y-97607141D02*
X163991185Y-97535713D01*
X163991185Y-97535713D02*
X163919757Y-97392856D01*
X163919757Y-97392856D02*
X163919757Y-97035713D01*
X163919757Y-97035713D02*
X163991185Y-96892856D01*
X163991185Y-96892856D02*
X164062614Y-96821427D01*
X164062614Y-96821427D02*
X164205471Y-96749998D01*
X164205471Y-96749998D02*
X164562614Y-96749998D01*
X164562614Y-96749998D02*
X164705471Y-96821427D01*
X164705471Y-96821427D02*
X164776900Y-96892856D01*
X164776900Y-96892856D02*
X164848328Y-97035713D01*
X164848328Y-97035713D02*
X164848328Y-97392856D01*
X164848328Y-97392856D02*
X164776900Y-97535713D01*
X164776900Y-97535713D02*
X164705471Y-97607141D01*
X163348328Y-95821427D02*
X163348328Y-95678570D01*
X163348328Y-95678570D02*
X163419757Y-95535713D01*
X163419757Y-95535713D02*
X163491185Y-95464285D01*
X163491185Y-95464285D02*
X163634042Y-95392856D01*
X163634042Y-95392856D02*
X163919757Y-95321427D01*
X163919757Y-95321427D02*
X164276900Y-95321427D01*
X164276900Y-95321427D02*
X164562614Y-95392856D01*
X164562614Y-95392856D02*
X164705471Y-95464285D01*
X164705471Y-95464285D02*
X164776900Y-95535713D01*
X164776900Y-95535713D02*
X164848328Y-95678570D01*
X164848328Y-95678570D02*
X164848328Y-95821427D01*
X164848328Y-95821427D02*
X164776900Y-95964285D01*
X164776900Y-95964285D02*
X164705471Y-96035713D01*
X164705471Y-96035713D02*
X164562614Y-96107142D01*
X164562614Y-96107142D02*
X164276900Y-96178570D01*
X164276900Y-96178570D02*
X163919757Y-96178570D01*
X163919757Y-96178570D02*
X163634042Y-96107142D01*
X163634042Y-96107142D02*
X163491185Y-96035713D01*
X163491185Y-96035713D02*
X163419757Y-95964285D01*
X163419757Y-95964285D02*
X163348328Y-95821427D01*
X163348328Y-94392856D02*
X163348328Y-94249999D01*
X163348328Y-94249999D02*
X163419757Y-94107142D01*
X163419757Y-94107142D02*
X163491185Y-94035714D01*
X163491185Y-94035714D02*
X163634042Y-93964285D01*
X163634042Y-93964285D02*
X163919757Y-93892856D01*
X163919757Y-93892856D02*
X164276900Y-93892856D01*
X164276900Y-93892856D02*
X164562614Y-93964285D01*
X164562614Y-93964285D02*
X164705471Y-94035714D01*
X164705471Y-94035714D02*
X164776900Y-94107142D01*
X164776900Y-94107142D02*
X164848328Y-94249999D01*
X164848328Y-94249999D02*
X164848328Y-94392856D01*
X164848328Y-94392856D02*
X164776900Y-94535714D01*
X164776900Y-94535714D02*
X164705471Y-94607142D01*
X164705471Y-94607142D02*
X164562614Y-94678571D01*
X164562614Y-94678571D02*
X164276900Y-94749999D01*
X164276900Y-94749999D02*
X163919757Y-94749999D01*
X163919757Y-94749999D02*
X163634042Y-94678571D01*
X163634042Y-94678571D02*
X163491185Y-94607142D01*
X163491185Y-94607142D02*
X163419757Y-94535714D01*
X163419757Y-94535714D02*
X163348328Y-94392856D01*
X163348328Y-92964285D02*
X163348328Y-92821428D01*
X163348328Y-92821428D02*
X163419757Y-92678571D01*
X163419757Y-92678571D02*
X163491185Y-92607143D01*
X163491185Y-92607143D02*
X163634042Y-92535714D01*
X163634042Y-92535714D02*
X163919757Y-92464285D01*
X163919757Y-92464285D02*
X164276900Y-92464285D01*
X164276900Y-92464285D02*
X164562614Y-92535714D01*
X164562614Y-92535714D02*
X164705471Y-92607143D01*
X164705471Y-92607143D02*
X164776900Y-92678571D01*
X164776900Y-92678571D02*
X164848328Y-92821428D01*
X164848328Y-92821428D02*
X164848328Y-92964285D01*
X164848328Y-92964285D02*
X164776900Y-93107143D01*
X164776900Y-93107143D02*
X164705471Y-93178571D01*
X164705471Y-93178571D02*
X164562614Y-93250000D01*
X164562614Y-93250000D02*
X164276900Y-93321428D01*
X164276900Y-93321428D02*
X163919757Y-93321428D01*
X163919757Y-93321428D02*
X163634042Y-93250000D01*
X163634042Y-93250000D02*
X163491185Y-93178571D01*
X163491185Y-93178571D02*
X163419757Y-93107143D01*
X163419757Y-93107143D02*
X163348328Y-92964285D01*
X164848328Y-90678572D02*
X163848328Y-90678572D01*
X163991185Y-90678572D02*
X163919757Y-90607143D01*
X163919757Y-90607143D02*
X163848328Y-90464286D01*
X163848328Y-90464286D02*
X163848328Y-90250000D01*
X163848328Y-90250000D02*
X163919757Y-90107143D01*
X163919757Y-90107143D02*
X164062614Y-90035715D01*
X164062614Y-90035715D02*
X164848328Y-90035715D01*
X164062614Y-90035715D02*
X163919757Y-89964286D01*
X163919757Y-89964286D02*
X163848328Y-89821429D01*
X163848328Y-89821429D02*
X163848328Y-89607143D01*
X163848328Y-89607143D02*
X163919757Y-89464286D01*
X163919757Y-89464286D02*
X164062614Y-89392857D01*
X164062614Y-89392857D02*
X164848328Y-89392857D01*
X164848328Y-88678572D02*
X163848328Y-88678572D01*
X163991185Y-88678572D02*
X163919757Y-88607143D01*
X163919757Y-88607143D02*
X163848328Y-88464286D01*
X163848328Y-88464286D02*
X163848328Y-88250000D01*
X163848328Y-88250000D02*
X163919757Y-88107143D01*
X163919757Y-88107143D02*
X164062614Y-88035715D01*
X164062614Y-88035715D02*
X164848328Y-88035715D01*
X164062614Y-88035715D02*
X163919757Y-87964286D01*
X163919757Y-87964286D02*
X163848328Y-87821429D01*
X163848328Y-87821429D02*
X163848328Y-87607143D01*
X163848328Y-87607143D02*
X163919757Y-87464286D01*
X163919757Y-87464286D02*
X164062614Y-87392857D01*
X164062614Y-87392857D02*
X164848328Y-87392857D01*
D12*
X159000000Y-110000000D02*
X166556420Y-110000000D01*
X159000000Y-78500000D02*
X166556420Y-78500000D01*
X165970000Y-110000000D02*
X165970000Y-78500000D01*
X165970000Y-110000000D02*
X165970000Y-78500000D01*
X165970000Y-110000000D02*
X165383579Y-108873496D01*
X165970000Y-110000000D02*
X166556421Y-108873496D01*
X165970000Y-78500000D02*
X166556421Y-79626504D01*
X165970000Y-78500000D02*
X165383579Y-79626504D01*
D10*
D11*
X126635771Y-108579692D02*
X127230228Y-109293040D01*
X127230228Y-109293040D02*
X126471153Y-109274749D01*
X126471153Y-109274749D02*
X126608335Y-109439368D01*
X126608335Y-109439368D02*
X126644917Y-109594841D01*
X126644917Y-109594841D02*
X126635771Y-109695442D01*
X126635771Y-109695442D02*
X126571753Y-109841769D01*
X126571753Y-109841769D02*
X126297388Y-110070407D01*
X126297388Y-110070407D02*
X126141915Y-110106989D01*
X126141915Y-110106989D02*
X126041314Y-110097843D01*
X126041314Y-110097843D02*
X125894987Y-110033825D01*
X125894987Y-110033825D02*
X125620622Y-109704587D01*
X125620622Y-109704587D02*
X125584040Y-109549114D01*
X125584040Y-109549114D02*
X125593185Y-109448513D01*
X126599189Y-110655718D02*
X126590044Y-110756318D01*
X126590044Y-110756318D02*
X126489443Y-110747173D01*
X126489443Y-110747173D02*
X126498589Y-110646572D01*
X126498589Y-110646572D02*
X126599189Y-110655718D01*
X126599189Y-110655718D02*
X126489443Y-110747173D01*
X126992445Y-111350775D02*
X127175355Y-111570267D01*
X127175355Y-111570267D02*
X127321683Y-111634286D01*
X127321683Y-111634286D02*
X127422284Y-111643431D01*
X127422284Y-111643431D02*
X127678357Y-111615995D01*
X127678357Y-111615995D02*
X127943577Y-111487958D01*
X127943577Y-111487958D02*
X128382560Y-111122138D01*
X128382560Y-111122138D02*
X128446579Y-110975810D01*
X128446579Y-110975810D02*
X128455724Y-110875210D01*
X128455724Y-110875210D02*
X128419142Y-110719736D01*
X128419142Y-110719736D02*
X128236232Y-110500245D01*
X128236232Y-110500245D02*
X128089904Y-110436226D01*
X128089904Y-110436226D02*
X127989304Y-110427081D01*
X127989304Y-110427081D02*
X127833831Y-110463663D01*
X127833831Y-110463663D02*
X127559466Y-110692300D01*
X127559466Y-110692300D02*
X127495447Y-110838628D01*
X127495447Y-110838628D02*
X127486302Y-110939228D01*
X127486302Y-110939228D02*
X127522884Y-111094702D01*
X127522884Y-111094702D02*
X127705794Y-111314193D01*
X127705794Y-111314193D02*
X127852122Y-111378212D01*
X127852122Y-111378212D02*
X127952722Y-111387357D01*
X127952722Y-111387357D02*
X128108195Y-111350775D01*
X129196509Y-111652576D02*
X129287964Y-111762322D01*
X129287964Y-111762322D02*
X129324546Y-111917795D01*
X129324546Y-111917795D02*
X129315400Y-112018396D01*
X129315400Y-112018396D02*
X129251382Y-112164724D01*
X129251382Y-112164724D02*
X129077617Y-112402507D01*
X129077617Y-112402507D02*
X128803252Y-112631144D01*
X128803252Y-112631144D02*
X128538033Y-112759181D01*
X128538033Y-112759181D02*
X128382560Y-112795763D01*
X128382560Y-112795763D02*
X128281959Y-112786617D01*
X128281959Y-112786617D02*
X128135632Y-112722599D01*
X128135632Y-112722599D02*
X128044177Y-112612853D01*
X128044177Y-112612853D02*
X128007595Y-112457379D01*
X128007595Y-112457379D02*
X128016740Y-112356779D01*
X128016740Y-112356779D02*
X128080759Y-112210451D01*
X128080759Y-112210451D02*
X128254523Y-111972668D01*
X128254523Y-111972668D02*
X128528888Y-111744031D01*
X128528888Y-111744031D02*
X128794107Y-111615994D01*
X128794107Y-111615994D02*
X128949580Y-111579412D01*
X128949580Y-111579412D02*
X129050181Y-111588558D01*
X129050181Y-111588558D02*
X129196509Y-111652576D01*
X130385422Y-113079273D02*
X129928148Y-112530543D01*
X129928148Y-112530543D02*
X129333691Y-112932945D01*
X129333691Y-112932945D02*
X129434291Y-112942090D01*
X129434291Y-112942090D02*
X129580619Y-113006109D01*
X129580619Y-113006109D02*
X129809256Y-113280473D01*
X129809256Y-113280473D02*
X129845838Y-113435947D01*
X129845838Y-113435947D02*
X129836693Y-113536547D01*
X129836693Y-113536547D02*
X129772674Y-113682875D01*
X129772674Y-113682875D02*
X129498310Y-113911512D01*
X129498310Y-113911512D02*
X129342836Y-113948094D01*
X129342836Y-113948094D02*
X129242236Y-113938949D01*
X129242236Y-113938949D02*
X129095908Y-113874930D01*
X129095908Y-113874930D02*
X128867271Y-113600566D01*
X128867271Y-113600566D02*
X128830689Y-113445092D01*
X128830689Y-113445092D02*
X128839834Y-113344492D01*
X130193367Y-115191881D02*
X129644637Y-114533405D01*
X129919002Y-114862643D02*
X131071334Y-113902366D01*
X131071334Y-113902366D02*
X130815260Y-113929803D01*
X130815260Y-113929803D02*
X130614059Y-113911512D01*
X130614059Y-113911512D02*
X130467731Y-113847494D01*
X131336553Y-116563704D02*
X132104774Y-115923520D01*
X131995028Y-116014975D02*
X132095628Y-116024120D01*
X132095628Y-116024120D02*
X132241956Y-116088138D01*
X132241956Y-116088138D02*
X132379139Y-116252757D01*
X132379139Y-116252757D02*
X132415721Y-116408231D01*
X132415721Y-116408231D02*
X132351702Y-116554559D01*
X132351702Y-116554559D02*
X131748100Y-117057561D01*
X132351702Y-116554559D02*
X132507176Y-116517977D01*
X132507176Y-116517977D02*
X132653503Y-116581995D01*
X132653503Y-116581995D02*
X132790686Y-116746614D01*
X132790686Y-116746614D02*
X132827268Y-116902087D01*
X132827268Y-116902087D02*
X132763249Y-117048415D01*
X132763249Y-117048415D02*
X132159647Y-117551417D01*
X132616922Y-118100147D02*
X133385143Y-117459962D01*
X133275397Y-117551417D02*
X133375997Y-117560563D01*
X133375997Y-117560563D02*
X133522325Y-117624581D01*
X133522325Y-117624581D02*
X133659508Y-117789200D01*
X133659508Y-117789200D02*
X133696089Y-117944673D01*
X133696089Y-117944673D02*
X133632071Y-118091001D01*
X133632071Y-118091001D02*
X133028469Y-118594003D01*
X133632071Y-118091001D02*
X133787544Y-118054419D01*
X133787544Y-118054419D02*
X133933872Y-118118438D01*
X133933872Y-118118438D02*
X134071055Y-118283056D01*
X134071055Y-118283056D02*
X134107637Y-118438530D01*
X134107637Y-118438530D02*
X134043618Y-118584858D01*
X134043618Y-118584858D02*
X133440016Y-119087860D01*
D12*
X133115889Y-108820092D02*
X126945263Y-113962280D01*
X135615889Y-111820092D02*
X129445263Y-116962280D01*
X127395764Y-113586864D02*
X129895764Y-116586864D01*
X127395764Y-113586864D02*
X129895764Y-116586864D01*
X127395764Y-113586864D02*
X128567435Y-114076851D01*
X127395764Y-113586864D02*
X127666433Y-114827686D01*
X129895764Y-116586864D02*
X128724093Y-116096877D01*
X129895764Y-116586864D02*
X129625095Y-115346042D01*
D10*
D11*
X157888412Y-64589202D02*
X157367740Y-63908324D01*
X157628076Y-64248763D02*
X158819613Y-63337588D01*
X158819613Y-63337588D02*
X158562615Y-63354276D01*
X158562615Y-63354276D02*
X158362357Y-63327575D01*
X158362357Y-63327575D02*
X158218838Y-63257484D01*
X159644009Y-64415644D02*
X159730788Y-64529124D01*
X159730788Y-64529124D02*
X159760827Y-64685993D01*
X159760827Y-64685993D02*
X159747476Y-64786122D01*
X159747476Y-64786122D02*
X159677386Y-64929641D01*
X159677386Y-64929641D02*
X159493816Y-65159938D01*
X159493816Y-65159938D02*
X159210116Y-65376884D01*
X159210116Y-65376884D02*
X158939768Y-65493701D01*
X158939768Y-65493701D02*
X158782899Y-65523740D01*
X158782899Y-65523740D02*
X158682770Y-65510390D01*
X158682770Y-65510390D02*
X158539251Y-65440299D01*
X158539251Y-65440299D02*
X158452473Y-65326819D01*
X158452473Y-65326819D02*
X158422434Y-65169950D01*
X158422434Y-65169950D02*
X158435784Y-65069821D01*
X158435784Y-65069821D02*
X158505875Y-64926303D01*
X158505875Y-64926303D02*
X158689445Y-64696006D01*
X158689445Y-64696006D02*
X158973144Y-64479059D01*
X158973144Y-64479059D02*
X159243493Y-64362242D01*
X159243493Y-64362242D02*
X159400362Y-64332203D01*
X159400362Y-64332203D02*
X159500491Y-64345554D01*
X159500491Y-64345554D02*
X159644009Y-64415644D01*
X159260181Y-66147878D02*
X159246830Y-66248007D01*
X159246830Y-66248007D02*
X159146701Y-66234657D01*
X159146701Y-66234657D02*
X159160052Y-66134527D01*
X159160052Y-66134527D02*
X159260181Y-66147878D01*
X159260181Y-66147878D02*
X159146701Y-66234657D01*
X160685352Y-65777400D02*
X161292802Y-66571758D01*
X161292802Y-66571758D02*
X159710762Y-66972275D01*
X161813474Y-67252636D02*
X161900252Y-67366116D01*
X161900252Y-67366116D02*
X161930291Y-67522985D01*
X161930291Y-67522985D02*
X161916940Y-67623114D01*
X161916940Y-67623114D02*
X161846850Y-67766632D01*
X161846850Y-67766632D02*
X161663280Y-67996929D01*
X161663280Y-67996929D02*
X161379581Y-68213876D01*
X161379581Y-68213876D02*
X161109232Y-68330693D01*
X161109232Y-68330693D02*
X160952363Y-68360732D01*
X160952363Y-68360732D02*
X160852234Y-68347381D01*
X160852234Y-68347381D02*
X160708715Y-68277291D01*
X160708715Y-68277291D02*
X160621937Y-68163811D01*
X160621937Y-68163811D02*
X160591898Y-68006942D01*
X160591898Y-68006942D02*
X160605249Y-67906813D01*
X160605249Y-67906813D02*
X160675339Y-67763295D01*
X160675339Y-67763295D02*
X160858909Y-67532998D01*
X160858909Y-67532998D02*
X161142608Y-67316051D01*
X161142608Y-67316051D02*
X161412957Y-67199234D01*
X161412957Y-67199234D02*
X161569826Y-67169195D01*
X161569826Y-67169195D02*
X161669955Y-67182546D01*
X161669955Y-67182546D02*
X161813474Y-67252636D01*
X162681259Y-68387433D02*
X162768038Y-68500912D01*
X162768038Y-68500912D02*
X162798077Y-68657781D01*
X162798077Y-68657781D02*
X162784726Y-68757910D01*
X162784726Y-68757910D02*
X162714636Y-68901429D01*
X162714636Y-68901429D02*
X162531066Y-69131726D01*
X162531066Y-69131726D02*
X162247366Y-69348672D01*
X162247366Y-69348672D02*
X161977018Y-69465490D01*
X161977018Y-69465490D02*
X161820149Y-69495528D01*
X161820149Y-69495528D02*
X161720019Y-69482178D01*
X161720019Y-69482178D02*
X161576501Y-69412087D01*
X161576501Y-69412087D02*
X161489722Y-69298608D01*
X161489722Y-69298608D02*
X161459684Y-69141739D01*
X161459684Y-69141739D02*
X161473034Y-69041610D01*
X161473034Y-69041610D02*
X161543125Y-68898091D01*
X161543125Y-68898091D02*
X161726695Y-68667794D01*
X161726695Y-68667794D02*
X162010394Y-68450848D01*
X162010394Y-68450848D02*
X162280743Y-68334030D01*
X162280743Y-68334030D02*
X162437612Y-68303992D01*
X162437612Y-68303992D02*
X162537741Y-68317342D01*
X162537741Y-68317342D02*
X162681259Y-68387433D01*
X163809381Y-69862668D02*
X163375488Y-69295270D01*
X163375488Y-69295270D02*
X162764700Y-69672423D01*
X162764700Y-69672423D02*
X162864829Y-69685773D01*
X162864829Y-69685773D02*
X163008347Y-69755864D01*
X163008347Y-69755864D02*
X163225294Y-70039563D01*
X163225294Y-70039563D02*
X163255333Y-70196432D01*
X163255333Y-70196432D02*
X163241982Y-70296561D01*
X163241982Y-70296561D02*
X163171892Y-70440080D01*
X163171892Y-70440080D02*
X162888193Y-70657026D01*
X162888193Y-70657026D02*
X162731324Y-70687065D01*
X162731324Y-70687065D02*
X162631194Y-70673714D01*
X162631194Y-70673714D02*
X162487676Y-70603624D01*
X162487676Y-70603624D02*
X162270729Y-70319925D01*
X162270729Y-70319925D02*
X162240691Y-70163056D01*
X162240691Y-70163056D02*
X162254041Y-70062927D01*
X163745965Y-72249079D02*
X164540323Y-71641629D01*
X164426843Y-71728407D02*
X164526972Y-71741758D01*
X164526972Y-71741758D02*
X164670491Y-71811848D01*
X164670491Y-71811848D02*
X164800659Y-71982068D01*
X164800659Y-71982068D02*
X164830697Y-72138937D01*
X164830697Y-72138937D02*
X164760607Y-72282455D01*
X164760607Y-72282455D02*
X164136469Y-72759738D01*
X164760607Y-72282455D02*
X164917476Y-72252417D01*
X164917476Y-72252417D02*
X165060994Y-72322507D01*
X165060994Y-72322507D02*
X165191162Y-72492727D01*
X165191162Y-72492727D02*
X165221201Y-72649596D01*
X165221201Y-72649596D02*
X165151111Y-72793114D01*
X165151111Y-72793114D02*
X164526972Y-73270396D01*
X164960865Y-73837795D02*
X165755223Y-73230345D01*
X165641743Y-73317123D02*
X165741873Y-73330474D01*
X165741873Y-73330474D02*
X165885391Y-73400564D01*
X165885391Y-73400564D02*
X166015559Y-73570784D01*
X166015559Y-73570784D02*
X166045598Y-73727653D01*
X166045598Y-73727653D02*
X165975507Y-73871171D01*
X165975507Y-73871171D02*
X165351369Y-74348453D01*
X165975507Y-73871171D02*
X166132376Y-73841132D01*
X166132376Y-73841132D02*
X166275895Y-73911223D01*
X166275895Y-73911223D02*
X166406063Y-74081442D01*
X166406063Y-74081442D02*
X166436101Y-74238311D01*
X166436101Y-74238311D02*
X166366011Y-74381830D01*
X166366011Y-74381830D02*
X165741873Y-74859112D01*
D12*
X152397179Y-69696275D02*
X157901320Y-65487226D01*
X158897179Y-78196275D02*
X164401320Y-73987226D01*
X157435493Y-65843447D02*
X163935493Y-74343447D01*
X157435493Y-65843447D02*
X163935493Y-74343447D01*
X157435493Y-65843447D02*
X158585616Y-66382073D01*
X157435493Y-65843447D02*
X157653960Y-67094515D01*
X163935493Y-74343447D02*
X162785370Y-73804821D01*
X163935493Y-74343447D02*
X163717026Y-73092379D01*
D10*
D11*
X126592345Y-74125571D02*
X126071674Y-74806449D01*
X126332009Y-74466010D02*
X125140473Y-73554835D01*
X125140473Y-73554835D02*
X125223914Y-73798482D01*
X125223914Y-73798482D02*
X125250615Y-73998741D01*
X125250615Y-73998741D02*
X125220576Y-74155609D01*
X125964869Y-72476778D02*
X126051648Y-72363298D01*
X126051648Y-72363298D02*
X126195166Y-72293208D01*
X126195166Y-72293208D02*
X126295295Y-72279857D01*
X126295295Y-72279857D02*
X126452164Y-72309896D01*
X126452164Y-72309896D02*
X126722513Y-72426713D01*
X126722513Y-72426713D02*
X127006212Y-72643660D01*
X127006212Y-72643660D02*
X127189782Y-72873957D01*
X127189782Y-72873957D02*
X127259873Y-73017475D01*
X127259873Y-73017475D02*
X127273223Y-73117604D01*
X127273223Y-73117604D02*
X127243184Y-73274473D01*
X127243184Y-73274473D02*
X127156406Y-73387953D01*
X127156406Y-73387953D02*
X127012887Y-73458043D01*
X127012887Y-73458043D02*
X126912758Y-73471394D01*
X126912758Y-73471394D02*
X126755889Y-73441355D01*
X126755889Y-73441355D02*
X126485541Y-73324538D01*
X126485541Y-73324538D02*
X126201841Y-73107592D01*
X126201841Y-73107592D02*
X126018271Y-72877294D01*
X126018271Y-72877294D02*
X125948181Y-72733776D01*
X125948181Y-72733776D02*
X125934830Y-72633647D01*
X125934830Y-72633647D02*
X125964869Y-72476778D01*
X127737155Y-72393337D02*
X127837284Y-72379987D01*
X127837284Y-72379987D02*
X127850634Y-72480116D01*
X127850634Y-72480116D02*
X127750505Y-72493466D01*
X127750505Y-72493466D02*
X127737155Y-72393337D01*
X127737155Y-72393337D02*
X127850634Y-72480116D01*
X127006212Y-71115022D02*
X127613662Y-70320664D01*
X127613662Y-70320664D02*
X128414695Y-71742498D01*
X128134333Y-69639786D02*
X128221112Y-69526306D01*
X128221112Y-69526306D02*
X128364630Y-69456216D01*
X128364630Y-69456216D02*
X128464760Y-69442865D01*
X128464760Y-69442865D02*
X128621628Y-69472904D01*
X128621628Y-69472904D02*
X128891977Y-69589722D01*
X128891977Y-69589722D02*
X129175676Y-69806668D01*
X129175676Y-69806668D02*
X129359246Y-70036965D01*
X129359246Y-70036965D02*
X129429337Y-70180483D01*
X129429337Y-70180483D02*
X129442687Y-70280613D01*
X129442687Y-70280613D02*
X129412649Y-70437482D01*
X129412649Y-70437482D02*
X129325870Y-70550961D01*
X129325870Y-70550961D02*
X129182352Y-70621052D01*
X129182352Y-70621052D02*
X129082223Y-70634402D01*
X129082223Y-70634402D02*
X128925354Y-70604363D01*
X128925354Y-70604363D02*
X128655005Y-70487546D01*
X128655005Y-70487546D02*
X128371306Y-70270600D01*
X128371306Y-70270600D02*
X128187736Y-70040303D01*
X128187736Y-70040303D02*
X128117645Y-69896784D01*
X128117645Y-69896784D02*
X128104295Y-69796655D01*
X128104295Y-69796655D02*
X128134333Y-69639786D01*
X129002119Y-68504990D02*
X129088898Y-68391510D01*
X129088898Y-68391510D02*
X129232416Y-68321419D01*
X129232416Y-68321419D02*
X129332545Y-68308069D01*
X129332545Y-68308069D02*
X129489414Y-68338108D01*
X129489414Y-68338108D02*
X129759763Y-68454925D01*
X129759763Y-68454925D02*
X130043462Y-68671871D01*
X130043462Y-68671871D02*
X130227032Y-68902168D01*
X130227032Y-68902168D02*
X130297122Y-69045687D01*
X130297122Y-69045687D02*
X130310473Y-69145816D01*
X130310473Y-69145816D02*
X130280434Y-69302685D01*
X130280434Y-69302685D02*
X130193656Y-69416165D01*
X130193656Y-69416165D02*
X130050137Y-69486255D01*
X130050137Y-69486255D02*
X129950008Y-69499606D01*
X129950008Y-69499606D02*
X129793139Y-69469567D01*
X129793139Y-69469567D02*
X129522790Y-69352750D01*
X129522790Y-69352750D02*
X129239091Y-69135803D01*
X129239091Y-69135803D02*
X129055521Y-68905506D01*
X129055521Y-68905506D02*
X128985431Y-68761988D01*
X128985431Y-68761988D02*
X128972080Y-68661859D01*
X128972080Y-68661859D02*
X129002119Y-68504990D01*
X130130240Y-67029754D02*
X129696347Y-67597152D01*
X129696347Y-67597152D02*
X130220357Y-68087785D01*
X130220357Y-68087785D02*
X130207006Y-67987656D01*
X130207006Y-67987656D02*
X130237045Y-67830787D01*
X130237045Y-67830787D02*
X130453991Y-67547088D01*
X130453991Y-67547088D02*
X130597510Y-67476997D01*
X130597510Y-67476997D02*
X130697639Y-67463647D01*
X130697639Y-67463647D02*
X130854508Y-67493686D01*
X130854508Y-67493686D02*
X131138207Y-67710632D01*
X131138207Y-67710632D02*
X131208297Y-67854151D01*
X131208297Y-67854151D02*
X131221648Y-67954280D01*
X131221648Y-67954280D02*
X131191609Y-68111149D01*
X131191609Y-68111149D02*
X130974663Y-68394848D01*
X130974663Y-68394848D02*
X130831144Y-68464938D01*
X130831144Y-68464938D02*
X130731015Y-68478289D01*
X132449898Y-66465694D02*
X131655541Y-65858243D01*
X131769020Y-65945022D02*
X131755670Y-65844893D01*
X131755670Y-65844893D02*
X131785708Y-65688024D01*
X131785708Y-65688024D02*
X131915876Y-65517804D01*
X131915876Y-65517804D02*
X132059395Y-65447714D01*
X132059395Y-65447714D02*
X132216264Y-65477753D01*
X132216264Y-65477753D02*
X132840402Y-65955035D01*
X132216264Y-65477753D02*
X132146173Y-65334234D01*
X132146173Y-65334234D02*
X132176212Y-65177365D01*
X132176212Y-65177365D02*
X132306380Y-65007146D01*
X132306380Y-65007146D02*
X132449898Y-64937055D01*
X132449898Y-64937055D02*
X132606767Y-64967094D01*
X132606767Y-64967094D02*
X133230906Y-65444376D01*
X133664799Y-64876978D02*
X132870441Y-64269528D01*
X132983920Y-64356306D02*
X132970570Y-64256177D01*
X132970570Y-64256177D02*
X133000609Y-64099308D01*
X133000609Y-64099308D02*
X133130776Y-63929089D01*
X133130776Y-63929089D02*
X133274295Y-63858998D01*
X133274295Y-63858998D02*
X133431164Y-63889037D01*
X133431164Y-63889037D02*
X134055302Y-64366319D01*
X133431164Y-63889037D02*
X133361074Y-63745519D01*
X133361074Y-63745519D02*
X133391112Y-63588650D01*
X133391112Y-63588650D02*
X133521280Y-63418430D01*
X133521280Y-63418430D02*
X133664799Y-63348340D01*
X133664799Y-63348340D02*
X133821668Y-63378378D01*
X133821668Y-63378378D02*
X134445806Y-63855661D01*
D12*
X139602821Y-69696275D02*
X133955616Y-65377824D01*
X133102821Y-78196275D02*
X127455616Y-73877824D01*
X134421443Y-65734045D02*
X127921443Y-74234045D01*
X134421443Y-65734045D02*
X127921443Y-74234045D01*
X134421443Y-65734045D02*
X134202976Y-66985113D01*
X134421443Y-65734045D02*
X133271320Y-66272671D01*
X127921443Y-74234045D02*
X128139910Y-72982977D01*
X127921443Y-74234045D02*
X129071566Y-73695419D01*
D10*
D11*
X139071430Y-120021185D02*
X139142858Y-119949757D01*
X139142858Y-119949757D02*
X139285716Y-119878328D01*
X139285716Y-119878328D02*
X139642858Y-119878328D01*
X139642858Y-119878328D02*
X139785716Y-119949757D01*
X139785716Y-119949757D02*
X139857144Y-120021185D01*
X139857144Y-120021185D02*
X139928573Y-120164042D01*
X139928573Y-120164042D02*
X139928573Y-120306900D01*
X139928573Y-120306900D02*
X139857144Y-120521185D01*
X139857144Y-120521185D02*
X139000001Y-121378328D01*
X139000001Y-121378328D02*
X139928573Y-121378328D01*
X140857144Y-119878328D02*
X141000001Y-119878328D01*
X141000001Y-119878328D02*
X141142858Y-119949757D01*
X141142858Y-119949757D02*
X141214287Y-120021185D01*
X141214287Y-120021185D02*
X141285715Y-120164042D01*
X141285715Y-120164042D02*
X141357144Y-120449757D01*
X141357144Y-120449757D02*
X141357144Y-120806900D01*
X141357144Y-120806900D02*
X141285715Y-121092614D01*
X141285715Y-121092614D02*
X141214287Y-121235471D01*
X141214287Y-121235471D02*
X141142858Y-121306900D01*
X141142858Y-121306900D02*
X141000001Y-121378328D01*
X141000001Y-121378328D02*
X140857144Y-121378328D01*
X140857144Y-121378328D02*
X140714287Y-121306900D01*
X140714287Y-121306900D02*
X140642858Y-121235471D01*
X140642858Y-121235471D02*
X140571429Y-121092614D01*
X140571429Y-121092614D02*
X140500001Y-120806900D01*
X140500001Y-120806900D02*
X140500001Y-120449757D01*
X140500001Y-120449757D02*
X140571429Y-120164042D01*
X140571429Y-120164042D02*
X140642858Y-120021185D01*
X140642858Y-120021185D02*
X140714287Y-119949757D01*
X140714287Y-119949757D02*
X140857144Y-119878328D01*
X142000000Y-121235471D02*
X142071429Y-121306900D01*
X142071429Y-121306900D02*
X142000000Y-121378328D01*
X142000000Y-121378328D02*
X141928572Y-121306900D01*
X141928572Y-121306900D02*
X142000000Y-121235471D01*
X142000000Y-121235471D02*
X142000000Y-121378328D01*
X143000001Y-119878328D02*
X143142858Y-119878328D01*
X143142858Y-119878328D02*
X143285715Y-119949757D01*
X143285715Y-119949757D02*
X143357144Y-120021185D01*
X143357144Y-120021185D02*
X143428572Y-120164042D01*
X143428572Y-120164042D02*
X143500001Y-120449757D01*
X143500001Y-120449757D02*
X143500001Y-120806900D01*
X143500001Y-120806900D02*
X143428572Y-121092614D01*
X143428572Y-121092614D02*
X143357144Y-121235471D01*
X143357144Y-121235471D02*
X143285715Y-121306900D01*
X143285715Y-121306900D02*
X143142858Y-121378328D01*
X143142858Y-121378328D02*
X143000001Y-121378328D01*
X143000001Y-121378328D02*
X142857144Y-121306900D01*
X142857144Y-121306900D02*
X142785715Y-121235471D01*
X142785715Y-121235471D02*
X142714286Y-121092614D01*
X142714286Y-121092614D02*
X142642858Y-120806900D01*
X142642858Y-120806900D02*
X142642858Y-120449757D01*
X142642858Y-120449757D02*
X142714286Y-120164042D01*
X142714286Y-120164042D02*
X142785715Y-120021185D01*
X142785715Y-120021185D02*
X142857144Y-119949757D01*
X142857144Y-119949757D02*
X143000001Y-119878328D01*
X144428572Y-119878328D02*
X144571429Y-119878328D01*
X144571429Y-119878328D02*
X144714286Y-119949757D01*
X144714286Y-119949757D02*
X144785715Y-120021185D01*
X144785715Y-120021185D02*
X144857143Y-120164042D01*
X144857143Y-120164042D02*
X144928572Y-120449757D01*
X144928572Y-120449757D02*
X144928572Y-120806900D01*
X144928572Y-120806900D02*
X144857143Y-121092614D01*
X144857143Y-121092614D02*
X144785715Y-121235471D01*
X144785715Y-121235471D02*
X144714286Y-121306900D01*
X144714286Y-121306900D02*
X144571429Y-121378328D01*
X144571429Y-121378328D02*
X144428572Y-121378328D01*
X144428572Y-121378328D02*
X144285715Y-121306900D01*
X144285715Y-121306900D02*
X144214286Y-121235471D01*
X144214286Y-121235471D02*
X144142857Y-121092614D01*
X144142857Y-121092614D02*
X144071429Y-120806900D01*
X144071429Y-120806900D02*
X144071429Y-120449757D01*
X144071429Y-120449757D02*
X144142857Y-120164042D01*
X144142857Y-120164042D02*
X144214286Y-120021185D01*
X144214286Y-120021185D02*
X144285715Y-119949757D01*
X144285715Y-119949757D02*
X144428572Y-119878328D01*
X145857143Y-119878328D02*
X146000000Y-119878328D01*
X146000000Y-119878328D02*
X146142857Y-119949757D01*
X146142857Y-119949757D02*
X146214286Y-120021185D01*
X146214286Y-120021185D02*
X146285714Y-120164042D01*
X146285714Y-120164042D02*
X146357143Y-120449757D01*
X146357143Y-120449757D02*
X146357143Y-120806900D01*
X146357143Y-120806900D02*
X146285714Y-121092614D01*
X146285714Y-121092614D02*
X146214286Y-121235471D01*
X146214286Y-121235471D02*
X146142857Y-121306900D01*
X146142857Y-121306900D02*
X146000000Y-121378328D01*
X146000000Y-121378328D02*
X145857143Y-121378328D01*
X145857143Y-121378328D02*
X145714286Y-121306900D01*
X145714286Y-121306900D02*
X145642857Y-121235471D01*
X145642857Y-121235471D02*
X145571428Y-121092614D01*
X145571428Y-121092614D02*
X145500000Y-120806900D01*
X145500000Y-120806900D02*
X145500000Y-120449757D01*
X145500000Y-120449757D02*
X145571428Y-120164042D01*
X145571428Y-120164042D02*
X145642857Y-120021185D01*
X145642857Y-120021185D02*
X145714286Y-119949757D01*
X145714286Y-119949757D02*
X145857143Y-119878328D01*
X147285714Y-119878328D02*
X147428571Y-119878328D01*
X147428571Y-119878328D02*
X147571428Y-119949757D01*
X147571428Y-119949757D02*
X147642857Y-120021185D01*
X147642857Y-120021185D02*
X147714285Y-120164042D01*
X147714285Y-120164042D02*
X147785714Y-120449757D01*
X147785714Y-120449757D02*
X147785714Y-120806900D01*
X147785714Y-120806900D02*
X147714285Y-121092614D01*
X147714285Y-121092614D02*
X147642857Y-121235471D01*
X147642857Y-121235471D02*
X147571428Y-121306900D01*
X147571428Y-121306900D02*
X147428571Y-121378328D01*
X147428571Y-121378328D02*
X147285714Y-121378328D01*
X147285714Y-121378328D02*
X147142857Y-121306900D01*
X147142857Y-121306900D02*
X147071428Y-121235471D01*
X147071428Y-121235471D02*
X146999999Y-121092614D01*
X146999999Y-121092614D02*
X146928571Y-120806900D01*
X146928571Y-120806900D02*
X146928571Y-120449757D01*
X146928571Y-120449757D02*
X146999999Y-120164042D01*
X146999999Y-120164042D02*
X147071428Y-120021185D01*
X147071428Y-120021185D02*
X147142857Y-119949757D01*
X147142857Y-119949757D02*
X147285714Y-119878328D01*
X149571427Y-121378328D02*
X149571427Y-120378328D01*
X149571427Y-120521185D02*
X149642856Y-120449757D01*
X149642856Y-120449757D02*
X149785713Y-120378328D01*
X149785713Y-120378328D02*
X149999999Y-120378328D01*
X149999999Y-120378328D02*
X150142856Y-120449757D01*
X150142856Y-120449757D02*
X150214285Y-120592614D01*
X150214285Y-120592614D02*
X150214285Y-121378328D01*
X150214285Y-120592614D02*
X150285713Y-120449757D01*
X150285713Y-120449757D02*
X150428570Y-120378328D01*
X150428570Y-120378328D02*
X150642856Y-120378328D01*
X150642856Y-120378328D02*
X150785713Y-120449757D01*
X150785713Y-120449757D02*
X150857142Y-120592614D01*
X150857142Y-120592614D02*
X150857142Y-121378328D01*
X151571427Y-121378328D02*
X151571427Y-120378328D01*
X151571427Y-120521185D02*
X151642856Y-120449757D01*
X151642856Y-120449757D02*
X151785713Y-120378328D01*
X151785713Y-120378328D02*
X151999999Y-120378328D01*
X151999999Y-120378328D02*
X152142856Y-120449757D01*
X152142856Y-120449757D02*
X152214285Y-120592614D01*
X152214285Y-120592614D02*
X152214285Y-121378328D01*
X152214285Y-120592614D02*
X152285713Y-120449757D01*
X152285713Y-120449757D02*
X152428570Y-120378328D01*
X152428570Y-120378328D02*
X152642856Y-120378328D01*
X152642856Y-120378328D02*
X152785713Y-120449757D01*
X152785713Y-120449757D02*
X152857142Y-120592614D01*
X152857142Y-120592614D02*
X152857142Y-121378328D01*
D12*
X136000000Y-112000000D02*
X136000000Y-123086420D01*
X156000000Y-112000000D02*
X156000000Y-123086420D01*
X136000000Y-122500000D02*
X156000000Y-122500000D01*
X136000000Y-122500000D02*
X156000000Y-122500000D01*
X136000000Y-122500000D02*
X137126504Y-121913579D01*
X136000000Y-122500000D02*
X137126504Y-123086421D01*
X156000000Y-122500000D02*
X154873496Y-123086421D01*
X156000000Y-122500000D02*
X154873496Y-121913579D01*
D10*
D11*
X139071430Y-126521185D02*
X139142858Y-126449757D01*
X139142858Y-126449757D02*
X139285716Y-126378328D01*
X139285716Y-126378328D02*
X139642858Y-126378328D01*
X139642858Y-126378328D02*
X139785716Y-126449757D01*
X139785716Y-126449757D02*
X139857144Y-126521185D01*
X139857144Y-126521185D02*
X139928573Y-126664042D01*
X139928573Y-126664042D02*
X139928573Y-126806900D01*
X139928573Y-126806900D02*
X139857144Y-127021185D01*
X139857144Y-127021185D02*
X139000001Y-127878328D01*
X139000001Y-127878328D02*
X139928573Y-127878328D01*
X141285715Y-126378328D02*
X140571429Y-126378328D01*
X140571429Y-126378328D02*
X140500001Y-127092614D01*
X140500001Y-127092614D02*
X140571429Y-127021185D01*
X140571429Y-127021185D02*
X140714287Y-126949757D01*
X140714287Y-126949757D02*
X141071429Y-126949757D01*
X141071429Y-126949757D02*
X141214287Y-127021185D01*
X141214287Y-127021185D02*
X141285715Y-127092614D01*
X141285715Y-127092614D02*
X141357144Y-127235471D01*
X141357144Y-127235471D02*
X141357144Y-127592614D01*
X141357144Y-127592614D02*
X141285715Y-127735471D01*
X141285715Y-127735471D02*
X141214287Y-127806900D01*
X141214287Y-127806900D02*
X141071429Y-127878328D01*
X141071429Y-127878328D02*
X140714287Y-127878328D01*
X140714287Y-127878328D02*
X140571429Y-127806900D01*
X140571429Y-127806900D02*
X140500001Y-127735471D01*
X142000000Y-127735471D02*
X142071429Y-127806900D01*
X142071429Y-127806900D02*
X142000000Y-127878328D01*
X142000000Y-127878328D02*
X141928572Y-127806900D01*
X141928572Y-127806900D02*
X142000000Y-127735471D01*
X142000000Y-127735471D02*
X142000000Y-127878328D01*
X143000001Y-126378328D02*
X143142858Y-126378328D01*
X143142858Y-126378328D02*
X143285715Y-126449757D01*
X143285715Y-126449757D02*
X143357144Y-126521185D01*
X143357144Y-126521185D02*
X143428572Y-126664042D01*
X143428572Y-126664042D02*
X143500001Y-126949757D01*
X143500001Y-126949757D02*
X143500001Y-127306900D01*
X143500001Y-127306900D02*
X143428572Y-127592614D01*
X143428572Y-127592614D02*
X143357144Y-127735471D01*
X143357144Y-127735471D02*
X143285715Y-127806900D01*
X143285715Y-127806900D02*
X143142858Y-127878328D01*
X143142858Y-127878328D02*
X143000001Y-127878328D01*
X143000001Y-127878328D02*
X142857144Y-127806900D01*
X142857144Y-127806900D02*
X142785715Y-127735471D01*
X142785715Y-127735471D02*
X142714286Y-127592614D01*
X142714286Y-127592614D02*
X142642858Y-127306900D01*
X142642858Y-127306900D02*
X142642858Y-126949757D01*
X142642858Y-126949757D02*
X142714286Y-126664042D01*
X142714286Y-126664042D02*
X142785715Y-126521185D01*
X142785715Y-126521185D02*
X142857144Y-126449757D01*
X142857144Y-126449757D02*
X143000001Y-126378328D01*
X144428572Y-126378328D02*
X144571429Y-126378328D01*
X144571429Y-126378328D02*
X144714286Y-126449757D01*
X144714286Y-126449757D02*
X144785715Y-126521185D01*
X144785715Y-126521185D02*
X144857143Y-126664042D01*
X144857143Y-126664042D02*
X144928572Y-126949757D01*
X144928572Y-126949757D02*
X144928572Y-127306900D01*
X144928572Y-127306900D02*
X144857143Y-127592614D01*
X144857143Y-127592614D02*
X144785715Y-127735471D01*
X144785715Y-127735471D02*
X144714286Y-127806900D01*
X144714286Y-127806900D02*
X144571429Y-127878328D01*
X144571429Y-127878328D02*
X144428572Y-127878328D01*
X144428572Y-127878328D02*
X144285715Y-127806900D01*
X144285715Y-127806900D02*
X144214286Y-127735471D01*
X144214286Y-127735471D02*
X144142857Y-127592614D01*
X144142857Y-127592614D02*
X144071429Y-127306900D01*
X144071429Y-127306900D02*
X144071429Y-126949757D01*
X144071429Y-126949757D02*
X144142857Y-126664042D01*
X144142857Y-126664042D02*
X144214286Y-126521185D01*
X144214286Y-126521185D02*
X144285715Y-126449757D01*
X144285715Y-126449757D02*
X144428572Y-126378328D01*
X145857143Y-126378328D02*
X146000000Y-126378328D01*
X146000000Y-126378328D02*
X146142857Y-126449757D01*
X146142857Y-126449757D02*
X146214286Y-126521185D01*
X146214286Y-126521185D02*
X146285714Y-126664042D01*
X146285714Y-126664042D02*
X146357143Y-126949757D01*
X146357143Y-126949757D02*
X146357143Y-127306900D01*
X146357143Y-127306900D02*
X146285714Y-127592614D01*
X146285714Y-127592614D02*
X146214286Y-127735471D01*
X146214286Y-127735471D02*
X146142857Y-127806900D01*
X146142857Y-127806900D02*
X146000000Y-127878328D01*
X146000000Y-127878328D02*
X145857143Y-127878328D01*
X145857143Y-127878328D02*
X145714286Y-127806900D01*
X145714286Y-127806900D02*
X145642857Y-127735471D01*
X145642857Y-127735471D02*
X145571428Y-127592614D01*
X145571428Y-127592614D02*
X145500000Y-127306900D01*
X145500000Y-127306900D02*
X145500000Y-126949757D01*
X145500000Y-126949757D02*
X145571428Y-126664042D01*
X145571428Y-126664042D02*
X145642857Y-126521185D01*
X145642857Y-126521185D02*
X145714286Y-126449757D01*
X145714286Y-126449757D02*
X145857143Y-126378328D01*
X147285714Y-126378328D02*
X147428571Y-126378328D01*
X147428571Y-126378328D02*
X147571428Y-126449757D01*
X147571428Y-126449757D02*
X147642857Y-126521185D01*
X147642857Y-126521185D02*
X147714285Y-126664042D01*
X147714285Y-126664042D02*
X147785714Y-126949757D01*
X147785714Y-126949757D02*
X147785714Y-127306900D01*
X147785714Y-127306900D02*
X147714285Y-127592614D01*
X147714285Y-127592614D02*
X147642857Y-127735471D01*
X147642857Y-127735471D02*
X147571428Y-127806900D01*
X147571428Y-127806900D02*
X147428571Y-127878328D01*
X147428571Y-127878328D02*
X147285714Y-127878328D01*
X147285714Y-127878328D02*
X147142857Y-127806900D01*
X147142857Y-127806900D02*
X147071428Y-127735471D01*
X147071428Y-127735471D02*
X146999999Y-127592614D01*
X146999999Y-127592614D02*
X146928571Y-127306900D01*
X146928571Y-127306900D02*
X146928571Y-126949757D01*
X146928571Y-126949757D02*
X146999999Y-126664042D01*
X146999999Y-126664042D02*
X147071428Y-126521185D01*
X147071428Y-126521185D02*
X147142857Y-126449757D01*
X147142857Y-126449757D02*
X147285714Y-126378328D01*
X149571427Y-127878328D02*
X149571427Y-126878328D01*
X149571427Y-127021185D02*
X149642856Y-126949757D01*
X149642856Y-126949757D02*
X149785713Y-126878328D01*
X149785713Y-126878328D02*
X149999999Y-126878328D01*
X149999999Y-126878328D02*
X150142856Y-126949757D01*
X150142856Y-126949757D02*
X150214285Y-127092614D01*
X150214285Y-127092614D02*
X150214285Y-127878328D01*
X150214285Y-127092614D02*
X150285713Y-126949757D01*
X150285713Y-126949757D02*
X150428570Y-126878328D01*
X150428570Y-126878328D02*
X150642856Y-126878328D01*
X150642856Y-126878328D02*
X150785713Y-126949757D01*
X150785713Y-126949757D02*
X150857142Y-127092614D01*
X150857142Y-127092614D02*
X150857142Y-127878328D01*
X151571427Y-127878328D02*
X151571427Y-126878328D01*
X151571427Y-127021185D02*
X151642856Y-126949757D01*
X151642856Y-126949757D02*
X151785713Y-126878328D01*
X151785713Y-126878328D02*
X151999999Y-126878328D01*
X151999999Y-126878328D02*
X152142856Y-126949757D01*
X152142856Y-126949757D02*
X152214285Y-127092614D01*
X152214285Y-127092614D02*
X152214285Y-127878328D01*
X152214285Y-127092614D02*
X152285713Y-126949757D01*
X152285713Y-126949757D02*
X152428570Y-126878328D01*
X152428570Y-126878328D02*
X152642856Y-126878328D01*
X152642856Y-126878328D02*
X152785713Y-126949757D01*
X152785713Y-126949757D02*
X152857142Y-127092614D01*
X152857142Y-127092614D02*
X152857142Y-127878328D01*
D12*
X133500000Y-94000000D02*
X133500000Y-129586420D01*
X158500000Y-94000000D02*
X158500000Y-129586420D01*
X133500000Y-129000000D02*
X158500000Y-129000000D01*
X133500000Y-129000000D02*
X158500000Y-129000000D01*
X133500000Y-129000000D02*
X134626504Y-128413579D01*
X133500000Y-129000000D02*
X134626504Y-129586421D01*
X158500000Y-129000000D02*
X157373496Y-129586421D01*
X158500000Y-129000000D02*
X157373496Y-128413579D01*
D10*
D11*
X160729734Y-121081943D02*
X161324191Y-120368595D01*
X161324191Y-120368595D02*
X161443083Y-121118525D01*
X161443083Y-121118525D02*
X161580265Y-120953906D01*
X161580265Y-120953906D02*
X161726593Y-120889888D01*
X161726593Y-120889888D02*
X161827193Y-120880742D01*
X161827193Y-120880742D02*
X161982667Y-120917324D01*
X161982667Y-120917324D02*
X162257032Y-121145961D01*
X162257032Y-121145961D02*
X162321050Y-121292289D01*
X162321050Y-121292289D02*
X162330195Y-121392890D01*
X162330195Y-121392890D02*
X162293613Y-121548363D01*
X162293613Y-121548363D02*
X162019249Y-121877601D01*
X162019249Y-121877601D02*
X161872921Y-121941619D01*
X161872921Y-121941619D02*
X161772320Y-121950765D01*
X162778324Y-120743560D02*
X162878925Y-120734415D01*
X162878925Y-120734415D02*
X162888070Y-120835015D01*
X162888070Y-120835015D02*
X162787470Y-120844161D01*
X162787470Y-120844161D02*
X162778324Y-120743560D01*
X162778324Y-120743560D02*
X162888070Y-120835015D01*
X163391072Y-120231412D02*
X163573982Y-120011921D01*
X163573982Y-120011921D02*
X163610564Y-119856447D01*
X163610564Y-119856447D02*
X163601419Y-119755847D01*
X163601419Y-119755847D02*
X163528255Y-119508919D01*
X163528255Y-119508919D02*
X163354490Y-119271136D01*
X163354490Y-119271136D02*
X162915507Y-118905316D01*
X162915507Y-118905316D02*
X162760033Y-118868734D01*
X162760033Y-118868734D02*
X162659433Y-118877880D01*
X162659433Y-118877880D02*
X162513105Y-118941898D01*
X162513105Y-118941898D02*
X162330195Y-119161390D01*
X162330195Y-119161390D02*
X162293613Y-119316863D01*
X162293613Y-119316863D02*
X162302759Y-119417464D01*
X162302759Y-119417464D02*
X162366777Y-119563792D01*
X162366777Y-119563792D02*
X162641142Y-119792429D01*
X162641142Y-119792429D02*
X162796615Y-119829011D01*
X162796615Y-119829011D02*
X162897216Y-119819865D01*
X162897216Y-119819865D02*
X163043544Y-119755847D01*
X163043544Y-119755847D02*
X163226454Y-119536355D01*
X163226454Y-119536355D02*
X163263035Y-119380882D01*
X163263035Y-119380882D02*
X163253890Y-119280281D01*
X163253890Y-119280281D02*
X163189872Y-119133953D01*
X163290472Y-118009058D02*
X163381927Y-117899312D01*
X163381927Y-117899312D02*
X163528254Y-117835294D01*
X163528254Y-117835294D02*
X163628855Y-117826148D01*
X163628855Y-117826148D02*
X163784328Y-117862730D01*
X163784328Y-117862730D02*
X164049547Y-117990767D01*
X164049547Y-117990767D02*
X164323912Y-118219405D01*
X164323912Y-118219405D02*
X164497677Y-118457187D01*
X164497677Y-118457187D02*
X164561695Y-118603515D01*
X164561695Y-118603515D02*
X164570840Y-118704116D01*
X164570840Y-118704116D02*
X164534259Y-118859589D01*
X164534259Y-118859589D02*
X164442804Y-118969335D01*
X164442804Y-118969335D02*
X164296476Y-119033353D01*
X164296476Y-119033353D02*
X164195875Y-119042499D01*
X164195875Y-119042499D02*
X164040402Y-119005917D01*
X164040402Y-119005917D02*
X163775183Y-118877880D01*
X163775183Y-118877880D02*
X163500818Y-118649243D01*
X163500818Y-118649243D02*
X163327054Y-118411460D01*
X163327054Y-118411460D02*
X163263035Y-118265132D01*
X163263035Y-118265132D02*
X163253890Y-118164532D01*
X163253890Y-118164532D02*
X163290472Y-118009058D01*
X164479385Y-116582362D02*
X164022111Y-117131091D01*
X164022111Y-117131091D02*
X164525113Y-117643239D01*
X164525113Y-117643239D02*
X164515967Y-117542639D01*
X164515967Y-117542639D02*
X164552549Y-117387165D01*
X164552549Y-117387165D02*
X164781186Y-117112800D01*
X164781186Y-117112800D02*
X164927514Y-117048782D01*
X164927514Y-117048782D02*
X165028115Y-117039637D01*
X165028115Y-117039637D02*
X165183588Y-117076218D01*
X165183588Y-117076218D02*
X165457953Y-117304856D01*
X165457953Y-117304856D02*
X165521971Y-117451184D01*
X165521971Y-117451184D02*
X165531117Y-117551784D01*
X165531117Y-117551784D02*
X165494535Y-117707257D01*
X165494535Y-117707257D02*
X165265898Y-117981622D01*
X165265898Y-117981622D02*
X165119570Y-118045641D01*
X165119570Y-118045641D02*
X165018969Y-118054786D01*
X166591994Y-116390307D02*
X166043264Y-117048782D01*
X166317629Y-116719545D02*
X165165297Y-115759268D01*
X165165297Y-115759268D02*
X165238461Y-116006196D01*
X165238461Y-116006196D02*
X165256752Y-116207397D01*
X165256752Y-116207397D02*
X165220170Y-116362870D01*
X167735180Y-115018484D02*
X166966958Y-114378299D01*
X167076704Y-114469754D02*
X167067559Y-114369154D01*
X167067559Y-114369154D02*
X167104141Y-114213680D01*
X167104141Y-114213680D02*
X167241323Y-114049062D01*
X167241323Y-114049062D02*
X167387651Y-113985043D01*
X167387651Y-113985043D02*
X167543124Y-114021625D01*
X167543124Y-114021625D02*
X168146727Y-114524627D01*
X167543124Y-114021625D02*
X167479106Y-113875297D01*
X167479106Y-113875297D02*
X167515688Y-113719824D01*
X167515688Y-113719824D02*
X167652870Y-113555205D01*
X167652870Y-113555205D02*
X167799198Y-113491187D01*
X167799198Y-113491187D02*
X167954671Y-113527769D01*
X167954671Y-113527769D02*
X168558274Y-114030771D01*
X169015548Y-113482041D02*
X168247327Y-112841857D01*
X168357073Y-112933312D02*
X168347928Y-112832711D01*
X168347928Y-112832711D02*
X168384509Y-112677238D01*
X168384509Y-112677238D02*
X168521692Y-112512619D01*
X168521692Y-112512619D02*
X168668020Y-112448601D01*
X168668020Y-112448601D02*
X168823493Y-112485183D01*
X168823493Y-112485183D02*
X169427096Y-112988185D01*
X168823493Y-112485183D02*
X168759475Y-112338855D01*
X168759475Y-112338855D02*
X168796057Y-112183381D01*
X168796057Y-112183381D02*
X168933239Y-112018763D01*
X168933239Y-112018763D02*
X169079567Y-111954744D01*
X169079567Y-111954744D02*
X169235040Y-111991326D01*
X169235040Y-111991326D02*
X169838643Y-112494328D01*
D12*
X156384111Y-111820092D02*
X165968275Y-119806895D01*
X158884111Y-108820092D02*
X168468275Y-116806895D01*
X165517774Y-119431478D02*
X168017774Y-116431478D01*
X165517774Y-119431478D02*
X168017774Y-116431478D01*
X165517774Y-119431478D02*
X165788443Y-118190656D01*
X165517774Y-119431478D02*
X166689445Y-118941491D01*
X168017774Y-116431478D02*
X167747105Y-117672300D01*
X168017774Y-116431478D02*
X166846103Y-116921465D01*
D10*
D11*
X139928573Y-64378328D02*
X139071430Y-64378328D01*
X139500001Y-64378328D02*
X139500001Y-62878328D01*
X139500001Y-62878328D02*
X139357144Y-63092614D01*
X139357144Y-63092614D02*
X139214287Y-63235471D01*
X139214287Y-63235471D02*
X139071430Y-63306900D01*
X140500001Y-63021185D02*
X140571429Y-62949757D01*
X140571429Y-62949757D02*
X140714287Y-62878328D01*
X140714287Y-62878328D02*
X141071429Y-62878328D01*
X141071429Y-62878328D02*
X141214287Y-62949757D01*
X141214287Y-62949757D02*
X141285715Y-63021185D01*
X141285715Y-63021185D02*
X141357144Y-63164042D01*
X141357144Y-63164042D02*
X141357144Y-63306900D01*
X141357144Y-63306900D02*
X141285715Y-63521185D01*
X141285715Y-63521185D02*
X140428572Y-64378328D01*
X140428572Y-64378328D02*
X141357144Y-64378328D01*
X142000000Y-64235471D02*
X142071429Y-64306900D01*
X142071429Y-64306900D02*
X142000000Y-64378328D01*
X142000000Y-64378328D02*
X141928572Y-64306900D01*
X141928572Y-64306900D02*
X142000000Y-64235471D01*
X142000000Y-64235471D02*
X142000000Y-64378328D01*
X143000001Y-62878328D02*
X143142858Y-62878328D01*
X143142858Y-62878328D02*
X143285715Y-62949757D01*
X143285715Y-62949757D02*
X143357144Y-63021185D01*
X143357144Y-63021185D02*
X143428572Y-63164042D01*
X143428572Y-63164042D02*
X143500001Y-63449757D01*
X143500001Y-63449757D02*
X143500001Y-63806900D01*
X143500001Y-63806900D02*
X143428572Y-64092614D01*
X143428572Y-64092614D02*
X143357144Y-64235471D01*
X143357144Y-64235471D02*
X143285715Y-64306900D01*
X143285715Y-64306900D02*
X143142858Y-64378328D01*
X143142858Y-64378328D02*
X143000001Y-64378328D01*
X143000001Y-64378328D02*
X142857144Y-64306900D01*
X142857144Y-64306900D02*
X142785715Y-64235471D01*
X142785715Y-64235471D02*
X142714286Y-64092614D01*
X142714286Y-64092614D02*
X142642858Y-63806900D01*
X142642858Y-63806900D02*
X142642858Y-63449757D01*
X142642858Y-63449757D02*
X142714286Y-63164042D01*
X142714286Y-63164042D02*
X142785715Y-63021185D01*
X142785715Y-63021185D02*
X142857144Y-62949757D01*
X142857144Y-62949757D02*
X143000001Y-62878328D01*
X144428572Y-62878328D02*
X144571429Y-62878328D01*
X144571429Y-62878328D02*
X144714286Y-62949757D01*
X144714286Y-62949757D02*
X144785715Y-63021185D01*
X144785715Y-63021185D02*
X144857143Y-63164042D01*
X144857143Y-63164042D02*
X144928572Y-63449757D01*
X144928572Y-63449757D02*
X144928572Y-63806900D01*
X144928572Y-63806900D02*
X144857143Y-64092614D01*
X144857143Y-64092614D02*
X144785715Y-64235471D01*
X144785715Y-64235471D02*
X144714286Y-64306900D01*
X144714286Y-64306900D02*
X144571429Y-64378328D01*
X144571429Y-64378328D02*
X144428572Y-64378328D01*
X144428572Y-64378328D02*
X144285715Y-64306900D01*
X144285715Y-64306900D02*
X144214286Y-64235471D01*
X144214286Y-64235471D02*
X144142857Y-64092614D01*
X144142857Y-64092614D02*
X144071429Y-63806900D01*
X144071429Y-63806900D02*
X144071429Y-63449757D01*
X144071429Y-63449757D02*
X144142857Y-63164042D01*
X144142857Y-63164042D02*
X144214286Y-63021185D01*
X144214286Y-63021185D02*
X144285715Y-62949757D01*
X144285715Y-62949757D02*
X144428572Y-62878328D01*
X145857143Y-62878328D02*
X146000000Y-62878328D01*
X146000000Y-62878328D02*
X146142857Y-62949757D01*
X146142857Y-62949757D02*
X146214286Y-63021185D01*
X146214286Y-63021185D02*
X146285714Y-63164042D01*
X146285714Y-63164042D02*
X146357143Y-63449757D01*
X146357143Y-63449757D02*
X146357143Y-63806900D01*
X146357143Y-63806900D02*
X146285714Y-64092614D01*
X146285714Y-64092614D02*
X146214286Y-64235471D01*
X146214286Y-64235471D02*
X146142857Y-64306900D01*
X146142857Y-64306900D02*
X146000000Y-64378328D01*
X146000000Y-64378328D02*
X145857143Y-64378328D01*
X145857143Y-64378328D02*
X145714286Y-64306900D01*
X145714286Y-64306900D02*
X145642857Y-64235471D01*
X145642857Y-64235471D02*
X145571428Y-64092614D01*
X145571428Y-64092614D02*
X145500000Y-63806900D01*
X145500000Y-63806900D02*
X145500000Y-63449757D01*
X145500000Y-63449757D02*
X145571428Y-63164042D01*
X145571428Y-63164042D02*
X145642857Y-63021185D01*
X145642857Y-63021185D02*
X145714286Y-62949757D01*
X145714286Y-62949757D02*
X145857143Y-62878328D01*
X147285714Y-62878328D02*
X147428571Y-62878328D01*
X147428571Y-62878328D02*
X147571428Y-62949757D01*
X147571428Y-62949757D02*
X147642857Y-63021185D01*
X147642857Y-63021185D02*
X147714285Y-63164042D01*
X147714285Y-63164042D02*
X147785714Y-63449757D01*
X147785714Y-63449757D02*
X147785714Y-63806900D01*
X147785714Y-63806900D02*
X147714285Y-64092614D01*
X147714285Y-64092614D02*
X147642857Y-64235471D01*
X147642857Y-64235471D02*
X147571428Y-64306900D01*
X147571428Y-64306900D02*
X147428571Y-64378328D01*
X147428571Y-64378328D02*
X147285714Y-64378328D01*
X147285714Y-64378328D02*
X147142857Y-64306900D01*
X147142857Y-64306900D02*
X147071428Y-64235471D01*
X147071428Y-64235471D02*
X146999999Y-64092614D01*
X146999999Y-64092614D02*
X146928571Y-63806900D01*
X146928571Y-63806900D02*
X146928571Y-63449757D01*
X146928571Y-63449757D02*
X146999999Y-63164042D01*
X146999999Y-63164042D02*
X147071428Y-63021185D01*
X147071428Y-63021185D02*
X147142857Y-62949757D01*
X147142857Y-62949757D02*
X147285714Y-62878328D01*
X149571427Y-64378328D02*
X149571427Y-63378328D01*
X149571427Y-63521185D02*
X149642856Y-63449757D01*
X149642856Y-63449757D02*
X149785713Y-63378328D01*
X149785713Y-63378328D02*
X149999999Y-63378328D01*
X149999999Y-63378328D02*
X150142856Y-63449757D01*
X150142856Y-63449757D02*
X150214285Y-63592614D01*
X150214285Y-63592614D02*
X150214285Y-64378328D01*
X150214285Y-63592614D02*
X150285713Y-63449757D01*
X150285713Y-63449757D02*
X150428570Y-63378328D01*
X150428570Y-63378328D02*
X150642856Y-63378328D01*
X150642856Y-63378328D02*
X150785713Y-63449757D01*
X150785713Y-63449757D02*
X150857142Y-63592614D01*
X150857142Y-63592614D02*
X150857142Y-64378328D01*
X151571427Y-64378328D02*
X151571427Y-63378328D01*
X151571427Y-63521185D02*
X151642856Y-63449757D01*
X151642856Y-63449757D02*
X151785713Y-63378328D01*
X151785713Y-63378328D02*
X151999999Y-63378328D01*
X151999999Y-63378328D02*
X152142856Y-63449757D01*
X152142856Y-63449757D02*
X152214285Y-63592614D01*
X152214285Y-63592614D02*
X152214285Y-64378328D01*
X152214285Y-63592614D02*
X152285713Y-63449757D01*
X152285713Y-63449757D02*
X152428570Y-63378328D01*
X152428570Y-63378328D02*
X152642856Y-63378328D01*
X152642856Y-63378328D02*
X152785713Y-63449757D01*
X152785713Y-63449757D02*
X152857142Y-63592614D01*
X152857142Y-63592614D02*
X152857142Y-64378328D01*
D12*
X140000000Y-69500000D02*
X140000000Y-64913580D01*
X152000000Y-69500000D02*
X152000000Y-64913580D01*
X140000000Y-65500000D02*
X152000000Y-65500000D01*
X140000000Y-65500000D02*
X152000000Y-65500000D01*
X140000000Y-65500000D02*
X141126504Y-64913579D01*
X140000000Y-65500000D02*
X141126504Y-66086421D01*
X152000000Y-65500000D02*
X150873496Y-66086421D01*
X152000000Y-65500000D02*
X150873496Y-64913579D01*
D13*
%TO.P,Y1,4,4*%
%TO.N,GND*%
X137260000Y-91620000D03*
%TO.P,Y1,3,3*%
%TO.N,Net-(U1-RA4{slash}IOCA3{slash}AN3{slash}OSC2{slash}CLKOUT)*%
X140160000Y-91620000D03*
%TO.P,Y1,2,2*%
%TO.N,GND*%
X140160000Y-93920000D03*
%TO.P,Y1,1,1*%
%TO.N,Net-(U1-RA5{slash}IOCA5{slash}OSC1{slash}CLKIN)*%
X137260000Y-93920000D03*
%TD*%
D14*
%TO.P,JP2,1,A*%
%TO.N,/USB_DN*%
X140310000Y-86160000D03*
%TO.P,JP2,2,B*%
%TO.N,Net-(JP2-B)*%
X139010000Y-86160000D03*
%TD*%
%TO.P,JP1,1,A*%
%TO.N,/USB_DP*%
X140300000Y-83420000D03*
%TO.P,JP1,2,B*%
%TO.N,Net-(JP1-B)*%
X139000000Y-83420000D03*
%TD*%
D15*
%TO.P,TP5,1,1*%
%TO.N,GND*%
X152100000Y-111500000D03*
%TD*%
%TO.P,TP4,1,1*%
%TO.N,/5V*%
X149050000Y-111500000D03*
%TD*%
%TO.P,TP3,1,1*%
%TO.N,/mclr*%
X146000000Y-111500000D03*
%TD*%
%TO.P,TP2,1,1*%
%TO.N,Net-(JP2-B)*%
X142950000Y-111500000D03*
%TD*%
%TO.P,TP1,1,1*%
%TO.N,Net-(JP1-B)*%
X139900000Y-111500000D03*
%TD*%
D16*
%TO.P,C6,1*%
%TO.N,GND*%
X137467500Y-88960000D03*
%TO.P,C6,2*%
%TO.N,Net-(U1-RA4{slash}IOCA3{slash}AN3{slash}OSC2{slash}CLKOUT)*%
X140592500Y-88960000D03*
%TD*%
D17*
%TO.P,D2,1,K*%
%TO.N,Net-(D2-K)*%
X152189999Y-102157500D03*
%TO.P,D2,2,A*%
%TO.N,/STBY*%
X152190001Y-99182500D03*
%TD*%
D18*
%TO.P,D5,1,K*%
%TO.N,/VIN*%
X155651050Y-79425584D03*
%TO.P,D5,2,A*%
%TO.N,/VBUS*%
X151651050Y-79425584D03*
%TD*%
D19*
%TO.P,R7,1*%
%TO.N,Net-(D2-K)*%
X154670000Y-102250000D03*
%TO.P,R7,2*%
%TO.N,GND*%
X154670000Y-99150000D03*
%TD*%
%TO.P,R8,1*%
%TO.N,Net-(D3-K)*%
X148600000Y-102320000D03*
%TO.P,R8,2*%
%TO.N,GND*%
X148600000Y-99220000D03*
%TD*%
D20*
%TO.P,U1,1,VDD*%
%TO.N,/5V*%
X142795001Y-91360000D03*
%TO.P,U1,2,RA5/IOCA5/OSC1/CLKIN*%
%TO.N,Net-(U1-RA5{slash}IOCA5{slash}OSC1{slash}CLKIN)*%
X143445000Y-91360000D03*
%TO.P,U1,3,RA4/IOCA3/AN3/OSC2/CLKOUT*%
%TO.N,Net-(U1-RA4{slash}IOCA3{slash}AN3{slash}OSC2{slash}CLKOUT)*%
X144094999Y-91360001D03*
%TO.P,U1,4,RA3/IOCA3/~{MCLR}/Vpp*%
%TO.N,/mclr*%
X144744999Y-91359999D03*
%TO.P,U1,5,T0CKI/CCP1/P1A/RC5*%
%TO.N,/STBY*%
X145395000Y-91360000D03*
%TO.P,U1,6,SRQ/C12OUT/P1B/RC4*%
%TO.N,/PGRM*%
X146045000Y-91360000D03*
%TO.P,U1,7,PGM/C12IN3-/P1C/AN7/RC3*%
%TO.N,/PGD*%
X146694999Y-91359999D03*
%TO.P,U1,8,T1OSCI/T13CKI/SS/AN8/RC6*%
%TO.N,/PGC*%
X147345000Y-91360000D03*
%TO.P,U1,9,T1OSCO/SDO/AN9/RC7*%
%TO.N,/MCLR_SIG*%
X147995000Y-91360000D03*
%TO.P,U1,10,RB7/IOCB7/TX/CK*%
%TO.N,unconnected-(U1-RB7{slash}IOCB7{slash}TX{slash}CK-Pad10)*%
X148645001Y-91360001D03*
%TO.P,U1,11,RB6/IOCB6/SCK/SCL*%
%TO.N,unconnected-(U1-RB6{slash}IOCB6{slash}SCK{slash}SCL-Pad11)*%
X148644999Y-84360000D03*
%TO.P,U1,12,RB5/IOCB5/AN11/RX/DT*%
%TO.N,unconnected-(U1-RB5{slash}IOCB5{slash}AN11{slash}RX{slash}DT-Pad12)*%
X147995000Y-84360000D03*
%TO.P,U1,13,RB4/IOCB4/AN10/SDI/SDA*%
%TO.N,unconnected-(U1-RB4{slash}IOCB4{slash}AN10{slash}SDI{slash}SDA-Pad13)*%
X147345001Y-84359999D03*
%TO.P,U1,14,INT2/CVRef/C12IN2-/P1D/AN6/RC2*%
%TO.N,unconnected-(U1-INT2{slash}CVRef{slash}C12IN2-{slash}P1D{slash}AN6{slash}RC2-Pad14)*%
X146695001Y-84360001D03*
%TO.P,U1,15,INT1/C12IN1-/VREF-AN5/RC1*%
%TO.N,unconnected-(U1-INT1{slash}C12IN1-{slash}VREF-AN5{slash}RC1-Pad15)*%
X146045000Y-84360000D03*
%TO.P,U1,16,INT0/C12IN+/VREF+/AN4/RC0*%
%TO.N,unconnected-(U1-INT0{slash}C12IN+{slash}VREF+{slash}AN4{slash}RC0-Pad16)*%
X145395000Y-84360000D03*
%TO.P,U1,17,VUSB*%
%TO.N,/5V*%
X144745001Y-84360001D03*
%TO.P,U1,18,RA1/IOCA1/D-/PGC*%
%TO.N,/USB_DN*%
X144095000Y-84360000D03*
%TO.P,U1,19,RA0/IOCA0/D+/PGD*%
%TO.N,/USB_DP*%
X143445000Y-84360000D03*
%TO.P,U1,20,VSS*%
%TO.N,GND*%
X142794999Y-84359999D03*
%TD*%
D19*
%TO.P,R15,1*%
%TO.N,GND*%
X148400000Y-81570000D03*
%TO.P,R15,2*%
%TO.N,Net-(J1-CC1)*%
X148400000Y-78470000D03*
%TD*%
D21*
%TO.P,C4,1*%
%TO.N,/VIN*%
X156230003Y-91417498D03*
%TO.P,C4,2*%
%TO.N,GND*%
X156229997Y-94542502D03*
%TD*%
D22*
%TO.P,R6,1*%
%TO.N,Net-(D1-K)*%
X142240000Y-99262499D03*
%TO.P,R6,2*%
%TO.N,GND*%
X142240000Y-102362499D03*
%TD*%
D23*
%TO.P,U3,1,GND*%
%TO.N,GND*%
X151340000Y-88989999D03*
%TO.P,U3,2,VO*%
%TO.N,/5V*%
X153640000Y-88990000D03*
D24*
X153640000Y-82690000D03*
D23*
%TO.P,U3,3,VI*%
%TO.N,/VIN*%
X155939998Y-88990001D03*
%TD*%
D25*
%TO.P,J1,A1,GND*%
%TO.N,GND*%
X149200000Y-76225000D03*
%TO.P,J1,A4,VBUS*%
%TO.N,/VBUS*%
X148399998Y-76225000D03*
D26*
%TO.P,J1,A5,CC1*%
%TO.N,Net-(J1-CC1)*%
X147250001Y-76225002D03*
%TO.P,J1,A6,D+*%
%TO.N,/USB_DP*%
X146249998Y-76224998D03*
%TO.P,J1,A7,D-*%
%TO.N,/USB_DN*%
X145750000Y-76224998D03*
%TO.P,J1,A8,SBU1*%
%TO.N,unconnected-(J1-SBU1-PadA8)*%
X144750002Y-76225000D03*
D25*
%TO.P,J1,A9,VBUS*%
%TO.N,/VBUS*%
X143600002Y-76225000D03*
%TO.P,J1,A12,GND*%
%TO.N,GND*%
X142800000Y-76225000D03*
%TO.P,J1,B1,GND*%
X142800000Y-76225000D03*
%TO.P,J1,B4,VBUS*%
%TO.N,/VBUS*%
X143600002Y-76225000D03*
D26*
%TO.P,J1,B5,CC2*%
%TO.N,Net-(J1-CC2)*%
X144249998Y-76225001D03*
%TO.P,J1,B6,D+*%
%TO.N,/USB_DP*%
X145250000Y-76225000D03*
%TO.P,J1,B7,D-*%
%TO.N,/USB_DN*%
X146750002Y-76225001D03*
%TO.P,J1,B8,SBU2*%
%TO.N,unconnected-(J1-SBU2-PadB8)*%
X147750001Y-76224999D03*
D25*
%TO.P,J1,B9,VBUS*%
%TO.N,/VBUS*%
X148399998Y-76225000D03*
%TO.P,J1,B12,GND*%
%TO.N,GND*%
X149200000Y-76225000D03*
D27*
%TO.P,J1,S1,SHIELD*%
X150320001Y-71425000D03*
D28*
X150320000Y-75625000D03*
X141680000Y-75625000D03*
D27*
X141680000Y-71425000D03*
%TD*%
D19*
%TO.P,R14,1*%
%TO.N,GND*%
X142990000Y-81600000D03*
%TO.P,R14,2*%
%TO.N,Net-(J1-CC2)*%
X142990000Y-78500000D03*
%TD*%
D29*
%TO.P,J2,1,Pin_1*%
%TO.N,/PGD*%
X148425000Y-105855000D03*
D30*
%TO.P,J2,2,Pin_2*%
%TO.N,/PGC*%
X148424997Y-108395002D03*
%TO.P,J2,3,Pin_3*%
%TO.N,/MCLR*%
X145884998Y-105854997D03*
%TO.P,J2,4,Pin_4*%
%TO.N,/VIN*%
X145885000Y-108395000D03*
%TO.P,J2,5,Pin_5*%
%TO.N,GND*%
X143345000Y-105855000D03*
%TO.P,J2,6,Pin_6*%
%TO.N,/5V*%
X143345000Y-108395001D03*
%TD*%
D17*
%TO.P,D3,1,K*%
%TO.N,Net-(D3-K)*%
X146019999Y-102247500D03*
%TO.P,D3,2,A*%
%TO.N,/PGRM*%
X146020001Y-99272500D03*
%TD*%
D31*
%TO.P,D1,1,K*%
%TO.N,Net-(D1-K)*%
X139310000Y-99347499D03*
%TO.P,D1,2,A*%
%TO.N,/5V*%
X139310002Y-102322499D03*
%TD*%
D21*
%TO.P,C5,1*%
%TO.N,/5V*%
X153620000Y-91420000D03*
%TO.P,C5,2*%
%TO.N,GND*%
X153620002Y-94545002D03*
%TD*%
D16*
%TO.P,C7,2*%
%TO.N,Net-(U1-RA5{slash}IOCA5{slash}OSC1{slash}CLKIN)*%
X139802501Y-96710004D03*
%TO.P,C7,1*%
%TO.N,GND*%
X136677499Y-96709996D03*
%TD*%
D32*
%TO.N,GND*%
X137520000Y-89110000D03*
X137330000Y-91580000D03*
X140120000Y-94190000D03*
X152000000Y-111500000D03*
%TO.N,/5V*%
X149000000Y-111500000D03*
%TO.N,GND*%
X148600000Y-99220000D03*
X136170000Y-78610000D03*
X136677497Y-96709998D03*
X142250000Y-102340000D03*
X154670000Y-99150000D03*
X153590000Y-94540000D03*
X142800000Y-76180000D03*
X142900000Y-79780000D03*
X155830000Y-77500000D03*
X148110000Y-81520000D03*
X151340000Y-88989999D03*
X150660000Y-81520000D03*
X135630000Y-82170000D03*
X151170000Y-93910000D03*
D33*
X142794999Y-84359999D03*
D32*
X156230000Y-94530000D03*
X149200000Y-76210000D03*
X144300000Y-88490000D03*
%TO.N,/MCLR_SIG*%
X149090000Y-94720000D03*
%TO.N,/5V*%
X139320000Y-102260000D03*
X154360000Y-82710000D03*
X155510000Y-86700000D03*
X149390000Y-86560000D03*
D33*
X144740000Y-84370000D03*
D32*
X153620000Y-91420000D03*
X153640000Y-88990000D03*
D33*
X142795001Y-91360000D03*
D32*
X141150000Y-96670000D03*
%TO.N,/12V*%
X152760000Y-84200000D03*
X154460000Y-84190000D03*
D33*
%TO.N,Net-(Q2-G)*%
X146190000Y-97670000D03*
X147990000Y-98030000D03*
%TD*%
D34*
%TO.N,/VIN*%
X157315584Y-79425584D02*
X155651050Y-79425584D01*
X157710000Y-79820000D02*
X157315584Y-79425584D01*
X157710000Y-103300000D02*
X157710000Y-79820000D01*
X153450000Y-104620000D02*
X156390000Y-104620000D01*
X151200000Y-110140000D02*
X152110000Y-109230000D01*
X152110000Y-109230000D02*
X152110000Y-105960000D01*
X146280000Y-110140000D02*
X151200000Y-110140000D01*
X145885000Y-109745000D02*
X146280000Y-110140000D01*
X145885000Y-108395000D02*
X145885000Y-109745000D01*
X152110000Y-105960000D02*
X153450000Y-104620000D01*
X156390000Y-104620000D02*
X157710000Y-103300000D01*
%TO.N,Net-(JP1-B)*%
X139110000Y-105338528D02*
X139110000Y-109678528D01*
X134750000Y-100978528D02*
X139110000Y-105338528D01*
X134750000Y-86210000D02*
X134750000Y-100978528D01*
X137540000Y-83420000D02*
X134750000Y-86210000D01*
X139900000Y-110468528D02*
X139900000Y-111500000D01*
X139000000Y-83420000D02*
X137540000Y-83420000D01*
X139110000Y-109678528D02*
X139900000Y-110468528D01*
%TO.N,Net-(JP2-B)*%
X137810000Y-86160000D02*
X139010000Y-86160000D01*
D35*
%TO.N,/USB_DN*%
X140310000Y-86160000D02*
X143570000Y-86160000D01*
%TO.N,/USB_DP*%
X140300000Y-83630000D02*
X140300000Y-83420000D01*
X142430000Y-85760000D02*
X140300000Y-83630000D01*
D34*
%TO.N,/PGC*%
X150740000Y-106079999D02*
X148424997Y-108395002D01*
X150740000Y-97581472D02*
X150740000Y-106079999D01*
X147345000Y-94186472D02*
X150740000Y-97581472D01*
X147345000Y-91360000D02*
X147345000Y-94186472D01*
%TO.N,/mclr*%
X144640000Y-110140000D02*
X146000000Y-111500000D01*
X141268528Y-110140000D02*
X144640000Y-110140000D01*
X140310000Y-109181472D02*
X141268528Y-110140000D01*
X140310000Y-104841472D02*
X140310000Y-109181472D01*
X141430000Y-103660000D02*
X140279264Y-104810736D01*
X144170000Y-103060000D02*
X143570000Y-103660000D01*
X144170000Y-93950000D02*
X144170000Y-103060000D01*
X144744999Y-93375001D02*
X144170000Y-93950000D01*
X144744999Y-91359999D02*
X144744999Y-93375001D01*
X143570000Y-103660000D02*
X141430000Y-103660000D01*
X140279264Y-104810736D02*
X140310000Y-104841472D01*
%TO.N,Net-(JP2-B)*%
X139710000Y-105090000D02*
X139710000Y-109430000D01*
X135350000Y-100730000D02*
X139710000Y-105090000D01*
X139710000Y-109430000D02*
X141780000Y-111500000D01*
X135350000Y-88620000D02*
X135350000Y-100730000D01*
X141780000Y-111500000D02*
X142950000Y-111500000D01*
X137810000Y-86160000D02*
X135350000Y-88620000D01*
D35*
%TO.N,/USB_DP*%
X143080000Y-85760000D02*
X142430000Y-85760000D01*
X143445000Y-85395000D02*
X143080000Y-85760000D01*
X143445000Y-84360000D02*
X143445000Y-85395000D01*
%TO.N,/USB_DN*%
X144095000Y-85635000D02*
X144095000Y-84360000D01*
X143570000Y-86160000D02*
X144095000Y-85635000D01*
D34*
%TO.N,Net-(U1-RA4{slash}IOCA3{slash}AN3{slash}OSC2{slash}CLKOUT)*%
X144094999Y-90134999D02*
X144094999Y-91360001D01*
X143830000Y-89870000D02*
X144094999Y-90134999D01*
X141910000Y-89870000D02*
X143830000Y-89870000D01*
X140160000Y-91620000D02*
X141910000Y-89870000D01*
X140592500Y-91187500D02*
X140160000Y-91620000D01*
X140592500Y-88960000D02*
X140592500Y-91187500D01*
%TO.N,Net-(U1-RA5{slash}IOCA5{slash}OSC1{slash}CLKIN)*%
X142250000Y-95340000D02*
X143445000Y-94145000D01*
X143445000Y-94145000D02*
X143445000Y-91360000D01*
X138290000Y-95340000D02*
X142250000Y-95340000D01*
X138280000Y-95330000D02*
X138290000Y-95340000D01*
X138510000Y-95560000D02*
X139660004Y-96710004D01*
X137080000Y-94130000D02*
X138510000Y-95560000D01*
X139660004Y-96710004D02*
X139802501Y-96710004D01*
%TO.N,GND*%
X142900000Y-79780000D02*
X142900000Y-81510000D01*
X142900000Y-81510000D02*
X142990000Y-81600000D01*
%TO.N,/MCLR_SIG*%
X147995000Y-93625000D02*
X149090000Y-94720000D01*
X147995000Y-91360000D02*
X147995000Y-93625000D01*
%TO.N,Net-(D3-K)*%
X148527500Y-102247500D02*
X148600000Y-102320000D01*
X146019999Y-102247500D02*
X148527500Y-102247500D01*
%TO.N,Net-(D2-K)*%
X152189999Y-102157500D02*
X154577500Y-102157500D01*
X154577500Y-102157500D02*
X154670000Y-102250000D01*
%TO.N,Net-(D1-K)*%
X142155000Y-99347499D02*
X142240000Y-99262499D01*
X139310000Y-99347499D02*
X142155000Y-99347499D01*
%TO.N,/12V*%
X154450000Y-84200000D02*
X154460000Y-84190000D01*
X152760000Y-84200000D02*
X154450000Y-84200000D01*
%TO.N,Net-(Q2-G)*%
X147630000Y-97670000D02*
X147990000Y-98030000D01*
X146190000Y-97670000D02*
X147630000Y-97670000D01*
D36*
%TO.N,Net-(J1-CC2)*%
X143785002Y-77560000D02*
X143220000Y-77560000D01*
X142990000Y-78500000D02*
X142990000Y-77790000D01*
X142990000Y-77790000D02*
X143220000Y-77560000D01*
X144249998Y-77095004D02*
X143785002Y-77560000D01*
X144249998Y-76225001D02*
X144249998Y-77095004D01*
%TO.N,Net-(J1-CC1)*%
X147250001Y-76225002D02*
X147250001Y-77094999D01*
X148400000Y-78244998D02*
X148400000Y-78470000D01*
X147250001Y-77094999D02*
X148400000Y-78244998D01*
D34*
%TO.N,/VIN*%
X156280000Y-80054534D02*
X156280000Y-88649999D01*
X155651050Y-79425584D02*
X156280000Y-80054534D01*
X155939998Y-91127493D02*
X156230003Y-91417498D01*
X156280000Y-88649999D02*
X155939998Y-88990001D01*
X155939998Y-88990001D02*
X155939998Y-91127493D01*
%TO.N,/PGD*%
X146694999Y-91359999D02*
X146694999Y-94384999D01*
X150140000Y-97830000D02*
X150140000Y-104140000D01*
X146694999Y-94384999D02*
X150140000Y-97830000D01*
X150140000Y-104140000D02*
X148425000Y-105855000D01*
D35*
%TO.N,/USB_DN*%
X145725000Y-77280000D02*
X145725000Y-77720000D01*
X145725000Y-76249998D02*
X145725000Y-77280000D01*
X146285000Y-78040000D02*
X146285000Y-78120000D01*
X146750002Y-76225001D02*
X146750002Y-77094994D01*
X146750002Y-77094994D02*
X146699998Y-77144998D01*
X145750000Y-76224998D02*
X145725000Y-76249998D01*
X146125000Y-78280000D02*
X145885000Y-78280000D01*
X145885000Y-77880000D02*
X146125000Y-77880000D01*
X145725000Y-81825496D02*
X144095000Y-83455496D01*
X144095000Y-83455496D02*
X144095000Y-84360000D01*
X145725000Y-79290000D02*
X145725000Y-81825496D01*
X146699998Y-77144998D02*
X145860002Y-77144998D01*
X145725000Y-78440000D02*
X145725000Y-78520000D01*
X145725000Y-78520000D02*
X145725000Y-79290000D01*
X145860002Y-77144998D02*
X145725000Y-77280000D01*
X146285000Y-78120000D02*
G75*
G02*
X146125000Y-78280000I-160000J0D01*
G01*
X145885000Y-78280000D02*
G75*
G03*
X145725000Y-78440000I0J-160000D01*
G01*
X146125000Y-77880000D02*
G75*
G02*
X146285000Y-78040000I0J-160000D01*
G01*
X145725000Y-77720000D02*
G75*
G03*
X145885000Y-77880000I160000J0D01*
G01*
D34*
%TO.N,/STBY*%
X148890000Y-89880000D02*
X149330000Y-90320000D01*
X145750000Y-89880000D02*
X148890000Y-89880000D01*
X149330000Y-90320000D02*
X149330000Y-93790000D01*
X145395000Y-90235000D02*
X145750000Y-89880000D01*
X152190001Y-96650001D02*
X152190001Y-99182500D01*
X149330000Y-93790000D02*
X152190001Y-96650001D01*
X145395000Y-91360000D02*
X145395000Y-90235000D01*
%TO.N,/PGRM*%
X145460000Y-92990926D02*
X145460000Y-98712499D01*
X145460000Y-98712499D02*
X146020001Y-99272500D01*
X146045000Y-92405926D02*
X145460000Y-92990926D01*
X146045000Y-91360000D02*
X146045000Y-92405926D01*
D35*
%TO.N,/USB_DP*%
X145250000Y-76225000D02*
X145250000Y-75354998D01*
X146249998Y-75354996D02*
X146249998Y-76224998D01*
X146200000Y-75304998D02*
X146249998Y-75354996D01*
X145250000Y-76225000D02*
X145274998Y-76249998D01*
X145274998Y-76249998D02*
X145274998Y-81625496D01*
X145250000Y-75354998D02*
X145300000Y-75304998D01*
X143445000Y-83455494D02*
X143445000Y-84360000D01*
X145300000Y-75304998D02*
X146200000Y-75304998D01*
X145274998Y-81625496D02*
X143445000Y-83455494D01*
D34*
%TO.N,/VBUS*%
X148399998Y-77039998D02*
X148760000Y-77400000D01*
X148760000Y-77400000D02*
X150780000Y-77400000D01*
X148399998Y-76225000D02*
X148399998Y-77039998D01*
X151651050Y-78271050D02*
X151651050Y-79425584D01*
X144380000Y-74790000D02*
X143600002Y-75569998D01*
X147610000Y-74790000D02*
X144380000Y-74790000D01*
X148399998Y-76225000D02*
X148399998Y-75579998D01*
X143600002Y-76225000D02*
X143600002Y-75569998D01*
X150780000Y-77400000D02*
X151651050Y-78271050D01*
X148399998Y-75579998D02*
X147610000Y-74790000D01*
%TD*%
M02*
