M48
; DRILL file {KiCad 8.0.0} date 2026-01-12T19:07:30+0530
; FORMAT={-:-/ absolute / inch / decimal}
; #@! TF.CreationDate,2026-01-12T19:07:30+05:30
; #@! TF.GenerationSoftware,Kicad,Pcbnew,8.0.0
; #@! TF.FileFunction,Plated,1,4,PTH
FMAT,2
INCH
; #@! TA.AperFunction,Plated,PTH,ViaDrill
T1C0.0079
; #@! TA.AperFunction,Plated,PTH,ViaDrill
T2C0.0118
; #@! TA.AperFunction,Plated,PTH,ComponentDrill
T3C0.0236
; #@! TA.AperFunction,Plated,PTH,ComponentDrill
T4C0.0394
%
G90
G05
T1
X5.6219Y-3.3213
X5.6219Y-3.5969
X5.6984Y-3.3217
X5.7555Y-3.8453
X5.8264Y-3.8594
T2
X5.3398Y-3.235
X5.3445Y-3.8059
X5.3587Y-3.8681
X5.361Y-3.0949
X5.485Y-4.026
X5.5571Y-3.8059
X5.6004Y-4.0291
X5.622Y-2.9992
X5.626Y-3.1409
X5.6811Y-3.4839
X5.8311Y-3.2094
X5.8504Y-3.9063
X5.8697Y-3.7291
X5.874Y-3.0004
X5.8815Y-3.4079
X5.9315Y-3.2094
X5.9516Y-3.6972
X5.9583Y-3.5035
X6.0142Y-3.315
X6.0469Y-3.722
X6.048Y-3.5992
X6.0488Y-3.5035
X6.0772Y-3.2563
X6.0811Y-3.3146
X6.0894Y-3.9035
X6.1224Y-3.4134
X6.135Y-3.0512
X6.1508Y-3.7217
T4
X5.6435Y-4.1675
X5.6435Y-4.2675
X5.7435Y-4.1675
X5.7435Y-4.2675
X5.8435Y-4.2675
X5.8435Y-4.1675
T3
G00X5.578Y-2.8278
M15
G01X5.578Y-2.7963
M16
G05
G00X5.578Y-2.999
M15
G01X5.578Y-2.9557
M16
G05
G00X5.9181Y-2.999
M15
G01X5.9181Y-2.9557
M16
G05
G00X5.9181Y-2.8278
M15
G01X5.9181Y-2.7963
M16
G05
M30
