%TF.GenerationSoftware,KiCad,Pcbnew,8.0.0*%
%TF.CreationDate,2026-01-20T23:42:32+05:30*%
%TF.ProjectId,PICKit_Clone_KiCAD,5049434b-6974-45f4-936c-6f6e655f4b69,1.0*%
%TF.SameCoordinates,Original*%
%TF.FileFunction,Copper,L2,Inr*%
%TF.FilePolarity,Positive*%
%FSLAX46Y46*%
G04 Gerber Fmt 4.6, Leading zero omitted, Abs format (unit mm)*
G04 Created by KiCad (PCBNEW 8.0.0) date 2026-01-20 23:42:32*
%MOMM*%
%LPD*%
G01*
G04 APERTURE LIST*
%TA.AperFunction,ComponentPad*%
%ADD10O,1.000000X1.800000*%
%TD*%
%TA.AperFunction,ComponentPad*%
%ADD11O,1.000000X2.100000*%
%TD*%
%TA.AperFunction,ComponentPad*%
%ADD12R,1.700000X1.700000*%
%TD*%
%TA.AperFunction,ComponentPad*%
%ADD13O,1.700000X1.700000*%
%TD*%
%TA.AperFunction,ViaPad*%
%ADD14C,0.600000*%
%TD*%
%TA.AperFunction,ViaPad*%
%ADD15C,0.400000*%
%TD*%
G04 APERTURE END LIST*
D10*
%TO.N,GND*%
%TO.C,J1*%
X150320001Y-71425000D03*
D11*
X150320000Y-75625000D03*
X141680000Y-75625000D03*
D10*
X141680000Y-71425000D03*
%TD*%
D12*
%TO.N,/PGD*%
%TO.C,J2*%
X148425000Y-105855000D03*
D13*
%TO.N,/PGC*%
X148424997Y-108395002D03*
%TO.N,/MCLR*%
X145884998Y-105854997D03*
%TO.N,/VIN*%
X145885000Y-108395000D03*
%TO.N,GND*%
X143345000Y-105855000D03*
%TO.N,/5V*%
X143345000Y-108395001D03*
%TD*%
D14*
%TO.N,GND*%
X137520000Y-89110000D03*
X137330000Y-91580000D03*
X140120000Y-94190000D03*
X152000000Y-111500000D03*
%TO.N,/5V*%
X149000000Y-111500000D03*
%TO.N,GND*%
X148600000Y-99220000D03*
X136170000Y-78610000D03*
X136677497Y-96709998D03*
X142250000Y-102340000D03*
X154670000Y-99150000D03*
X153590000Y-94540000D03*
X142800000Y-76180000D03*
X142900000Y-79780000D03*
X155830000Y-77500000D03*
X148110000Y-81520000D03*
X151340000Y-88989999D03*
X150660000Y-81520000D03*
X135630000Y-82170000D03*
X151170000Y-93910000D03*
D15*
X142794999Y-84359999D03*
D14*
X156230000Y-94530000D03*
X149200000Y-76210000D03*
X144300000Y-88490000D03*
%TO.N,/MCLR_SIG*%
X149090000Y-94720000D03*
%TO.N,/5V*%
X139320000Y-102260000D03*
X154360000Y-82710000D03*
X155510000Y-86700000D03*
X149390000Y-86560000D03*
D15*
X144740000Y-84370000D03*
D14*
X153620000Y-91420000D03*
X153640000Y-88990000D03*
D15*
X142795001Y-91360000D03*
D14*
X141150000Y-96670000D03*
%TO.N,/12V*%
X152760000Y-84200000D03*
X154460000Y-84190000D03*
D15*
%TO.N,Net-(Q2-G)*%
X146190000Y-97670000D03*
X147990000Y-98030000D03*
%TD*%
%TA.AperFunction,Conductor*%
%TO.N,GND*%
G36*
X151758429Y-70520185D02*
G01*
X151789889Y-70549175D01*
X157974000Y-78636089D01*
X157999087Y-78701299D01*
X157999500Y-78711412D01*
X157999500Y-109773899D01*
X157979815Y-109840938D01*
X157970759Y-109853282D01*
X157623667Y-110269793D01*
X156598495Y-111500000D01*
X155802759Y-112454883D01*
X155744720Y-112493782D01*
X155707500Y-112499500D01*
X136292498Y-112499500D01*
X136225459Y-112479815D01*
X136197239Y-112454884D01*
X136197238Y-112454883D01*
X135401491Y-111500000D01*
X148444750Y-111500000D01*
X148463670Y-111643708D01*
X148463671Y-111643712D01*
X148519137Y-111777622D01*
X148519138Y-111777624D01*
X148519139Y-111777625D01*
X148607379Y-111892621D01*
X148722375Y-111980861D01*
X148856291Y-112036330D01*
X148983280Y-112053048D01*
X148999999Y-112055250D01*
X149000000Y-112055250D01*
X149000001Y-112055250D01*
X149014977Y-112053278D01*
X149143709Y-112036330D01*
X149277625Y-111980861D01*
X149392621Y-111892621D01*
X149480861Y-111777625D01*
X149536330Y-111643709D01*
X149555250Y-111500000D01*
X149536330Y-111356291D01*
X149480861Y-111222375D01*
X149392621Y-111107379D01*
X149277625Y-111019139D01*
X149277624Y-111019138D01*
X149277622Y-111019137D01*
X149143712Y-110963671D01*
X149143710Y-110963670D01*
X149143709Y-110963670D01*
X149071854Y-110954210D01*
X149000001Y-110944750D01*
X148999999Y-110944750D01*
X148856291Y-110963670D01*
X148856287Y-110963671D01*
X148722377Y-111019137D01*
X148607379Y-111107379D01*
X148519137Y-111222377D01*
X148463671Y-111356287D01*
X148463670Y-111356291D01*
X148444750Y-111499999D01*
X148444750Y-111500000D01*
X135401491Y-111500000D01*
X135170133Y-111222375D01*
X134029241Y-109853325D01*
X134001445Y-109789222D01*
X134000500Y-109773941D01*
X134000500Y-107606286D01*
X135649500Y-107606286D01*
X135682268Y-107813179D01*
X135682754Y-107816243D01*
X135741080Y-107995752D01*
X135748444Y-108018414D01*
X135844951Y-108207820D01*
X135969890Y-108379786D01*
X136120213Y-108530109D01*
X136292179Y-108655048D01*
X136292181Y-108655049D01*
X136292184Y-108655051D01*
X136481588Y-108751557D01*
X136683757Y-108817246D01*
X136893713Y-108850500D01*
X136893714Y-108850500D01*
X137106286Y-108850500D01*
X137106287Y-108850500D01*
X137316243Y-108817246D01*
X137518412Y-108751557D01*
X137707816Y-108655051D01*
X137786225Y-108598084D01*
X137879786Y-108530109D01*
X137879788Y-108530106D01*
X137879792Y-108530104D01*
X138014895Y-108395001D01*
X142239785Y-108395001D01*
X142258602Y-108598083D01*
X142302270Y-108751555D01*
X142314418Y-108794251D01*
X142314418Y-108794252D01*
X142314422Y-108794261D01*
X142405327Y-108976822D01*
X142528237Y-109139582D01*
X142678958Y-109276981D01*
X142678960Y-109276983D01*
X142678962Y-109276984D01*
X142852363Y-109384349D01*
X143042544Y-109458025D01*
X143243024Y-109495501D01*
X143243026Y-109495501D01*
X143446974Y-109495501D01*
X143446976Y-109495501D01*
X143647456Y-109458025D01*
X143837637Y-109384349D01*
X144011041Y-109276982D01*
X144161764Y-109139580D01*
X144284673Y-108976822D01*
X144375582Y-108794251D01*
X144431397Y-108598084D01*
X144450215Y-108395001D01*
X144450215Y-108395000D01*
X144779785Y-108395000D01*
X144798602Y-108598082D01*
X144854417Y-108794247D01*
X144854418Y-108794250D01*
X144854418Y-108794251D01*
X144854422Y-108794260D01*
X144945327Y-108976821D01*
X145068237Y-109139581D01*
X145218958Y-109276980D01*
X145218960Y-109276982D01*
X145318141Y-109338392D01*
X145392363Y-109384348D01*
X145582544Y-109458024D01*
X145783024Y-109495500D01*
X145783026Y-109495500D01*
X145986974Y-109495500D01*
X145986976Y-109495500D01*
X146187456Y-109458024D01*
X146377637Y-109384348D01*
X146551041Y-109276981D01*
X146701764Y-109139579D01*
X146824673Y-108976821D01*
X146915582Y-108794250D01*
X146971397Y-108598083D01*
X146990215Y-108395002D01*
X147319782Y-108395002D01*
X147338599Y-108598084D01*
X147394414Y-108794249D01*
X147394419Y-108794262D01*
X147485324Y-108976823D01*
X147608234Y-109139583D01*
X147758955Y-109276982D01*
X147758957Y-109276984D01*
X147858138Y-109338394D01*
X147932360Y-109384350D01*
X148122541Y-109458026D01*
X148323021Y-109495502D01*
X148323023Y-109495502D01*
X148526971Y-109495502D01*
X148526973Y-109495502D01*
X148727453Y-109458026D01*
X148917634Y-109384350D01*
X149091038Y-109276983D01*
X149241761Y-109139581D01*
X149364670Y-108976823D01*
X149455579Y-108794252D01*
X149511394Y-108598085D01*
X149530212Y-108395002D01*
X149511394Y-108191919D01*
X149455579Y-107995752D01*
X149455573Y-107995740D01*
X149411269Y-107906766D01*
X149364670Y-107813181D01*
X149241761Y-107650423D01*
X149241759Y-107650420D01*
X149193346Y-107606286D01*
X153649500Y-107606286D01*
X153682268Y-107813179D01*
X153682754Y-107816243D01*
X153741080Y-107995752D01*
X153748444Y-108018414D01*
X153844951Y-108207820D01*
X153969890Y-108379786D01*
X154120213Y-108530109D01*
X154292179Y-108655048D01*
X154292181Y-108655049D01*
X154292184Y-108655051D01*
X154481588Y-108751557D01*
X154683757Y-108817246D01*
X154893713Y-108850500D01*
X154893714Y-108850500D01*
X155106286Y-108850500D01*
X155106287Y-108850500D01*
X155316243Y-108817246D01*
X155518412Y-108751557D01*
X155707816Y-108655051D01*
X155786225Y-108598084D01*
X155879786Y-108530109D01*
X155879788Y-108530106D01*
X155879792Y-108530104D01*
X156030104Y-108379792D01*
X156030106Y-108379788D01*
X156030109Y-108379786D01*
X156155048Y-108207820D01*
X156155047Y-108207820D01*
X156155051Y-108207816D01*
X156251557Y-108018412D01*
X156317246Y-107816243D01*
X156350500Y-107606287D01*
X156350500Y-107393713D01*
X156317246Y-107183757D01*
X156251557Y-106981588D01*
X156155051Y-106792184D01*
X156155049Y-106792181D01*
X156155048Y-106792179D01*
X156030109Y-106620213D01*
X155879786Y-106469890D01*
X155707820Y-106344951D01*
X155518414Y-106248444D01*
X155518413Y-106248443D01*
X155518412Y-106248443D01*
X155316243Y-106182754D01*
X155316241Y-106182753D01*
X155316240Y-106182753D01*
X155154957Y-106157208D01*
X155106287Y-106149500D01*
X154893713Y-106149500D01*
X154845042Y-106157208D01*
X154683760Y-106182753D01*
X154481585Y-106248444D01*
X154292179Y-106344951D01*
X154120213Y-106469890D01*
X153969890Y-106620213D01*
X153844951Y-106792179D01*
X153748444Y-106981585D01*
X153682753Y-107183760D01*
X153649500Y-107393713D01*
X153649500Y-107606286D01*
X149193346Y-107606286D01*
X149091038Y-107513021D01*
X149091036Y-107513019D01*
X148917639Y-107405657D01*
X148917636Y-107405655D01*
X148917634Y-107405654D01*
X148917633Y-107405653D01*
X148917632Y-107405653D01*
X148822543Y-107368816D01*
X148727453Y-107331978D01*
X148526973Y-107294502D01*
X148323021Y-107294502D01*
X148122541Y-107331978D01*
X148122538Y-107331978D01*
X148122538Y-107331979D01*
X147932361Y-107405653D01*
X147932354Y-107405657D01*
X147758957Y-107513019D01*
X147758955Y-107513021D01*
X147608234Y-107650420D01*
X147485324Y-107813180D01*
X147394419Y-107995741D01*
X147394414Y-107995754D01*
X147338599Y-108191919D01*
X147319782Y-108395001D01*
X147319782Y-108395002D01*
X146990215Y-108395002D01*
X146990215Y-108395000D01*
X146971397Y-108191917D01*
X146915582Y-107995750D01*
X146824673Y-107813179D01*
X146701764Y-107650421D01*
X146701762Y-107650418D01*
X146551041Y-107513019D01*
X146551039Y-107513017D01*
X146377642Y-107405655D01*
X146377639Y-107405653D01*
X146377637Y-107405652D01*
X146377636Y-107405651D01*
X146377635Y-107405651D01*
X146282546Y-107368814D01*
X146187456Y-107331976D01*
X145986976Y-107294500D01*
X145783024Y-107294500D01*
X145582544Y-107331976D01*
X145582541Y-107331976D01*
X145582541Y-107331977D01*
X145392364Y-107405651D01*
X145392357Y-107405655D01*
X145218960Y-107513017D01*
X145218958Y-107513019D01*
X145068237Y-107650418D01*
X144945327Y-107813178D01*
X144854422Y-107995739D01*
X144854417Y-107995752D01*
X144798602Y-108191917D01*
X144779785Y-108394999D01*
X144779785Y-108395000D01*
X144450215Y-108395000D01*
X144431397Y-108191918D01*
X144375582Y-107995751D01*
X144375576Y-107995739D01*
X144284673Y-107813181D01*
X144284673Y-107813180D01*
X144161764Y-107650422D01*
X144161762Y-107650419D01*
X144011041Y-107513020D01*
X144011039Y-107513018D01*
X143837642Y-107405656D01*
X143837639Y-107405654D01*
X143837637Y-107405653D01*
X143837636Y-107405652D01*
X143837635Y-107405652D01*
X143647461Y-107331979D01*
X143647456Y-107331977D01*
X143446976Y-107294501D01*
X143243024Y-107294501D01*
X143042544Y-107331977D01*
X143042541Y-107331977D01*
X143042541Y-107331978D01*
X142852364Y-107405652D01*
X142852357Y-107405656D01*
X142678960Y-107513018D01*
X142678958Y-107513020D01*
X142528237Y-107650419D01*
X142405327Y-107813179D01*
X142314422Y-107995740D01*
X142314417Y-107995753D01*
X142258602Y-108191918D01*
X142239785Y-108395000D01*
X142239785Y-108395001D01*
X138014895Y-108395001D01*
X138030104Y-108379792D01*
X138030106Y-108379788D01*
X138030109Y-108379786D01*
X138155048Y-108207820D01*
X138155047Y-108207820D01*
X138155051Y-108207816D01*
X138251557Y-108018412D01*
X138317246Y-107816243D01*
X138350500Y-107606287D01*
X138350500Y-107393713D01*
X138317246Y-107183757D01*
X138251557Y-106981588D01*
X138155051Y-106792184D01*
X138155049Y-106792181D01*
X138155048Y-106792179D01*
X138030109Y-106620213D01*
X137879786Y-106469890D01*
X137707820Y-106344951D01*
X137518414Y-106248444D01*
X137518413Y-106248443D01*
X137518412Y-106248443D01*
X137316243Y-106182754D01*
X137316241Y-106182753D01*
X137316240Y-106182753D01*
X137154957Y-106157208D01*
X137106287Y-106149500D01*
X136893713Y-106149500D01*
X136845042Y-106157208D01*
X136683760Y-106182753D01*
X136481585Y-106248444D01*
X136292179Y-106344951D01*
X136120213Y-106469890D01*
X135969890Y-106620213D01*
X135844951Y-106792179D01*
X135748444Y-106981585D01*
X135682753Y-107183760D01*
X135649500Y-107393713D01*
X135649500Y-107606286D01*
X134000500Y-107606286D01*
X134000500Y-105854997D01*
X144779783Y-105854997D01*
X144798600Y-106058079D01*
X144854415Y-106254244D01*
X144854420Y-106254257D01*
X144945325Y-106436818D01*
X145068235Y-106599578D01*
X145218956Y-106736977D01*
X145218958Y-106736979D01*
X145308110Y-106792179D01*
X145392361Y-106844345D01*
X145582542Y-106918021D01*
X145783022Y-106955497D01*
X145783024Y-106955497D01*
X145986972Y-106955497D01*
X145986974Y-106955497D01*
X146187454Y-106918021D01*
X146377635Y-106844345D01*
X146551039Y-106736978D01*
X146559047Y-106729678D01*
X147324500Y-106729678D01*
X147339032Y-106802735D01*
X147339033Y-106802739D01*
X147339034Y-106802740D01*
X147394399Y-106885601D01*
X147442917Y-106918019D01*
X147477260Y-106940966D01*
X147477264Y-106940967D01*
X147550321Y-106955499D01*
X147550324Y-106955500D01*
X147550326Y-106955500D01*
X149299676Y-106955500D01*
X149299677Y-106955499D01*
X149372740Y-106940966D01*
X149455601Y-106885601D01*
X149510966Y-106802740D01*
X149525500Y-106729674D01*
X149525500Y-104980326D01*
X149525500Y-104980323D01*
X149525499Y-104980321D01*
X149510967Y-104907264D01*
X149510966Y-104907260D01*
X149455601Y-104824399D01*
X149372740Y-104769034D01*
X149372739Y-104769033D01*
X149372735Y-104769032D01*
X149299677Y-104754500D01*
X149299674Y-104754500D01*
X147550326Y-104754500D01*
X147550323Y-104754500D01*
X147477264Y-104769032D01*
X147477260Y-104769033D01*
X147394399Y-104824399D01*
X147339033Y-104907260D01*
X147339032Y-104907264D01*
X147324500Y-104980321D01*
X147324500Y-106729678D01*
X146559047Y-106729678D01*
X146701762Y-106599576D01*
X146824671Y-106436818D01*
X146915580Y-106254247D01*
X146971395Y-106058080D01*
X146990213Y-105854997D01*
X146971395Y-105651914D01*
X146915580Y-105455747D01*
X146824671Y-105273176D01*
X146701762Y-105110418D01*
X146701760Y-105110415D01*
X146551039Y-104973016D01*
X146551037Y-104973014D01*
X146377640Y-104865652D01*
X146377633Y-104865648D01*
X146271156Y-104824399D01*
X146187454Y-104791973D01*
X145986974Y-104754497D01*
X145783022Y-104754497D01*
X145582542Y-104791973D01*
X145582539Y-104791973D01*
X145582539Y-104791974D01*
X145392362Y-104865648D01*
X145392355Y-104865652D01*
X145218958Y-104973014D01*
X145218956Y-104973016D01*
X145068235Y-105110415D01*
X144945325Y-105273175D01*
X144854420Y-105455736D01*
X144854415Y-105455749D01*
X144798600Y-105651914D01*
X144779783Y-105854996D01*
X144779783Y-105854997D01*
X134000500Y-105854997D01*
X134000500Y-102260000D01*
X138764750Y-102260000D01*
X138783670Y-102403708D01*
X138783671Y-102403712D01*
X138839137Y-102537622D01*
X138839138Y-102537624D01*
X138839139Y-102537625D01*
X138927379Y-102652621D01*
X139042375Y-102740861D01*
X139176291Y-102796330D01*
X139303280Y-102813048D01*
X139319999Y-102815250D01*
X139320000Y-102815250D01*
X139320001Y-102815250D01*
X139334977Y-102813278D01*
X139463709Y-102796330D01*
X139597625Y-102740861D01*
X139712621Y-102652621D01*
X139800861Y-102537625D01*
X139856330Y-102403709D01*
X139875250Y-102260000D01*
X139856330Y-102116291D01*
X139800861Y-101982375D01*
X139712621Y-101867379D01*
X139597625Y-101779139D01*
X139597624Y-101779138D01*
X139597622Y-101779137D01*
X139463712Y-101723671D01*
X139463710Y-101723670D01*
X139463709Y-101723670D01*
X139391854Y-101714210D01*
X139320001Y-101704750D01*
X139319999Y-101704750D01*
X139176291Y-101723670D01*
X139176287Y-101723671D01*
X139042377Y-101779137D01*
X138927379Y-101867379D01*
X138839137Y-101982377D01*
X138783671Y-102116287D01*
X138783670Y-102116291D01*
X138764750Y-102259999D01*
X138764750Y-102260000D01*
X134000500Y-102260000D01*
X134000500Y-97670000D01*
X145734867Y-97670000D01*
X145753302Y-97798225D01*
X145800592Y-97901774D01*
X145807118Y-97916063D01*
X145891951Y-98013967D01*
X146000931Y-98084004D01*
X146125225Y-98120499D01*
X146125227Y-98120500D01*
X146125228Y-98120500D01*
X146254773Y-98120500D01*
X146254773Y-98120499D01*
X146379069Y-98084004D01*
X146463101Y-98030000D01*
X147534867Y-98030000D01*
X147553302Y-98158225D01*
X147607117Y-98276061D01*
X147607118Y-98276063D01*
X147691951Y-98373967D01*
X147800931Y-98444004D01*
X147925225Y-98480499D01*
X147925227Y-98480500D01*
X147925228Y-98480500D01*
X148054773Y-98480500D01*
X148054773Y-98480499D01*
X148179069Y-98444004D01*
X148288049Y-98373967D01*
X148372882Y-98276063D01*
X148426697Y-98158226D01*
X148445133Y-98030000D01*
X148426697Y-97901774D01*
X148372882Y-97783937D01*
X148288049Y-97686033D01*
X148179069Y-97615996D01*
X148179065Y-97615994D01*
X148179064Y-97615994D01*
X148054774Y-97579500D01*
X148054772Y-97579500D01*
X147925228Y-97579500D01*
X147925226Y-97579500D01*
X147800935Y-97615994D01*
X147800932Y-97615995D01*
X147800931Y-97615996D01*
X147749677Y-97648934D01*
X147691950Y-97686033D01*
X147607118Y-97783937D01*
X147607117Y-97783938D01*
X147553302Y-97901774D01*
X147534867Y-98030000D01*
X146463101Y-98030000D01*
X146488049Y-98013967D01*
X146572882Y-97916063D01*
X146626697Y-97798226D01*
X146645133Y-97670000D01*
X146626697Y-97541774D01*
X146572882Y-97423937D01*
X146488049Y-97326033D01*
X146379069Y-97255996D01*
X146379065Y-97255994D01*
X146379064Y-97255994D01*
X146254774Y-97219500D01*
X146254772Y-97219500D01*
X146125228Y-97219500D01*
X146125226Y-97219500D01*
X146000935Y-97255994D01*
X146000932Y-97255995D01*
X146000931Y-97255996D01*
X145949677Y-97288934D01*
X145891950Y-97326033D01*
X145807118Y-97423937D01*
X145807117Y-97423938D01*
X145753302Y-97541774D01*
X145734867Y-97670000D01*
X134000500Y-97670000D01*
X134000500Y-96670000D01*
X140594750Y-96670000D01*
X140613670Y-96813708D01*
X140613671Y-96813712D01*
X140669137Y-96947622D01*
X140669138Y-96947624D01*
X140669139Y-96947625D01*
X140757379Y-97062621D01*
X140872375Y-97150861D01*
X141006291Y-97206330D01*
X141133280Y-97223048D01*
X141149999Y-97225250D01*
X141150000Y-97225250D01*
X141150001Y-97225250D01*
X141164977Y-97223278D01*
X141293709Y-97206330D01*
X141427625Y-97150861D01*
X141542621Y-97062621D01*
X141630861Y-96947625D01*
X141686330Y-96813709D01*
X141705250Y-96670000D01*
X141686330Y-96526291D01*
X141630861Y-96392375D01*
X141542621Y-96277379D01*
X141427625Y-96189139D01*
X141427624Y-96189138D01*
X141427622Y-96189137D01*
X141293712Y-96133671D01*
X141293710Y-96133670D01*
X141293709Y-96133670D01*
X141221854Y-96124210D01*
X141150001Y-96114750D01*
X141149999Y-96114750D01*
X141006291Y-96133670D01*
X141006287Y-96133671D01*
X140872377Y-96189137D01*
X140757379Y-96277379D01*
X140669137Y-96392377D01*
X140613671Y-96526287D01*
X140613670Y-96526291D01*
X140594750Y-96669999D01*
X140594750Y-96670000D01*
X134000500Y-96670000D01*
X134000500Y-94720000D01*
X148534750Y-94720000D01*
X148553670Y-94863708D01*
X148553671Y-94863712D01*
X148609137Y-94997622D01*
X148609138Y-94997624D01*
X148609139Y-94997625D01*
X148697379Y-95112621D01*
X148812375Y-95200861D01*
X148946291Y-95256330D01*
X149073280Y-95273048D01*
X149089999Y-95275250D01*
X149090000Y-95275250D01*
X149090001Y-95275250D01*
X149104977Y-95273278D01*
X149233709Y-95256330D01*
X149367625Y-95200861D01*
X149482621Y-95112621D01*
X149570861Y-94997625D01*
X149626330Y-94863709D01*
X149645250Y-94720000D01*
X149626330Y-94576291D01*
X149570861Y-94442375D01*
X149482621Y-94327379D01*
X149367625Y-94239139D01*
X149367624Y-94239138D01*
X149367622Y-94239137D01*
X149233712Y-94183671D01*
X149233710Y-94183670D01*
X149233709Y-94183670D01*
X149161854Y-94174210D01*
X149090001Y-94164750D01*
X149089999Y-94164750D01*
X148946291Y-94183670D01*
X148946287Y-94183671D01*
X148812377Y-94239137D01*
X148697379Y-94327379D01*
X148609137Y-94442377D01*
X148553671Y-94576287D01*
X148553670Y-94576291D01*
X148534750Y-94719999D01*
X148534750Y-94720000D01*
X134000500Y-94720000D01*
X134000500Y-91360000D01*
X142339868Y-91360000D01*
X142358303Y-91488225D01*
X142412118Y-91606061D01*
X142412119Y-91606063D01*
X142496952Y-91703967D01*
X142605932Y-91774004D01*
X142730226Y-91810499D01*
X142730228Y-91810500D01*
X142730229Y-91810500D01*
X142859774Y-91810500D01*
X142859774Y-91810499D01*
X142984070Y-91774004D01*
X143093050Y-91703967D01*
X143177883Y-91606063D01*
X143231698Y-91488226D01*
X143241507Y-91420000D01*
X153064750Y-91420000D01*
X153083670Y-91563708D01*
X153083671Y-91563712D01*
X153139137Y-91697622D01*
X153139138Y-91697624D01*
X153139139Y-91697625D01*
X153227379Y-91812621D01*
X153342375Y-91900861D01*
X153476291Y-91956330D01*
X153603280Y-91973048D01*
X153619999Y-91975250D01*
X153620000Y-91975250D01*
X153620001Y-91975250D01*
X153634977Y-91973278D01*
X153763709Y-91956330D01*
X153897625Y-91900861D01*
X154012621Y-91812621D01*
X154100861Y-91697625D01*
X154156330Y-91563709D01*
X154175250Y-91420000D01*
X154156330Y-91276291D01*
X154100861Y-91142375D01*
X154012621Y-91027379D01*
X153897625Y-90939139D01*
X153897624Y-90939138D01*
X153897622Y-90939137D01*
X153763712Y-90883671D01*
X153763710Y-90883670D01*
X153763709Y-90883670D01*
X153691854Y-90874210D01*
X153620001Y-90864750D01*
X153619999Y-90864750D01*
X153476291Y-90883670D01*
X153476287Y-90883671D01*
X153342377Y-90939137D01*
X153227379Y-91027379D01*
X153139137Y-91142377D01*
X153083671Y-91276287D01*
X153083670Y-91276291D01*
X153064750Y-91419999D01*
X153064750Y-91420000D01*
X143241507Y-91420000D01*
X143250134Y-91360000D01*
X143231698Y-91231774D01*
X143177883Y-91113937D01*
X143093050Y-91016033D01*
X142984070Y-90945996D01*
X142984066Y-90945994D01*
X142984065Y-90945994D01*
X142859775Y-90909500D01*
X142859773Y-90909500D01*
X142730229Y-90909500D01*
X142730227Y-90909500D01*
X142605936Y-90945994D01*
X142605933Y-90945995D01*
X142605932Y-90945996D01*
X142554678Y-90978934D01*
X142496951Y-91016033D01*
X142412119Y-91113937D01*
X142412118Y-91113938D01*
X142358303Y-91231774D01*
X142339868Y-91360000D01*
X134000500Y-91360000D01*
X134000500Y-88990000D01*
X153084750Y-88990000D01*
X153103670Y-89133708D01*
X153103671Y-89133712D01*
X153159137Y-89267622D01*
X153159138Y-89267624D01*
X153159139Y-89267625D01*
X153247379Y-89382621D01*
X153362375Y-89470861D01*
X153496291Y-89526330D01*
X153623280Y-89543048D01*
X153639999Y-89545250D01*
X153640000Y-89545250D01*
X153640001Y-89545250D01*
X153654977Y-89543278D01*
X153783709Y-89526330D01*
X153917625Y-89470861D01*
X154032621Y-89382621D01*
X154120861Y-89267625D01*
X154176330Y-89133709D01*
X154195250Y-88990000D01*
X154176330Y-88846291D01*
X154120861Y-88712375D01*
X154032621Y-88597379D01*
X153917625Y-88509139D01*
X153917624Y-88509138D01*
X153917622Y-88509137D01*
X153783712Y-88453671D01*
X153783710Y-88453670D01*
X153783709Y-88453670D01*
X153711854Y-88444210D01*
X153640001Y-88434750D01*
X153639999Y-88434750D01*
X153496291Y-88453670D01*
X153496287Y-88453671D01*
X153362377Y-88509137D01*
X153247379Y-88597379D01*
X153159137Y-88712377D01*
X153103671Y-88846287D01*
X153103670Y-88846291D01*
X153084750Y-88989999D01*
X153084750Y-88990000D01*
X134000500Y-88990000D01*
X134000500Y-86560000D01*
X148834750Y-86560000D01*
X148853670Y-86703708D01*
X148853671Y-86703712D01*
X148909137Y-86837622D01*
X148909138Y-86837624D01*
X148909139Y-86837625D01*
X148997379Y-86952621D01*
X149112375Y-87040861D01*
X149246291Y-87096330D01*
X149373280Y-87113048D01*
X149389999Y-87115250D01*
X149390000Y-87115250D01*
X149390001Y-87115250D01*
X149404977Y-87113278D01*
X149533709Y-87096330D01*
X149667625Y-87040861D01*
X149782621Y-86952621D01*
X149870861Y-86837625D01*
X149926330Y-86703709D01*
X149926818Y-86700000D01*
X154954750Y-86700000D01*
X154973670Y-86843708D01*
X154973671Y-86843712D01*
X155029137Y-86977622D01*
X155029138Y-86977624D01*
X155029139Y-86977625D01*
X155117379Y-87092621D01*
X155232375Y-87180861D01*
X155366291Y-87236330D01*
X155493280Y-87253048D01*
X155509999Y-87255250D01*
X155510000Y-87255250D01*
X155510001Y-87255250D01*
X155524977Y-87253278D01*
X155653709Y-87236330D01*
X155787625Y-87180861D01*
X155902621Y-87092621D01*
X155990861Y-86977625D01*
X156046330Y-86843709D01*
X156065250Y-86700000D01*
X156046330Y-86556291D01*
X155990861Y-86422375D01*
X155902621Y-86307379D01*
X155787625Y-86219139D01*
X155787624Y-86219138D01*
X155787622Y-86219137D01*
X155653712Y-86163671D01*
X155653710Y-86163670D01*
X155653709Y-86163670D01*
X155581854Y-86154210D01*
X155510001Y-86144750D01*
X155509999Y-86144750D01*
X155366291Y-86163670D01*
X155366287Y-86163671D01*
X155232377Y-86219137D01*
X155117379Y-86307379D01*
X155029137Y-86422377D01*
X154973671Y-86556287D01*
X154973670Y-86556291D01*
X154954750Y-86699999D01*
X154954750Y-86700000D01*
X149926818Y-86700000D01*
X149945250Y-86560000D01*
X149926330Y-86416291D01*
X149870861Y-86282375D01*
X149782621Y-86167379D01*
X149667625Y-86079139D01*
X149667624Y-86079138D01*
X149667622Y-86079137D01*
X149533712Y-86023671D01*
X149533710Y-86023670D01*
X149533709Y-86023670D01*
X149461854Y-86014210D01*
X149390001Y-86004750D01*
X149389999Y-86004750D01*
X149246291Y-86023670D01*
X149246287Y-86023671D01*
X149112377Y-86079137D01*
X148997379Y-86167379D01*
X148909137Y-86282377D01*
X148853671Y-86416287D01*
X148853670Y-86416291D01*
X148834750Y-86559999D01*
X148834750Y-86560000D01*
X134000500Y-86560000D01*
X134000500Y-84370000D01*
X144284867Y-84370000D01*
X144303302Y-84498225D01*
X144341845Y-84582620D01*
X144357118Y-84616063D01*
X144441951Y-84713967D01*
X144550931Y-84784004D01*
X144675225Y-84820499D01*
X144675227Y-84820500D01*
X144675228Y-84820500D01*
X144804773Y-84820500D01*
X144804773Y-84820499D01*
X144929069Y-84784004D01*
X145038049Y-84713967D01*
X145122882Y-84616063D01*
X145176697Y-84498226D01*
X145195133Y-84370000D01*
X145176697Y-84241774D01*
X145157619Y-84200000D01*
X152204750Y-84200000D01*
X152222353Y-84333709D01*
X152223670Y-84343708D01*
X152223671Y-84343712D01*
X152279137Y-84477622D01*
X152279138Y-84477624D01*
X152279139Y-84477625D01*
X152367379Y-84592621D01*
X152482375Y-84680861D01*
X152616291Y-84736330D01*
X152743280Y-84753048D01*
X152759999Y-84755250D01*
X152760000Y-84755250D01*
X152760001Y-84755250D01*
X152774977Y-84753278D01*
X152903709Y-84736330D01*
X153037625Y-84680861D01*
X153152621Y-84592621D01*
X153240861Y-84477625D01*
X153296330Y-84343709D01*
X153315250Y-84200000D01*
X153313933Y-84190000D01*
X153904750Y-84190000D01*
X153923670Y-84333708D01*
X153923671Y-84333712D01*
X153979137Y-84467622D01*
X153979138Y-84467624D01*
X153979139Y-84467625D01*
X154067379Y-84582621D01*
X154182375Y-84670861D01*
X154316291Y-84726330D01*
X154443280Y-84743048D01*
X154459999Y-84745250D01*
X154460000Y-84745250D01*
X154460001Y-84745250D01*
X154474977Y-84743278D01*
X154603709Y-84726330D01*
X154737625Y-84670861D01*
X154852621Y-84582621D01*
X154940861Y-84467625D01*
X154996330Y-84333709D01*
X155015250Y-84190000D01*
X154996330Y-84046291D01*
X154940861Y-83912375D01*
X154852621Y-83797379D01*
X154737625Y-83709139D01*
X154737624Y-83709138D01*
X154737622Y-83709137D01*
X154603712Y-83653671D01*
X154603710Y-83653670D01*
X154603709Y-83653670D01*
X154531854Y-83644210D01*
X154460001Y-83634750D01*
X154459999Y-83634750D01*
X154316291Y-83653670D01*
X154316287Y-83653671D01*
X154182377Y-83709137D01*
X154067379Y-83797379D01*
X153979137Y-83912377D01*
X153923671Y-84046287D01*
X153923670Y-84046291D01*
X153904750Y-84189999D01*
X153904750Y-84190000D01*
X153313933Y-84190000D01*
X153305236Y-84123938D01*
X153296330Y-84056291D01*
X153240861Y-83922375D01*
X153152621Y-83807379D01*
X153037625Y-83719139D01*
X153037624Y-83719138D01*
X153037622Y-83719137D01*
X152903712Y-83663671D01*
X152903710Y-83663670D01*
X152903709Y-83663670D01*
X152831854Y-83654210D01*
X152760001Y-83644750D01*
X152759999Y-83644750D01*
X152616291Y-83663670D01*
X152616287Y-83663671D01*
X152482377Y-83719137D01*
X152367379Y-83807379D01*
X152279137Y-83922377D01*
X152223671Y-84056287D01*
X152223670Y-84056291D01*
X152206067Y-84190000D01*
X152204750Y-84200000D01*
X145157619Y-84200000D01*
X145122882Y-84123937D01*
X145038049Y-84026033D01*
X144929069Y-83955996D01*
X144929065Y-83955994D01*
X144929064Y-83955994D01*
X144804774Y-83919500D01*
X144804772Y-83919500D01*
X144675228Y-83919500D01*
X144675226Y-83919500D01*
X144550935Y-83955994D01*
X144550932Y-83955995D01*
X144550931Y-83955996D01*
X144499677Y-83988934D01*
X144441950Y-84026033D01*
X144357118Y-84123937D01*
X144357117Y-84123938D01*
X144303302Y-84241774D01*
X144284867Y-84370000D01*
X134000500Y-84370000D01*
X134000500Y-82710000D01*
X153804750Y-82710000D01*
X153823670Y-82853708D01*
X153823671Y-82853712D01*
X153879137Y-82987622D01*
X153879138Y-82987624D01*
X153879139Y-82987625D01*
X153967379Y-83102621D01*
X154082375Y-83190861D01*
X154216291Y-83246330D01*
X154343280Y-83263048D01*
X154359999Y-83265250D01*
X154360000Y-83265250D01*
X154360001Y-83265250D01*
X154374977Y-83263278D01*
X154503709Y-83246330D01*
X154637625Y-83190861D01*
X154752621Y-83102621D01*
X154840861Y-82987625D01*
X154896330Y-82853709D01*
X154915250Y-82710000D01*
X154896330Y-82566291D01*
X154840861Y-82432375D01*
X154752621Y-82317379D01*
X154637625Y-82229139D01*
X154637624Y-82229138D01*
X154637622Y-82229137D01*
X154503712Y-82173671D01*
X154503710Y-82173670D01*
X154503709Y-82173670D01*
X154431854Y-82164210D01*
X154360001Y-82154750D01*
X154359999Y-82154750D01*
X154216291Y-82173670D01*
X154216287Y-82173671D01*
X154082377Y-82229137D01*
X153967379Y-82317379D01*
X153879137Y-82432377D01*
X153823671Y-82566287D01*
X153823670Y-82566291D01*
X153804750Y-82709999D01*
X153804750Y-82710000D01*
X134000500Y-82710000D01*
X134000500Y-78711413D01*
X134020185Y-78644374D01*
X134025992Y-78636099D01*
X136319966Y-75636287D01*
X137209500Y-75636287D01*
X137242754Y-75846243D01*
X137298695Y-76018412D01*
X137308444Y-76048414D01*
X137404951Y-76237820D01*
X137529890Y-76409786D01*
X137680213Y-76560109D01*
X137852179Y-76685048D01*
X137852181Y-76685049D01*
X137852184Y-76685051D01*
X138041588Y-76781557D01*
X138243757Y-76847246D01*
X138453713Y-76880500D01*
X138453714Y-76880500D01*
X138666286Y-76880500D01*
X138666287Y-76880500D01*
X138876243Y-76847246D01*
X139078412Y-76781557D01*
X139267816Y-76685051D01*
X139309112Y-76655048D01*
X139439786Y-76560109D01*
X139439788Y-76560106D01*
X139439792Y-76560104D01*
X139590104Y-76409792D01*
X139590106Y-76409788D01*
X139590109Y-76409786D01*
X139715048Y-76237820D01*
X139715047Y-76237820D01*
X139715051Y-76237816D01*
X139811557Y-76048412D01*
X139877246Y-75846243D01*
X139910500Y-75636287D01*
X139910500Y-75423713D01*
X139877246Y-75213757D01*
X139866526Y-75180764D01*
X142534500Y-75180764D01*
X142534501Y-75180766D01*
X142573719Y-75327134D01*
X142611602Y-75392748D01*
X142649485Y-75458363D01*
X142756635Y-75565513D01*
X142887865Y-75641279D01*
X143034234Y-75680498D01*
X143034236Y-75680498D01*
X143185764Y-75680498D01*
X143185766Y-75680498D01*
X143332135Y-75641279D01*
X143463365Y-75565513D01*
X143570515Y-75458363D01*
X143646281Y-75327133D01*
X143685499Y-75180766D01*
X148314500Y-75180766D01*
X148315302Y-75183760D01*
X148353719Y-75327136D01*
X148391602Y-75392750D01*
X148429485Y-75458365D01*
X148536635Y-75565515D01*
X148650281Y-75631129D01*
X148667861Y-75641279D01*
X148667865Y-75641281D01*
X148814234Y-75680500D01*
X148814236Y-75680500D01*
X148965764Y-75680500D01*
X148965766Y-75680500D01*
X149112135Y-75641281D01*
X149172746Y-75606287D01*
X152149500Y-75606287D01*
X152182754Y-75816243D01*
X152192500Y-75846239D01*
X152248444Y-76018414D01*
X152344951Y-76207820D01*
X152469890Y-76379786D01*
X152620213Y-76530109D01*
X152792179Y-76655048D01*
X152792181Y-76655049D01*
X152792184Y-76655051D01*
X152981588Y-76751557D01*
X153183757Y-76817246D01*
X153393713Y-76850500D01*
X153393714Y-76850500D01*
X153606286Y-76850500D01*
X153606287Y-76850500D01*
X153816243Y-76817246D01*
X154018412Y-76751557D01*
X154207816Y-76655051D01*
X154229789Y-76639086D01*
X154379786Y-76530109D01*
X154379788Y-76530106D01*
X154379792Y-76530104D01*
X154530104Y-76379792D01*
X154530106Y-76379788D01*
X154530109Y-76379786D01*
X154655048Y-76207820D01*
X154655047Y-76207820D01*
X154655051Y-76207816D01*
X154751557Y-76018412D01*
X154817246Y-75816243D01*
X154850500Y-75606287D01*
X154850500Y-75393713D01*
X154817246Y-75183757D01*
X154751557Y-74981588D01*
X154655051Y-74792184D01*
X154655049Y-74792181D01*
X154655048Y-74792179D01*
X154530109Y-74620213D01*
X154379786Y-74469890D01*
X154207820Y-74344951D01*
X154018414Y-74248444D01*
X154018413Y-74248443D01*
X154018412Y-74248443D01*
X153816243Y-74182754D01*
X153816241Y-74182753D01*
X153816240Y-74182753D01*
X153654957Y-74157208D01*
X153606287Y-74149500D01*
X153393713Y-74149500D01*
X153345042Y-74157208D01*
X153183760Y-74182753D01*
X152981585Y-74248444D01*
X152792179Y-74344951D01*
X152620213Y-74469890D01*
X152469890Y-74620213D01*
X152344951Y-74792179D01*
X152248444Y-74981585D01*
X152182753Y-75183760D01*
X152178002Y-75213757D01*
X152149500Y-75393713D01*
X152149500Y-75606287D01*
X149172746Y-75606287D01*
X149243365Y-75565515D01*
X149350515Y-75458365D01*
X149426281Y-75327135D01*
X149465500Y-75180766D01*
X149465500Y-75029234D01*
X149426281Y-74882865D01*
X149350515Y-74751635D01*
X149243365Y-74644485D01*
X149177750Y-74606602D01*
X149112136Y-74568719D01*
X149038950Y-74549109D01*
X148965766Y-74529500D01*
X148814234Y-74529500D01*
X148667863Y-74568719D01*
X148536635Y-74644485D01*
X148536632Y-74644487D01*
X148429487Y-74751632D01*
X148429485Y-74751635D01*
X148353719Y-74882863D01*
X148319229Y-75011585D01*
X148314500Y-75029234D01*
X148314500Y-75180766D01*
X143685499Y-75180766D01*
X143685500Y-75180764D01*
X143685500Y-75029232D01*
X143646281Y-74882863D01*
X143570515Y-74751633D01*
X143463365Y-74644483D01*
X143397750Y-74606600D01*
X143332136Y-74568717D01*
X143258950Y-74549107D01*
X143185766Y-74529498D01*
X143034234Y-74529498D01*
X142887863Y-74568717D01*
X142756635Y-74644483D01*
X142756632Y-74644485D01*
X142649487Y-74751630D01*
X142649485Y-74751633D01*
X142573719Y-74882861D01*
X142573718Y-74882865D01*
X142534500Y-75029232D01*
X142534500Y-75180764D01*
X139866526Y-75180764D01*
X139811557Y-75011588D01*
X139715051Y-74822184D01*
X139715049Y-74822181D01*
X139715048Y-74822179D01*
X139590109Y-74650213D01*
X139439786Y-74499890D01*
X139267820Y-74374951D01*
X139078414Y-74278444D01*
X139078413Y-74278443D01*
X139078412Y-74278443D01*
X138876243Y-74212754D01*
X138876241Y-74212753D01*
X138876240Y-74212753D01*
X138714957Y-74187208D01*
X138666287Y-74179500D01*
X138453713Y-74179500D01*
X138405042Y-74187208D01*
X138243760Y-74212753D01*
X138041585Y-74278444D01*
X137852179Y-74374951D01*
X137680213Y-74499890D01*
X137529890Y-74650213D01*
X137404951Y-74822179D01*
X137308444Y-75011585D01*
X137242753Y-75213760D01*
X137209500Y-75423713D01*
X137209500Y-75636287D01*
X136319966Y-75636287D01*
X140210110Y-70549175D01*
X140266469Y-70507880D01*
X140308610Y-70500500D01*
X151691390Y-70500500D01*
X151758429Y-70520185D01*
G37*
%TD.AperFunction*%
%TD*%
M02*
